<?xml version="1.0" encoding="utf-8"?>
<!-- Generator: Adobe Illustrator 23.0.1, SVG Export Plug-In . SVG Version: 6.00 Build 0)  -->
<svg version="1.1" id="Layer_1" xmlns="http://www.w3.org/2000/svg" xmlns:xlink="http://www.w3.org/1999/xlink" x="0px" y="0px"
	 viewBox="0 0 786.0967 559.7343" style="enable-background:new 0 0 786.0967 559.7343;" xml:space="preserve">
<style type="text/css">
	.st0{enable-background:new    ;}
</style>
<g>
	<g class="st0">
		<path d="M524.5986,301.6885c0,13.7627-2.1133,26.3076-6.3271,37.6289c-4.2197,11.3223-10.2139,21.0312-17.9824,29.1377
			c-7.7734,8.1016-17.0977,14.3711-27.9717,18.8145c-10.8799,4.4385-22.8682,6.6602-35.9639,6.6602
			c-20.4277,0-37.9102-5.0527-52.4478-15.1514c-14.543-10.1045-24.0332-23.9238-28.4717-41.459h29.6372
			c2.8823,6.4365,6.5454,11.5977,10.9893,15.4844c4.4385,3.8818,9.1572,6.8271,14.1523,8.8252s9.8232,3.3301,14.4854,3.9961
			s8.5439,0.999,11.6553,0.999c10.874,0,20.1465-1.9463,27.8057-5.8281c7.6582-3.8867,13.8711-8.8818,18.6475-14.9844
			c4.7715-6.1084,8.2109-13.0449,10.3232-20.8125c2.1074-7.7734,3.1631-15.5371,3.1631-23.3105V283.707
			c-6.2178,8.4395-14.376,15.5986-24.4756,21.4785c-10.1045,5.8789-21.3691,8.8242-33.7988,8.8242
			c-12.4355,0-23.8672-2.3311-34.2988-6.9932c-10.4375-4.6621-19.481-11.0986-27.1401-19.3135
			c-7.6587-8.2104-13.6528-17.7583-17.9819-28.6382c-4.3291-10.874-6.4937-22.5293-6.4937-34.9648
			c0-12.4302,2.1646-24.1426,6.4937-35.1313c4.3291-10.9893,10.3232-20.5317,17.9819-28.6382
			c7.6592-8.1011,16.7026-14.5376,27.1401-19.314c10.4316-4.771,21.8633-7.1597,34.2988-7.1597
			c12.6533,0,24.1943,3.1118,34.6318,9.3242c10.4316,6.2178,18.6475,13.6528,24.6416,22.311V138.186h27.3066V301.6885z
			 M496.293,224.4331c0-8.8765-1.5557-17.2017-4.6621-24.9751c-3.1113-7.7681-7.3252-14.5947-12.6533-20.4795
			c-5.3281-5.8794-11.4893-10.4893-18.4814-13.8193c-6.9932-3.3301-14.4863-4.9951-22.4775-4.9951
			c-7.9922,0-15.542,1.665-22.6445,4.9951c-7.1074,3.3301-13.21,7.9399-18.3145,13.8193
			c-5.1099,5.8848-9.1577,12.7114-12.1548,20.4795c-2.9971,7.7734-4.4956,16.0986-4.4956,24.9751
			c0,8.6582,1.4985,16.874,4.4956,24.6416c2.9971,7.7734,7.0449,14.543,12.1548,20.3135
			c5.1045,5.7754,11.207,10.3232,18.3145,13.6528c7.1025,3.3301,14.6523,4.9951,22.6445,4.9951
			c7.9912,0,15.4844-1.665,22.4775-4.9951c6.9922-3.3296,13.1533-7.8774,18.4814-13.6528c5.3281-5.7705,9.542-12.54,12.6533-20.3135
			C494.7373,241.3071,496.293,233.0913,496.293,224.4331z"/>
	</g>
	<g class="st0">
		<path d="M630.8242,133.8569c12.2061,0,23.585,2.3887,34.1318,7.1597c10.542,4.7764,19.6475,11.27,27.3066,19.4805
			c7.6582,8.2158,13.7051,17.8154,18.1484,28.8047c4.4385,10.9888,6.6602,22.7012,6.6602,35.1313
			c0,12.4355-2.2217,24.0332-6.6602,34.7988c-4.4434,10.7705-10.4902,20.2031-18.1484,28.3042
			c-7.6592,8.1064-16.7646,14.4854-27.3066,19.1475c-10.5469,4.6621-21.9258,6.9932-34.1318,6.9932
			c-12.2119,0-23.5342-2.3311-33.9658-6.9932c-10.4375-4.6621-19.5381-11.041-27.3066-19.1475
			c-7.7734-8.1011-13.876-17.5337-18.3145-28.3042c-4.4434-10.7656-6.6602-22.3633-6.6602-34.7988
			c0-12.4302,2.2168-24.1426,6.6602-35.1313c4.4385-10.9893,10.541-20.5889,18.3145-28.8047
			c7.7686-8.2104,16.8691-14.7041,27.3066-19.4805C607.29,136.2456,618.6123,133.8569,630.8242,133.8569z M630.6572,287.7031
			c8.0127,0,15.5264-1.665,22.54-4.9951c7.0137-3.3296,13.1904-7.8257,18.5332-13.4868c5.3438-5.6602,9.5166-12.373,12.5244-20.1465
			c3.0068-7.7676,4.5107-15.9834,4.5107-24.6416c0-8.8765-1.5039-17.2588-4.5107-25.1416
			c-3.0078-7.8774-7.1807-14.7041-12.5244-20.4795c-5.3428-5.77-11.5195-10.375-18.5332-13.8193
			c-7.0137-3.4395-14.5273-5.1616-22.54-5.1616c-8.0176,0-15.5312,1.7222-22.5449,5.1616
			c-7.0137,3.4443-13.1328,8.0493-18.3672,13.8193c-5.2344,5.7754-9.3496,12.6021-12.3574,20.4795
			c-3.0068,7.8828-4.5059,16.2651-4.5059,25.1416c0,8.6582,1.499,16.874,4.5059,24.6416
			c3.0078,7.7734,7.123,14.4863,12.3574,20.1465c5.2344,5.6611,11.3535,10.1572,18.3672,13.4868
			C615.126,286.0381,622.6396,287.7031,630.6572,287.7031z"/>
	</g>
	<path d="M97.395,352.5151c-4.5859,0-9.1826-1.1113-13.374-3.3545c-9.2168-4.9326-14.9707-14.5381-14.9707-24.9922V210.7827
		c0-15.6553,12.6914-28.3467,28.3467-28.3467s28.3467,12.6914,28.3467,28.3467v60.4199l90.6299-60.4199L81.6733,120.9829
		c-13.0264-8.6846-16.5459-26.2842-7.8623-39.3096c8.6846-13.0264,26.2832-16.5459,39.3096-7.8623l170.0791,113.3857
		c7.8857,5.2578,12.623,14.1084,12.623,23.5859s-4.7373,18.3281-12.623,23.5859L113.1206,347.7544
		C108.3774,350.9165,102.894,352.5151,97.395,352.5151z"/>
	<g class="st0">
		<path d="M721.873,97.5693c0,2-0.3799,3.8799-1.1396,5.6396c-0.7598,1.7607-1.7939,3.2939-3.0996,4.6006
			c-1.3076,1.3066-2.8408,2.3398-4.6006,3.0996s-3.6396,1.1406-5.6396,1.1406s-3.8799-0.3809-5.6406-1.1406
			c-1.7598-0.7598-3.293-1.793-4.5996-3.0996s-2.3398-2.8398-3.0996-4.6006c-0.7607-1.7598-1.1406-3.6396-1.1406-5.6396
			s0.3799-3.873,1.1406-5.6201c0.7598-1.7461,1.793-3.2734,3.0996-4.5801c1.3066-1.3057,2.8398-2.3398,4.5996-3.0996
			c1.7607-0.7598,3.6406-1.1406,5.6406-1.1406s3.8799,0.3809,5.6396,1.1406s3.293,1.7939,4.6006,3.0996
			c1.3057,1.3066,2.3398,2.834,3.0996,4.5801C721.4932,93.6963,721.873,95.5693,721.873,97.5693z M718.9932,97.5693
			c0-1.626-0.3066-3.1533-0.9199-4.5801c-0.6133-1.4258-1.4395-2.6729-2.4795-3.7402c-1.04-1.0664-2.2676-1.9062-3.6807-2.5195
			s-2.9199-0.9199-4.5195-0.9199c-1.6006,0-3.1074,0.3066-4.5205,0.9199s-2.6396,1.4531-3.6797,2.5195
			c-1.04,1.0674-1.8672,2.3145-2.4805,3.7402c-0.6133,1.4268-0.9199,2.9541-0.9199,4.5801c0,1.627,0.3066,3.1602,0.9199,4.5996
			c0.6133,1.4404,1.4404,2.6943,2.4805,3.7607s2.2666,1.9062,3.6797,2.5195c1.4131,0.6143,2.9199,0.9199,4.5205,0.9199
			c1.5996,0,3.1064-0.3057,4.5195-0.9199c1.4131-0.6133,2.6406-1.4531,3.6807-2.5195s1.8662-2.3203,2.4795-3.7607
			C718.6865,100.7295,718.9932,99.1963,718.9932,97.5693z M714.7129,105.209h-3.4395l-2.8799-5.5596h-3.8799v5.5195h-3V89.249
			h7.6396c1.6797,0,3.0127,0.4668,4,1.4004c0.9863,0.9336,1.4805,2.2002,1.4805,3.7998c0,1.1475-0.3008,2.1475-0.9004,3
			c-0.5996,0.8535-1.4072,1.4668-2.4199,1.8398L714.7129,105.209z M704.5137,96.8896h4.6797c0.6133,0,1.1797-0.1807,1.7002-0.54
			c0.5195-0.3604,0.7793-0.9932,0.7793-1.9004c0-0.9062-0.2197-1.54-0.6592-1.8994c-0.4404-0.3604-1.0469-0.54-1.8203-0.54h-4.6797
			V96.8896z"/>
	</g>
</g>
</svg>
