<?xml version="1.0" encoding="utf-8"?>
<!-- Generator: Adobe Illustrator 23.0.1, SVG Export Plug-In . SVG Version: 6.00 Build 0)  -->
<svg version="1.1" id="Layer_1" xmlns="http://www.w3.org/2000/svg" xmlns:xlink="http://www.w3.org/1999/xlink" x="0px" y="0px"
	 viewBox="0 0 786.0967 559.7343" style="enable-background:new 0 0 786.0967 559.7343;" xml:space="preserve">
<style type="text/css">
	.st0{enable-background:new    ;}
</style>
<g>
	<g class="st0">
		<path d="M524.5986,301.6885c0,13.7627-2.1133,26.3076-6.3271,37.6289c-4.2197,11.3223-10.2139,21.0312-17.9824,29.1377
			c-7.7734,8.1016-17.0977,14.3711-27.9717,18.8145c-10.8799,4.4385-22.8682,6.6602-35.9639,6.6602
			c-20.4277,0-37.9102-5.0527-52.4478-15.1514c-14.543-10.1045-24.0332-23.9238-28.4717-41.459h29.6372
			c2.8823,6.4365,6.5454,11.5977,10.9893,15.4844c4.4385,3.8818,9.1572,6.8271,14.1523,8.8252s9.8232,3.3301,14.4854,3.9961
			s8.5439,0.999,11.6553,0.999c10.874,0,20.1465-1.9463,27.8057-5.8281c7.6582-3.8867,13.8711-8.8818,18.6475-14.9844
			c4.7715-6.1084,8.2109-13.0449,10.3232-20.8125c2.1074-7.7734,3.1631-15.5371,3.1631-23.3105V283.707
			c-6.2178,8.4395-14.376,15.5986-24.4756,21.4785c-10.1045,5.8789-21.3691,8.8242-33.7988,8.8242
			c-12.4355,0-23.8672-2.3311-34.2988-6.9932c-10.4375-4.6621-19.481-11.0986-27.1401-19.3135
			c-7.6587-8.2104-13.6528-17.7583-17.9819-28.6382c-4.3291-10.874-6.4937-22.5293-6.4937-34.9648
			c0-12.4302,2.1646-24.1426,6.4937-35.1313c4.3291-10.9893,10.3232-20.5317,17.9819-28.6382
			c7.6592-8.1011,16.7026-14.5376,27.1401-19.314c10.4316-4.771,21.8633-7.1597,34.2988-7.1597
			c12.6533,0,24.1943,3.1118,34.6318,9.3242c10.4316,6.2178,18.6475,13.6528,24.6416,22.311V138.186h27.3066V301.6885z
			 M496.293,224.4331c0-8.8765-1.5557-17.2017-4.6621-24.9751c-3.1113-7.7681-7.3252-14.5947-12.6533-20.4795
			c-5.3281-5.8794-11.4893-10.4893-18.4814-13.8193c-6.9932-3.3301-14.4863-4.9951-22.4775-4.9951
			c-7.9922,0-15.542,1.665-22.6445,4.9951c-7.1074,3.3301-13.21,7.9399-18.3145,13.8193
			c-5.1099,5.8848-9.1577,12.7114-12.1548,20.4795c-2.9971,7.7734-4.4956,16.0986-4.4956,24.9751
			c0,8.6582,1.4985,16.874,4.4956,24.6416c2.9971,7.7734,7.0449,14.543,12.1548,20.3135
			c5.1045,5.7754,11.207,10.3232,18.3145,13.6528c7.1025,3.3301,14.6523,4.9951,22.6445,4.9951
			c7.9912,0,15.4844-1.665,22.4775-4.9951c6.9922-3.3296,13.1533-7.8774,18.4814-13.6528c5.3281-5.7705,9.542-12.54,12.6533-20.3135
			C494.7373,241.3071,496.293,233.0913,496.293,224.4331z"/>
	</g>
	<g class="st0">
		<path d="M630.8242,133.8569c12.2061,0,23.585,2.3887,34.1318,7.1597c10.542,4.7764,19.6475,11.27,27.3066,19.4805
			c7.6582,8.2158,13.7051,17.8154,18.1484,28.8047c4.4385,10.9888,6.6602,22.7012,6.6602,35.1313
			c0,12.4355-2.2217,24.0332-6.6602,34.7988c-4.4434,10.7705-10.4902,20.2031-18.1484,28.3042
			c-7.6592,8.1064-16.7646,14.4854-27.3066,19.1475c-10.5469,4.6621-21.9258,6.9932-34.1318,6.9932
			c-12.2119,0-23.5342-2.3311-33.9658-6.9932c-10.4375-4.6621-19.5381-11.041-27.3066-19.1475
			c-7.7734-8.1011-13.876-17.5337-18.3145-28.3042c-4.4434-10.7656-6.6602-22.3633-6.6602-34.7988
			c0-12.4302,2.2168-24.1426,6.6602-35.1313c4.4385-10.9893,10.541-20.5889,18.3145-28.8047
			c7.7686-8.2104,16.8691-14.7041,27.3066-19.4805C607.29,136.2456,618.6123,133.8569,630.8242,133.8569z M630.6572,287.7031
			c8.0127,0,15.5264-1.665,22.54-4.9951c7.0137-3.3296,13.1904-7.8257,18.5332-13.4868c5.3438-5.6602,9.5166-12.373,12.5244-20.1465
			c3.0068-7.7676,4.5107-15.9834,4.5107-24.6416c0-8.8765-1.5039-17.2588-4.5107-25.1416
			c-3.0078-7.8774-7.1807-14.7041-12.5244-20.4795c-5.3428-5.77-11.5195-10.375-18.5332-13.8193
			c-7.0137-3.4395-14.5273-5.1616-22.54-5.1616c-8.0176,0-15.5312,1.7222-22.5449,5.1616
			c-7.0137,3.4443-13.1328,8.0493-18.3672,13.8193c-5.2344,5.7754-9.3496,12.6021-12.3574,20.4795
			c-3.0068,7.8828-4.5059,16.2651-4.5059,25.1416c0,8.6582,1.499,16.874,4.5059,24.6416
			c3.0078,7.7734,7.123,14.4863,12.3574,20.1465c5.2344,5.6611,11.3535,10.1572,18.3672,13.4868
			C615.126,286.0381,622.6396,287.7031,630.6572,287.7031z"/>
	</g>
	<path d="M97.395,352.5151c-4.5859,0-9.1826-1.1113-13.374-3.3545c-9.2168-4.9326-14.9707-14.5381-14.9707-24.9922V210.7827
		c0-15.6553,12.6914-28.3467,28.3467-28.3467s28.3467,12.6914,28.3467,28.3467v60.4199l90.6299-60.4199L81.6733,120.9829
		c-13.0264-8.6846-16.5459-26.2842-7.8623-39.3096c8.6846-13.0264,26.2832-16.5459,39.3096-7.8623l170.0791,113.3857
		c7.8857,5.2578,12.623,14.1084,12.623,23.5859s-4.7373,18.3281-12.623,23.5859L113.1206,347.7544
		C108.3774,350.9165,102.894,352.5151,97.395,352.5151z"/>
	<g class="st0">
		<path d="M721.873,97.5693c0,2-0.3799,3.8799-1.1396,5.6396c-0.7598,1.7607-1.7939,3.2939-3.0996,4.6006
			c-1.3076,1.3066-2.8408,2.3398-4.6006,3.0996s-3.6396,1.1406-5.6396,1.1406s-3.8799-0.3809-5.6406-1.1406
			c-1.7598-0.7598-3.293-1.793-4.5996-3.0996s-2.3398-2.8398-3.0996-4.6006c-0.7607-1.7598-1.1406-3.6396-1.1406-5.6396
			s0.3799-3.873,1.1406-5.6201c0.7598-1.7461,1.793-3.2734,3.0996-4.5801c1.3066-1.3057,2.8398-2.3398,4.5996-3.0996
			c1.7607-0.7598,3.6406-1.1406,5.6406-1.1406s3.8799,0.3809,5.6396,1.1406s3.293,1.7939,4.6006,3.0996
			c1.3057,1.3066,2.3398,2.834,3.0996,4.5801C721.4932,93.6963,721.873,95.5693,721.873,97.5693z M718.9932,97.5693
			c0-1.626-0.3066-3.1533-0.9199-4.5801c-0.6133-1.4258-1.4395-2.6729-2.4795-3.7402c-1.04-1.0664-2.2676-1.9062-3.6807-2.5195
			s-2.9199-0.9199-4.5195-0.9199c-1.6006,0-3.1074,0.3066-4.5205,0.9199s-2.6396,1.4531-3.6797,2.5195
			c-1.04,1.0674-1.8672,2.3145-2.4805,3.7402c-0.6133,1.4268-0.9199,2.9541-0.9199,4.5801c0,1.627,0.3066,3.1602,0.9199,4.5996
			c0.6133,1.4404,1.4404,2.6943,2.4805,3.7607s2.2666,1.9062,3.6797,2.5195c1.4131,0.6143,2.9199,0.9199,4.5205,0.9199
			c1.5996,0,3.1064-0.3057,4.5195-0.9199c1.4131-0.6133,2.6406-1.4531,3.6807-2.5195s1.8662-2.3203,2.4795-3.7607
			C718.6865,100.7295,718.9932,99.1963,718.9932,97.5693z M714.7129,105.209h-3.4395l-2.8799-5.5596h-3.8799v5.5195h-3V89.249
			h7.6396c1.6797,0,3.0127,0.4668,4,1.4004c0.9863,0.9336,1.4805,2.2002,1.4805,3.7998c0,1.1475-0.3008,2.1475-0.9004,3
			c-0.5996,0.8535-1.4072,1.4668-2.4199,1.8398L714.7129,105.209z M704.5137,96.8896h4.6797c0.6133,0,1.1797-0.1807,1.7002-0.54
			c0.5195-0.3604,0.7793-0.9932,0.7793-1.9004c0-0.9062-0.2197-1.54-0.6592-1.8994c-0.4404-0.3604-1.0469-0.54-1.8203-0.54h-4.6797
			V96.8896z"/>
	</g>
</g>
<g>
	<g>
		<g>
			<path d="M251.2838,446.3064c4.1449-3.4372,9.3007-6.1668,14.8609-6.1668c5.358,0,13.0412,3.235,13.0412,15.5685v35.1808h-13.1423
				V460.965c0-3.9427,0.3033-10.3116-5.4591-10.3116c-3.8416,0-6.8744,2.7295-9.3007,5.358v34.7765h-13.1423v-68.9464h13.1423
				L251.2838,446.3064L251.2838,446.3064z"/>
			<path d="M285.3526,466.0198c0-13.2433,7.2788-25.8802,21.8364-25.8802s21.8364,12.6368,21.8364,25.8802
				c0,13.1423-7.3799,25.8802-21.8364,25.8802C292.6314,491.9,285.3526,479.1621,285.3526,466.0198 M315.4787,466.0198
				c0-6.1667-1.2131-16.1751-8.2897-16.1751s-8.2897,10.0083-8.2897,16.1751s1.2131,16.1751,8.2897,16.1751
				C314.1645,482.296,315.4787,472.1866,315.4787,466.0198"/>
			<path d="M362.993,485.7332c-4.1449,3.4372-9.3007,6.1667-14.7598,6.1667s-13.0412-3.235-13.0412-15.4674v-35.1808h13.1423
				v29.9239c0,3.9427-0.3033,10.3116,5.4591,10.3116c3.8416,0,6.7733-2.7296,9.3007-5.4591v-34.7765h13.1423v49.6373h-13.1423
				v-5.1558h-0.1011V485.7332z"/>
			<path d="M398.0728,474.5117c-1.5164,0-3.7405,0.8088-3.7405,3.1339c0,6.47,34.3721-4.7514,34.3721,14.6587
				c0,7.3799-4.9536,15.1641-24.667,15.1641c-17.0849,0-22.9484-6.0656-22.9484-12.5357c0-3.8416,2.4263-5.7624,5.358-7.5821
				c-2.123-1.6175-3.9427-3.4372-3.9427-6.2678c0-4.8525,2.6284-7.481,6.47-9.9073c-3.6394-3.5383-6.1668-7.9865-6.1668-13.6477
				c0-11.0193,9.3007-17.3882,20.0167-17.3882c4.347,0,8.4919,1.2131,12.2324,3.4372c2.6284-2.4263,5.0547-4.0438,8.9974-4.0438
				c1.2131,0,2.5274,0.1011,3.8416,0.3033v9.1996c-1.3142-0.5055-2.7296-1.011-4.1449-1.011s-2.3251,0.4044-3.5383,1.011
				c1.4153,2.6284,2.5274,5.5602,2.6285,8.3908c0,11.0193-9.1996,17.3882-19.9156,17.3882L398.0728,474.5117z M393.9279,490.889
				c-1.2131,0.8087-2.0219,1.5164-2.0219,3.1339c0,4.6503,9.3007,4.8525,12.4346,4.8525c2.2241,0,13.7488-0.3033,13.7488-4.2459
				c0-2.5274-1.8197-2.3252-9.6039-2.7296L393.9279,490.889z M402.9253,466.222c5.4591,0,7.0766-4.5492,7.0766-9.1996
				c0-4.5492-2.123-8.2897-7.0766-8.2897c-5.4591,0-7.1777,4.6504-7.1777,9.3007
				C395.7476,462.4815,397.8706,466.222,402.9253,466.222"/>
			<path d="M446.5981,446.3064c4.1449-3.4372,9.3007-6.1668,14.8609-6.1668c5.358,0,13.0412,3.235,13.0412,15.5685v35.1808h-13.1423
				V460.965c0-3.9427,0.3033-10.3116-5.4591-10.3116c-3.8416,0-6.8744,2.7295-9.3007,5.358v34.7765h-13.1423v-68.9464h13.1423
				V446.3064z"/>
			<path d="M499.066,441.1506h10.2105v10.9182H499.066v25.2736c0,2.4262,0.7077,4.8525,4.9536,4.8525
				c2.2241,0,3.6394-0.9099,5.2569-1.8197v10.0083c-2.7296,0.8087-5.5602,1.5164-8.3908,1.5164
				c-8.1887,0-14.8609-4.5493-14.8609-15.3663v-24.3638h-6.1668v-10.9182h6.1668V428.817h13.1422v12.3335h-0.101V441.1506z"/>
			<polygon points="565.485,490.889 558.4084,490.889 546.6815,434.4784 546.4792,434.4784 534.1458,490.889 527.0692,490.889 
				512.6126,421.8416 519.5882,421.8416 530.9107,477.5446 531.1129,477.5446 543.4464,421.8416 550.3209,421.8416 
				562.1489,477.5446 562.2499,477.5446 574.4824,421.8416 581.2557,421.8416 			"/>
			<path d="M577.4141,466.4242c0-18.2981,8.6941-25.8802,19.6123-25.8802s19.6122,7.5821,19.6122,25.8802
				c0,18.3991-8.6941,25.8802-19.6122,25.8802C586.1082,492.3044,577.4141,484.7223,577.4141,466.4242 M609.6632,466.4242
				c0-8.2897-2.0219-20.0167-12.6368-20.0167c-10.6149,0-12.6368,11.727-12.6368,20.0167c0,8.3908,2.0219,20.0167,12.6368,20.0167
				S609.6632,474.7139,609.6632,466.4242"/>
			<path d="M629.1744,452.4732h0.2022c2.7296-5.8635,6.2678-11.2215,13.5466-11.2215h2.6284v6.2679
				c-8.9974-1.2131-13.7488,8.4919-16.3773,15.5685v27.801H622.3v-48.9297h6.8744V452.4732z"/>
			<polygon points="656.7731,464.6045 674.869,441.9594 682.6533,441.9594 669.1066,458.6399 684.6752,490.889 677.1942,490.889 
				664.7596,464.3012 656.7731,474.1074 656.7731,490.889 649.7977,490.889 649.7977,421.8416 656.7731,421.8416 			"/>
			<path d="M714.9025,452.7765c-2.7296-4.0438-6.0657-6.47-11.2215-6.47c-4.5492,0-8.7952,2.3252-8.7952,7.2788
				c0,11.9291,25.7791,6.7733,25.7791,23.2517c0,9.6039-6.8745,15.3663-16.074,15.3663c-7.8854,0-14.2543-3.4372-18.2981-10.3116
				l5.4592-3.4372c2.6284,5.0547,6.8744,7.8854,12.7379,7.8854c5.0547,0,9.6039-2.7296,9.6039-8.2897
				c0-12.3335-25.7791-6.47-25.7791-24.0605c0-8.3908,6.8744-13.5466,14.962-13.5466c6.8744,0,12.5357,2.8306,16.2761,8.4919
				L714.9025,452.7765z"/>
			<path d="M732.2906,427.3007c0-1.6175-1.0109-2.6285-2.7296-2.6285h-3.8416v8.4919h1.2131v-3.3361h2.2241l1.8196,3.3361h1.4153
				l-1.9208-3.4372C731.583,429.4236,732.2906,428.5138,732.2906,427.3007 M726.9326,425.8853h2.6284
				c1.011,0,1.5164,0.5055,1.5164,1.3142c0,1.0109-0.8087,1.3142-1.4153,1.3142h-2.6284v-2.6284L726.9326,425.8853
				L726.9326,425.8853z"/>
			<path d="M728.6512,421.4372c-4.1448,0-7.481,3.3361-7.481,7.481s3.3361,7.481,7.481,7.481c4.1448,0,7.481-3.3361,7.481-7.481
				S732.7961,421.4372,728.6512,421.4372 M728.6512,435.186c-3.4373,0-6.1667-2.8306-6.1667-6.2679
				c0-3.4372,2.8306-6.2678,6.1667-6.2678c3.4373,0,6.2679,2.8306,6.2679,6.2678
				C734.818,432.3554,732.0885,435.186,728.6512,435.186"/>
			<polygon points="232.6824,433.3663 214.7887,433.3663 214.7887,490.6868 200.9388,490.6868 200.9388,433.3663 183.0451,433.3663 
				183.0451,421.6394 232.6824,421.6394 			"/>
		</g>
		<g class="st0">
			<path d="M69.25,421.0439h7.4072v29.4189c4.4858-4.9033,9.9106-7.3027,16.2744-7.3027c12.9365,0,23.3687,10.8496,23.3687,24.3076
				c0,13.5625-10.4321,24.4121-23.3687,24.4121c-6.3638,0-11.9971-2.5039-16.2744-7.3027v6.0508H69.25V421.0439z M76.6572,467.4678
				c0,10.3281,6.5723,17.6309,15.8574,17.6309c9.5977,0,16.2744-7.3027,16.2744-17.7354c0-10.2236-6.7812-17.4219-16.4834-17.4219
				C83.2295,449.9414,76.6572,457.3486,76.6572,467.4678z"/>
			<path d="M118.3848,444.4121h8.0327l14.7095,35.1572l15.2314-35.1572h7.9287L133.4072,515.04h-7.7197l11.4756-26.3945
				L118.3848,444.4121z"/>
		</g>
	</g>
</g>
</svg>
