<svg width="200px" height="200px" xmlns="http://www.w3.org/2000/svg" viewBox="0 0 100 100" preserveAspectRatio="xMidYMid" class="lds-stripe" style="background: none;"><defs><pattern patternUnits="userSpaceOnUse" x="0" y="0" width="100" height="100" id="strip-pattern"><g transform="translate(10.2327 0)"><g transform="rotate(20 50 50) scale(1.176)"><rect x="-30" y="-10" width="10" height="120" fill="#ffb91b"/><rect x="-20" y="-10" width="10" height="120" fill="#ffc74b"/><rect x="-10" y="-10" width="10" height="120" fill="#ffb91b"/><rect x="0" y="-10" width="10" height="120" fill="#ffc74b"/><rect x="10" y="-10" width="10" height="120" fill="#ffb91b"/><rect x="20" y="-10" width="10" height="120" fill="#ffc74b"/><rect x="30" y="-10" width="10" height="120" fill="#ffb91b"/><rect x="40" y="-10" width="10" height="120" fill="#ffc74b"/><rect x="50" y="-10" width="10" height="120" fill="#ffb91b"/><rect x="60" y="-10" width="10" height="120" fill="#ffc74b"/><rect x="70" y="-10" width="10" height="120" fill="#ffb91b"/><rect x="80" y="-10" width="10" height="120" fill="#ffc74b"/><rect x="90" y="-10" width="10" height="120" fill="#ffb91b"/><rect x="100" y="-10" width="10" height="120" fill="#ffc74b"/></g><animateTransform attributeName="transform" type="translate" values="0 0;25 0" keyTimes="0;1" repeatCount="indefinite" dur="3s"/></g></pattern></defs><rect rx="0" ry="0" x="0" y="40" stroke="#51CACC" stroke-width="0" width="100" height="20" fill="url(#strip-pattern)"/>
</svg>