<?xml version="1.0" encoding="utf-8" standalone="yes"?><!-- Generator: Adobe Illustrator 23.0.1, SVG Export Plug-In . SVG Version: 6.00 Build 0)  --><svg xmlns="http://www.w3.org/2000/svg" xmlns:xlink="http://www.w3.org/1999/xlink" version="1.1" x="0px" y="0px" viewBox="262, 35, 275, 230" style="enable-background:new 262 35 275 230;zoom: 1; ;" xml:space="preserve"><style type="text/css">
        .st0{fill:#757575;}
        .st1{fill:none;stroke:#B2B2B2;stroke-width:4;stroke-linecap:round;stroke-linejoin:round;stroke-miterlimit:10;}
        .st2{display:none;}
        .st3{display:inline;fill:none;stroke:#757575;stroke-miterlimit:10;}
        .st4{display:inline;fill:#757575;}
        .st5{fill:#FFFFFF;stroke:#023550;stroke-width:5;stroke-miterlimit:10;}
        .st6{fill:none;stroke:#023550;stroke-width:5;stroke-miterlimit:10;}
        .st7{fill:#4AD9D9;stroke:#023550;stroke-width:5;stroke-miterlimit:10;}
        .st8{fill:#1ABBBC;stroke:#023550;stroke-width:5;stroke-linecap:round;stroke-miterlimit:10;}
        .st9{fill:#023550;}
        .st10{fill:#FFFFFF;stroke:#023550;stroke-width:5;stroke-linejoin:round;stroke-miterlimit:10;}
        .st11{fill:#FFFFFF;}
        .st12{fill:none;stroke:#023550;stroke-width:5;stroke-linecap:round;stroke-linejoin:round;}
        .st13{fill:#4AD9D9;stroke:#023550;stroke-width:5;stroke-linecap:round;stroke-linejoin:round;stroke-miterlimit:10;}
        .st14{fill:none;stroke:#023550;stroke-width:5;stroke-linecap:round;stroke-linejoin:round;stroke-miterlimit:10;}
        .st15{fill:#FFFFFF;stroke:#023550;stroke-width:5;stroke-linecap:round;stroke-linejoin:round;stroke-miterlimit:10;}
</style><g id="Layer_1"></g><g id="grids_and_guides" class="st2"><rect x="20" y="20" class="st3" width="760" height="260"></rect></g><g id="diagrams"><g><path class="st15" d="M507.187,253.054H292.813c-11.046,0-20-8.954-20-20V66.946c0-11.046,8.954-20,20-20h214.375 c11.046,0,20,8.954,20,20v166.109C527.187,244.1,518.233,253.054,507.187,253.054z"></path><path class="st15" d="M500.578,235.769H299.422c-4.418,0-8-3.582-8-8V98.399c0-4.418,3.582-8,8-8h201.156c4.418,0,8,3.582,8,8 v129.37C508.578,232.187,504.997,235.769,500.578,235.769z"></path><g><path class="st9" d="M381.101,65.266c-0.702-1.105-1.105-1.403-1.895-1.403c-0.948,0-1.632,0.614-1.632,1.474 c0,0.562,0.456,1,1.369,1.352l1.105,0.421c1.965,0.755,2.878,1.79,2.878,3.316c0,2.105-1.737,3.738-3.983,3.738 c-1.562,0-2.913-0.825-3.544-2.212c-0.158-0.351-0.158-0.351-0.404-1.333l2.018-0.526c0.246,0.93,0.246,0.93,0.369,1.176 c0.333,0.614,0.912,0.947,1.614,0.947c1.018,0,1.825-0.79,1.825-1.772c0-0.685-0.438-1.088-1.685-1.579l-1.053-0.403 c-1.72-0.667-2.58-1.702-2.58-3.142c0-1.93,1.597-3.387,3.72-3.387c1.088,0,2,0.369,2.72,1.105 c0.298,0.299,0.404,0.439,0.86,1.176L381.101,65.266z"></path><path class="st9" d="M386.573,71.39c0,0.579,0.088,0.755,0.386,0.755c0.175,0,0.474-0.053,0.93-0.176v1.878 c-0.509,0.141-0.825,0.193-1.158,0.193c-1.386,0-2.159-0.948-2.159-2.65v-3.456h-0.807v-1.808h0.807v-1.667l2-0.79v2.457h1.193 v1.808h-1.193V71.39z"></path><path class="st9" d="M394.713,73.9v-0.491c-0.719,0.544-1.281,0.755-2.088,0.755c-2.281,0-4.089-1.843-4.089-4.159 c0-2.299,1.808-4.142,4.089-4.142c0.807,0,1.369,0.211,2.088,0.755v-0.491h2V73.9H394.713z M390.555,70.004 c0,1.386,0.86,2.352,2.106,2.352c1.246,0,2.088-0.966,2.088-2.352c0-1.404-0.842-2.334-2.123-2.334 C391.415,67.67,390.555,68.635,390.555,70.004z"></path><path class="st9" d="M404.221,73.408c-0.808,0.579-1.316,0.755-2.123,0.755c-2.246,0-4.054-1.86-4.054-4.159 s1.808-4.142,4.054-4.142c0.807,0,1.315,0.176,2.123,0.755v-0.491h2v7.932c0,2.509-1.685,4.193-4.193,4.193 c-1.053,0-2.053-0.333-2.825-0.947c-0.298-0.229-0.386-0.316-1.018-1.053l1.298-1.299l0.316,0.352 c0.754,0.877,1.264,1.14,2.211,1.14c1.403,0,2.211-0.877,2.211-2.386V73.408z M400.062,70.004c0,1.386,0.86,2.352,2.106,2.352 c1.228,0,2.07-0.966,2.07-2.352c0-1.404-0.843-2.334-2.105-2.334C400.922,67.67,400.062,68.635,400.062,70.004z"></path><path class="st9" d="M409.64,70.759c0.28,1.035,0.965,1.597,1.947,1.597c0.649,0,1.246-0.229,1.649-0.649 c0.088-0.07,0.211-0.264,0.404-0.544l1.685,0.702c-0.491,0.842-0.649,1.018-1.141,1.421c-0.72,0.562-1.632,0.878-2.598,0.878 c-2.264,0-4.001-1.808-4.001-4.159c0-2.316,1.737-4.142,3.931-4.142c1.702,0,3.142,1.105,3.65,2.79 c0.141,0.491,0.211,0.948,0.211,1.545c0,0.122,0,0.263-0.018,0.562H409.64z M413.377,69.267c-0.351-1.105-0.947-1.632-1.86-1.632 c-0.947,0-1.614,0.597-1.877,1.632H413.377z"></path><path class="st9" d="M422.234,73.9v-9.213l-1.474,0.843l-0.983-1.702l2.878-1.632h1.649V73.9H422.234z"></path></g><g><g><path class="st9" d="M388.319,112.704c0,1.475-0.211,2.229-0.859,2.931c-0.544,0.614-1.404,0.966-2.334,0.966 c-1.105,0-2.001-0.439-3.106-1.545l1.299-1.509c0.737,0.79,1.246,1.088,1.808,1.088c0.789,0,1.123-0.562,1.123-1.931v-8.071 h2.07V112.704z"></path><path class="st9" d="M398.266,112.442c0,2.334-1.807,4.159-4.123,4.159c-2.352,0-4.142-1.825-4.142-4.194 c0-2.316,1.825-4.106,4.194-4.106C396.459,108.3,398.266,110.143,398.266,112.442z M392.02,112.442 c0,1.386,0.859,2.352,2.123,2.352c1.246,0,2.105-0.966,2.105-2.352c0-1.404-0.859-2.334-2.158-2.334 C392.879,110.108,392.02,111.073,392.02,112.442z"></path><path class="st9" d="M399.631,104.633h2.001v4.422c0.72-0.562,1.28-0.755,2.088-0.755c2.281,0,4.089,1.843,4.089,4.142 c0,2.316-1.808,4.159-4.089,4.159c-0.808,0-1.352-0.211-2.088-0.755v0.491h-2.001V104.633z M401.614,112.442 c0,1.386,0.842,2.352,2.07,2.352c1.246,0,2.105-0.966,2.105-2.352c0-1.387-0.859-2.334-2.141-2.334 C402.456,110.108,401.614,111.073,401.614,112.442z"></path><path class="st9" d="M414.683,116.337v-9.213l-1.475,0.843l-0.982-1.702l2.878-1.632h1.649v11.704H414.683z"></path></g></g><g><path class="st13" d="M483.045,155.741h-166.09c-4.418,0-8-3.582-8-8v-8.9c0-4.418,3.582-8,8-8h166.09c4.418,0,8,3.582,8,8v8.9 C491.045,152.159,487.463,155.741,483.045,155.741z"></path><g><g><path class="st9" d="M329.01,147.443h-1.415v-6.692h-1.955v-1.308h5.325v1.308h-1.955V147.443z"></path><path class="st9" d="M334.938,147.443v-0.336c-0.492,0.372-0.875,0.516-1.427,0.516c-1.56,0-2.795-1.259-2.795-2.842 c0-1.571,1.235-2.831,2.795-2.831c0.552,0,0.935,0.145,1.427,0.516v-0.336h1.367v5.313H334.938z M332.095,144.781 c0,0.947,0.588,1.606,1.439,1.606s1.428-0.659,1.428-1.606c0-0.96-0.576-1.596-1.451-1.596 C332.683,143.185,332.095,143.845,332.095,144.781z"></path><path class="st9" d="M340.11,143.737c-0.3-0.443-0.491-0.575-0.804-0.575c-0.336,0-0.552,0.168-0.552,0.432 c0,0.228,0.072,0.287,0.684,0.516l0.48,0.191c0.899,0.348,1.295,0.792,1.295,1.499c0,1.032-0.863,1.823-1.991,1.823 c-0.684,0-1.271-0.288-1.655-0.815c-0.167-0.228-0.264-0.42-0.419-0.84l1.115-0.443c0.336,0.672,0.552,0.863,0.972,0.863 c0.359,0,0.611-0.216,0.611-0.552c0-0.228-0.108-0.312-0.672-0.527l-0.539-0.204c-0.792-0.3-1.188-0.791-1.188-1.475 c0-0.96,0.803-1.68,1.871-1.68c0.839,0,1.402,0.384,1.858,1.26L340.11,143.737z"></path><path class="st9" d="M347.369,147.443h-1.68l-1.69-2.171l-0.504,0.504v1.667h-1.367v-8h1.367v4.582l1.931-1.896h1.799 l-2.29,2.231L347.369,147.443z"></path><path class="st9" d="M349.854,143.137c0,0.468-0.384,0.84-0.852,0.84c-0.479,0-0.863-0.372-0.863-0.852 c0-0.456,0.384-0.828,0.876-0.828C349.47,142.297,349.854,142.681,349.854,143.137z M349.854,146.759 c0,0.468-0.384,0.84-0.852,0.84c-0.479,0-0.863-0.372-0.863-0.852c0-0.456,0.384-0.828,0.876-0.828 C349.47,145.919,349.854,146.303,349.854,146.759z"></path><path class="st9" d="M357.786,147.443v-0.336c-0.492,0.372-0.875,0.516-1.427,0.516c-1.56,0-2.795-1.259-2.795-2.842 c0-1.571,1.235-2.831,2.795-2.831c0.552,0,0.935,0.145,1.427,0.516v-0.336h1.367v5.313H357.786z M354.943,144.781 c0,0.947,0.588,1.606,1.439,1.606s1.428-0.659,1.428-1.606c0-0.96-0.576-1.596-1.451-1.596 C355.531,143.185,354.943,143.845,354.943,144.781z"></path><path class="st9" d="M361.794,142.406c0.42-0.336,0.743-0.456,1.235-0.456c0.611,0,1.235,0.264,1.643,0.708 c0.42,0.443,0.588,1.007,0.588,1.931v2.854h-1.367v-2.771c0-0.659-0.072-0.983-0.264-1.199 c-0.168-0.192-0.408-0.288-0.708-0.288c-0.371,0-0.695,0.132-0.875,0.372c-0.18,0.228-0.252,0.552-0.252,1.224v2.662h-1.367 v-5.313h1.367V142.406z"></path><path class="st9" d="M367.961,145.728c0,0.396,0.061,0.516,0.265,0.516c0.119,0,0.323-0.036,0.635-0.12v1.283 c-0.348,0.096-0.563,0.132-0.791,0.132c-0.947,0-1.476-0.647-1.476-1.811v-2.363h-0.552v-1.235h0.552v-1.139l1.367-0.54v1.679 h0.816v1.235h-0.816V145.728z"></path><path class="st9" d="M374.837,144.061v1.247h-2.662v-1.247H374.837z"></path><path class="st9" d="M377.826,139.443c2.662,0,4.365,1.56,4.365,3.994c0,2.446-1.691,4.006-4.365,4.006h-1.835v-8H377.826z M377.406,146.123h0.456c1.799,0,2.902-1.02,2.902-2.687c0-1.655-1.116-2.675-2.902-2.675h-0.456V146.123z"></path><path class="st9" d="M384.582,142.406c0.408-0.348,0.684-0.456,1.163-0.456c0.563,0,1.008,0.192,1.451,0.647 c0.468-0.443,0.96-0.647,1.607-0.647c0.743,0,1.379,0.288,1.799,0.792c0.384,0.468,0.528,0.972,0.528,1.847v2.854h-1.368 v-2.759c0-1.091-0.239-1.499-0.875-1.499c-0.336,0-0.624,0.132-0.792,0.36c-0.168,0.216-0.228,0.575-0.228,1.247v2.65H386.5 v-2.759c0-1.091-0.24-1.499-0.888-1.499c-0.336,0-0.636,0.132-0.804,0.36c-0.168,0.228-0.228,0.575-0.228,1.247v2.65h-1.367 v-5.313h1.367V142.406z"></path><path class="st9" d="M397.719,144.781c0,1.595-1.234,2.842-2.818,2.842c-1.606,0-2.83-1.247-2.83-2.866 c0-1.583,1.247-2.807,2.866-2.807C396.485,141.949,397.719,143.209,397.719,144.781z M393.45,144.781 c0,0.947,0.588,1.606,1.451,1.606c0.852,0,1.439-0.659,1.439-1.606c0-0.96-0.588-1.596-1.475-1.596 C394.038,143.185,393.45,143.845,393.45,144.781z"></path><path class="st9" d="M402.544,147.443v-0.336c-0.504,0.372-0.876,0.516-1.427,0.516c-1.559,0-2.794-1.259-2.794-2.842 c0-1.571,1.235-2.831,2.794-2.831c0.551,0,0.936,0.132,1.427,0.516v-3.022h1.367v8H402.544z M399.702,144.781 c0,0.947,0.588,1.606,1.439,1.606c0.84,0,1.415-0.659,1.415-1.606c0-0.96-0.575-1.596-1.438-1.596 C400.29,143.185,399.702,143.857,399.702,144.781z"></path><path class="st9" d="M408.652,147.167c-0.42,0.335-0.743,0.455-1.235,0.455c-0.611,0-1.235-0.264-1.643-0.707 c-0.42-0.444-0.588-1.02-0.588-1.932v-2.854h1.367v2.771c0,0.66,0.072,0.983,0.264,1.199c0.168,0.192,0.408,0.288,0.708,0.288 c0.371,0,0.695-0.132,0.875-0.371c0.18-0.217,0.252-0.564,0.252-1.235v-2.651h1.367v5.313h-1.367V147.167z"></path><path class="st9" d="M411.306,147.443v-8h1.367v8H411.306z"></path><path class="st9" d="M415.025,145.296c0.191,0.707,0.659,1.091,1.331,1.091c0.444,0,0.852-0.155,1.128-0.443 c0.06-0.048,0.144-0.18,0.275-0.372l1.151,0.479c-0.336,0.576-0.443,0.696-0.779,0.972c-0.492,0.384-1.115,0.6-1.775,0.6 c-1.547,0-2.734-1.235-2.734-2.842c0-1.584,1.188-2.831,2.687-2.831c1.163,0,2.146,0.756,2.495,1.907 c0.096,0.336,0.144,0.647,0.144,1.056c0,0.084,0,0.18-0.012,0.384H415.025z M417.58,144.277 c-0.24-0.756-0.647-1.115-1.271-1.115c-0.647,0-1.104,0.407-1.283,1.115H417.58z"></path><path class="st9" d="M425.235,143.365h-5.325v-1.235h5.325V143.365z M425.235,145.272h-5.325v-1.235h5.325V145.272z"></path><path class="st9" d="M428.081,145.476l-0.72,1.967h-1.487l2.986-8h1.739l2.986,8h-1.499l-0.72-1.967H428.081z M429.724,140.943 l-1.163,3.214h2.327L429.724,140.943z"></path><path class="st9" d="M440.799,143.941c-0.6-0.636-0.827-0.756-1.354-0.756c-0.876,0-1.464,0.636-1.464,1.596 c0,0.971,0.588,1.606,1.476,1.606c0.527,0,0.876-0.204,1.379-0.791l0.912,0.875c-0.744,0.828-1.403,1.151-2.303,1.151 c-1.607,0-2.843-1.235-2.843-2.842c0-1.596,1.235-2.831,2.843-2.831c0.875,0,1.522,0.312,2.267,1.104L440.799,143.941z"></path><path class="st9" d="M447.674,144.781c0,1.595-1.234,2.842-2.818,2.842c-1.606,0-2.83-1.247-2.83-2.866 c0-1.583,1.247-2.807,2.866-2.807C446.439,141.949,447.674,143.209,447.674,144.781z M443.404,144.781 c0,0.947,0.588,1.606,1.451,1.606c0.852,0,1.439-0.659,1.439-1.606c0-0.96-0.588-1.596-1.475-1.596 C443.992,143.185,443.404,143.845,443.404,144.781z"></path><path class="st9" d="M449.98,142.406c0.408-0.348,0.684-0.456,1.163-0.456c0.563,0,1.008,0.192,1.451,0.647 c0.468-0.443,0.96-0.647,1.607-0.647c0.743,0,1.379,0.288,1.799,0.792c0.384,0.468,0.528,0.972,0.528,1.847v2.854h-1.368 v-2.759c0-1.091-0.239-1.499-0.875-1.499c-0.336,0-0.624,0.132-0.792,0.36c-0.168,0.216-0.228,0.575-0.228,1.247v2.65h-1.367 v-2.759c0-1.091-0.24-1.499-0.888-1.499c-0.336,0-0.636,0.132-0.804,0.36c-0.168,0.228-0.228,0.575-0.228,1.247v2.65h-1.367 v-5.313h1.367V142.406z"></path><path class="st9" d="M459.125,142.129v0.336c0.492-0.371,0.875-0.516,1.427-0.516c1.56,0,2.795,1.26,2.795,2.843 c0,1.571-1.235,2.83-2.795,2.83c-0.552,0-0.935-0.144-1.427-0.516v3.143h-1.367v-8.12H459.125z M459.113,144.792 c0,0.959,0.575,1.595,1.438,1.595c0.828,0,1.416-0.671,1.416-1.595c0-0.947-0.588-1.607-1.439-1.607 C459.688,143.185,459.113,143.832,459.113,144.792z"></path><path class="st9" d="M465.832,140.319c0,0.468-0.384,0.84-0.852,0.84c-0.479,0-0.863-0.372-0.863-0.852 c0-0.456,0.384-0.828,0.875-0.828C465.448,139.479,465.832,139.863,465.832,140.319z M465.652,147.443h-1.367v-5.313h1.367 V147.443z"></path><path class="st9" d="M466.949,147.443v-8h1.367v8H466.949z"></path><path class="st9" d="M470.668,145.296c0.191,0.707,0.659,1.091,1.331,1.091c0.444,0,0.852-0.155,1.128-0.443 c0.06-0.048,0.144-0.18,0.275-0.372l1.151,0.479c-0.336,0.576-0.443,0.696-0.779,0.972c-0.492,0.384-1.115,0.6-1.775,0.6 c-1.547,0-2.734-1.235-2.734-2.842c0-1.584,1.188-2.831,2.687-2.831c1.163,0,2.146,0.756,2.495,1.907 c0.096,0.336,0.144,0.647,0.144,1.056c0,0.084,0,0.18-0.012,0.384H470.668z M473.223,144.277 c-0.24-0.756-0.647-1.115-1.271-1.115c-0.647,0-1.104,0.407-1.283,1.115H473.223z"></path></g></g><path class="st13" d="M483.045,188.876h-166.09c-4.418,0-8-3.582-8-8v-8.9c0-4.418,3.582-8,8-8h166.09c4.418,0,8,3.582,8,8v8.9 C491.045,185.294,487.463,188.876,483.045,188.876z"></path><g><g><path class="st9" d="M329.01,180.577h-1.415v-6.692h-1.955v-1.308h5.325v1.308h-1.955V180.577z"></path><path class="st9" d="M334.938,180.577v-0.336c-0.492,0.372-0.875,0.516-1.427,0.516c-1.56,0-2.795-1.259-2.795-2.842 c0-1.571,1.235-2.831,2.795-2.831c0.552,0,0.935,0.145,1.427,0.516v-0.336h1.367v5.313H334.938z M332.095,177.915 c0,0.947,0.588,1.606,1.439,1.606s1.428-0.659,1.428-1.606c0-0.96-0.576-1.596-1.451-1.596 C332.683,176.32,332.095,176.98,332.095,177.915z"></path><path class="st9" d="M340.11,176.871c-0.3-0.443-0.491-0.575-0.804-0.575c-0.336,0-0.552,0.168-0.552,0.432 c0,0.228,0.072,0.287,0.684,0.516l0.48,0.191c0.899,0.348,1.295,0.792,1.295,1.499c0,1.032-0.863,1.823-1.991,1.823 c-0.684,0-1.271-0.288-1.655-0.815c-0.167-0.228-0.264-0.42-0.419-0.84l1.115-0.443c0.336,0.672,0.552,0.863,0.972,0.863 c0.359,0,0.611-0.216,0.611-0.552c0-0.228-0.108-0.312-0.672-0.527l-0.539-0.204c-0.792-0.3-1.188-0.791-1.188-1.475 c0-0.96,0.803-1.68,1.871-1.68c0.839,0,1.402,0.384,1.858,1.26L340.11,176.871z"></path><path class="st9" d="M347.369,180.577h-1.68l-1.69-2.171l-0.504,0.504v1.667h-1.367v-8h1.367v4.582l1.931-1.896h1.799 l-2.29,2.231L347.369,180.577z"></path><path class="st9" d="M349.854,176.272c0,0.468-0.384,0.84-0.852,0.84c-0.479,0-0.863-0.372-0.863-0.852 c0-0.456,0.384-0.828,0.876-0.828C349.47,175.432,349.854,175.816,349.854,176.272z M349.854,179.894 c0,0.468-0.384,0.84-0.852,0.84c-0.479,0-0.863-0.372-0.863-0.852c0-0.456,0.384-0.828,0.876-0.828 C349.47,179.054,349.854,179.438,349.854,179.894z"></path><path class="st9" d="M355.267,175.613c0.336-0.288,0.611-0.384,1.043-0.384c0.133,0,0.3,0.012,0.504,0.035v1.224 c-0.216-0.012-0.371-0.023-0.491-0.023c-0.792,0-1.056,0.384-1.056,1.559v2.555H353.9v-5.313h1.367V175.613z"></path><path class="st9" d="M361.397,180.577v-0.336c-0.492,0.372-0.875,0.516-1.427,0.516c-1.56,0-2.795-1.259-2.795-2.842 c0-1.571,1.235-2.831,2.795-2.831c0.552,0,0.935,0.145,1.427,0.516v-0.336h1.367v5.313H361.397z M358.554,177.915 c0,0.947,0.588,1.606,1.439,1.606s1.428-0.659,1.428-1.606c0-0.96-0.576-1.596-1.451-1.596 C359.142,176.32,358.554,176.98,358.554,177.915z"></path><path class="st9" d="M369.281,180.577h-1.68l-1.69-2.171l-0.504,0.504v1.667h-1.367v-8h1.367v4.582l1.931-1.896h1.799 l-2.29,2.231L369.281,180.577z"></path><path class="st9" d="M370.615,178.431c0.191,0.707,0.659,1.091,1.331,1.091c0.444,0,0.852-0.155,1.128-0.443 c0.06-0.048,0.144-0.18,0.275-0.372l1.151,0.479c-0.336,0.576-0.443,0.696-0.779,0.972c-0.492,0.384-1.115,0.6-1.775,0.6 c-1.547,0-2.734-1.235-2.734-2.842c0-1.584,1.188-2.831,2.687-2.831c1.163,0,2.146,0.756,2.495,1.907 c0.096,0.336,0.144,0.647,0.144,1.056c0,0.084,0,0.18-0.012,0.384H370.615z M373.169,177.411 c-0.24-0.756-0.647-1.115-1.271-1.115c-0.647,0-1.104,0.407-1.283,1.115H373.169z"></path><path class="st9" d="M382.084,177.075c-0.6-0.636-0.827-0.756-1.354-0.756c-0.876,0-1.464,0.636-1.464,1.596 c0,0.971,0.588,1.606,1.476,1.606c0.527,0,0.876-0.204,1.379-0.791l0.912,0.875c-0.744,0.828-1.403,1.151-2.303,1.151 c-1.607,0-2.843-1.235-2.843-2.842c0-1.596,1.235-2.831,2.843-2.831c0.875,0,1.522,0.312,2.267,1.104L382.084,177.075z"></path><path class="st9" d="M385.17,175.613c0.336-0.288,0.611-0.384,1.043-0.384c0.133,0,0.3,0.012,0.504,0.035v1.224 c-0.216-0.012-0.371-0.023-0.491-0.023c-0.792,0-1.056,0.384-1.056,1.559v2.555h-1.367v-5.313h1.367V175.613z"></path><path class="st9" d="M388.483,178.431c0.191,0.707,0.659,1.091,1.331,1.091c0.444,0,0.852-0.155,1.128-0.443 c0.06-0.048,0.144-0.18,0.275-0.372l1.151,0.479c-0.336,0.576-0.443,0.696-0.779,0.972c-0.492,0.384-1.115,0.6-1.775,0.6 c-1.547,0-2.734-1.235-2.734-2.842c0-1.584,1.188-2.831,2.687-2.831c1.163,0,2.146,0.756,2.495,1.907 c0.096,0.336,0.144,0.647,0.144,1.056c0,0.084,0,0.18-0.012,0.384H388.483z M391.038,177.411 c-0.24-0.756-0.647-1.115-1.271-1.115c-0.647,0-1.104,0.407-1.283,1.115H391.038z"></path><path class="st9" d="M397.216,180.577v-0.336c-0.491,0.372-0.876,0.516-1.427,0.516c-1.56,0-2.795-1.259-2.795-2.842 c0-1.571,1.235-2.831,2.795-2.831c0.551,0,0.936,0.145,1.427,0.516v-0.336h1.367v5.313H397.216z M394.374,177.915 c0,0.947,0.588,1.606,1.439,1.606s1.428-0.659,1.428-1.606c0-0.96-0.576-1.596-1.451-1.596 C394.961,176.32,394.374,176.98,394.374,177.915z"></path><path class="st9" d="M401.31,178.863c0,0.396,0.061,0.516,0.265,0.516c0.119,0,0.323-0.036,0.635-0.12v1.283 c-0.348,0.096-0.563,0.132-0.791,0.132c-0.947,0-1.475-0.647-1.475-1.811v-2.363h-0.552v-1.235h0.552v-1.139l1.367-0.54v1.679 h0.815v1.235h-0.815V178.863z"></path><path class="st9" d="M404.058,178.431c0.191,0.707,0.659,1.091,1.331,1.091c0.444,0,0.852-0.155,1.128-0.443 c0.06-0.048,0.144-0.18,0.275-0.372l1.151,0.479c-0.336,0.576-0.443,0.696-0.779,0.972c-0.492,0.384-1.115,0.6-1.775,0.6 c-1.547,0-2.734-1.235-2.734-2.842c0-1.584,1.188-2.831,2.687-2.831c1.163,0,2.146,0.756,2.495,1.907 c0.096,0.336,0.144,0.647,0.144,1.056c0,0.084,0,0.18-0.012,0.384H404.058z M406.612,177.411 c-0.24-0.756-0.647-1.115-1.271-1.115c-0.647,0-1.104,0.407-1.283,1.115H406.612z"></path><path class="st9" d="M414.627,181.141v1.235h-6.477v-1.235H414.627z"></path><path class="st9" d="M419.032,180.577v-0.336c-0.504,0.372-0.876,0.516-1.427,0.516c-1.56,0-2.795-1.259-2.795-2.842 c0-1.571,1.235-2.831,2.795-2.831c0.551,0,0.936,0.132,1.427,0.516v-3.022h1.367v8H419.032z M416.189,177.915 c0,0.947,0.588,1.606,1.439,1.606c0.84,0,1.415-0.659,1.415-1.606c0-0.96-0.575-1.596-1.438-1.596 C416.777,176.32,416.189,176.991,416.189,177.915z"></path><path class="st9" d="M426.986,177.915c0,1.595-1.234,2.842-2.818,2.842c-1.606,0-2.83-1.247-2.83-2.866 c0-1.583,1.247-2.807,2.866-2.807C425.752,175.084,426.986,176.344,426.986,177.915z M422.717,177.915 c0,0.947,0.588,1.606,1.451,1.606c0.852,0,1.439-0.659,1.439-1.606c0-0.96-0.588-1.596-1.475-1.596 C423.305,176.32,422.717,176.98,422.717,177.915z"></path><path class="st9" d="M431.787,177.075c-0.6-0.636-0.827-0.756-1.354-0.756c-0.876,0-1.464,0.636-1.464,1.596 c0,0.971,0.588,1.606,1.476,1.606c0.527,0,0.876-0.204,1.379-0.791l0.912,0.875c-0.744,0.828-1.403,1.151-2.303,1.151 c-1.607,0-2.843-1.235-2.843-2.842c0-1.596,1.235-2.831,2.843-2.831c0.875,0,1.522,0.312,2.267,1.104L431.787,177.075z"></path><path class="st9" d="M436.097,176.871c-0.3-0.443-0.491-0.575-0.804-0.575c-0.336,0-0.552,0.168-0.552,0.432 c0,0.228,0.072,0.287,0.684,0.516l0.48,0.191c0.899,0.348,1.295,0.792,1.295,1.499c0,1.032-0.863,1.823-1.991,1.823 c-0.684,0-1.271-0.288-1.655-0.815c-0.167-0.228-0.264-0.42-0.419-0.84l1.115-0.443c0.336,0.672,0.552,0.863,0.972,0.863 c0.359,0,0.611-0.216,0.611-0.552c0-0.228-0.108-0.312-0.672-0.527l-0.54-0.204c-0.791-0.3-1.187-0.791-1.187-1.475 c0-0.96,0.804-1.68,1.871-1.68c0.839,0,1.402,0.384,1.858,1.26L436.097,176.871z"></path></g></g><path class="st13" d="M483.045,222.011h-166.09c-4.418,0-8-3.582-8-8v-8.9c0-4.418,3.582-8,8-8h166.09c4.418,0,8,3.582,8,8v8.9 C491.045,218.429,487.463,222.011,483.045,222.011z"></path><g><g><path class="st9" d="M329.01,213.713h-1.415v-6.692h-1.955v-1.308h5.325v1.308h-1.955V213.713z"></path><path class="st9" d="M334.938,213.713v-0.336c-0.492,0.372-0.875,0.516-1.427,0.516c-1.56,0-2.795-1.259-2.795-2.842 c0-1.571,1.235-2.831,2.795-2.831c0.552,0,0.935,0.145,1.427,0.516V208.4h1.367v5.313H334.938z M332.095,211.051 c0,0.947,0.588,1.606,1.439,1.606s1.428-0.659,1.428-1.606c0-0.96-0.576-1.596-1.451-1.596 C332.683,209.455,332.095,210.115,332.095,211.051z"></path><path class="st9" d="M340.11,210.007c-0.3-0.443-0.491-0.575-0.804-0.575c-0.336,0-0.552,0.168-0.552,0.432 c0,0.228,0.072,0.287,0.684,0.516l0.48,0.191c0.899,0.348,1.295,0.792,1.295,1.499c0,1.032-0.863,1.823-1.991,1.823 c-0.684,0-1.271-0.288-1.655-0.815c-0.167-0.228-0.264-0.42-0.419-0.84l1.115-0.443c0.336,0.672,0.552,0.863,0.972,0.863 c0.359,0,0.611-0.216,0.611-0.552c0-0.228-0.108-0.312-0.672-0.527l-0.539-0.204c-0.792-0.3-1.188-0.791-1.188-1.475 c0-0.96,0.803-1.68,1.871-1.68c0.839,0,1.402,0.384,1.858,1.26L340.11,210.007z"></path><path class="st9" d="M347.369,213.713h-1.68l-1.69-2.171l-0.504,0.504v1.667h-1.367v-8h1.367v4.582l1.931-1.896h1.799 l-2.29,2.231L347.369,213.713z"></path><path class="st9" d="M349.854,209.407c0,0.468-0.384,0.84-0.852,0.84c-0.479,0-0.863-0.372-0.863-0.852 c0-0.456,0.384-0.828,0.876-0.828C349.47,208.568,349.854,208.951,349.854,209.407z M349.854,213.03 c0,0.468-0.384,0.84-0.852,0.84c-0.479,0-0.863-0.372-0.863-0.852c0-0.456,0.384-0.828,0.876-0.828 C349.47,212.19,349.854,212.573,349.854,213.03z"></path><path class="st9" d="M357.761,210.211c-0.6-0.636-0.827-0.756-1.354-0.756c-0.876,0-1.464,0.636-1.464,1.596 c0,0.971,0.588,1.606,1.476,1.606c0.527,0,0.875-0.204,1.379-0.791l0.912,0.875c-0.744,0.828-1.403,1.151-2.303,1.151 c-1.607,0-2.843-1.235-2.843-2.842c0-1.596,1.235-2.831,2.843-2.831c0.875,0,1.522,0.312,2.267,1.104L357.761,210.211z"></path><path class="st9" d="M360.846,208.748c0.336-0.288,0.611-0.384,1.043-0.384c0.133,0,0.3,0.012,0.504,0.035v1.224 c-0.216-0.012-0.371-0.023-0.491-0.023c-0.792,0-1.056,0.384-1.056,1.559v2.555h-1.367V208.4h1.367V208.748z"></path><path class="st9" d="M364.159,211.567c0.191,0.707,0.659,1.091,1.331,1.091c0.444,0,0.852-0.155,1.128-0.443 c0.06-0.048,0.144-0.18,0.275-0.372l1.151,0.479c-0.336,0.576-0.443,0.696-0.779,0.972c-0.492,0.384-1.115,0.6-1.775,0.6 c-1.547,0-2.734-1.235-2.734-2.842c0-1.584,1.188-2.831,2.687-2.831c1.163,0,2.146,0.756,2.495,1.907 c0.096,0.336,0.144,0.647,0.144,1.056c0,0.084,0,0.18-0.012,0.384H364.159z M366.713,210.547 c-0.24-0.756-0.647-1.115-1.271-1.115c-0.647,0-1.104,0.407-1.283,1.115H366.713z"></path><path class="st9" d="M372.893,213.713v-0.336c-0.492,0.372-0.875,0.516-1.427,0.516c-1.56,0-2.795-1.259-2.795-2.842 c0-1.571,1.235-2.831,2.795-2.831c0.552,0,0.935,0.145,1.427,0.516V208.4h1.367v5.313H372.893z M370.05,211.051 c0,0.947,0.588,1.606,1.439,1.606s1.428-0.659,1.428-1.606c0-0.96-0.576-1.596-1.451-1.596 C370.638,209.455,370.05,210.115,370.05,211.051z"></path><path class="st9" d="M376.986,211.998c0,0.396,0.061,0.516,0.265,0.516c0.119,0,0.323-0.036,0.635-0.12v1.283 c-0.348,0.096-0.563,0.132-0.791,0.132c-0.947,0-1.476-0.647-1.476-1.811v-2.363h-0.552V208.4h0.552v-1.139l1.367-0.54v1.679 h0.815v1.235h-0.815V211.998z"></path><path class="st9" d="M379.735,211.567c0.191,0.707,0.659,1.091,1.331,1.091c0.444,0,0.852-0.155,1.128-0.443 c0.06-0.048,0.144-0.18,0.275-0.372l1.151,0.479c-0.336,0.576-0.443,0.696-0.779,0.972c-0.492,0.384-1.115,0.6-1.775,0.6 c-1.547,0-2.734-1.235-2.734-2.842c0-1.584,1.188-2.831,2.687-2.831c1.163,0,2.146,0.756,2.495,1.907 c0.096,0.336,0.144,0.647,0.144,1.056c0,0.084,0,0.18-0.012,0.384H379.735z M382.29,210.547 c-0.24-0.756-0.647-1.115-1.271-1.115c-0.647,0-1.104,0.407-1.283,1.115H382.29z"></path><path class="st9" d="M390.304,214.277v1.235h-6.477v-1.235H390.304z"></path><path class="st9" d="M392.19,208.4v0.336c0.492-0.371,0.875-0.516,1.427-0.516c1.56,0,2.795,1.26,2.795,2.843 c0,1.571-1.235,2.83-2.795,2.83c-0.552,0-0.935-0.144-1.427-0.516v3.143h-1.367v-8.12H392.19z M392.178,211.063 c0,0.959,0.575,1.595,1.438,1.595c0.828,0,1.416-0.671,1.416-1.595c0-0.947-0.588-1.607-1.439-1.607 C392.753,209.455,392.178,210.103,392.178,211.063z"></path><path class="st9" d="M401.236,213.713v-0.336c-0.492,0.372-0.875,0.516-1.426,0.516c-1.56,0-2.795-1.259-2.795-2.842 c0-1.571,1.235-2.831,2.795-2.831c0.552,0,0.935,0.145,1.426,0.516V208.4h1.367v5.313H401.236z M398.394,211.051 c0,0.947,0.588,1.606,1.439,1.606s1.427-0.659,1.427-1.606c0-0.96-0.576-1.596-1.451-1.596 C398.982,209.455,398.394,210.115,398.394,211.051z"></path><path class="st9" d="M407.739,210.211c-0.6-0.636-0.827-0.756-1.354-0.756c-0.876,0-1.464,0.636-1.464,1.596 c0,0.971,0.588,1.606,1.476,1.606c0.527,0,0.875-0.204,1.379-0.791l0.912,0.875c-0.744,0.828-1.403,1.151-2.303,1.151 c-1.607,0-2.843-1.235-2.843-2.842c0-1.596,1.235-2.831,2.843-2.831c0.875,0,1.522,0.312,2.267,1.104L407.739,210.211z"></path><path class="st9" d="M414.604,213.713h-1.68l-1.69-2.171l-0.504,0.504v1.667h-1.367v-8h1.367v4.582l1.931-1.896h1.799 l-2.29,2.231L414.604,213.713z"></path><path class="st9" d="M418.708,213.713v-0.336c-0.491,0.372-0.876,0.516-1.427,0.516c-1.56,0-2.795-1.259-2.795-2.842 c0-1.571,1.235-2.831,2.795-2.831c0.551,0,0.936,0.145,1.427,0.516V208.4h1.367v5.313H418.708z M415.865,211.051 c0,0.947,0.588,1.606,1.439,1.606s1.428-0.659,1.428-1.606c0-0.96-0.576-1.596-1.451-1.596 C416.453,209.455,415.865,210.115,415.865,211.051z"></path><path class="st9" d="M425.212,213.377c-0.552,0.396-0.899,0.516-1.451,0.516c-1.535,0-2.771-1.271-2.771-2.842 c0-1.571,1.235-2.831,2.771-2.831c0.552,0,0.899,0.12,1.451,0.516V208.4h1.367v5.422c0,1.715-1.151,2.866-2.866,2.866 c-0.72,0-1.403-0.229-1.931-0.647c-0.204-0.156-0.265-0.216-0.696-0.72l0.888-0.888l0.216,0.239 c0.516,0.601,0.863,0.78,1.512,0.78c0.959,0,1.511-0.6,1.511-1.631V213.377z M422.369,211.051c0,0.947,0.588,1.606,1.439,1.606 c0.84,0,1.415-0.659,1.415-1.606c0-0.96-0.575-1.596-1.438-1.596C422.957,209.455,422.369,210.115,422.369,211.051z"></path><path class="st9" d="M428.922,211.567c0.191,0.707,0.659,1.091,1.331,1.091c0.444,0,0.852-0.155,1.128-0.443 c0.06-0.048,0.144-0.18,0.275-0.372l1.151,0.479c-0.336,0.576-0.443,0.696-0.779,0.972c-0.492,0.384-1.115,0.6-1.775,0.6 c-1.547,0-2.734-1.235-2.734-2.842c0-1.584,1.188-2.831,2.687-2.831c1.163,0,2.146,0.756,2.495,1.907 c0.096,0.336,0.144,0.647,0.144,1.056c0,0.084,0,0.18-0.012,0.384H428.922z M431.477,210.547 c-0.24-0.756-0.647-1.115-1.271-1.115c-0.647,0-1.104,0.407-1.283,1.115H431.477z"></path><path class="st9" d="M436.337,210.007c-0.3-0.443-0.491-0.575-0.804-0.575c-0.336,0-0.552,0.168-0.552,0.432 c0,0.228,0.072,0.287,0.684,0.516l0.48,0.191c0.899,0.348,1.295,0.792,1.295,1.499c0,1.032-0.863,1.823-1.991,1.823 c-0.684,0-1.271-0.288-1.655-0.815c-0.167-0.228-0.264-0.42-0.419-0.84l1.115-0.443c0.336,0.672,0.552,0.863,0.972,0.863 c0.359,0,0.611-0.216,0.611-0.552c0-0.228-0.108-0.312-0.672-0.527l-0.54-0.204c-0.791-0.3-1.187-0.791-1.187-1.475 c0-0.96,0.804-1.68,1.871-1.68c0.839,0,1.402,0.384,1.858,1.26L436.337,210.007z"></path><path class="st9" d="M440.152,213.03c0,0.468-0.384,0.84-0.852,0.84c-0.479,0-0.863-0.372-0.863-0.852 c0-0.456,0.384-0.828,0.876-0.828C439.769,212.19,440.152,212.573,440.152,213.03z"></path><path class="st9" d="M444.004,210.007c-0.3-0.443-0.491-0.575-0.804-0.575c-0.336,0-0.552,0.168-0.552,0.432 c0,0.228,0.072,0.287,0.684,0.516l0.48,0.191c0.899,0.348,1.295,0.792,1.295,1.499c0,1.032-0.863,1.823-1.991,1.823 c-0.684,0-1.271-0.288-1.655-0.815c-0.167-0.228-0.264-0.42-0.419-0.84l1.115-0.443c0.336,0.672,0.552,0.863,0.972,0.863 c0.359,0,0.611-0.216,0.611-0.552c0-0.228-0.108-0.312-0.672-0.527l-0.539-0.204c-0.792-0.3-1.188-0.791-1.188-1.475 c0-0.96,0.803-1.68,1.871-1.68c0.839,0,1.402,0.384,1.858,1.26L444.004,210.007z"></path><path class="st9" d="M447.413,208.676c0.42-0.336,0.743-0.456,1.235-0.456c0.611,0,1.235,0.264,1.643,0.708 c0.42,0.443,0.588,1.007,0.588,1.919v2.866h-1.367v-2.771c0-1.079-0.264-1.487-0.972-1.487c-0.371,0-0.695,0.132-0.875,0.372 c-0.18,0.228-0.252,0.552-0.252,1.224v2.662h-1.367v-8h1.367V208.676z"></path></g></g></g></g></g></svg>
