<?xml version="1.0" encoding="utf-8"?>
<!-- Generator: Adobe Illustrator 23.0.3, SVG Export Plug-In . SVG Version: 6.00 Build 0)  -->
<svg version="1.1" xmlns="http://www.w3.org/2000/svg" xmlns:xlink="http://www.w3.org/1999/xlink" x="0px" y="0px"
	 viewBox="0 0 485 220" style="enable-background:new 0 0 485 220;" xml:space="preserve">
<style type="text/css">
	.st0{fill:#757575;}
	.st1{fill:none;stroke:#B2B2B2;stroke-width:4;stroke-linecap:round;stroke-linejoin:round;stroke-miterlimit:10;}
	.st2{display:none;}
	.st3{display:inline;fill:none;stroke:#757575;stroke-miterlimit:10;}
	.st4{display:inline;fill:#757575;}
	.st5{fill:#FFFFFF;stroke:#023550;stroke-width:5;stroke-miterlimit:10;}
	.st6{fill:none;stroke:#023550;stroke-width:5;stroke-miterlimit:10;}
	.st7{fill:#4AD9D9;stroke:#023550;stroke-width:5;stroke-miterlimit:10;}
	.st8{fill:#1ABBBC;stroke:#023550;stroke-width:5;stroke-linecap:round;stroke-miterlimit:10;}
	.st9{fill:#023550;}
	.st10{fill:#FFFFFF;stroke:#023550;stroke-width:5;stroke-linejoin:round;stroke-miterlimit:10;}
	.st11{fill:#FFFFFF;}
	.st12{fill:none;stroke:#023550;stroke-width:5;stroke-linecap:round;stroke-linejoin:round;}
	.st13{fill:#FFFFFF;stroke:#023550;stroke-width:5;stroke-linecap:round;stroke-linejoin:round;stroke-miterlimit:10;}
	.st14{fill:none;stroke:#023550;stroke-width:5;stroke-linecap:round;stroke-linejoin:round;stroke-miterlimit:10;}
	.st15{fill:#4AD9D9;stroke:#023550;stroke-width:5;stroke-linecap:round;stroke-linejoin:round;stroke-miterlimit:10;}
</style>
<g id="Layer_1">
</g>
<g id="grids_and_guides" class="st2">
	<rect x="-137.5" y="17.187" class="st3" width="760" height="260"/>
	<rect x="-137.5" y="-139.193" class="st3" width="760" height="260"/>
</g>
<g id="diagrams">
	<g>
		<path class="st13" d="M284.422,208.109H119.948c-11.046,0-20-8.954-20-20V31.891c0-11.046,8.954-20,20-20h164.475
			c11.046,0,20,8.954,20,20v156.217C304.422,199.154,295.468,208.109,284.422,208.109z"/>
		<path class="st15" d="M271.722,119.429H132.648c-4.418,0-8-3.582-8-8V72.892c0-4.418,3.582-8,8-8h139.073c4.418,0,8,3.582,8,8
			v38.537C279.722,115.848,276.14,119.429,271.722,119.429z"/>
		<path class="st15" d="M271.722,187.611H132.648c-4.418,0-8-3.582-8-8v-38.537c0-4.418,3.582-8,8-8h139.073c4.418,0,8,3.582,8,8
			v38.537C279.722,184.029,276.14,187.611,271.722,187.611z"/>
		<g>
			<path class="st9" d="M181.367,34.078c-0.773-1.218-1.218-1.546-2.087-1.546c-1.043,0-1.796,0.676-1.796,1.623
				c0,0.618,0.502,1.101,1.506,1.487l1.217,0.464c2.164,0.83,3.168,1.97,3.168,3.65c0,2.318-1.912,4.115-4.385,4.115
				c-1.719,0-3.207-0.908-3.902-2.435c-0.174-0.386-0.174-0.386-0.443-1.468l2.221-0.58c0.271,1.024,0.271,1.024,0.406,1.295
				c0.367,0.676,1.004,1.043,1.777,1.043c1.12,0,2.009-0.869,2.009-1.951c0-0.753-0.483-1.197-1.854-1.738l-1.159-0.444
				c-1.894-0.734-2.84-1.874-2.84-3.458c0-2.125,1.758-3.729,4.095-3.729c1.198,0,2.203,0.406,2.995,1.217
				c0.328,0.329,0.444,0.483,0.946,1.295L181.367,34.078z"/>
			<path class="st9" d="M187.394,40.819c0,0.638,0.098,0.831,0.426,0.831c0.193,0,0.521-0.058,1.023-0.193v2.067
				c-0.561,0.154-0.908,0.212-1.275,0.212c-1.525,0-2.375-1.043-2.375-2.917v-3.806h-0.889v-1.989h0.889v-1.835l2.201-0.869v2.704
				h1.314v1.989h-1.314V40.819z"/>
			<path class="st9" d="M196.359,43.582v-0.541c-0.792,0.599-1.41,0.831-2.299,0.831c-2.512,0-4.501-2.028-4.501-4.578
				c0-2.531,1.989-4.56,4.501-4.56c0.889,0,1.507,0.232,2.299,0.831v-0.541h2.202v8.558H196.359z M191.781,39.293
				c0,1.525,0.946,2.588,2.318,2.588c1.371,0,2.299-1.062,2.299-2.588c0-1.546-0.928-2.569-2.338-2.569
				C192.727,36.724,191.781,37.787,191.781,39.293z"/>
			<path class="st9" d="M206.831,43.041c-0.889,0.638-1.448,0.831-2.337,0.831c-2.473,0-4.463-2.048-4.463-4.578
				c0-2.531,1.99-4.56,4.463-4.56c0.889,0,1.448,0.193,2.337,0.831v-0.541h2.202v8.731c0,2.763-1.854,4.617-4.617,4.617
				c-1.158,0-2.26-0.367-3.109-1.043c-0.328-0.252-0.426-0.349-1.121-1.159l1.43-1.43l0.348,0.387
				c0.831,0.966,1.391,1.255,2.434,1.255c1.546,0,2.435-0.966,2.435-2.627V43.041z M202.253,39.293c0,1.525,0.946,2.588,2.317,2.588
				c1.354,0,2.28-1.062,2.28-2.588c0-1.546-0.927-2.569-2.318-2.569C203.199,36.724,202.253,37.787,202.253,39.293z"/>
			<path class="st9" d="M212.802,40.124c0.31,1.14,1.062,1.758,2.144,1.758c0.715,0,1.372-0.251,1.816-0.715
				c0.097-0.077,0.232-0.289,0.444-0.599l1.854,0.772c-0.541,0.928-0.715,1.121-1.256,1.565c-0.792,0.618-1.797,0.966-2.859,0.966
				c-2.491,0-4.404-1.99-4.404-4.578c0-2.551,1.913-4.56,4.328-4.56c1.873,0,3.457,1.217,4.018,3.071
				c0.154,0.541,0.232,1.044,0.232,1.7c0,0.136,0,0.29-0.02,0.618H212.802z M216.916,38.482c-0.387-1.217-1.043-1.797-2.047-1.797
				c-1.043,0-1.777,0.657-2.067,1.797H216.916z"/>
			<path class="st9" d="M226.674,43.582V33.44l-1.623,0.927l-1.082-1.873l3.169-1.797h1.815v12.885H226.674z"/>
		</g>
		<g>
			<g>
				<path class="st9" d="M189.317,96.216c0,1.623-0.231,2.454-0.946,3.227c-0.599,0.676-1.546,1.062-2.569,1.062
					c-1.217,0-2.202-0.483-3.419-1.7l1.43-1.661c0.811,0.869,1.371,1.197,1.989,1.197c0.869,0,1.236-0.618,1.236-2.125v-8.886h2.279
					V96.216z"/>
				<path class="st9" d="M200.271,95.927c0,2.568-1.989,4.578-4.539,4.578c-2.589,0-4.56-2.01-4.56-4.617
					c0-2.55,2.01-4.521,4.617-4.521C198.282,91.368,200.271,93.396,200.271,95.927z M193.394,95.927
					c0,1.525,0.946,2.588,2.338,2.588c1.371,0,2.317-1.062,2.317-2.588c0-1.546-0.946-2.569-2.376-2.569
					C194.341,93.358,193.394,94.42,193.394,95.927z"/>
				<path class="st9" d="M201.78,87.331h2.202v4.868c0.792-0.618,1.41-0.831,2.299-0.831c2.512,0,4.501,2.028,4.501,4.56
					c0,2.55-1.989,4.578-4.501,4.578c-0.889,0-1.487-0.232-2.299-0.831v0.541h-2.202V87.331z M203.963,95.927
					c0,1.525,0.928,2.588,2.28,2.588c1.371,0,2.317-1.062,2.317-2.588c0-1.526-0.946-2.569-2.356-2.569
					C204.89,93.358,203.963,94.42,203.963,95.927z"/>
				<path class="st9" d="M218.357,100.215V90.074L216.734,91l-1.082-1.873l3.169-1.797h1.815v12.885H218.357z"/>
			</g>
		</g>
		<g>
			<g>
				<path class="st9" d="M187.695,164.957c0,1.623-0.232,2.454-0.947,3.227c-0.599,0.676-1.545,1.062-2.568,1.062
					c-1.218,0-2.203-0.483-3.42-1.7l1.43-1.661c0.812,0.869,1.372,1.197,1.99,1.197c0.869,0,1.236-0.618,1.236-2.125v-8.886h2.279
					V164.957z"/>
				<path class="st9" d="M198.649,164.667c0,2.568-1.99,4.578-4.54,4.578c-2.589,0-4.559-2.01-4.559-4.617
					c0-2.55,2.009-4.521,4.616-4.521C196.659,160.108,198.649,162.136,198.649,164.667z M191.772,164.667
					c0,1.525,0.946,2.588,2.337,2.588c1.372,0,2.318-1.062,2.318-2.588c0-1.546-0.946-2.569-2.376-2.569
					C192.719,162.098,191.772,163.161,191.772,164.667z"/>
				<path class="st9" d="M200.158,156.071h2.202v4.868c0.792-0.618,1.41-0.831,2.299-0.831c2.511,0,4.501,2.028,4.501,4.56
					c0,2.55-1.99,4.578-4.501,4.578c-0.889,0-1.487-0.232-2.299-0.831v0.541h-2.202V156.071z M202.341,164.667
					c0,1.525,0.927,2.588,2.279,2.588c1.372,0,2.318-1.062,2.318-2.588c0-1.526-0.946-2.569-2.356-2.569
					C203.267,162.098,202.341,163.161,202.341,164.667z"/>
				<path class="st9" d="M214.899,167.14l4.578-5.101c0.869-0.966,1.295-1.796,1.295-2.588c0-0.928-0.696-1.526-1.759-1.526
					c-0.772,0-1.352,0.271-1.642,0.753c-0.193,0.329-0.271,0.541-0.502,1.314l-2.105-0.58c0.212-0.966,0.405-1.43,0.792-1.971
					c0.772-1.081,2.009-1.661,3.516-1.661c2.337,0,3.96,1.526,3.96,3.729c0,1.217-0.483,2.376-1.372,3.381l-3.554,3.94h5.196v2.125
					h-8.403V167.14z"/>
			</g>
		</g>
		<g>
			<g>
				<path class="st9" d="M351.051,117.736c0,1.623-0.231,2.453-0.946,3.227c-0.6,0.676-1.546,1.062-2.569,1.062
					c-1.217,0-2.202-0.483-3.419-1.7l1.429-1.661c0.812,0.869,1.372,1.197,1.99,1.197c0.869,0,1.236-0.618,1.236-2.125v-8.886h2.279
					V117.736z"/>
				<path class="st9" d="M362.005,117.447c0,2.568-1.989,4.578-4.539,4.578c-2.589,0-4.559-2.01-4.559-4.617
					c0-2.55,2.009-4.521,4.616-4.521C360.015,112.887,362.005,114.916,362.005,117.447z M355.128,117.447
					c0,1.525,0.947,2.588,2.338,2.588c1.371,0,2.318-1.062,2.318-2.588c0-1.546-0.947-2.569-2.376-2.569
					C356.075,114.877,355.128,115.94,355.128,117.447z"/>
				<path class="st9" d="M363.513,108.85h2.202v4.868c0.792-0.618,1.411-0.831,2.299-0.831c2.512,0,4.501,2.028,4.501,4.56
					c0,2.55-1.989,4.578-4.501,4.578c-0.888,0-1.487-0.232-2.299-0.831v0.541h-2.202V108.85z M365.696,117.447
					c0,1.525,0.927,2.588,2.279,2.588c1.371,0,2.318-1.062,2.318-2.588c0-1.526-0.947-2.569-2.357-2.569
					C366.623,114.877,365.696,115.94,365.696,117.447z"/>
				<path class="st9" d="M378.023,115.766c-0.483-0.715-0.792-0.928-1.295-0.928c-0.541,0-0.889,0.271-0.889,0.695
					c0,0.367,0.116,0.464,1.102,0.831l0.772,0.309c1.449,0.561,2.086,1.275,2.086,2.415c0,1.661-1.391,2.937-3.206,2.937
					c-1.102,0-2.048-0.464-2.666-1.313c-0.271-0.367-0.425-0.677-0.676-1.353l1.796-0.715c0.541,1.082,0.889,1.391,1.565,1.391
					c0.579,0,0.984-0.348,0.984-0.889c0-0.367-0.174-0.502-1.081-0.85l-0.869-0.328c-1.275-0.483-1.913-1.275-1.913-2.376
					c0-1.546,1.294-2.705,3.014-2.705c1.353,0,2.26,0.618,2.994,2.028L378.023,115.766z"/>
				<path class="st9" d="M391.972,116.094c-0.966-1.024-1.333-1.217-2.183-1.217c-1.41,0-2.357,1.023-2.357,2.569
					c0,1.564,0.947,2.588,2.376,2.588c0.851,0,1.41-0.328,2.222-1.274l1.469,1.41c-1.198,1.333-2.261,1.854-3.709,1.854
					c-2.589,0-4.578-1.99-4.578-4.578c0-2.569,1.989-4.56,4.578-4.56c1.41,0,2.453,0.503,3.65,1.777L391.972,116.094z"/>
				<path class="st9" d="M400.724,121.735v-0.541c-0.792,0.599-1.411,0.831-2.299,0.831c-2.512,0-4.501-2.028-4.501-4.578
					c0-2.531,1.989-4.56,4.501-4.56c0.888,0,1.507,0.232,2.299,0.831v-0.541h2.202v8.558H400.724z M396.145,117.447
					c0,1.525,0.947,2.588,2.318,2.588c1.372,0,2.299-1.062,2.299-2.588c0-1.546-0.927-2.569-2.337-2.569
					C397.093,114.877,396.145,115.94,396.145,117.447z"/>
				<path class="st9" d="M407.178,113.622c0.677-0.541,1.198-0.734,1.99-0.734c0.985,0,1.989,0.425,2.646,1.14
					c0.676,0.715,0.946,1.623,0.946,3.11v4.598h-2.202v-4.462c0-1.062-0.116-1.585-0.425-1.933c-0.271-0.309-0.657-0.463-1.14-0.463
					c-0.599,0-1.12,0.212-1.41,0.599c-0.29,0.367-0.406,0.889-0.406,1.971v4.288h-2.202v-8.558h2.202V113.622z"/>
				<path class="st9" d="M421.455,113.738c0.541-0.464,0.985-0.618,1.681-0.618c0.213,0,0.483,0.019,0.812,0.058v1.971
					c-0.348-0.02-0.599-0.039-0.792-0.039c-1.274,0-1.7,0.618-1.7,2.512v4.114h-2.202v-8.558h2.202V113.738z"/>
				<path class="st9" d="M430.633,121.291c-0.676,0.541-1.197,0.734-1.989,0.734c-0.985,0-1.99-0.425-2.646-1.14
					c-0.677-0.715-0.947-1.643-0.947-3.11v-4.598h2.202v4.462c0,1.062,0.116,1.584,0.426,1.933c0.271,0.309,0.656,0.463,1.14,0.463
					c0.599,0,1.12-0.212,1.41-0.599c0.289-0.348,0.405-0.908,0.405-1.989v-4.27h2.202v8.558h-2.202V121.291z"/>
				<path class="st9" d="M437.086,113.622c0.677-0.541,1.198-0.734,1.99-0.734c0.985,0,1.989,0.425,2.646,1.14
					c0.676,0.715,0.946,1.623,0.946,3.11v4.598h-2.202v-4.462c0-1.062-0.116-1.585-0.425-1.933c-0.271-0.309-0.657-0.463-1.14-0.463
					c-0.599,0-1.12,0.212-1.41,0.599c-0.29,0.367-0.406,0.889-0.406,1.971v4.288h-2.202v-8.558h2.202V113.622z"/>
				<path class="st9" d="M347.766,133.445c0,0.753-0.618,1.353-1.371,1.353c-0.773,0-1.392-0.6-1.392-1.372
					c0-0.734,0.618-1.333,1.411-1.333C347.148,132.092,347.766,132.71,347.766,133.445z M347.476,144.919h-2.202v-8.558h2.202
					V144.919z"/>
				<path class="st9" d="M351.746,136.806c0.677-0.541,1.198-0.734,1.99-0.734c0.985,0,1.989,0.425,2.646,1.14
					c0.676,0.715,0.946,1.623,0.946,3.11v4.598h-2.202v-4.462c0-1.062-0.116-1.585-0.425-1.933c-0.271-0.309-0.657-0.463-1.14-0.463
					c-0.599,0-1.12,0.212-1.41,0.599c-0.29,0.367-0.406,0.889-0.406,1.971v4.288h-2.202v-8.558h2.202V136.806z"/>
				<path class="st9" d="M366.024,136.362v0.541c0.793-0.599,1.41-0.831,2.299-0.831c2.512,0,4.501,2.028,4.501,4.578
					c0,2.531-1.989,4.56-4.501,4.56c-0.889,0-1.506-0.232-2.299-0.831v5.062h-2.202v-13.078H366.024z M366.006,140.65
					c0,1.546,0.927,2.569,2.317,2.569c1.333,0,2.28-1.081,2.28-2.569c0-1.525-0.947-2.588-2.318-2.588
					C366.932,138.062,366.006,139.105,366.006,140.65z"/>
				<path class="st9" d="M380.592,144.919v-0.541c-0.792,0.599-1.411,0.831-2.299,0.831c-2.512,0-4.501-2.028-4.501-4.578
					c0-2.531,1.989-4.56,4.501-4.56c0.888,0,1.507,0.232,2.299,0.831v-0.541h2.202v8.558H380.592z M376.013,140.631
					c0,1.525,0.947,2.588,2.318,2.588c1.372,0,2.299-1.062,2.299-2.588c0-1.546-0.927-2.569-2.337-2.569
					C376.96,138.062,376.013,139.125,376.013,140.631z"/>
				<path class="st9" d="M387.045,136.922c0.541-0.464,0.985-0.618,1.681-0.618c0.213,0,0.483,0.019,0.812,0.058v1.971
					c-0.348-0.02-0.599-0.039-0.792-0.039c-1.274,0-1.7,0.618-1.7,2.512v4.114h-2.202v-8.558h2.202V136.922z"/>
				<path class="st9" d="M396.918,144.919v-0.541c-0.792,0.599-1.411,0.831-2.299,0.831c-2.512,0-4.501-2.028-4.501-4.578
					c0-2.531,1.989-4.56,4.501-4.56c0.888,0,1.507,0.232,2.299,0.831v-0.541h2.202v8.558H396.918z M392.339,140.631
					c0,1.525,0.947,2.588,2.318,2.588c1.372,0,2.299-1.062,2.299-2.588c0-1.546-0.927-2.569-2.337-2.569
					C393.286,138.062,392.339,139.125,392.339,140.631z"/>
				<path class="st9" d="M401.188,144.919v-12.885h2.202v12.885H401.188z"/>
				<path class="st9" d="M405.477,144.919v-12.885h2.202v12.885H405.477z"/>
				<path class="st9" d="M411.466,141.461c0.309,1.14,1.062,1.758,2.145,1.758c0.715,0,1.371-0.251,1.815-0.715
					c0.097-0.077,0.231-0.289,0.444-0.599l1.854,0.772c-0.541,0.928-0.715,1.121-1.256,1.565c-0.792,0.618-1.796,0.966-2.858,0.966
					c-2.492,0-4.404-1.99-4.404-4.578c0-2.551,1.912-4.56,4.327-4.56c1.873,0,3.457,1.217,4.018,3.071
					c0.154,0.541,0.231,1.044,0.231,1.7c0,0.136,0,0.29-0.019,0.618H411.466z M415.58,139.82c-0.386-1.217-1.043-1.797-2.047-1.797
					c-1.044,0-1.777,0.657-2.067,1.797H415.58z"/>
				<path class="st9" d="M419.291,144.919v-12.885h2.202v12.885H419.291z"/>
				<path class="st9" d="M426.285,143.818c0,0.754-0.618,1.353-1.372,1.353c-0.772,0-1.391-0.599-1.391-1.371
					c0-0.734,0.618-1.333,1.41-1.333C425.667,142.466,426.285,143.084,426.285,143.818z"/>
			</g>
		</g>
		<polyline class="st14" points="279.722,93.677 328.714,93.677 328.714,162.322 279.722,162.322 		"/>
	</g>
</g>
</svg>
