<?xml version="1.0" encoding="utf-8" standalone="yes"?><!-- Generator: Adobe Illustrator 23.0.1, SVG Export Plug-In . SVG Version: 6.00 Build 0)  --><svg xmlns="http://www.w3.org/2000/svg" xmlns:xlink="http://www.w3.org/1999/xlink" version="1.1" x="0px" y="0px" viewBox="105 80 590 140" style="enable-background:new 105 80 590 140;zoom: 1; ;" xml:space="preserve"><style type="text/css">
        .st0{fill:#757575;}
        .st1{fill:none;stroke:#B2B2B2;stroke-width:4;stroke-linecap:round;stroke-linejoin:round;stroke-miterlimit:10;}
        .st2{display:none;}
        .st3{display:inline;fill:none;stroke:#757575;stroke-miterlimit:10;}
        .st4{display:inline;fill:#757575;}
        .st5{fill:#FFFFFF;stroke:#023550;stroke-width:5;stroke-miterlimit:10;}
        .st6{fill:none;stroke:#023550;stroke-width:5;stroke-miterlimit:10;}
        .st7{fill:#4AD9D9;stroke:#023550;stroke-width:5;stroke-miterlimit:10;}
        .st8{fill:#1ABBBC;stroke:#023550;stroke-width:5;stroke-linecap:round;stroke-miterlimit:10;}
        .st9{fill:#023550;}
        .st10{fill:#FFFFFF;stroke:#023550;stroke-width:5;stroke-linejoin:round;stroke-miterlimit:10;}
        .st11{fill:#FFFFFF;}
        .st12{fill:none;stroke:#023550;stroke-width:5;stroke-linecap:round;stroke-linejoin:round;}
        .st13{fill:#4AD9D9;stroke:#023550;stroke-width:5;stroke-linecap:round;stroke-linejoin:round;stroke-miterlimit:10;}
        .st14{fill:none;stroke:#023550;stroke-width:5;stroke-linecap:round;stroke-linejoin:round;stroke-miterlimit:10;}
        .st15{fill:#FFFFFF;stroke:#023550;stroke-width:5;stroke-linecap:round;stroke-linejoin:round;stroke-miterlimit:10;}
</style><g id="Layer_1"></g><g id="grids_and_guides" class="st2"><rect x="20" y="20" class="st3" width="760" height="260"></rect></g><g id="diagrams"><g><path class="st13" d="M657.442,199.952H334.9c-11.046,0-20-8.954-20-20v-59.904c0-11.046,8.954-20,20-20h322.542 c11.046,0,20,8.954,20,20v59.904C677.442,190.998,668.488,199.952,657.442,199.952z"></path><circle class="st14" cx="170.863" cy="150" r="48.305"></circle><path class="st15" d="M423.967,182.201h-81.953c-4.418,0-8-3.582-8-8v-18.448c0-4.418,3.582-8,8-8h81.953c4.418,0,8,3.582,8,8 v18.448C431.967,178.62,428.385,182.201,423.967,182.201z"></path><path class="st15" d="M537.147,182.201h-81.953c-4.418,0-8-3.582-8-8v-18.448c0-4.418,3.582-8,8-8h81.953c4.418,0,8,3.582,8,8 v18.448C545.147,178.62,541.566,182.201,537.147,182.201z"></path><path class="st15" d="M650.429,182.201h-81.953c-4.418,0-8-3.582-8-8v-18.448c0-4.418,3.582-8,8-8h81.953c4.418,0,8,3.582,8,8 v18.448C658.429,178.62,654.847,182.201,650.429,182.201z"></path><g><path class="st9" d="M470.366,129.393h-2.177v-12.305h2.823c1.549,0,2.472,0.276,3.228,0.959 c0.775,0.701,1.218,1.734,1.218,2.859c0,1.126-0.442,2.177-1.218,2.878c-0.756,0.683-1.679,0.96-3.228,0.96h-0.646V129.393z M471.16,122.77c0.83,0,1.31-0.129,1.642-0.461c0.332-0.313,0.517-0.83,0.517-1.402c0-0.553-0.185-1.051-0.498-1.365 c-0.351-0.332-0.83-0.461-1.66-0.461h-0.794v3.689H471.16z"></path><path class="st9" d="M478.944,118.435c0,0.72-0.59,1.291-1.31,1.291c-0.738,0-1.328-0.571-1.328-1.31 c0-0.701,0.59-1.272,1.347-1.272C478.354,117.144,478.944,117.734,478.944,118.435z M478.668,129.393h-2.104v-8.173h2.104 V129.393z"></path><path class="st9" d="M482.744,121.22v0.517c0.756-0.571,1.347-0.793,2.195-0.793c2.398,0,4.298,1.938,4.298,4.372 c0,2.417-1.899,4.354-4.298,4.354c-0.849,0-1.439-0.221-2.195-0.793v4.833h-2.104V121.22H482.744z M482.726,125.316 c0,1.476,0.886,2.454,2.214,2.454c1.272,0,2.177-1.033,2.177-2.454c0-1.457-0.904-2.472-2.214-2.472 C483.611,122.844,482.726,123.84,482.726,125.316z"></path><path class="st9" d="M492.316,126.091c0.296,1.088,1.015,1.679,2.048,1.679c0.683,0,1.311-0.24,1.734-0.683 c0.093-0.074,0.222-0.277,0.425-0.572l1.771,0.738c-0.517,0.885-0.683,1.069-1.199,1.494c-0.756,0.59-1.716,0.922-2.73,0.922 c-2.38,0-4.206-1.899-4.206-4.372c0-2.435,1.826-4.354,4.133-4.354c1.789,0,3.302,1.162,3.837,2.934 c0.147,0.517,0.222,0.996,0.222,1.623c0,0.129,0,0.276-0.019,0.591H492.316z M496.246,124.523 c-0.369-1.162-0.996-1.716-1.955-1.716c-0.996,0-1.697,0.627-1.975,1.716H496.246z"></path><path class="st9" d="M499.787,129.393v-12.305h2.104v12.305H499.787z"></path><path class="st9" d="M506.243,118.435c0,0.72-0.59,1.291-1.31,1.291c-0.738,0-1.328-0.571-1.328-1.31 c0-0.701,0.59-1.272,1.347-1.272C505.653,117.144,506.243,117.734,506.243,118.435z M505.967,129.393h-2.104v-8.173h2.104 V129.393z"></path><path class="st9" d="M510.043,121.645c0.646-0.517,1.144-0.701,1.899-0.701c0.941,0,1.9,0.406,2.527,1.089 c0.646,0.683,0.904,1.549,0.904,2.97v4.391h-2.103v-4.262c0-1.015-0.111-1.513-0.406-1.845c-0.258-0.295-0.627-0.442-1.089-0.442 c-0.571,0-1.069,0.203-1.347,0.571c-0.276,0.351-0.387,0.849-0.387,1.882v4.096h-2.104v-8.173h2.104V121.645z"></path><path class="st9" d="M518.97,126.091c0.296,1.088,1.015,1.679,2.048,1.679c0.683,0,1.311-0.24,1.734-0.683 c0.092-0.074,0.222-0.277,0.425-0.572l1.771,0.738c-0.517,0.885-0.683,1.069-1.199,1.494c-0.756,0.59-1.716,0.922-2.73,0.922 c-2.38,0-4.206-1.899-4.206-4.372c0-2.435,1.826-4.354,4.133-4.354c1.789,0,3.302,1.162,3.837,2.934 c0.147,0.517,0.222,0.996,0.222,1.623c0,0.129,0,0.276-0.019,0.591H518.97z M522.899,124.523 c-0.369-1.162-0.996-1.716-1.955-1.716c-0.996,0-1.697,0.627-1.975,1.716H522.899z"></path></g><g><path class="st9" d="M363.117,160.988c-0.738-1.162-1.162-1.476-1.992-1.476c-0.996,0-1.716,0.646-1.716,1.549 c0,0.591,0.48,1.052,1.439,1.421l1.162,0.442c2.066,0.794,3.026,1.882,3.026,3.487c0,2.214-1.827,3.929-4.188,3.929 c-1.642,0-3.062-0.866-3.727-2.324c-0.166-0.369-0.166-0.369-0.424-1.402l2.122-0.553c0.258,0.978,0.258,0.978,0.388,1.235 c0.351,0.646,0.959,0.996,1.697,0.996c1.07,0,1.918-0.83,1.918-1.862c0-0.72-0.461-1.145-1.771-1.661l-1.107-0.424 c-1.808-0.701-2.712-1.789-2.712-3.303c0-2.028,1.679-3.56,3.911-3.56c1.144,0,2.103,0.387,2.859,1.162 c0.313,0.313,0.424,0.461,0.904,1.235L363.117,160.988z"></path><path class="st9" d="M368.872,167.426c0,0.608,0.092,0.793,0.406,0.793c0.184,0,0.498-0.056,0.978-0.185v1.974 c-0.535,0.147-0.867,0.203-1.218,0.203c-1.457,0-2.269-0.996-2.269-2.785v-3.635h-0.849v-1.9h0.849v-1.752l2.103-0.83v2.582 h1.254v1.9h-1.254V167.426z"></path><path class="st9" d="M377.432,170.064v-0.517c-0.757,0.572-1.347,0.793-2.195,0.793c-2.398,0-4.298-1.937-4.298-4.372 c0-2.416,1.9-4.354,4.298-4.354c0.849,0,1.438,0.222,2.195,0.793v-0.517h2.103v8.173H377.432z M373.059,165.968 c0,1.458,0.904,2.473,2.214,2.473c1.31,0,2.195-1.015,2.195-2.473c0-1.476-0.885-2.453-2.232-2.453 C373.963,163.515,373.059,164.53,373.059,165.968z"></path><path class="st9" d="M387.429,169.548c-0.849,0.608-1.384,0.793-2.232,0.793c-2.361,0-4.261-1.955-4.261-4.372 c0-2.416,1.9-4.354,4.261-4.354c0.849,0,1.384,0.185,2.232,0.793v-0.517h2.103v8.339c0,2.638-1.771,4.409-4.409,4.409 c-1.107,0-2.159-0.351-2.97-0.996c-0.313-0.24-0.406-0.332-1.07-1.107l1.365-1.365l0.332,0.369 c0.793,0.923,1.328,1.199,2.324,1.199c1.476,0,2.325-0.922,2.325-2.509V169.548z M383.057,165.968 c0,1.458,0.904,2.473,2.214,2.473c1.292,0,2.177-1.015,2.177-2.473c0-1.476-0.885-2.453-2.213-2.453 C383.961,163.515,383.057,164.53,383.057,165.968z"></path><path class="st9" d="M393.128,166.762c0.295,1.088,1.015,1.679,2.048,1.679c0.683,0,1.31-0.24,1.734-0.683 c0.092-0.074,0.221-0.277,0.424-0.572l1.771,0.738c-0.517,0.885-0.683,1.069-1.199,1.494c-0.756,0.59-1.715,0.922-2.73,0.922 c-2.38,0-4.206-1.899-4.206-4.372c0-2.435,1.826-4.354,4.132-4.354c1.789,0,3.302,1.162,3.837,2.934 c0.147,0.517,0.221,0.996,0.221,1.623c0,0.129,0,0.276-0.018,0.591H393.128z M397.057,165.194 c-0.369-1.162-0.996-1.716-1.955-1.716c-0.997,0-1.697,0.627-1.974,1.716H397.057z"></path><path class="st9" d="M406.372,170.064v-9.686l-1.55,0.886l-1.032-1.789l3.025-1.716h1.733v12.305H406.372z"></path></g><g><g><line class="st12" x1="230.337" y1="150" x2="284.315" y2="150"></line><g><polygon class="st9" points="303.732,150 276.371,161.18 282.863,150 276.371,138.823"></polygon></g></g></g><g><path class="st9" d="M476.298,160.988c-0.738-1.162-1.162-1.476-1.993-1.476c-0.996,0-1.715,0.646-1.715,1.549 c0,0.591,0.479,1.052,1.438,1.421l1.162,0.442c2.066,0.794,3.025,1.882,3.025,3.487c0,2.214-1.826,3.929-4.188,3.929 c-1.642,0-3.062-0.866-3.727-2.324c-0.166-0.369-0.166-0.369-0.424-1.402l2.121-0.553c0.259,0.978,0.259,0.978,0.388,1.235 c0.351,0.646,0.959,0.996,1.697,0.996c1.069,0,1.918-0.83,1.918-1.862c0-0.72-0.461-1.145-1.771-1.661l-1.107-0.424 c-1.808-0.701-2.711-1.789-2.711-3.303c0-2.028,1.679-3.56,3.91-3.56c1.145,0,2.104,0.387,2.859,1.162 c0.314,0.313,0.425,0.461,0.904,1.235L476.298,160.988z"></path><path class="st9" d="M482.052,167.426c0,0.608,0.093,0.793,0.406,0.793c0.185,0,0.498-0.056,0.978-0.185v1.974 c-0.535,0.147-0.867,0.203-1.218,0.203c-1.457,0-2.269-0.996-2.269-2.785v-3.635h-0.849v-1.9h0.849v-1.752l2.103-0.83v2.582 h1.255v1.9h-1.255V167.426z"></path><path class="st9" d="M490.611,170.064v-0.517c-0.757,0.572-1.347,0.793-2.195,0.793c-2.398,0-4.299-1.937-4.299-4.372 c0-2.416,1.9-4.354,4.299-4.354c0.849,0,1.438,0.222,2.195,0.793v-0.517h2.103v8.173H490.611z M486.239,165.968 c0,1.458,0.903,2.473,2.214,2.473c1.31,0,2.195-1.015,2.195-2.473c0-1.476-0.886-2.453-2.232-2.453 C487.143,163.515,486.239,164.53,486.239,165.968z"></path><path class="st9" d="M500.609,169.548c-0.849,0.608-1.384,0.793-2.232,0.793c-2.361,0-4.262-1.955-4.262-4.372 c0-2.416,1.9-4.354,4.262-4.354c0.849,0,1.384,0.185,2.232,0.793v-0.517h2.103v8.339c0,2.638-1.771,4.409-4.409,4.409 c-1.106,0-2.158-0.351-2.97-0.996c-0.313-0.24-0.406-0.332-1.07-1.107l1.365-1.365l0.332,0.369 c0.794,0.923,1.328,1.199,2.325,1.199c1.476,0,2.324-0.922,2.324-2.509V169.548z M496.237,165.968 c0,1.458,0.903,2.473,2.214,2.473c1.291,0,2.177-1.015,2.177-2.473c0-1.476-0.886-2.453-2.214-2.453 C497.141,163.515,496.237,164.53,496.237,165.968z"></path><path class="st9" d="M506.308,166.762c0.296,1.088,1.015,1.679,2.048,1.679c0.683,0,1.311-0.24,1.734-0.683 c0.092-0.074,0.222-0.277,0.425-0.572l1.771,0.738c-0.517,0.885-0.683,1.069-1.199,1.494c-0.756,0.59-1.716,0.922-2.73,0.922 c-2.38,0-4.206-1.899-4.206-4.372c0-2.435,1.826-4.354,4.133-4.354c1.789,0,3.302,1.162,3.837,2.934 c0.147,0.517,0.222,0.996,0.222,1.623c0,0.129,0,0.276-0.019,0.591H506.308z M510.237,165.194 c-0.369-1.162-0.996-1.716-1.955-1.716c-0.996,0-1.697,0.627-1.975,1.716H510.237z"></path><path class="st9" d="M517.799,168.33l4.372-4.87c0.831-0.922,1.236-1.716,1.236-2.472c0-0.886-0.664-1.458-1.679-1.458 c-0.738,0-1.291,0.259-1.568,0.72c-0.184,0.313-0.258,0.517-0.479,1.255l-2.011-0.554c0.203-0.922,0.388-1.365,0.757-1.882 c0.737-1.033,1.918-1.586,3.357-1.586c2.232,0,3.781,1.457,3.781,3.56c0,1.163-0.461,2.27-1.31,3.229l-3.395,3.764h4.963v2.029 h-8.025V168.33z"></path></g><g><path class="st9" d="M589.579,160.988c-0.738-1.162-1.162-1.476-1.993-1.476c-0.996,0-1.715,0.646-1.715,1.549 c0,0.591,0.479,1.052,1.438,1.421l1.162,0.442c2.066,0.794,3.025,1.882,3.025,3.487c0,2.214-1.826,3.929-4.188,3.929 c-1.642,0-3.062-0.866-3.727-2.324c-0.166-0.369-0.166-0.369-0.424-1.402l2.121-0.553c0.259,0.978,0.259,0.978,0.388,1.235 c0.351,0.646,0.959,0.996,1.697,0.996c1.069,0,1.918-0.83,1.918-1.862c0-0.72-0.461-1.145-1.771-1.661l-1.107-0.424 c-1.808-0.701-2.711-1.789-2.711-3.303c0-2.028,1.679-3.56,3.91-3.56c1.145,0,2.104,0.387,2.859,1.162 c0.314,0.313,0.425,0.461,0.904,1.235L589.579,160.988z"></path><path class="st9" d="M595.333,167.426c0,0.608,0.093,0.793,0.406,0.793c0.185,0,0.498-0.056,0.978-0.185v1.974 c-0.535,0.147-0.867,0.203-1.218,0.203c-1.457,0-2.269-0.996-2.269-2.785v-3.635h-0.849v-1.9h0.849v-1.752l2.103-0.83v2.582 h1.255v1.9h-1.255V167.426z"></path><path class="st9" d="M603.893,170.064v-0.517c-0.757,0.572-1.347,0.793-2.195,0.793c-2.398,0-4.299-1.937-4.299-4.372 c0-2.416,1.9-4.354,4.299-4.354c0.849,0,1.438,0.222,2.195,0.793v-0.517h2.103v8.173H603.893z M599.521,165.968 c0,1.458,0.903,2.473,2.214,2.473c1.31,0,2.195-1.015,2.195-2.473c0-1.476-0.886-2.453-2.232-2.453 C600.424,163.515,599.521,164.53,599.521,165.968z"></path><path class="st9" d="M613.891,169.548c-0.849,0.608-1.384,0.793-2.232,0.793c-2.361,0-4.262-1.955-4.262-4.372 c0-2.416,1.9-4.354,4.262-4.354c0.849,0,1.384,0.185,2.232,0.793v-0.517h2.103v8.339c0,2.638-1.771,4.409-4.409,4.409 c-1.106,0-2.158-0.351-2.97-0.996c-0.313-0.24-0.406-0.332-1.07-1.107l1.365-1.365l0.332,0.369 c0.794,0.923,1.328,1.199,2.325,1.199c1.476,0,2.324-0.922,2.324-2.509V169.548z M609.519,165.968 c0,1.458,0.903,2.473,2.214,2.473c1.291,0,2.177-1.015,2.177-2.473c0-1.476-0.886-2.453-2.214-2.453 C610.422,163.515,609.519,164.53,609.519,165.968z"></path><path class="st9" d="M619.589,166.762c0.296,1.088,1.015,1.679,2.048,1.679c0.683,0,1.311-0.24,1.734-0.683 c0.092-0.074,0.222-0.277,0.425-0.572l1.771,0.738c-0.517,0.885-0.683,1.069-1.199,1.494c-0.756,0.59-1.716,0.922-2.73,0.922 c-2.38,0-4.206-1.899-4.206-4.372c0-2.435,1.826-4.354,4.133-4.354c1.789,0,3.302,1.162,3.837,2.934 c0.147,0.517,0.222,0.996,0.222,1.623c0,0.129,0,0.276-0.019,0.591H619.589z M623.519,165.194 c-0.369-1.162-0.996-1.716-1.955-1.716c-0.996,0-1.697,0.627-1.975,1.716H623.519z"></path><path class="st9" d="M634.493,162.648c1.162,0,1.808-0.535,1.808-1.55c0-0.94-0.682-1.568-1.715-1.568 c-0.83,0-1.292,0.332-1.956,1.365l-1.826-0.978c1.015-1.752,2.085-2.435,3.764-2.435c2.25,0,3.893,1.494,3.893,3.56 c0,0.997-0.351,1.79-1.107,2.473c0.978,0.849,1.365,1.679,1.365,2.878c0,2.287-1.771,3.947-4.206,3.947 c-1.236,0-2.343-0.461-3.062-1.272c-0.517-0.572-0.756-1.107-1.033-2.288l2.122-0.553c0.185,0.737,0.295,1.015,0.479,1.328 c0.313,0.479,0.83,0.737,1.531,0.737c1.162,0,1.974-0.774,1.974-1.881c0-1.162-0.701-1.771-2.029-1.771h-0.959v-1.992H634.493z"></path></g></g></g></svg>
