<?xml version="1.0" encoding="utf-8"?>
<!-- Generator: Adobe Illustrator 23.0.3, SVG Export Plug-In . SVG Version: 6.00 Build 0)  -->
<svg version="1.1" xmlns="http://www.w3.org/2000/svg" xmlns:xlink="http://www.w3.org/1999/xlink" x="0px" y="0px"
	 viewBox="0 0 485 120" style="enable-background:new 0 0 485 120;" xml:space="preserve">
<style type="text/css">
	.st0{fill:#757575;}
	.st1{fill:none;stroke:#B2B2B2;stroke-width:4;stroke-linecap:round;stroke-linejoin:round;stroke-miterlimit:10;}
	.st2{display:none;}
	.st3{display:inline;fill:none;stroke:#757575;stroke-miterlimit:10;}
	.st4{display:inline;fill:#757575;}
	.st5{fill:#FFFFFF;stroke:#023550;stroke-width:5;stroke-miterlimit:10;}
	.st6{fill:none;stroke:#023550;stroke-width:5;stroke-miterlimit:10;}
	.st7{fill:#4AD9D9;stroke:#023550;stroke-width:5;stroke-miterlimit:10;}
	.st8{fill:#1ABBBC;stroke:#023550;stroke-width:5;stroke-linecap:round;stroke-miterlimit:10;}
	.st9{fill:#023550;}
	.st10{fill:#FFFFFF;stroke:#023550;stroke-width:5;stroke-linejoin:round;stroke-miterlimit:10;}
	.st11{fill:#FFFFFF;}
	.st12{fill:none;stroke:#023550;stroke-width:5;stroke-linecap:round;stroke-linejoin:round;}
	.st13{fill:#FFFFFF;stroke:#023550;stroke-width:5;stroke-linecap:round;stroke-linejoin:round;stroke-miterlimit:10;}
	.st14{fill:none;stroke:#023550;stroke-width:5;stroke-linecap:round;stroke-linejoin:round;stroke-miterlimit:10;}
	.st15{fill:#4AD9D9;stroke:#023550;stroke-width:5;stroke-linecap:round;stroke-linejoin:round;stroke-miterlimit:10;}
</style>
<g id="Layer_1">
</g>
<g id="grids_and_guides" class="st2">
	<rect x="-137.5" y="18.01" class="st3" width="760" height="260"/>
</g>
<g id="diagrams">
	<g>
		<g>
			<g>
				<path class="st5" d="M259.638,30.696v58.601c0.185,5.348,12.907,9.651,28.573,9.651c15.659,0,28.388-4.302,28.573-9.651V30.696
					c-0.2-5.341-12.922-9.643-28.573-9.643C272.553,21.053,259.839,25.355,259.638,30.696z"/>
				<path class="st6" d="M259.635,30.82c0,5.394,12.793,9.767,28.573,9.767c15.781,0,28.573-4.373,28.573-9.767"/>
				<path class="st6" d="M259.635,50.273c0,5.394,12.793,9.767,28.573,9.767c15.781,0,28.573-4.373,28.573-9.767"/>
				<path class="st6" d="M259.635,69.727c0,5.394,12.793,9.767,28.573,9.767c15.781,0,28.573-4.373,28.573-9.767"/>
			</g>
		</g>
		<circle class="st7" cx="176.548" cy="60" r="32.709"/>
		<g>
			<line class="st8" x1="244.221" y1="55.276" x2="224.671" y2="55.276"/>
			<line class="st8" x1="244.221" y1="64.724" x2="224.671" y2="64.724"/>
		</g>
		<g>
			<g>
				<path class="st9" d="M343.078,41.939c-0.883-1.391-1.391-1.767-2.384-1.767c-1.192,0-2.054,0.773-2.054,1.855
					c0,0.706,0.574,1.258,1.722,1.7l1.392,0.529c2.473,0.949,3.621,2.252,3.621,4.173c0,2.649-2.187,4.703-5.013,4.703
					c-1.965,0-3.665-1.037-4.46-2.782c-0.198-0.441-0.198-0.441-0.508-1.678l2.539-0.662c0.31,1.17,0.31,1.17,0.464,1.479
					c0.42,0.772,1.148,1.191,2.031,1.191c1.281,0,2.297-0.993,2.297-2.229c0-0.861-0.553-1.369-2.12-1.987l-1.324-0.508
					c-2.164-0.839-3.246-2.142-3.246-3.952c0-2.429,2.009-4.262,4.681-4.262c1.369,0,2.518,0.464,3.423,1.392
					c0.375,0.375,0.508,0.552,1.081,1.479L343.078,41.939z"/>
				<path class="st9" d="M357.187,47.9c0,2.937-2.274,5.232-5.188,5.232c-2.959,0-5.211-2.296-5.211-5.277
					c0-2.914,2.297-5.166,5.277-5.166C354.913,42.69,357.187,45.008,357.187,47.9z M349.327,47.9c0,1.744,1.082,2.958,2.672,2.958
					c1.567,0,2.649-1.214,2.649-2.958c0-1.767-1.082-2.937-2.716-2.937C350.409,44.964,349.327,46.178,349.327,47.9z"/>
				<path class="st9" d="M365.291,52.294c-0.772,0.618-1.368,0.839-2.273,0.839c-1.126,0-2.274-0.485-3.025-1.303
					c-0.772-0.816-1.082-1.877-1.082-3.555v-5.255h2.518v5.101c0,1.214,0.132,1.811,0.485,2.208c0.31,0.353,0.751,0.529,1.303,0.529
					c0.685,0,1.28-0.242,1.612-0.685c0.331-0.396,0.463-1.037,0.463-2.273v-4.88h2.518v9.781h-2.518V52.294z"/>
				<path class="st9" d="M372.667,43.661c0.618-0.53,1.126-0.707,1.921-0.707c0.242,0,0.552,0.022,0.927,0.066v2.252
					c-0.397-0.021-0.685-0.044-0.905-0.044c-1.457,0-1.942,0.706-1.942,2.87v4.703h-2.518v-9.781h2.518V43.661z"/>
				<path class="st9" d="M383.906,46.355c-1.104-1.17-1.524-1.391-2.495-1.391c-1.612,0-2.694,1.17-2.694,2.937
					c0,1.788,1.082,2.958,2.716,2.958c0.972,0,1.612-0.375,2.539-1.457l1.679,1.612c-1.369,1.523-2.584,2.119-4.239,2.119
					c-2.959,0-5.233-2.274-5.233-5.232c0-2.937,2.274-5.211,5.233-5.211c1.611,0,2.804,0.574,4.173,2.031L383.906,46.355z"/>
				<path class="st9" d="M388.764,48.85c0.353,1.303,1.214,2.009,2.45,2.009c0.817,0,1.567-0.287,2.075-0.816
					c0.11-0.089,0.266-0.331,0.508-0.685l2.12,0.883c-0.618,1.061-0.817,1.281-1.436,1.789c-0.905,0.706-2.053,1.104-3.268,1.104
					c-2.848,0-5.034-2.274-5.034-5.232c0-2.915,2.187-5.211,4.946-5.211c2.142,0,3.952,1.391,4.592,3.511
					c0.177,0.618,0.266,1.192,0.266,1.942c0,0.155,0,0.332-0.022,0.707H388.764z M393.467,46.973
					c-0.441-1.391-1.192-2.054-2.34-2.054c-1.192,0-2.031,0.751-2.362,2.054H393.467z"/>
				<path class="st9" d="M346.633,79.299h-2.958l-3.113-5.586c-0.42,0.021-0.597,0.021-0.905,0.021h-0.772v5.564h-2.605V64.572
					h3.378c1.965,0,3.135,0.331,4.106,1.147c0.994,0.839,1.567,2.12,1.567,3.489c0,1.634-0.839,3.091-2.207,3.842L346.633,79.299z
					 M339.833,71.372c2.009,0,2.937-0.706,2.937-2.208c0-0.662-0.266-1.28-0.685-1.634c-0.464-0.419-1.126-0.574-2.252-0.574h-0.949
					v4.416H339.833z"/>
				<path class="st9" d="M349.858,75.347c0.353,1.303,1.214,2.009,2.45,2.009c0.817,0,1.567-0.287,2.075-0.816
					c0.11-0.089,0.266-0.331,0.508-0.685l2.12,0.883c-0.618,1.061-0.817,1.281-1.436,1.789c-0.905,0.706-2.053,1.104-3.268,1.104
					c-2.848,0-5.034-2.274-5.034-5.232c0-2.915,2.187-5.211,4.946-5.211c2.142,0,3.952,1.391,4.592,3.511
					c0.177,0.618,0.266,1.192,0.266,1.942c0,0.155,0,0.332-0.022,0.707H349.858z M354.56,73.47c-0.441-1.391-1.192-2.054-2.34-2.054
					c-1.192,0-2.031,0.751-2.362,2.054H354.56z"/>
				<path class="st9" d="M361.296,69.518v0.618c0.905-0.685,1.611-0.949,2.627-0.949c2.87,0,5.145,2.318,5.145,5.232
					c0,2.893-2.274,5.211-5.145,5.211c-1.016,0-1.722-0.265-2.627-0.949v5.785h-2.518V69.518H361.296z M361.273,74.419
					c0,1.767,1.06,2.937,2.649,2.937c1.523,0,2.605-1.236,2.605-2.937c0-1.744-1.082-2.958-2.649-2.958
					C362.333,71.461,361.273,72.653,361.273,74.419z"/>
				<path class="st9" d="M380.571,74.398c0,2.937-2.274,5.232-5.188,5.232c-2.959,0-5.211-2.296-5.211-5.276
					c0-2.915,2.297-5.167,5.277-5.167C378.297,69.187,380.571,71.505,380.571,74.398z M372.711,74.398
					c0,1.744,1.082,2.958,2.672,2.958c1.567,0,2.649-1.214,2.649-2.958c0-1.767-1.082-2.937-2.716-2.937
					C373.793,71.461,372.711,72.675,372.711,74.398z"/>
				<path class="st9" d="M387.02,72.477c-0.553-0.817-0.905-1.061-1.479-1.061c-0.618,0-1.016,0.31-1.016,0.795
					c0,0.42,0.133,0.53,1.259,0.95l0.883,0.353c1.656,0.641,2.385,1.458,2.385,2.761c0,1.898-1.59,3.355-3.665,3.355
					c-1.259,0-2.341-0.529-3.047-1.501c-0.31-0.42-0.486-0.773-0.773-1.546l2.054-0.817c0.618,1.237,1.016,1.59,1.788,1.59
					c0.662,0,1.126-0.397,1.126-1.016c0-0.419-0.198-0.574-1.236-0.971l-0.993-0.376c-1.457-0.552-2.187-1.457-2.187-2.716
					c0-1.767,1.479-3.091,3.444-3.091c1.546,0,2.584,0.706,3.423,2.318L387.02,72.477z"/>
				<path class="st9" d="M393.622,66.184c0,0.861-0.707,1.546-1.567,1.546c-0.884,0-1.59-0.685-1.59-1.568
					c0-0.839,0.706-1.523,1.611-1.523C392.915,64.638,393.622,65.345,393.622,66.184z M393.291,79.299h-2.518v-9.781h2.518V79.299z"
					/>
				<path class="st9" d="M398.281,76.142c0,0.729,0.11,0.949,0.485,0.949c0.221,0,0.597-0.066,1.171-0.221v2.362
					c-0.641,0.177-1.038,0.243-1.458,0.243c-1.744,0-2.716-1.192-2.716-3.334v-4.35h-1.016v-2.274h1.016V67.42l2.518-0.993v3.091
					h1.501v2.274h-1.501V76.142z"/>
				<path class="st9" d="M411.153,74.398c0,2.937-2.274,5.232-5.188,5.232c-2.959,0-5.211-2.296-5.211-5.276
					c0-2.915,2.297-5.167,5.277-5.167C408.879,69.187,411.153,71.505,411.153,74.398z M403.293,74.398
					c0,1.744,1.082,2.958,2.672,2.958c1.567,0,2.649-1.214,2.649-2.958c0-1.767-1.082-2.937-2.716-2.937
					C404.375,71.461,403.293,72.675,403.293,74.398z"/>
				<path class="st9" d="M415.393,70.158c0.618-0.53,1.126-0.707,1.921-0.707c0.242,0,0.552,0.022,0.927,0.066v2.252
					c-0.397-0.021-0.685-0.044-0.905-0.044c-1.457,0-1.942,0.706-1.942,2.87v4.703h-2.518v-9.781h2.518V70.158z"/>
				<path class="st9" d="M418.772,69.518h2.737l2.649,6.248l2.76-6.248h2.716l-6.646,14.948h-2.672l2.495-5.631L418.772,69.518z"/>
			</g>
		</g>
		<g>
			<g>
				<path class="st9" d="M56.911,51.362h2.45l4.857,8.633l4.857-8.633h2.451v14.727h-2.605v-9.648l-3.688,6.579h-2.031l-3.687-6.579
					v9.648h-2.605V51.362z"/>
				<path class="st9" d="M81.398,66.089v-0.618c-0.905,0.685-1.612,0.949-2.628,0.949c-2.87,0-5.145-2.318-5.145-5.232
					c0-2.893,2.274-5.211,5.145-5.211c1.016,0,1.723,0.265,2.628,0.949v-0.618h2.517v9.781H81.398z M76.165,61.188
					c0,1.744,1.082,2.958,2.649,2.958c1.568,0,2.628-1.214,2.628-2.958c0-1.767-1.06-2.937-2.672-2.937
					C77.247,58.251,76.165,59.465,76.165,61.188z"/>
				<path class="st9" d="M88.928,62.932c0,0.729,0.11,0.949,0.485,0.949c0.221,0,0.597-0.066,1.171-0.221v2.362
					c-0.641,0.177-1.038,0.243-1.458,0.243c-1.744,0-2.716-1.192-2.716-3.334v-4.35h-1.016v-2.274h1.016V54.21l2.518-0.993v3.091
					h1.501v2.274h-1.501V62.932z"/>
				<path class="st9" d="M93.985,62.137c0.353,1.303,1.214,2.009,2.45,2.009c0.817,0,1.567-0.287,2.075-0.816
					c0.11-0.089,0.266-0.331,0.508-0.685l2.12,0.883c-0.618,1.061-0.817,1.281-1.436,1.789c-0.905,0.706-2.053,1.104-3.268,1.104
					c-2.848,0-5.034-2.274-5.034-5.232c0-2.915,2.187-5.211,4.946-5.211c2.142,0,3.952,1.391,4.592,3.511
					c0.177,0.618,0.266,1.192,0.266,1.942c0,0.155,0,0.332-0.022,0.707H93.985z M98.687,60.26c-0.441-1.391-1.192-2.054-2.34-2.054
					c-1.192,0-2.031,0.751-2.362,2.054H98.687z"/>
				<path class="st9" d="M105.423,56.948c0.618-0.53,1.126-0.707,1.921-0.707c0.242,0,0.552,0.022,0.927,0.066v2.252
					c-0.397-0.021-0.685-0.044-0.905-0.044c-1.457,0-1.942,0.706-1.942,2.87v4.703h-2.518v-9.781h2.518V56.948z"/>
				<path class="st9" d="M112.378,52.974c0,0.861-0.707,1.546-1.567,1.546c-0.884,0-1.59-0.685-1.59-1.568
					c0-0.839,0.706-1.523,1.611-1.523C111.671,51.428,112.378,52.135,112.378,52.974z M112.047,66.089h-2.518v-9.781h2.518V66.089z"
					/>
				<path class="st9" d="M121.563,66.089v-0.618c-0.905,0.685-1.612,0.949-2.628,0.949c-2.87,0-5.145-2.318-5.145-5.232
					c0-2.893,2.274-5.211,5.145-5.211c1.016,0,1.723,0.265,2.628,0.949v-0.618h2.517v9.781H121.563z M116.33,61.188
					c0,1.744,1.082,2.958,2.649,2.958c1.568,0,2.628-1.214,2.628-2.958c0-1.767-1.06-2.937-2.672-2.937
					C117.412,58.251,116.33,59.465,116.33,61.188z"/>
				<path class="st9" d="M126.443,66.089V51.362h2.517v14.727H126.443z"/>
			</g>
		</g>
	</g>
</g>
</svg>
