<?xml version="1.0" encoding="utf-8" standalone="yes"?><!-- Generator: Adobe Illustrator 23.0.1, SVG Export Plug-In . SVG Version: 6.00 Build 0)  --><svg xmlns="http://www.w3.org/2000/svg" xmlns:xlink="http://www.w3.org/1999/xlink" version="1.1" x="0px" y="0px" viewBox="200 40 400 225" style="enable-background:new 200 40 400 225;zoom: 1;" xml:space="preserve"><style type="text/css">
        .st0{fill:#757575;}
        .st1{fill:none;stroke:#B2B2B2;stroke-width:4;stroke-linecap:round;stroke-linejoin:round;stroke-miterlimit:10;}
        .st2{display:none;}
        .st3{display:inline;fill:none;stroke:#757575;stroke-miterlimit:10;}
        .st4{display:inline;fill:#757575;}
        .st5{fill:#FFFFFF;stroke:#023550;stroke-width:5;stroke-miterlimit:10;}
        .st6{fill:none;stroke:#023550;stroke-width:5;stroke-miterlimit:10;}
        .st7{fill:#4AD9D9;stroke:#023550;stroke-width:5;stroke-miterlimit:10;}
        .st8{fill:#1ABBBC;stroke:#023550;stroke-width:5;stroke-linecap:round;stroke-miterlimit:10;}
        .st9{fill:#023550;}
        .st10{fill:#FFFFFF;stroke:#023550;stroke-width:5;stroke-linejoin:round;stroke-miterlimit:10;}
        .st11{fill:#FFFFFF;}
        .st12{fill:none;stroke:#023550;stroke-width:5;stroke-linecap:round;stroke-linejoin:round;}
        .st13{fill:#4AD9D9;stroke:#023550;stroke-width:5;stroke-linecap:round;stroke-linejoin:round;stroke-miterlimit:10;}
        .st14{fill:none;stroke:#023550;stroke-width:5;stroke-linecap:round;stroke-linejoin:round;stroke-miterlimit:10;}
        .st15{fill:#FFFFFF;stroke:#023550;stroke-width:5;stroke-linecap:round;stroke-linejoin:round;stroke-miterlimit:10;}
</style><g id="Layer_1"></g><g id="grids_and_guides" class="st2"><rect x="20" y="20" class="st3" width="760" height="260"></rect></g><g id="diagrams"><g><g><g><path class="st5" d="M417.139,59.643v58.601c0.185,5.348,12.907,9.651,28.573,9.651c15.659,0,28.388-4.302,28.573-9.651V59.643 c-0.2-5.341-12.922-9.643-28.573-9.643C430.053,50,417.339,54.302,417.139,59.643z"></path><path class="st6" d="M417.135,59.767c0,5.394,12.793,9.767,28.573,9.767c15.781,0,28.573-4.373,28.573-9.767"></path><path class="st6" d="M417.135,79.22c0,5.394,12.793,9.767,28.573,9.767c15.781,0,28.573-4.373,28.573-9.767"></path><path class="st6" d="M417.135,98.674c0,5.394,12.793,9.767,28.573,9.767c15.781,0,28.573-4.373,28.573-9.767"></path></g></g><circle class="st7" cx="334.048" cy="88.947" r="32.709"></circle><g><line class="st8" x1="401.721" y1="84.223" x2="382.171" y2="84.223"></line><line class="st8" x1="401.721" y1="93.671" x2="382.171" y2="93.671"></line></g><circle class="st7" cx="334.048" cy="217.291" r="32.709"></circle><g><line class="st8" x1="401.721" y1="212.568" x2="382.171" y2="212.568"></line><line class="st8" x1="401.721" y1="222.015" x2="382.171" y2="222.015"></line></g><g><g><path class="st9" d="M500.578,70.885c-0.883-1.391-1.391-1.767-2.384-1.767c-1.192,0-2.054,0.773-2.054,1.855 c0,0.706,0.574,1.258,1.722,1.7l1.392,0.529c2.473,0.949,3.621,2.252,3.621,4.173c0,2.649-2.187,4.703-5.013,4.703 c-1.965,0-3.665-1.037-4.46-2.782c-0.198-0.441-0.198-0.441-0.508-1.678l2.539-0.662c0.31,1.17,0.31,1.17,0.464,1.479 c0.42,0.772,1.148,1.191,2.031,1.191c1.281,0,2.297-0.993,2.297-2.229c0-0.861-0.553-1.369-2.12-1.987l-1.324-0.508 c-2.164-0.839-3.246-2.142-3.246-3.952c0-2.429,2.009-4.262,4.681-4.262c1.369,0,2.518,0.464,3.423,1.392 c0.375,0.375,0.508,0.552,1.081,1.479L500.578,70.885z"></path><path class="st9" d="M514.688,76.847 c0,2.937 -2.274,5.232 -5.188,5.232 c-2.959,0 -5.211,-2.296 -5.211,-5.277 c0,-2.914 2.297,-5.166 5.277,-5.166 C512.413,71.636 514.688,73.954 514.688,76.847  z M506.827,76.847 c0,1.744 1.082,2.958 2.672,2.958 c1.567,0 2.649,-1.214 2.649,-2.958 c0,-1.767 -1.082,-2.937 -2.716,-2.937 C507.909,73.91 506.827,75.124 506.827,76.847  z "></path><path class="st9" d="M522.791,81.241c-0.772,0.618-1.368,0.839-2.273,0.839c-1.126,0-2.274-0.485-3.025-1.303 c-0.772-0.816-1.082-1.877-1.082-3.555v-5.255h2.518v5.101c0,1.214,0.132,1.811,0.485,2.208c0.31,0.353,0.751,0.529,1.303,0.529 c0.685,0,1.28-0.242,1.612-0.685c0.331-0.396,0.463-1.037,0.463-2.273v-4.88h2.518v9.781h-2.518V81.241z"></path><path class="st9" d="M530.167,72.608c0.618-0.53,1.126-0.707,1.921-0.707c0.242,0,0.552,0.022,0.927,0.066v2.252 c-0.397-0.021-0.685-0.044-0.905-0.044c-1.457,0-1.942,0.706-1.942,2.87v4.703h-2.518v-9.781h2.518V72.608z"></path><path class="st9" d="M541.406,75.301c-1.104-1.17-1.524-1.391-2.495-1.391c-1.612,0-2.694,1.17-2.694,2.937 c0,1.788,1.082,2.958,2.716,2.958c0.972,0,1.612-0.375,2.539-1.457l1.679,1.612c-1.369,1.523-2.584,2.119-4.239,2.119 c-2.959,0-5.233-2.274-5.233-5.232c0-2.937,2.274-5.211,5.233-5.211c1.611,0,2.804,0.574,4.173,2.031L541.406,75.301z"></path><path class="st9" d="M546.265,77.796c0.353,1.303,1.214,2.009,2.45,2.009c0.817,0,1.567-0.287,2.075-0.816 c0.11-0.089,0.266-0.331,0.508-0.685l2.12,0.883c-0.618,1.061-0.817,1.281-1.436,1.789c-0.905,0.706-2.053,1.104-3.268,1.104 c-2.848,0-5.034-2.274-5.034-5.232c0-2.915,2.187-5.211,4.946-5.211c2.142,0,3.952,1.391,4.592,3.511 c0.177,0.618,0.266,1.192,0.266,1.942c0,0.155,0,0.332-0.022,0.707H546.265z M550.967,75.919 c-0.441-1.391-1.192-2.054-2.34-2.054c-1.192,0-2.031,0.751-2.362,2.054H550.967z"></path><path class="st9" d="M504.133,108.245h-2.958l-3.113-5.586c-0.42,0.021-0.597,0.021-0.905,0.021h-0.772v5.564h-2.605V93.519 h3.378c1.965,0,3.135,0.331,4.106,1.147c0.994,0.839,1.567,2.12,1.567,3.489c0,1.634-0.839,3.091-2.207,3.842L504.133,108.245z M497.333,100.319c2.009,0,2.937-0.706,2.937-2.208c0-0.662-0.266-1.28-0.685-1.634c-0.464-0.419-1.126-0.574-2.252-0.574 h-0.949v4.416H497.333z"></path><path class="st9" d="M507.358,104.293c0.353,1.303,1.214,2.009,2.45,2.009c0.817,0,1.567-0.287,2.075-0.816 c0.11-0.089,0.266-0.331,0.508-0.685l2.12,0.883c-0.618,1.061-0.817,1.281-1.436,1.789c-0.905,0.706-2.053,1.104-3.268,1.104 c-2.848,0-5.034-2.274-5.034-5.232c0-2.915,2.187-5.211,4.946-5.211c2.142,0,3.952,1.391,4.592,3.511 c0.177,0.618,0.266,1.192,0.266,1.942c0,0.155,0,0.332-0.022,0.707H507.358z M512.061,102.416 c-0.441-1.391-1.192-2.054-2.34-2.054c-1.192,0-2.031,0.751-2.362,2.054H512.061z"></path><path class="st9" d="M518.796,98.464v0.618c0.905-0.685,1.611-0.949,2.627-0.949c2.87,0,5.145,2.318,5.145,5.232 c0,2.893-2.274,5.211-5.145,5.211c-1.016,0-1.722-0.265-2.627-0.949v5.785h-2.518V98.464H518.796z M518.773,103.366 c0,1.767,1.06,2.937,2.649,2.937c1.523,0,2.605-1.236,2.605-2.937c0-1.744-1.082-2.958-2.649-2.958 C519.833,100.408,518.773,101.6,518.773,103.366z"></path><path class="st9" d="M538.071,103.344c0,2.937-2.274,5.232-5.188,5.232c-2.959,0-5.211-2.296-5.211-5.276 c0-2.915,2.297-5.167,5.277-5.167C535.797,98.133,538.071,100.451,538.071,103.344z M530.211,103.344 c0,1.744,1.082,2.958,2.672,2.958c1.567,0,2.649-1.214,2.649-2.958c0-1.767-1.082-2.937-2.716-2.937 C531.293,100.408,530.211,101.621,530.211,103.344z"></path><path class="st9" d="M544.521,101.423c-0.553-0.817-0.905-1.061-1.479-1.061c-0.618,0-1.016,0.31-1.016,0.795 c0,0.42,0.133,0.53,1.259,0.95l0.883,0.353c1.656,0.641,2.385,1.458,2.385,2.761c0,1.898-1.59,3.355-3.665,3.355 c-1.259,0-2.341-0.529-3.047-1.501c-0.31-0.42-0.486-0.773-0.773-1.546l2.054-0.817c0.618,1.237,1.016,1.59,1.788,1.59 c0.662,0,1.126-0.397,1.126-1.016c0-0.419-0.198-0.574-1.236-0.971l-0.993-0.376c-1.457-0.552-2.187-1.457-2.187-2.716 c0-1.767,1.479-3.091,3.444-3.091c1.546,0,2.584,0.706,3.423,2.318L544.521,101.423z"></path><path class="st9" d="M551.122,95.13c0,0.861-0.707,1.546-1.567,1.546c-0.884,0-1.59-0.685-1.59-1.568 c0-0.839,0.706-1.523,1.611-1.523C550.415,93.584,551.122,94.291,551.122,95.13z M550.791,108.245h-2.518v-9.781h2.518V108.245z"></path><path class="st9" d="M555.781,105.088c0,0.729,0.11,0.949,0.485,0.949c0.221,0,0.597-0.066,1.171-0.221v2.362 c-0.641,0.177-1.038,0.243-1.458,0.243c-1.744,0-2.716-1.192-2.716-3.334v-4.35h-1.016v-2.274h1.016v-2.098l2.518-0.993v3.091 h1.501v2.274h-1.501V105.088z"></path><path class="st9" d="M568.653,103.344c0,2.937-2.274,5.232-5.188,5.232c-2.959,0-5.211-2.296-5.211-5.276 c0-2.915,2.297-5.167,5.277-5.167C566.379,98.133,568.653,100.451,568.653,103.344z M560.793,103.344 c0,1.744,1.082,2.958,2.672,2.958c1.567,0,2.649-1.214,2.649-2.958c0-1.767-1.082-2.937-2.716-2.937 C561.875,100.408,560.793,101.621,560.793,103.344z"></path><path class="st9" d="M572.894,99.105c0.618-0.53,1.126-0.707,1.921-0.707c0.242,0,0.552,0.022,0.927,0.066v2.252 c-0.397-0.021-0.685-0.044-0.905-0.044c-1.457,0-1.942,0.706-1.942,2.87v4.703h-2.518v-9.781h2.518V99.105z"></path><path class="st9" d="M576.272,98.464h2.737l2.649,6.248l2.76-6.248h2.716l-6.646,14.948h-2.672l2.495-5.631L576.272,98.464z"></path></g></g><g><g><path class="st9" d="M214.411,80.31h2.45l4.857,8.633l4.857-8.633h2.451v14.727h-2.605v-9.648l-3.688,6.579h-2.031l-3.687-6.579 v9.648h-2.605V80.31z"></path><path class="st9" d="M238.898,95.036v-0.618c-0.905,0.685-1.612,0.949-2.628,0.949c-2.87,0-5.145-2.318-5.145-5.232 c0-2.893,2.274-5.211,5.145-5.211c1.016,0,1.723,0.265,2.628,0.949v-0.618h2.517v9.781H238.898z M233.665,90.135 c0,1.744,1.082,2.958,2.649,2.958c1.568,0,2.628-1.214,2.628-2.958c0-1.767-1.06-2.937-2.672-2.937 C234.747,87.199,233.665,88.412,233.665,90.135z"></path><path class="st9" d="M246.428,91.879c0,0.729,0.11,0.949,0.485,0.949c0.221,0,0.597-0.066,1.171-0.221v2.362 c-0.641,0.177-1.038,0.243-1.458,0.243c-1.744,0-2.716-1.192-2.716-3.334v-4.35h-1.016v-2.274h1.016v-2.098l2.518-0.993v3.091 h1.501v2.274h-1.501V91.879z"></path><path class="st9" d="M251.485,91.084c0.353,1.303,1.214,2.009,2.45,2.009c0.817,0,1.567-0.287,2.075-0.816 c0.11-0.089,0.266-0.331,0.508-0.685l2.12,0.883c-0.618,1.061-0.817,1.281-1.436,1.789c-0.905,0.706-2.053,1.104-3.268,1.104 c-2.848,0-5.034-2.274-5.034-5.232c0-2.915,2.187-5.211,4.946-5.211c2.142,0,3.952,1.391,4.592,3.511 c0.177,0.618,0.266,1.192,0.266,1.942c0,0.155,0,0.332-0.022,0.707H251.485z M256.188,89.207 c-0.441-1.391-1.192-2.054-2.34-2.054c-1.192,0-2.031,0.751-2.362,2.054H256.188z"></path><path class="st9" d="M262.923,85.896c0.618-0.53,1.126-0.707,1.921-0.707c0.242,0,0.552,0.022,0.927,0.066v2.252 c-0.397-0.021-0.685-0.044-0.905-0.044c-1.457,0-1.942,0.706-1.942,2.87v4.703h-2.518v-9.781h2.518V85.896z"></path><path class="st9" d="M269.878,81.921c0,0.861-0.707,1.546-1.567,1.546c-0.884,0-1.59-0.685-1.59-1.568 c0-0.839,0.706-1.523,1.611-1.523C269.171,80.375,269.878,81.082,269.878,81.921z M269.547,95.036h-2.518v-9.781h2.518V95.036z"></path><path class="st9" d="M279.063,95.036v-0.618c-0.905,0.685-1.612,0.949-2.628,0.949c-2.87,0-5.145-2.318-5.145-5.232 c0-2.893,2.274-5.211,5.145-5.211c1.016,0,1.723,0.265,2.628,0.949v-0.618h2.517v9.781H279.063z M273.83,90.135 c0,1.744,1.082,2.958,2.649,2.958c1.568,0,2.628-1.214,2.628-2.958c0-1.767-1.06-2.937-2.672-2.937 C274.912,87.199,273.83,88.412,273.83,90.135z"></path><path class="st9" d="M283.943,95.036V80.31h2.517v14.727H283.943z"></path></g></g><g><g><path class="st9" d="M214.411,208.654h2.45l4.857,8.633l4.857-8.633h2.451v14.727h-2.605v-9.648l-3.688,6.579h-2.031 l-3.687-6.579v9.648h-2.605V208.654z"></path><path class="st9" d="M238.898,223.38v-0.618c-0.905,0.685-1.612,0.949-2.628,0.949c-2.87,0-5.145-2.318-5.145-5.232 c0-2.893,2.274-5.211,5.145-5.211c1.016,0,1.723,0.265,2.628,0.949v-0.618h2.517v9.781H238.898z M233.665,218.479 c0,1.744,1.082,2.958,2.649,2.958c1.568,0,2.628-1.214,2.628-2.958c0-1.767-1.06-2.937-2.672-2.937 C234.747,215.542,233.665,216.756,233.665,218.479z"></path><path class="st9" d="M246.428,220.223c0,0.729,0.11,0.949,0.485,0.949c0.221,0,0.597-0.066,1.171-0.221v2.362 c-0.641,0.177-1.038,0.243-1.458,0.243c-1.744,0-2.716-1.192-2.716-3.334v-4.35h-1.016v-2.274h1.016v-2.098l2.518-0.993v3.091 h1.501v2.274h-1.501V220.223z"></path><path class="st9" d="M251.485,219.428 c0.353,1.303 1.214,2.009 2.45,2.009 c0.817,0 1.567,-0.287 2.075,-0.816 c0.11,-0.089 0.266,-0.331 0.508,-0.685 l2.12,0.883 c-0.618,1.061 -0.817,1.281 -1.436,1.789 c-0.905,0.706 -2.053,1.104 -3.268,1.104 c-2.848,0 -5.034,-2.274 -5.034,-5.232 c0,-2.915 2.187,-5.211 4.946,-5.211 c2.142,0 3.952,1.391 4.592,3.511 c0.177,0.618 0.266,1.192 0.266,1.942 c0,0.155 0,0.332 -0.022,0.707 H251.485  z M256.188,217.551 c-0.441,-1.391 -1.192,-2.054 -2.34,-2.054 c-1.192,0 -2.031,0.751 -2.362,2.054 H256.188  z "></path><path class="st9" d="M262.923,214.24c0.618-0.53,1.126-0.707,1.921-0.707c0.242,0,0.552,0.022,0.927,0.066v2.252 c-0.397-0.021-0.685-0.044-0.905-0.044c-1.457,0-1.942,0.706-1.942,2.87v4.703h-2.518v-9.781h2.518V214.24z"></path><path class="st9" d="M269.878,210.265c0,0.861-0.707,1.546-1.567,1.546c-0.884,0-1.59-0.685-1.59-1.568 c0-0.839,0.706-1.523,1.611-1.523C269.171,208.719,269.878,209.426,269.878,210.265z M269.547,223.38h-2.518v-9.781h2.518 V223.38z"></path><path class="st9" d="M279.063,223.38v-0.618c-0.905,0.685-1.612,0.949-2.628,0.949c-2.87,0-5.145-2.318-5.145-5.232 c0-2.893,2.274-5.211,5.145-5.211c1.016,0,1.723,0.265,2.628,0.949v-0.618h2.517v9.781H279.063z M273.83,218.479 c0,1.744,1.082,2.958,2.649,2.958c1.568,0,2.628-1.214,2.628-2.958c0-1.767-1.06-2.937-2.672-2.937 C274.912,215.542,273.83,216.756,273.83,218.479z"></path><path class="st9" d="M283.943,223.38v-14.727h2.517v14.727H283.943z"></path></g></g><g><g><path class="st9" d="M335.637,153.922 c0,4.239 -3.489,7.684 -7.772,7.684 c-4.195,0 -7.64,-3.511 -7.64,-7.816 c0,-4.084 3.555,-7.573 7.706,-7.573 C332.148,146.216 335.637,149.683 335.637,153.922  z M322.875,154.011 c0,2.76 2.318,5.122 5.056,5.122 c2.782,0 5.056,-2.341 5.056,-5.211 c0,-2.914 -2.252,-5.232 -5.1,-5.232 C325.083,148.69 322.875,151.03 322.875,154.011  z "></path><path class="st9" d="M348.246,161.275h-2.958l-3.113-5.586c-0.419,0.021-0.596,0.021-0.905,0.021h-0.773v5.564h-2.605v-14.727 h3.378c1.965,0,3.135,0.331,4.106,1.147c0.994,0.839,1.568,2.12,1.568,3.489c0,1.634-0.839,3.091-2.208,3.842L348.246,161.275z M341.445,153.348c2.009,0,2.937-0.706,2.937-2.208c0-0.662-0.265-1.28-0.685-1.634c-0.464-0.419-1.126-0.574-2.252-0.574h-0.95 v4.416H341.445z"></path></g></g><g><path class="st10" d="M557.328,242.718 H427.135 c-5.523,0 -10,-4.477 -10,-10 v-30.852 c0,-5.523 4.477,-10 10,-10 h130.192 c5.523,0 10,4.477 10,10 v30.852 C567.328,238.241 562.85,242.718 557.328,242.718  z "></path><g><path class="st9" d="M461.341,223.38h-2.605v-14.727h3.378c1.854,0,2.959,0.331,3.864,1.147 c0.927,0.839,1.457,2.076,1.457,3.423s-0.53,2.605-1.457,3.444c-0.905,0.816-2.01,1.147-3.864,1.147h-0.772V223.38z M462.29,215.453c0.993,0,1.567-0.154,1.965-0.552c0.397-0.375,0.618-0.993,0.618-1.678c0-0.663-0.221-1.259-0.596-1.634 c-0.42-0.397-0.994-0.553-1.987-0.553h-0.949v4.416H462.29z"></path><path class="st9" d="M471.608,210.265c0,0.861-0.707,1.546-1.567,1.546c-0.884,0-1.59-0.685-1.59-1.568 c0-0.839,0.706-1.523,1.611-1.523C470.901,208.719,471.608,209.426,471.608,210.265z M471.277,223.38h-2.518v-9.781h2.518 V223.38z"></path><path class="st9" d="M476.157,213.599v0.618c0.905-0.685,1.611-0.949,2.627-0.949c2.87,0,5.145,2.318,5.145,5.232 c0,2.893-2.274,5.211-5.145,5.211c-1.016,0-1.722-0.265-2.627-0.949v5.785h-2.518v-14.948H476.157z M476.135,218.5 c0,1.767,1.06,2.937,2.649,2.937c1.523,0,2.605-1.236,2.605-2.937c0-1.744-1.082-2.958-2.649-2.958 C477.194,215.542,476.135,216.735,476.135,218.5z"></path><path class="st9" d="M487.617,219.428c0.353,1.303,1.214,2.009,2.45,2.009c0.817,0,1.567-0.287,2.075-0.816 c0.111-0.089,0.266-0.331,0.508-0.685l2.12,0.883c-0.618,1.061-0.817,1.281-1.436,1.789c-0.905,0.706-2.053,1.104-3.268,1.104 c-2.848,0-5.034-2.274-5.034-5.232c0-2.915,2.187-5.211,4.946-5.211c2.142,0,3.952,1.391,4.592,3.511 c0.177,0.618,0.266,1.192,0.266,1.942c0,0.155,0,0.332-0.022,0.707H487.617z M492.319,217.551 c-0.441-1.391-1.192-2.054-2.34-2.054c-1.192,0-2.031,0.751-2.362,2.054H492.319z"></path><path class="st9" d="M496.56,223.38v-14.727h2.517v14.727H496.56z"></path><path class="st9" d="M504.288,210.265c0,0.861-0.707,1.546-1.567,1.546c-0.884,0-1.59-0.685-1.59-1.568 c0-0.839,0.706-1.523,1.611-1.523C503.581,208.719,504.288,209.426,504.288,210.265z M503.957,223.38h-2.518v-9.781h2.518 V223.38z"></path><path class="st9" d="M508.837,214.107c0.772-0.618,1.369-0.839,2.274-0.839c1.126,0,2.273,0.485,3.024,1.303 c0.772,0.816,1.082,1.854,1.082,3.555v5.255H512.7v-5.101c0-1.214-0.132-1.811-0.485-2.208c-0.31-0.353-0.751-0.529-1.303-0.529 c-0.685,0-1.28,0.242-1.611,0.685c-0.332,0.419-0.464,1.016-0.464,2.252v4.901h-2.518v-9.781h2.518V214.107z"></path><path class="st9" d="M519.523,219.428c0.353,1.303,1.214,2.009,2.45,2.009c0.817,0,1.567-0.287,2.075-0.816 c0.111-0.089,0.266-0.331,0.508-0.685l2.12,0.883c-0.618,1.061-0.817,1.281-1.436,1.789c-0.905,0.706-2.053,1.104-3.268,1.104 c-2.848,0-5.034-2.274-5.034-5.232c0-2.915,2.187-5.211,4.946-5.211c2.142,0,3.952,1.391,4.592,3.511 c0.177,0.618,0.266,1.192,0.266,1.942c0,0.155,0,0.332-0.022,0.707H519.523z M524.226,217.551 c-0.441-1.391-1.192-2.054-2.34-2.054c-1.192,0-2.031,0.751-2.362,2.054H524.226z"></path></g></g></g></g></svg>
