<?xml version="1.0" encoding="utf-8"?>
<!-- Generator: Adobe Illustrator 23.0.2, SVG Export Plug-In . SVG Version: 6.00 Build 0)  -->
<svg version="1.1" id="Layer_1" xmlns="http://www.w3.org/2000/svg" xmlns:xlink="http://www.w3.org/1999/xlink" x="0px" y="0px"
	 viewBox="0 0 100 100" style="enable-background:new 0 0 100 100;" xml:space="preserve">
<style type="text/css">
	.st0{fill:#9CDAF1;}
	.st1{fill:#7DBBE6;}
	.st2{fill:#F4CBB2;}
	.st3{fill:#FFFFFF;}
	.st4{fill:#AD5C51;}
	.st5{fill:#C3E4D8;}
	.st6{fill:#647984;}
</style>
<g>
	<path class="st6" d="M38.27,73.47c7.92,0,15.57,0,23.43,0c0-7.79,0-15.52,0-23.34c2.01,0,3.82,0,5.89,0c0,0.48,0,0.97,0,1.46
		c0,7.09,0.01,14.19,0,21.28c-0.01,4.2-2.38,6.54-6.63,6.54c-6.88,0.01-13.77,0-20.65,0c-0.62,0-1.24,0-2.02,0
		c0,5.83,0,11.54,0,17.47c-0.68-0.29-1.14-0.46-1.59-0.68c-9.88-4.92-19.75-9.88-29.65-14.77c-2.74-1.35-4-3.4-4-6.45
		c0.04-21.75,0.02-43.5,0.02-65.25c0-4.32,2.33-6.63,6.69-6.63c17.11,0,34.22,0,51.32,0c4.15,0,6.5,2.33,6.51,6.47
		c0.01,5.16,0,10.33,0,15.49c0,0.45-0.04,0.91-0.07,1.43c-1.9,0-3.71,0-5.71,0c0-5.76,0-11.52,0-17.39c-15.52,0-30.85,0-46.56,0
		c0.74,0.41,1.17,0.66,1.61,0.89c6.66,3.34,13.31,6.7,20,9.97c1.12,0.55,1.44,1.19,1.44,2.39C38.26,38.68,38.27,55,38.27,71.33
		C38.27,72,38.27,72.67,38.27,73.47z"/>
	<path class="st6" d="M96.96,38.31c-7.81,5.86-15.5,11.63-23.42,17.56c0-4.02,0-7.74,0-11.65c-7.86,0-15.6,0-23.43,0
		c0-3.96,0-7.74,0-11.71c7.73,0,15.46,0,23.31,0c0-3.92,0-7.66,0-11.85C81.42,26.67,89.13,32.45,96.96,38.31z"/>
</g>
</svg>
