<?xml version="1.0" encoding="utf-8"?>
<!-- Generator: Adobe Illustrator 19.1.0, SVG Export Plug-In . SVG Version: 6.00 Build 0)  -->
<svg version="1.1" id="Layer_1" xmlns="http://www.w3.org/2000/svg" xmlns:xlink="http://www.w3.org/1999/xlink" x="0px" y="0px"
	 viewBox="0 0 14.4 18" style="enable-background:new 0 0 14.4 18;" xml:space="preserve">
<style type="text/css">
	.st0{fill:#94399E;}
</style>
<path class="st0" d="M1.8,18c-0.3,0-0.6-0.1-0.8-0.2c-0.6-0.3-1-0.9-1-1.6V9c0-1,0.8-1.8,1.8-1.8S3.6,8,3.6,9v3.8L9.4,9L0.8,3.3
	C0,2.7-0.2,1.6,0.3,0.8C0.9,0,2-0.2,2.8,0.3l10.8,7.2c0.5,0.3,0.8,0.9,0.8,1.5s-0.3,1.2-0.8,1.5L2.8,17.7C2.5,17.9,2.1,18,1.8,18z"
	/>
</svg>
