<?xml version="1.0" encoding="utf-8"?>
<!-- Generator: Adobe Illustrator 21.1.0, SVG Export Plug-In . SVG Version: 6.00 Build 0)  -->
<svg version="1.1" id="Layer_1" xmlns="http://www.w3.org/2000/svg" xmlns:xlink="http://www.w3.org/1999/xlink" x="0px" y="0px"
	 viewBox="0 0 15 20" style="enable-background:new 0 0 15 20;" xml:space="preserve">
<style type="text/css">
	.st0{fill:#01BFC0;}
	.st1{fill:none;stroke:#000000;}
	.st2{fill:#FFFFFF;}
</style>
<title>select pipeline</title>
<desc>Created with Sketch.</desc>
<g id="Final">
	<g id="VSM_pipeline-_hover-state" transform="translate(-282.000000, -137.000000)">
		<g id="select-pipeline" transform="translate(282.000000, 137.000000)">
			<g id="Group">
				
					<g id="Rectangle-13" transform="translate(7.498990, 5.940003) scale(1, -1) rotate(1.000000) translate(-7.498990, -5.940003) ">
					<g>
						<path id="path-1" class="st0" d="M10.9,0.9l1.1,0c1.1,0,2,0.9,2,2c0,0,0,0,0,0l0,6c0,1.1-0.9,2-2,2l-1,0L4.1,11l-0.6,0
							c-0.9,0-1.2-0.1-1.5-0.3c-0.3-0.2-0.6-0.4-0.7-0.8S1,9.3,1,8.4l0-3.2l0-2.3c0-1.1,0.9-2,2-2c0,0,0,0,0,0l1.9,0"/>
					</g>
					<path class="st1" d="M10.9,1.4l-6,0L3,1.4c0,0,0,0,0,0c-0.8,0-1.5,0.7-1.5,1.5l0,5.5c0,0.7,0.1,1,0.2,1.3
						c0.1,0.2,0.3,0.4,0.5,0.5c0.3,0.2,0.5,0.2,1.3,0.2l0.6,0l6.9-0.1l1,0c0.8,0,1.5-0.7,1.5-1.5l0-6c0-0.8-0.7-1.5-1.5-1.5
						L10.9,1.4z"/>
				</g>
				<path id="Path-2" class="st2" d="M6,13V8.9C6,7.6,6.7,7,8,7s2,0.6,2,1.9V13L6,13z"/>
				<path id="Path" class="st2" d="M7.9,8C7.5,8.1,7.2,8.3,7,8.7L6.9,8.8l0,2.9c0,1.8,0,2.9,0,2.9c-0.1,0-0.2-0.2-0.4-0.7
					c-0.4-0.7-0.6-0.9-1.1-1C4.7,12.9,4,13.3,4,13.9c0,0.2,0,0.3,1.5,3c1,1.9,1.5,2.8,1.6,2.9C7.2,20,7.2,20,10,20
					c1.6,0,2.6,0,2.7,0c0.5-0.1,0.9-0.5,1.1-1.1c0.1-0.5,0.2-2.9,0.2-4.2c0-0.7,0-0.8-0.1-0.9c-0.1-0.2-0.3-0.4-0.5-0.5
					c-0.2-0.1-0.2-0.1-0.5-0.1c-0.2,0-0.3,0-0.4,0c-0.1,0-0.1,0-0.1-0.1c-0.1-0.2-0.4-0.4-0.6-0.5c-0.2-0.1-0.6-0.1-0.8-0.1
					c-0.1,0-0.1,0-0.1-0.1c0-0.1-0.2-0.4-0.4-0.5c-0.3-0.2-0.7-0.3-1.1-0.2l-0.1,0l0-1.4c0-1.4,0-1.4-0.1-1.6C9.1,8.5,9,8.3,8.8,8.2
					C8.5,8,8.1,8,7.9,8z"/>
				<path id="Shape" d="M7.9,8C7.5,8.1,7.2,8.3,7,8.7L6.9,8.8l0,2.9c0,1.8,0,2.9,0,2.9c-0.1,0-0.2-0.2-0.4-0.7
					c-0.4-0.7-0.6-0.9-1.1-1C4.7,12.9,4,13.3,4,13.9c0,0.2,0,0.3,1.5,3c1,1.9,1.5,2.8,1.6,2.9C7.2,20,7.2,20,10,20
					c1.6,0,2.6,0,2.7,0c0.5-0.1,0.9-0.5,1.1-1.1c0.1-0.5,0.2-2.9,0.2-4.2c0-0.7,0-0.8-0.1-0.9c-0.1-0.2-0.3-0.4-0.5-0.5
					c-0.2-0.1-0.2-0.1-0.5-0.1c-0.2,0-0.3,0-0.4,0c-0.1,0-0.1,0-0.1-0.1c-0.1-0.2-0.4-0.4-0.6-0.5c-0.2-0.1-0.6-0.1-0.8-0.1
					c-0.1,0-0.1,0-0.1-0.1c0-0.1-0.2-0.4-0.4-0.5c-0.3-0.2-0.7-0.3-1.1-0.2l-0.1,0l0-1.4c0-1.4,0-1.4-0.1-1.6C9.1,8.5,9,8.3,8.8,8.2
					C8.5,8,8.1,8,7.9,8z M8.3,8.8c0,0,0.1,0.1,0.2,0.1L8.5,9v2.3c0,2.5,0,2.5,0.2,2.6c0.1,0.1,0.3,0.1,0.4,0
					c0.2-0.1,0.2-0.2,0.2-0.8c0-0.4,0-0.5,0.1-0.6c0.2-0.3,0.7-0.2,0.8,0.1c0,0.1,0,0.3,0,0.9v0.8l0.1,0.1c0.2,0.2,0.3,0.2,0.5,0
					c0.1-0.1,0.1-0.1,0.1-0.5l0-0.4l0.1-0.1c0.1-0.1,0.1-0.1,0.3-0.1c0.1,0,0.2,0,0.2,0c0.2,0.1,0.2,0.1,0.2,0.8
					c0,0.7,0,0.8,0.2,0.9c0.1,0.1,0.2,0.1,0.4,0c0.1-0.1,0.2-0.2,0.2-0.6c0-0.3,0-0.3,0.1-0.4c0.2-0.2,0.4-0.2,0.6,0
					c0.1,0.1,0.1,0.1,0.1,0.3c0,0.3,0,3-0.1,3.6c-0.1,0.9-0.2,1.1-0.4,1.3c-0.1,0.1-0.2,0.1-2.7,0.1l-2.5,0l-1.4-2.7l-1.4-2.7
					l0.1-0.1c0.1-0.1,0.3-0.1,0.4-0.1c0.2,0,0.3,0.1,0.7,0.8c0.3,0.6,0.6,0.8,1,0.8c0.2,0,0.4,0,0.5-0.2c0.2-0.2,0.2,0,0.2-3.2
					c0-2.7,0-3,0.1-3C7.8,8.8,8.1,8.7,8.3,8.8z"/>
			</g>
		</g>
	</g>
</g>
</svg>
