<?xml version="1.0" encoding="utf-8"?>
<!-- Generator: Adobe Illustrator 23.0.3, SVG Export Plug-In . SVG Version: 6.00 Build 0)  -->
<svg version="1.1" xmlns="http://www.w3.org/2000/svg" xmlns:xlink="http://www.w3.org/1999/xlink" x="0px" y="0px"
	 viewBox="0 0 485 130" style="enable-background:new 0 0 485 130;" xml:space="preserve">
<style type="text/css">
	.st0{fill:#757575;}
	.st1{fill:none;stroke:#B2B2B2;stroke-width:4;stroke-linecap:round;stroke-linejoin:round;stroke-miterlimit:10;}
	.st2{display:none;}
	.st3{display:inline;fill:none;stroke:#757575;stroke-miterlimit:10;}
	.st4{display:inline;fill:#757575;}
	.st5{fill:#FFFFFF;stroke:#023550;stroke-width:5;stroke-miterlimit:10;}
	.st6{fill:none;stroke:#023550;stroke-width:5;stroke-miterlimit:10;}
	.st7{fill:#4AD9D9;stroke:#023550;stroke-width:5;stroke-miterlimit:10;}
	.st8{fill:#1ABBBC;stroke:#023550;stroke-width:5;stroke-linecap:round;stroke-miterlimit:10;}
	.st9{fill:#023550;}
	.st10{fill:#FFFFFF;stroke:#023550;stroke-width:5;stroke-linejoin:round;stroke-miterlimit:10;}
	.st11{fill:#FFFFFF;}
	.st12{fill:none;stroke:#023550;stroke-width:5;stroke-linecap:round;stroke-linejoin:round;}
	.st13{fill:#FFFFFF;stroke:#023550;stroke-width:5;stroke-linecap:round;stroke-linejoin:round;stroke-miterlimit:10;}
	.st14{fill:none;stroke:#023550;stroke-width:5;stroke-linecap:round;stroke-linejoin:round;stroke-miterlimit:10;}
	.st15{fill:#4AD9D9;stroke:#023550;stroke-width:5;stroke-linecap:round;stroke-linejoin:round;stroke-miterlimit:10;}
</style>
<g id="Layer_1">
</g>
<g id="grids_and_guides" class="st2">
	<rect x="-137.5" y="18.313" class="st3" width="760" height="260"/>
	<rect x="-137.5" y="-170.782" class="st3" width="760" height="260"/>
</g>
<g id="diagrams">
	<g>
		<path class="st13" d="M433.003,102.9H197.932c-11.046,0-20-8.954-20-20V47.1c0-11.046,8.954-20,20-20h235.071
			c11.046,0,20,8.954,20,20v35.8C453.003,93.946,444.049,102.9,433.003,102.9z"/>
		<circle class="st14" cx="68.647" cy="65" r="36.65"/>
		<path class="st15" d="M258.754,89.432h-58.32c-4.418,0-8-3.582-8-8V71.295c0-4.418,3.582-8,8-8h58.32c4.418,0,8,3.582,8,8v10.137
			C266.754,85.85,263.173,89.432,258.754,89.432z"/>
		<path class="st15" d="M344.628,89.432h-58.32c-4.418,0-8-3.582-8-8V71.295c0-4.418,3.582-8,8-8h58.32c4.418,0,8,3.582,8,8v10.137
			C352.628,85.85,349.046,89.432,344.628,89.432z"/>
		<path class="st15" d="M430.578,89.432h-58.32c-4.418,0-8-3.582-8-8V71.295c0-4.418,3.582-8,8-8h58.32c4.418,0,8,3.582,8,8v10.137
			C438.578,85.85,434.996,89.432,430.578,89.432z"/>
		<g>
			<path class="st9" d="M295.889,49.364h-1.651v-9.333h2.141c1.176,0,1.875,0.21,2.449,0.728c0.587,0.532,0.923,1.315,0.923,2.169
				s-0.336,1.651-0.923,2.183c-0.574,0.518-1.273,0.728-2.449,0.728h-0.489V49.364z M296.49,44.341c0.63,0,0.993-0.098,1.245-0.35
				c0.252-0.238,0.392-0.63,0.392-1.063c0-0.42-0.14-0.798-0.378-1.035c-0.266-0.252-0.629-0.35-1.259-0.35h-0.602v2.798H296.49z"/>
			<path class="st9" d="M302.396,41.052c0,0.546-0.448,0.979-0.994,0.979c-0.56,0-1.007-0.434-1.007-0.993
				c0-0.532,0.447-0.966,1.021-0.966C301.948,40.073,302.396,40.521,302.396,41.052z M302.186,49.364h-1.596v-6.198h1.596V49.364z"
				/>
			<path class="st9" d="M305.279,43.166v0.392c0.573-0.434,1.021-0.602,1.665-0.602c1.819,0,3.26,1.469,3.26,3.315
				c0,1.833-1.44,3.303-3.26,3.303c-0.644,0-1.092-0.168-1.665-0.602v3.666h-1.596v-9.473H305.279z M305.264,46.271
				c0,1.12,0.672,1.861,1.68,1.861c0.965,0,1.651-0.783,1.651-1.861c0-1.104-0.687-1.874-1.68-1.874
				C305.936,44.397,305.264,45.152,305.264,46.271z"/>
			<path class="st9" d="M312.543,46.859c0.224,0.826,0.77,1.273,1.553,1.273c0.518,0,0.993-0.182,1.315-0.518
				c0.069-0.056,0.168-0.21,0.321-0.434l1.344,0.56c-0.392,0.672-0.518,0.812-0.909,1.134c-0.574,0.447-1.302,0.699-2.071,0.699
				c-1.805,0-3.19-1.441-3.19-3.316c0-1.847,1.386-3.302,3.135-3.302c1.357,0,2.504,0.881,2.91,2.225
				c0.112,0.392,0.168,0.756,0.168,1.231c0,0.098,0,0.21-0.014,0.447H312.543z M315.522,45.67c-0.279-0.881-0.755-1.301-1.482-1.301
				c-0.756,0-1.287,0.476-1.497,1.301H315.522z"/>
			<path class="st9" d="M318.212,49.364v-9.333h1.595v9.333H318.212z"/>
			<path class="st9" d="M323.109,41.052c0,0.546-0.448,0.979-0.994,0.979c-0.56,0-1.007-0.434-1.007-0.993
				c0-0.532,0.447-0.966,1.021-0.966C322.661,40.073,323.109,40.521,323.109,41.052z M322.899,49.364h-1.596v-6.198h1.596V49.364z"
				/>
			<path class="st9" d="M325.992,43.487c0.489-0.392,0.867-0.531,1.441-0.531c0.713,0,1.44,0.308,1.917,0.825
				c0.489,0.518,0.686,1.176,0.686,2.253v3.33h-1.596v-3.232c0-0.77-0.084-1.147-0.308-1.399c-0.196-0.224-0.476-0.335-0.825-0.335
				c-0.435,0-0.812,0.153-1.021,0.434c-0.21,0.266-0.294,0.644-0.294,1.427v3.106h-1.596v-6.198h1.596V43.487z"/>
			<path class="st9" d="M332.766,46.859c0.224,0.826,0.77,1.273,1.553,1.273c0.518,0,0.993-0.182,1.315-0.518
				c0.07-0.056,0.168-0.21,0.321-0.434l1.344,0.56c-0.392,0.672-0.518,0.812-0.909,1.134c-0.574,0.447-1.302,0.699-2.071,0.699
				c-1.805,0-3.19-1.441-3.19-3.316c0-1.847,1.386-3.302,3.135-3.302c1.357,0,2.504,0.881,2.91,2.225
				c0.112,0.392,0.168,0.756,0.168,1.231c0,0.098,0,0.21-0.014,0.447H332.766z M335.746,45.67c-0.279-0.881-0.755-1.301-1.482-1.301
				c-0.756,0-1.287,0.476-1.497,1.301H335.746z"/>
		</g>
		<g>
			<path class="st9" d="M214.514,73.34c-0.56-0.882-0.882-1.12-1.511-1.12c-0.756,0-1.302,0.49-1.302,1.176
				c0,0.447,0.364,0.798,1.092,1.077l0.881,0.336c1.567,0.602,2.295,1.427,2.295,2.645c0,1.679-1.385,2.98-3.176,2.98
				c-1.246,0-2.323-0.657-2.827-1.763c-0.126-0.28-0.126-0.28-0.321-1.063l1.609-0.42c0.195,0.741,0.195,0.741,0.293,0.938
				c0.267,0.489,0.729,0.755,1.288,0.755c0.812,0,1.455-0.629,1.455-1.413c0-0.545-0.35-0.867-1.344-1.259l-0.839-0.322
				c-1.372-0.531-2.058-1.357-2.058-2.504c0-1.54,1.273-2.701,2.967-2.701c0.867,0,1.595,0.294,2.169,0.882
				c0.237,0.237,0.321,0.35,0.686,0.938L214.514,73.34z"/>
			<path class="st9" d="M218.881,78.222c0,0.462,0.07,0.602,0.309,0.602c0.14,0,0.378-0.042,0.741-0.14v1.497
				c-0.405,0.112-0.657,0.154-0.924,0.154c-1.105,0-1.721-0.756-1.721-2.113v-2.757h-0.644v-1.44h0.644v-1.33l1.595-0.629v1.959
				h0.952v1.44h-0.952V78.222z"/>
			<path class="st9" d="M225.375,80.223v-0.392c-0.574,0.434-1.021,0.602-1.665,0.602c-1.819,0-3.261-1.47-3.261-3.316
				c0-1.833,1.441-3.302,3.261-3.302c0.644,0,1.091,0.168,1.665,0.602v-0.392h1.595v6.198H225.375z M222.058,77.117
				c0,1.105,0.686,1.875,1.679,1.875c0.994,0,1.665-0.77,1.665-1.875c0-1.119-0.671-1.86-1.692-1.86
				C222.744,75.257,222.058,76.026,222.058,77.117z"/>
			<path class="st9" d="M232.961,79.832c-0.644,0.462-1.05,0.602-1.693,0.602c-1.791,0-3.232-1.483-3.232-3.316
				s1.441-3.302,3.232-3.302c0.644,0,1.05,0.14,1.693,0.602v-0.392h1.595v6.324c0,2.001-1.343,3.344-3.344,3.344
				c-0.84,0-1.638-0.266-2.253-0.755c-0.238-0.183-0.308-0.252-0.812-0.84l1.035-1.035l0.252,0.279c0.602,0.7,1.008,0.91,1.763,0.91
				c1.12,0,1.764-0.7,1.764-1.903V79.832z M229.644,77.117c0,1.105,0.686,1.875,1.679,1.875c0.979,0,1.651-0.77,1.651-1.875
				c0-1.119-0.672-1.86-1.679-1.86C230.33,75.257,229.644,76.026,229.644,77.117z"/>
			<path class="st9" d="M237.286,77.718c0.224,0.826,0.77,1.273,1.553,1.273c0.518,0,0.993-0.182,1.315-0.518
				c0.07-0.056,0.168-0.21,0.321-0.434l1.344,0.56c-0.392,0.672-0.518,0.812-0.909,1.134c-0.574,0.447-1.302,0.699-2.071,0.699
				c-1.805,0-3.19-1.441-3.19-3.316c0-1.847,1.386-3.302,3.135-3.302c1.357,0,2.504,0.881,2.91,2.225
				c0.112,0.392,0.168,0.756,0.168,1.231c0,0.098,0,0.21-0.014,0.447H237.286z M240.265,76.529
				c-0.279-0.881-0.755-1.301-1.482-1.301c-0.756,0-1.287,0.476-1.497,1.301H240.265z"/>
			<path class="st9" d="M247.334,80.223v-7.346l-1.176,0.671l-0.783-1.356l2.295-1.302h1.315v9.333H247.334z"/>
		</g>
		<g>
			<g>
				<line class="st12" x1="113.771" y1="65" x2="150.042" y2="65"/>
				<g>
					<polygon class="st9" points="169.458,65 142.098,76.18 148.59,65 142.098,53.823 					"/>
				</g>
			</g>
		</g>
		<g>
			<path class="st9" d="M300.387,73.34c-0.56-0.882-0.882-1.12-1.511-1.12c-0.756,0-1.302,0.49-1.302,1.176
				c0,0.447,0.364,0.798,1.092,1.077l0.881,0.336c1.567,0.602,2.295,1.427,2.295,2.645c0,1.679-1.385,2.98-3.176,2.98
				c-1.246,0-2.323-0.657-2.827-1.763c-0.126-0.28-0.126-0.28-0.321-1.063l1.609-0.42c0.195,0.741,0.195,0.741,0.293,0.938
				c0.267,0.489,0.729,0.755,1.288,0.755c0.812,0,1.455-0.629,1.455-1.413c0-0.545-0.35-0.867-1.344-1.259l-0.839-0.322
				c-1.372-0.531-2.058-1.357-2.058-2.504c0-1.54,1.273-2.701,2.967-2.701c0.867,0,1.595,0.294,2.169,0.882
				c0.237,0.237,0.321,0.35,0.686,0.938L300.387,73.34z"/>
			<path class="st9" d="M304.754,78.222c0,0.462,0.07,0.602,0.309,0.602c0.14,0,0.378-0.042,0.741-0.14v1.497
				c-0.405,0.112-0.657,0.154-0.924,0.154c-1.105,0-1.721-0.756-1.721-2.113v-2.757h-0.644v-1.44h0.644v-1.33l1.595-0.629v1.959
				h0.952v1.44h-0.952V78.222z"/>
			<path class="st9" d="M311.247,80.223v-0.392c-0.574,0.434-1.021,0.602-1.665,0.602c-1.819,0-3.261-1.47-3.261-3.316
				c0-1.833,1.441-3.302,3.261-3.302c0.644,0,1.091,0.168,1.665,0.602v-0.392h1.595v6.198H311.247z M307.931,77.117
				c0,1.105,0.686,1.875,1.679,1.875c0.994,0,1.665-0.77,1.665-1.875c0-1.119-0.671-1.86-1.692-1.86
				C308.616,75.257,307.931,76.026,307.931,77.117z"/>
			<path class="st9" d="M318.833,79.832c-0.644,0.462-1.05,0.602-1.693,0.602c-1.791,0-3.232-1.483-3.232-3.316
				s1.441-3.302,3.232-3.302c0.644,0,1.05,0.14,1.693,0.602v-0.392h1.595v6.324c0,2.001-1.343,3.344-3.344,3.344
				c-0.84,0-1.638-0.266-2.253-0.755c-0.238-0.183-0.308-0.252-0.812-0.84l1.035-1.035l0.252,0.279c0.602,0.7,1.008,0.91,1.763,0.91
				c1.12,0,1.764-0.7,1.764-1.903V79.832z M315.516,77.117c0,1.105,0.686,1.875,1.679,1.875c0.979,0,1.651-0.77,1.651-1.875
				c0-1.119-0.672-1.86-1.679-1.86C316.202,75.257,315.516,76.026,315.516,77.117z"/>
			<path class="st9" d="M323.158,77.718c0.224,0.826,0.77,1.273,1.553,1.273c0.518,0,0.993-0.182,1.315-0.518
				c0.069-0.056,0.168-0.21,0.321-0.434l1.344,0.56c-0.392,0.672-0.518,0.812-0.909,1.134c-0.574,0.447-1.302,0.699-2.071,0.699
				c-1.805,0-3.19-1.441-3.19-3.316c0-1.847,1.386-3.302,3.135-3.302c1.357,0,2.504,0.881,2.91,2.225
				c0.112,0.392,0.168,0.756,0.168,1.231c0,0.098,0,0.21-0.014,0.447H323.158z M326.138,76.529
				c-0.279-0.881-0.755-1.301-1.482-1.301c-0.756,0-1.287,0.476-1.497,1.301H326.138z"/>
			<path class="st9" d="M331.877,78.908l3.316-3.693c0.629-0.7,0.938-1.302,0.938-1.875c0-0.672-0.504-1.105-1.273-1.105
				c-0.56,0-0.979,0.195-1.189,0.545c-0.141,0.238-0.196,0.393-0.364,0.952l-1.525-0.42c0.154-0.699,0.294-1.035,0.574-1.428
				c0.56-0.783,1.455-1.203,2.547-1.203c1.692,0,2.868,1.105,2.868,2.701c0,0.881-0.35,1.721-0.993,2.448l-2.575,2.854h3.765v1.539
				h-6.087V78.908z"/>
		</g>
		<g>
			<path class="st9" d="M386.337,73.34c-0.56-0.882-0.882-1.12-1.511-1.12c-0.756,0-1.302,0.49-1.302,1.176
				c0,0.447,0.364,0.798,1.092,1.077l0.881,0.336c1.567,0.602,2.295,1.427,2.295,2.645c0,1.679-1.385,2.98-3.176,2.98
				c-1.246,0-2.323-0.657-2.827-1.763c-0.126-0.28-0.126-0.28-0.321-1.063l1.609-0.42c0.195,0.741,0.195,0.741,0.293,0.938
				c0.267,0.489,0.729,0.755,1.288,0.755c0.812,0,1.455-0.629,1.455-1.413c0-0.545-0.35-0.867-1.344-1.259l-0.839-0.322
				c-1.372-0.531-2.058-1.357-2.058-2.504c0-1.54,1.273-2.701,2.967-2.701c0.867,0,1.595,0.294,2.169,0.882
				c0.237,0.237,0.321,0.35,0.686,0.938L386.337,73.34z"/>
			<path class="st9" d="M390.703,78.222c0,0.462,0.07,0.602,0.309,0.602c0.14,0,0.378-0.042,0.741-0.14v1.497
				c-0.405,0.112-0.657,0.154-0.924,0.154c-1.105,0-1.721-0.756-1.721-2.113v-2.757h-0.644v-1.44h0.644v-1.33l1.595-0.629v1.959
				h0.952v1.44h-0.952V78.222z"/>
			<path class="st9" d="M397.197,80.223v-0.392c-0.574,0.434-1.021,0.602-1.665,0.602c-1.819,0-3.261-1.47-3.261-3.316
				c0-1.833,1.441-3.302,3.261-3.302c0.644,0,1.091,0.168,1.665,0.602v-0.392h1.595v6.198H397.197z M393.881,77.117
				c0,1.105,0.686,1.875,1.679,1.875c0.994,0,1.665-0.77,1.665-1.875c0-1.119-0.671-1.86-1.692-1.86
				C394.566,75.257,393.881,76.026,393.881,77.117z"/>
			<path class="st9" d="M404.783,79.832c-0.644,0.462-1.05,0.602-1.693,0.602c-1.791,0-3.232-1.483-3.232-3.316
				s1.441-3.302,3.232-3.302c0.644,0,1.05,0.14,1.693,0.602v-0.392h1.595v6.324c0,2.001-1.343,3.344-3.344,3.344
				c-0.84,0-1.638-0.266-2.253-0.755c-0.238-0.183-0.308-0.252-0.812-0.84l1.035-1.035l0.252,0.279c0.602,0.7,1.008,0.91,1.763,0.91
				c1.12,0,1.764-0.7,1.764-1.903V79.832z M401.467,77.117c0,1.105,0.686,1.875,1.679,1.875c0.979,0,1.651-0.77,1.651-1.875
				c0-1.119-0.672-1.86-1.679-1.86C402.152,75.257,401.467,76.026,401.467,77.117z"/>
			<path class="st9" d="M409.108,77.718c0.224,0.826,0.77,1.273,1.553,1.273c0.518,0,0.993-0.182,1.315-0.518
				c0.07-0.056,0.168-0.21,0.321-0.434l1.344,0.56c-0.392,0.672-0.518,0.812-0.909,1.134c-0.574,0.447-1.302,0.699-2.071,0.699
				c-1.805,0-3.19-1.441-3.19-3.316c0-1.847,1.386-3.302,3.135-3.302c1.357,0,2.504,0.881,2.91,2.225
				c0.112,0.392,0.168,0.756,0.168,1.231c0,0.098,0,0.21-0.014,0.447H409.108z M412.088,76.529
				c-0.279-0.881-0.755-1.301-1.482-1.301c-0.756,0-1.287,0.476-1.497,1.301H412.088z"/>
			<path class="st9" d="M420.415,74.598c0.882,0,1.372-0.405,1.372-1.175c0-0.714-0.518-1.189-1.302-1.189
				c-0.63,0-0.979,0.252-1.483,1.035l-1.385-0.741c0.77-1.33,1.581-1.848,2.854-1.848c1.707,0,2.952,1.134,2.952,2.701
				c0,0.755-0.266,1.356-0.84,1.875c0.742,0.644,1.036,1.272,1.036,2.183c0,1.734-1.344,2.994-3.19,2.994
				c-0.938,0-1.777-0.35-2.323-0.966c-0.392-0.434-0.573-0.839-0.783-1.734l1.609-0.42c0.14,0.56,0.224,0.77,0.363,1.007
				c0.238,0.364,0.63,0.56,1.161,0.56c0.882,0,1.498-0.587,1.498-1.427c0-0.882-0.532-1.343-1.54-1.343h-0.728v-1.512H420.415z"/>
		</g>
	</g>
</g>
</svg>
