<?xml version="1.0" encoding="utf-8"?>
<!-- Generator: Adobe Illustrator 23.0.3, SVG Export Plug-In . SVG Version: 6.00 Build 0)  -->
<svg version="1.1" xmlns="http://www.w3.org/2000/svg" xmlns:xlink="http://www.w3.org/1999/xlink" x="0px" y="0px"
	 viewBox="0 0 485 220" style="enable-background:new 0 0 485 220;" xml:space="preserve">
<style type="text/css">
	.st0{fill:#757575;}
	.st1{fill:none;stroke:#B2B2B2;stroke-width:4;stroke-linecap:round;stroke-linejoin:round;stroke-miterlimit:10;}
	.st2{display:none;}
	.st3{display:inline;fill:none;stroke:#757575;stroke-miterlimit:10;}
	.st4{display:inline;fill:#757575;}
	.st5{fill:#FFFFFF;stroke:#023550;stroke-width:5;stroke-miterlimit:10;}
	.st6{fill:none;stroke:#023550;stroke-width:5;stroke-miterlimit:10;}
	.st7{fill:#4AD9D9;stroke:#023550;stroke-width:5;stroke-miterlimit:10;}
	.st8{fill:#1ABBBC;stroke:#023550;stroke-width:5;stroke-linecap:round;stroke-miterlimit:10;}
	.st9{fill:#023550;}
	.st10{fill:#FFFFFF;stroke:#023550;stroke-width:5;stroke-linejoin:round;stroke-miterlimit:10;}
	.st11{fill:#FFFFFF;}
	.st12{fill:none;stroke:#023550;stroke-width:5;stroke-linecap:round;stroke-linejoin:round;}
	.st13{fill:#FFFFFF;stroke:#023550;stroke-width:5;stroke-linecap:round;stroke-linejoin:round;stroke-miterlimit:10;}
	.st14{fill:none;stroke:#023550;stroke-width:5;stroke-linecap:round;stroke-linejoin:round;stroke-miterlimit:10;}
	.st15{fill:#4AD9D9;stroke:#023550;stroke-width:5;stroke-linecap:round;stroke-linejoin:round;stroke-miterlimit:10;}
</style>
<g id="Layer_1">
</g>
<g id="grids_and_guides" class="st2">
	<rect x="-137.5" y="21.748" class="st3" width="760" height="260"/>
	<rect x="-137.5" y="-228.46" class="st3" width="760" height="260"/>
</g>
<g id="diagrams">
	<g>
		<path class="st13" d="M349.687,213.054H135.313c-11.046,0-20-8.954-20-20V26.946c0-11.046,8.954-20,20-20h214.375
			c11.046,0,20,8.954,20,20v166.109C369.687,204.1,360.733,213.054,349.687,213.054z"/>
		<path class="st13" d="M343.078,195.769H141.922c-4.418,0-8-3.582-8-8V58.399c0-4.418,3.582-8,8-8h201.157c4.418,0,8,3.582,8,8
			v129.37C351.078,192.187,347.497,195.769,343.078,195.769z"/>
		<g>
			<path class="st9" d="M223.601,25.265c-0.702-1.105-1.105-1.403-1.896-1.403c-0.948,0-1.632,0.614-1.632,1.474
				c0,0.562,0.456,1,1.369,1.352l1.105,0.421c1.965,0.755,2.877,1.79,2.877,3.316c0,2.105-1.736,3.738-3.982,3.738
				c-1.562,0-2.914-0.825-3.545-2.212c-0.158-0.351-0.158-0.351-0.404-1.333l2.019-0.526c0.245,0.93,0.245,0.93,0.368,1.176
				c0.334,0.614,0.912,0.947,1.615,0.947c1.018,0,1.824-0.79,1.824-1.772c0-0.685-0.438-1.088-1.685-1.579l-1.053-0.403
				c-1.72-0.667-2.579-1.702-2.579-3.142c0-1.93,1.597-3.387,3.72-3.387c1.088,0,2.001,0.369,2.72,1.105
				c0.299,0.299,0.404,0.439,0.859,1.176L223.601,25.265z"/>
			<path class="st9" d="M229.072,31.389c0,0.579,0.088,0.755,0.387,0.755c0.176,0,0.474-0.053,0.93-0.176v1.878
				c-0.509,0.141-0.824,0.193-1.158,0.193c-1.386,0-2.158-0.948-2.158-2.65v-3.456h-0.807v-1.808h0.807v-1.667l2-0.79v2.457h1.193
				v1.808h-1.193V31.389z"/>
			<path class="st9" d="M237.213,33.899v-0.491c-0.719,0.544-1.28,0.755-2.088,0.755c-2.281,0-4.088-1.843-4.088-4.159
				c0-2.299,1.807-4.142,4.088-4.142c0.808,0,1.369,0.211,2.088,0.755v-0.491h2.001v7.773H237.213z M233.055,30.003
				c0,1.386,0.859,2.352,2.105,2.352s2.088-0.966,2.088-2.352c0-1.404-0.842-2.334-2.123-2.334
				C233.914,27.669,233.055,28.634,233.055,30.003z"/>
			<path class="st9" d="M246.721,33.408c-0.807,0.579-1.316,0.755-2.123,0.755c-2.246,0-4.054-1.86-4.054-4.159
				s1.808-4.142,4.054-4.142c0.807,0,1.316,0.176,2.123,0.755v-0.491h2v7.932c0,2.509-1.684,4.193-4.193,4.193
				c-1.053,0-2.053-0.333-2.825-0.947c-0.298-0.229-0.386-0.316-1.018-1.053l1.298-1.299l0.316,0.352
				c0.754,0.877,1.264,1.14,2.211,1.14c1.404,0,2.211-0.877,2.211-2.386V33.408z M242.562,30.003c0,1.386,0.859,2.352,2.105,2.352
				c1.229,0,2.07-0.966,2.07-2.352c0-1.404-0.842-2.334-2.105-2.334C243.422,27.669,242.562,28.634,242.562,30.003z"/>
			<path class="st9" d="M252.139,30.758c0.28,1.035,0.966,1.597,1.948,1.597c0.648,0,1.246-0.229,1.648-0.649
				c0.088-0.07,0.211-0.264,0.404-0.544l1.685,0.702c-0.491,0.842-0.649,1.018-1.141,1.421c-0.72,0.562-1.632,0.878-2.597,0.878
				c-2.264,0-4.002-1.808-4.002-4.159c0-2.316,1.738-4.142,3.932-4.142c1.701,0,3.141,1.105,3.649,2.79
				c0.141,0.491,0.211,0.948,0.211,1.545c0,0.122,0,0.263-0.018,0.562H252.139z M255.877,29.266
				c-0.351-1.105-0.947-1.632-1.859-1.632c-0.947,0-1.615,0.597-1.878,1.632H255.877z"/>
			<path class="st9" d="M264.734,33.899v-9.213l-1.474,0.843l-0.983-1.702l2.879-1.632h1.648v11.704H264.734z"/>
		</g>
		<g>
			<g>
				<path class="st9" d="M230.819,72.705c0,1.475-0.211,2.229-0.859,2.931c-0.544,0.614-1.404,0.966-2.334,0.966
					c-1.105,0-2.001-0.439-3.106-1.545l1.299-1.509c0.737,0.79,1.246,1.088,1.808,1.088c0.789,0,1.123-0.562,1.123-1.931v-8.071
					h2.07V72.705z"/>
				<path class="st9" d="M240.765,72.442c0,2.334-1.807,4.159-4.123,4.159c-2.352,0-4.142-1.825-4.142-4.194
					c0-2.316,1.825-4.106,4.194-4.106C238.959,68.3,240.765,70.143,240.765,72.442z M234.519,72.442
					c0,1.386,0.859,2.352,2.123,2.352c1.246,0,2.105-0.966,2.105-2.352c0-1.404-0.859-2.334-2.158-2.334
					C235.379,70.108,234.519,71.073,234.519,72.442z"/>
				<path class="st9" d="M242.131,64.633h2.001v4.422c0.72-0.562,1.28-0.755,2.088-0.755c2.281,0,4.089,1.843,4.089,4.142
					c0,2.316-1.808,4.159-4.089,4.159c-0.808,0-1.352-0.211-2.088-0.755v0.491h-2.001V64.633z M244.114,72.442
					c0,1.386,0.842,2.352,2.07,2.352c1.246,0,2.105-0.966,2.105-2.352c0-1.387-0.859-2.334-2.141-2.334
					C244.956,70.108,244.114,71.073,244.114,72.442z"/>
				<path class="st9" d="M257.182,76.337v-9.213l-1.475,0.843l-0.982-1.702l2.878-1.632h1.649v11.704H257.182z"/>
			</g>
		</g>
		<g>
			<path class="st15" d="M325.545,115.741h-166.09c-4.418,0-8-3.582-8-8v-8.9c0-4.418,3.582-8,8-8h166.09c4.418,0,8,3.582,8,8v8.9
				C333.545,112.159,329.963,115.741,325.545,115.741z"/>
			<g>
				<g>
					<path class="st9" d="M171.511,107.443h-1.415v-6.692h-1.955v-1.308h5.325v1.308h-1.955V107.443z"/>
					<path class="st9" d="M177.438,107.443v-0.336c-0.492,0.372-0.875,0.516-1.427,0.516c-1.56,0-2.795-1.259-2.795-2.842
						c0-1.571,1.235-2.831,2.795-2.831c0.552,0,0.935,0.145,1.427,0.516v-0.336h1.367v5.313H177.438z M174.596,104.781
						c0,0.947,0.588,1.606,1.439,1.606s1.428-0.659,1.428-1.606c0-0.96-0.576-1.596-1.451-1.596
						C175.183,103.185,174.596,103.845,174.596,104.781z"/>
					<path class="st9" d="M182.61,103.737c-0.3-0.443-0.491-0.575-0.804-0.575c-0.336,0-0.552,0.168-0.552,0.432
						c0,0.228,0.072,0.287,0.684,0.516l0.48,0.191c0.899,0.348,1.295,0.792,1.295,1.499c0,1.032-0.863,1.823-1.991,1.823
						c-0.684,0-1.271-0.288-1.655-0.815c-0.167-0.228-0.264-0.42-0.419-0.84l1.115-0.443c0.336,0.672,0.552,0.863,0.972,0.863
						c0.359,0,0.611-0.216,0.611-0.552c0-0.228-0.108-0.312-0.672-0.527l-0.539-0.204c-0.792-0.3-1.188-0.791-1.188-1.475
						c0-0.96,0.803-1.68,1.871-1.68c0.839,0,1.402,0.384,1.858,1.26L182.61,103.737z"/>
					<path class="st9" d="M189.869,107.443h-1.68l-1.69-2.171l-0.504,0.504v1.667h-1.367v-8h1.367v4.582l1.931-1.896h1.799
						l-2.29,2.231L189.869,107.443z"/>
					<path class="st9" d="M192.354,103.137c0,0.468-0.384,0.84-0.852,0.84c-0.479,0-0.863-0.372-0.863-0.852
						c0-0.456,0.384-0.828,0.876-0.828C191.971,102.297,192.354,102.681,192.354,103.137z M192.354,106.759
						c0,0.468-0.384,0.84-0.852,0.84c-0.479,0-0.863-0.372-0.863-0.852c0-0.456,0.384-0.828,0.876-0.828
						C191.971,105.919,192.354,106.303,192.354,106.759z"/>
					<path class="st9" d="M200.286,107.443v-0.336c-0.492,0.372-0.875,0.516-1.427,0.516c-1.56,0-2.795-1.259-2.795-2.842
						c0-1.571,1.235-2.831,2.795-2.831c0.552,0,0.935,0.145,1.427,0.516v-0.336h1.367v5.313H200.286z M197.443,104.781
						c0,0.947,0.588,1.606,1.439,1.606s1.428-0.659,1.428-1.606c0-0.96-0.576-1.596-1.451-1.596
						C198.031,103.185,197.443,103.845,197.443,104.781z"/>
					<path class="st9" d="M204.295,102.406c0.42-0.336,0.743-0.456,1.235-0.456c0.611,0,1.235,0.264,1.643,0.708
						c0.42,0.443,0.588,1.007,0.588,1.931v2.854h-1.367v-2.771c0-0.659-0.072-0.983-0.264-1.199
						c-0.168-0.192-0.408-0.288-0.708-0.288c-0.371,0-0.695,0.132-0.875,0.372c-0.18,0.228-0.252,0.552-0.252,1.224v2.662h-1.367
						v-5.313h1.367V102.406z"/>
					<path class="st9" d="M210.462,105.728c0,0.396,0.061,0.516,0.265,0.516c0.119,0,0.323-0.036,0.635-0.12v1.283
						c-0.348,0.096-0.563,0.132-0.791,0.132c-0.947,0-1.476-0.647-1.476-1.811v-2.363h-0.552v-1.235h0.552v-1.139l1.367-0.54v1.679
						h0.816v1.235h-0.816V105.728z"/>
					<path class="st9" d="M217.338,104.061v1.247h-2.662v-1.247H217.338z"/>
					<path class="st9" d="M220.326,99.443c2.662,0,4.365,1.56,4.365,3.994c0,2.446-1.691,4.006-4.365,4.006h-1.835v-8H220.326z
						 M219.906,106.123h0.456c1.799,0,2.902-1.02,2.902-2.687c0-1.655-1.116-2.675-2.902-2.675h-0.456V106.123z"/>
					<path class="st9" d="M227.082,102.406c0.408-0.348,0.684-0.456,1.163-0.456c0.563,0,1.008,0.192,1.451,0.647
						c0.468-0.443,0.96-0.647,1.607-0.647c0.743,0,1.379,0.288,1.799,0.792c0.384,0.468,0.528,0.972,0.528,1.847v2.854h-1.368
						v-2.759c0-1.091-0.239-1.499-0.875-1.499c-0.336,0-0.624,0.132-0.792,0.36c-0.168,0.216-0.228,0.575-0.228,1.247v2.65h-1.367
						v-2.759c0-1.091-0.24-1.499-0.888-1.499c-0.336,0-0.636,0.132-0.804,0.36c-0.168,0.228-0.228,0.575-0.228,1.247v2.65h-1.367
						v-5.313h1.367V102.406z"/>
					<path class="st9" d="M240.22,104.781c0,1.595-1.234,2.842-2.818,2.842c-1.606,0-2.83-1.247-2.83-2.866
						c0-1.583,1.247-2.807,2.866-2.807C238.985,101.95,240.22,103.209,240.22,104.781z M235.95,104.781
						c0,0.947,0.588,1.606,1.451,1.606c0.852,0,1.439-0.659,1.439-1.606c0-0.96-0.588-1.596-1.475-1.596
						C236.538,103.185,235.95,103.845,235.95,104.781z"/>
					<path class="st9" d="M245.045,107.443v-0.336c-0.504,0.372-0.876,0.516-1.427,0.516c-1.56,0-2.795-1.259-2.795-2.842
						c0-1.571,1.235-2.831,2.795-2.831c0.551,0,0.936,0.132,1.427,0.516v-3.022h1.367v8H245.045z M242.202,104.781
						c0,0.947,0.588,1.606,1.439,1.606c0.84,0,1.415-0.659,1.415-1.606c0-0.96-0.575-1.596-1.438-1.596
						C242.79,103.185,242.202,103.857,242.202,104.781z"/>
					<path class="st9" d="M251.153,107.167c-0.42,0.335-0.743,0.455-1.235,0.455c-0.611,0-1.235-0.264-1.643-0.707
						c-0.42-0.444-0.588-1.02-0.588-1.932v-2.854h1.367v2.771c0,0.66,0.072,0.983,0.264,1.199c0.168,0.192,0.408,0.288,0.708,0.288
						c0.371,0,0.695-0.132,0.875-0.371c0.18-0.217,0.252-0.564,0.252-1.235v-2.651h1.367v5.313h-1.367V107.167z"/>
					<path class="st9" d="M253.806,107.443v-8h1.367v8H253.806z"/>
					<path class="st9" d="M257.526,105.296c0.191,0.707,0.659,1.091,1.331,1.091c0.444,0,0.852-0.155,1.128-0.443
						c0.06-0.048,0.144-0.18,0.275-0.372l1.151,0.479c-0.336,0.576-0.443,0.696-0.779,0.972c-0.492,0.384-1.115,0.6-1.775,0.6
						c-1.547,0-2.734-1.235-2.734-2.842c0-1.584,1.188-2.831,2.687-2.831c1.163,0,2.146,0.756,2.495,1.907
						c0.096,0.336,0.144,0.647,0.144,1.056c0,0.084,0,0.18-0.012,0.384H257.526z M260.081,104.277
						c-0.24-0.756-0.647-1.115-1.271-1.115c-0.647,0-1.104,0.407-1.283,1.115H260.081z"/>
					<path class="st9" d="M267.736,103.365h-5.325v-1.235h5.325V103.365z M267.736,105.272h-5.325v-1.235h5.325V105.272z"/>
					<path class="st9" d="M270.582,105.476l-0.72,1.967h-1.487l2.986-8h1.739l2.986,8h-1.499l-0.72-1.967H270.582z M272.224,100.943
						l-1.163,3.214h2.327L272.224,100.943z"/>
					<path class="st9" d="M283.3,103.941c-0.6-0.636-0.827-0.756-1.354-0.756c-0.876,0-1.464,0.636-1.464,1.596
						c0,0.971,0.588,1.606,1.476,1.606c0.527,0,0.876-0.204,1.379-0.791l0.912,0.875c-0.744,0.828-1.403,1.151-2.303,1.151
						c-1.607,0-2.843-1.235-2.843-2.842c0-1.596,1.235-2.831,2.843-2.831c0.875,0,1.522,0.312,2.267,1.104L283.3,103.941z"/>
					<path class="st9" d="M290.175,104.781c0,1.595-1.234,2.842-2.818,2.842c-1.606,0-2.83-1.247-2.83-2.866
						c0-1.583,1.247-2.807,2.866-2.807C288.94,101.95,290.175,103.209,290.175,104.781z M285.905,104.781
						c0,0.947,0.588,1.606,1.451,1.606c0.852,0,1.439-0.659,1.439-1.606c0-0.96-0.588-1.596-1.475-1.596
						C286.493,103.185,285.905,103.845,285.905,104.781z"/>
					<path class="st9" d="M292.481,102.406c0.408-0.348,0.684-0.456,1.163-0.456c0.563,0,1.008,0.192,1.451,0.647
						c0.468-0.443,0.96-0.647,1.607-0.647c0.743,0,1.379,0.288,1.799,0.792c0.384,0.468,0.528,0.972,0.528,1.847v2.854h-1.368
						v-2.759c0-1.091-0.239-1.499-0.875-1.499c-0.336,0-0.624,0.132-0.792,0.36c-0.168,0.216-0.228,0.575-0.228,1.247v2.65H294.4
						v-2.759c0-1.091-0.24-1.499-0.888-1.499c-0.336,0-0.636,0.132-0.804,0.36c-0.168,0.228-0.228,0.575-0.228,1.247v2.65h-1.367
						v-5.313h1.367V102.406z"/>
					<path class="st9" d="M301.626,102.129v0.336c0.492-0.371,0.875-0.516,1.427-0.516c1.56,0,2.795,1.26,2.795,2.843
						c0,1.571-1.235,2.83-2.795,2.83c-0.552,0-0.935-0.144-1.427-0.516v3.143h-1.367v-8.12H301.626z M301.614,104.792
						c0,0.959,0.575,1.595,1.438,1.595c0.828,0,1.416-0.671,1.416-1.595c0-0.947-0.588-1.607-1.439-1.607
						C302.189,103.185,301.614,103.832,301.614,104.792z"/>
					<path class="st9" d="M308.333,100.319c0,0.468-0.384,0.84-0.852,0.84c-0.479,0-0.863-0.372-0.863-0.852
						c0-0.456,0.384-0.828,0.875-0.828C307.949,99.479,308.333,99.863,308.333,100.319z M308.153,107.443h-1.367v-5.313h1.367
						V107.443z"/>
					<path class="st9" d="M309.45,107.443v-8h1.367v8H309.45z"/>
					<path class="st9" d="M313.169,105.296c0.191,0.707,0.659,1.091,1.331,1.091c0.444,0,0.852-0.155,1.128-0.443
						c0.06-0.048,0.144-0.18,0.275-0.372l1.151,0.479c-0.336,0.576-0.443,0.696-0.779,0.972c-0.492,0.384-1.115,0.6-1.775,0.6
						c-1.547,0-2.734-1.235-2.734-2.842c0-1.584,1.188-2.831,2.687-2.831c1.163,0,2.146,0.756,2.495,1.907
						c0.096,0.336,0.144,0.647,0.144,1.056c0,0.084,0,0.18-0.012,0.384H313.169z M315.723,104.277
						c-0.24-0.756-0.647-1.115-1.271-1.115c-0.647,0-1.104,0.407-1.283,1.115H315.723z"/>
				</g>
			</g>
			<path class="st15" d="M325.545,148.876h-166.09c-4.418,0-8-3.582-8-8v-8.9c0-4.418,3.582-8,8-8h166.09c4.418,0,8,3.582,8,8v8.9
				C333.545,145.294,329.963,148.876,325.545,148.876z"/>
			<g>
				<g>
					<path class="st9" d="M171.511,140.578h-1.415v-6.692h-1.955v-1.308h5.325v1.308h-1.955V140.578z"/>
					<path class="st9" d="M177.438,140.578v-0.336c-0.492,0.372-0.875,0.516-1.427,0.516c-1.56,0-2.795-1.259-2.795-2.842
						c0-1.571,1.235-2.831,2.795-2.831c0.552,0,0.935,0.145,1.427,0.516v-0.336h1.367v5.313H177.438z M174.596,137.915
						c0,0.947,0.588,1.606,1.439,1.606s1.428-0.659,1.428-1.606c0-0.96-0.576-1.596-1.451-1.596
						C175.183,136.32,174.596,136.98,174.596,137.915z"/>
					<path class="st9" d="M182.61,136.872c-0.3-0.443-0.491-0.575-0.804-0.575c-0.336,0-0.552,0.168-0.552,0.432
						c0,0.228,0.072,0.287,0.684,0.516l0.48,0.191c0.899,0.348,1.295,0.792,1.295,1.499c0,1.032-0.863,1.823-1.991,1.823
						c-0.684,0-1.271-0.288-1.655-0.815c-0.167-0.228-0.264-0.42-0.419-0.84l1.115-0.443c0.336,0.672,0.552,0.863,0.972,0.863
						c0.359,0,0.611-0.216,0.611-0.552c0-0.228-0.108-0.312-0.672-0.527l-0.539-0.204c-0.792-0.3-1.188-0.791-1.188-1.475
						c0-0.96,0.803-1.68,1.871-1.68c0.839,0,1.402,0.384,1.858,1.26L182.61,136.872z"/>
					<path class="st9" d="M189.869,140.578h-1.68l-1.69-2.171l-0.504,0.504v1.667h-1.367v-8h1.367v4.582l1.931-1.896h1.799
						l-2.29,2.231L189.869,140.578z"/>
					<path class="st9" d="M192.354,136.272c0,0.468-0.384,0.84-0.852,0.84c-0.479,0-0.863-0.372-0.863-0.852
						c0-0.456,0.384-0.828,0.876-0.828C191.971,135.432,192.354,135.816,192.354,136.272z M192.354,139.894
						c0,0.468-0.384,0.84-0.852,0.84c-0.479,0-0.863-0.372-0.863-0.852c0-0.456,0.384-0.828,0.876-0.828
						C191.971,139.054,192.354,139.438,192.354,139.894z"/>
					<path class="st9" d="M197.767,135.613c0.336-0.288,0.611-0.384,1.043-0.384c0.133,0,0.3,0.012,0.504,0.035v1.224
						c-0.216-0.012-0.371-0.023-0.491-0.023c-0.792,0-1.056,0.384-1.056,1.559v2.555H196.4v-5.313h1.367V135.613z"/>
					<path class="st9" d="M203.897,140.578v-0.336c-0.492,0.372-0.875,0.516-1.427,0.516c-1.56,0-2.795-1.259-2.795-2.842
						c0-1.571,1.235-2.831,2.795-2.831c0.552,0,0.935,0.145,1.427,0.516v-0.336h1.367v5.313H203.897z M201.055,137.915
						c0,0.947,0.588,1.606,1.439,1.606s1.428-0.659,1.428-1.606c0-0.96-0.576-1.596-1.451-1.596
						C201.642,136.32,201.055,136.98,201.055,137.915z"/>
					<path class="st9" d="M211.781,140.578h-1.68l-1.69-2.171l-0.504,0.504v1.667h-1.367v-8h1.367v4.582l1.931-1.896h1.799
						l-2.29,2.231L211.781,140.578z"/>
					<path class="st9" d="M213.115,138.431c0.191,0.707,0.659,1.091,1.331,1.091c0.444,0,0.852-0.155,1.128-0.443
						c0.06-0.048,0.144-0.18,0.275-0.372l1.151,0.479c-0.336,0.576-0.443,0.696-0.779,0.972c-0.492,0.384-1.115,0.6-1.775,0.6
						c-1.547,0-2.734-1.235-2.734-2.842c0-1.584,1.188-2.831,2.687-2.831c1.163,0,2.146,0.756,2.495,1.907
						c0.096,0.336,0.144,0.647,0.144,1.056c0,0.084,0,0.18-0.012,0.384H213.115z M215.67,137.412
						c-0.24-0.756-0.647-1.115-1.271-1.115c-0.647,0-1.104,0.407-1.283,1.115H215.67z"/>
					<path class="st9" d="M224.585,137.076c-0.6-0.636-0.827-0.756-1.354-0.756c-0.876,0-1.464,0.636-1.464,1.596
						c0,0.971,0.588,1.606,1.476,1.606c0.527,0,0.876-0.204,1.379-0.791l0.912,0.875c-0.744,0.828-1.403,1.151-2.303,1.151
						c-1.607,0-2.843-1.235-2.843-2.842c0-1.596,1.235-2.831,2.843-2.831c0.875,0,1.522,0.312,2.267,1.104L224.585,137.076z"/>
					<path class="st9" d="M227.671,135.613c0.336-0.288,0.611-0.384,1.043-0.384c0.133,0,0.3,0.012,0.504,0.035v1.224
						c-0.216-0.012-0.371-0.023-0.491-0.023c-0.792,0-1.056,0.384-1.056,1.559v2.555h-1.367v-5.313h1.367V135.613z"/>
					<path class="st9" d="M230.983,138.431c0.191,0.707,0.659,1.091,1.331,1.091c0.444,0,0.852-0.155,1.128-0.443
						c0.06-0.048,0.144-0.18,0.275-0.372l1.151,0.479c-0.336,0.576-0.443,0.696-0.779,0.972c-0.492,0.384-1.115,0.6-1.775,0.6
						c-1.547,0-2.734-1.235-2.734-2.842c0-1.584,1.188-2.831,2.687-2.831c1.163,0,2.146,0.756,2.495,1.907
						c0.096,0.336,0.144,0.647,0.144,1.056c0,0.084,0,0.18-0.012,0.384H230.983z M233.538,137.412
						c-0.24-0.756-0.647-1.115-1.271-1.115c-0.647,0-1.104,0.407-1.283,1.115H233.538z"/>
					<path class="st9" d="M239.717,140.578v-0.336c-0.491,0.372-0.876,0.516-1.427,0.516c-1.56,0-2.795-1.259-2.795-2.842
						c0-1.571,1.235-2.831,2.795-2.831c0.551,0,0.936,0.145,1.427,0.516v-0.336h1.367v5.313H239.717z M236.874,137.915
						c0,0.947,0.588,1.606,1.439,1.606s1.428-0.659,1.428-1.606c0-0.96-0.576-1.596-1.451-1.596
						C237.462,136.32,236.874,136.98,236.874,137.915z"/>
					<path class="st9" d="M243.81,138.863c0,0.396,0.061,0.516,0.265,0.516c0.119,0,0.323-0.036,0.635-0.12v1.283
						c-0.348,0.096-0.563,0.132-0.791,0.132c-0.947,0-1.476-0.647-1.476-1.811v-2.363h-0.552v-1.235h0.552v-1.139l1.367-0.54v1.679
						h0.815v1.235h-0.815V138.863z"/>
					<path class="st9" d="M246.558,138.431c0.191,0.707,0.659,1.091,1.331,1.091c0.444,0,0.852-0.155,1.128-0.443
						c0.06-0.048,0.144-0.18,0.275-0.372l1.151,0.479c-0.336,0.576-0.443,0.696-0.779,0.972c-0.492,0.384-1.115,0.6-1.775,0.6
						c-1.547,0-2.734-1.235-2.734-2.842c0-1.584,1.188-2.831,2.687-2.831c1.163,0,2.146,0.756,2.495,1.907
						c0.096,0.336,0.144,0.647,0.144,1.056c0,0.084,0,0.18-0.012,0.384H246.558z M249.113,137.412
						c-0.24-0.756-0.647-1.115-1.271-1.115c-0.647,0-1.104,0.407-1.283,1.115H249.113z"/>
					<path class="st9" d="M257.128,141.141v1.235h-6.477v-1.235H257.128z"/>
					<path class="st9" d="M261.533,140.578v-0.336c-0.504,0.372-0.876,0.516-1.427,0.516c-1.56,0-2.795-1.259-2.795-2.842
						c0-1.571,1.235-2.831,2.795-2.831c0.551,0,0.936,0.132,1.427,0.516v-3.022h1.367v8H261.533z M258.69,137.915
						c0,0.947,0.588,1.606,1.439,1.606c0.84,0,1.415-0.659,1.415-1.606c0-0.96-0.575-1.596-1.438-1.596
						C259.278,136.32,258.69,136.992,258.69,137.915z"/>
					<path class="st9" d="M269.487,137.915c0,1.595-1.234,2.842-2.818,2.842c-1.606,0-2.83-1.247-2.83-2.866
						c0-1.583,1.247-2.807,2.866-2.807C268.253,135.084,269.487,136.344,269.487,137.915z M265.218,137.915
						c0,0.947,0.588,1.606,1.451,1.606c0.852,0,1.439-0.659,1.439-1.606c0-0.96-0.588-1.596-1.475-1.596
						C265.806,136.32,265.218,136.98,265.218,137.915z"/>
					<path class="st9" d="M274.288,137.076c-0.6-0.636-0.827-0.756-1.354-0.756c-0.876,0-1.464,0.636-1.464,1.596
						c0,0.971,0.588,1.606,1.476,1.606c0.527,0,0.876-0.204,1.379-0.791l0.912,0.875c-0.744,0.828-1.403,1.151-2.303,1.151
						c-1.607,0-2.843-1.235-2.843-2.842c0-1.596,1.235-2.831,2.843-2.831c0.875,0,1.522,0.312,2.267,1.104L274.288,137.076z"/>
					<path class="st9" d="M278.598,136.872c-0.3-0.443-0.491-0.575-0.804-0.575c-0.336,0-0.552,0.168-0.552,0.432
						c0,0.228,0.072,0.287,0.684,0.516l0.48,0.191c0.899,0.348,1.295,0.792,1.295,1.499c0,1.032-0.863,1.823-1.991,1.823
						c-0.684,0-1.271-0.288-1.655-0.815c-0.167-0.228-0.264-0.42-0.419-0.84l1.115-0.443c0.336,0.672,0.552,0.863,0.972,0.863
						c0.359,0,0.611-0.216,0.611-0.552c0-0.228-0.108-0.312-0.672-0.527l-0.54-0.204c-0.791-0.3-1.187-0.791-1.187-1.475
						c0-0.96,0.804-1.68,1.871-1.68c0.839,0,1.402,0.384,1.858,1.26L278.598,136.872z"/>
				</g>
			</g>
			<path class="st15" d="M325.545,182.011h-166.09c-4.418,0-8-3.582-8-8v-8.9c0-4.418,3.582-8,8-8h166.09c4.418,0,8,3.582,8,8v8.9
				C333.545,178.429,329.963,182.011,325.545,182.011z"/>
			<g>
				<g>
					<path class="st9" d="M171.511,173.713h-1.415v-6.692h-1.955v-1.308h5.325v1.308h-1.955V173.713z"/>
					<path class="st9" d="M177.438,173.713v-0.336c-0.492,0.372-0.875,0.516-1.427,0.516c-1.56,0-2.795-1.259-2.795-2.842
						c0-1.571,1.235-2.831,2.795-2.831c0.552,0,0.935,0.145,1.427,0.516V168.4h1.367v5.313H177.438z M174.596,171.051
						c0,0.947,0.588,1.606,1.439,1.606s1.428-0.659,1.428-1.606c0-0.96-0.576-1.596-1.451-1.596
						C175.183,169.455,174.596,170.116,174.596,171.051z"/>
					<path class="st9" d="M182.61,170.007c-0.3-0.443-0.491-0.575-0.804-0.575c-0.336,0-0.552,0.168-0.552,0.432
						c0,0.228,0.072,0.287,0.684,0.516l0.48,0.191c0.899,0.348,1.295,0.792,1.295,1.499c0,1.032-0.863,1.823-1.991,1.823
						c-0.684,0-1.271-0.288-1.655-0.815c-0.167-0.228-0.264-0.42-0.419-0.84l1.115-0.443c0.336,0.672,0.552,0.863,0.972,0.863
						c0.359,0,0.611-0.216,0.611-0.552c0-0.228-0.108-0.312-0.672-0.527l-0.539-0.204c-0.792-0.3-1.188-0.791-1.188-1.475
						c0-0.96,0.803-1.68,1.871-1.68c0.839,0,1.402,0.384,1.858,1.26L182.61,170.007z"/>
					<path class="st9" d="M189.869,173.713h-1.68l-1.69-2.171l-0.504,0.504v1.667h-1.367v-8h1.367v4.582l1.931-1.896h1.799
						l-2.29,2.231L189.869,173.713z"/>
					<path class="st9" d="M192.354,169.408c0,0.468-0.384,0.84-0.852,0.84c-0.479,0-0.863-0.372-0.863-0.852
						c0-0.456,0.384-0.828,0.876-0.828C191.971,168.568,192.354,168.952,192.354,169.408z M192.354,173.03
						c0,0.468-0.384,0.84-0.852,0.84c-0.479,0-0.863-0.372-0.863-0.852c0-0.456,0.384-0.828,0.876-0.828
						C191.971,172.19,192.354,172.574,192.354,173.03z"/>
					<path class="st9" d="M200.262,170.211c-0.6-0.636-0.827-0.756-1.354-0.756c-0.876,0-1.464,0.636-1.464,1.596
						c0,0.971,0.588,1.606,1.476,1.606c0.527,0,0.875-0.204,1.379-0.791l0.912,0.875c-0.744,0.828-1.403,1.151-2.303,1.151
						c-1.607,0-2.843-1.235-2.843-2.842c0-1.596,1.235-2.831,2.843-2.831c0.875,0,1.522,0.312,2.267,1.104L200.262,170.211z"/>
					<path class="st9" d="M203.347,168.748c0.336-0.288,0.611-0.384,1.043-0.384c0.133,0,0.3,0.012,0.504,0.035v1.224
						c-0.216-0.012-0.371-0.023-0.491-0.023c-0.792,0-1.056,0.384-1.056,1.559v2.555h-1.367V168.4h1.367V168.748z"/>
					<path class="st9" d="M206.659,171.567c0.191,0.707,0.659,1.091,1.331,1.091c0.444,0,0.852-0.155,1.128-0.443
						c0.06-0.048,0.144-0.18,0.275-0.372l1.151,0.479c-0.336,0.576-0.443,0.696-0.779,0.972c-0.492,0.384-1.115,0.6-1.775,0.6
						c-1.547,0-2.734-1.235-2.734-2.842c0-1.584,1.188-2.831,2.687-2.831c1.163,0,2.146,0.756,2.495,1.907
						c0.096,0.336,0.144,0.647,0.144,1.056c0,0.084,0,0.18-0.012,0.384H206.659z M209.214,170.547
						c-0.24-0.756-0.647-1.115-1.271-1.115c-0.647,0-1.104,0.407-1.283,1.115H209.214z"/>
					<path class="st9" d="M215.393,173.713v-0.336c-0.492,0.372-0.875,0.516-1.427,0.516c-1.56,0-2.795-1.259-2.795-2.842
						c0-1.571,1.235-2.831,2.795-2.831c0.552,0,0.935,0.145,1.427,0.516V168.4h1.367v5.313H215.393z M212.551,171.051
						c0,0.947,0.588,1.606,1.439,1.606s1.428-0.659,1.428-1.606c0-0.96-0.576-1.596-1.451-1.596
						C213.139,169.455,212.551,170.116,212.551,171.051z"/>
					<path class="st9" d="M219.486,171.998c0,0.396,0.061,0.516,0.265,0.516c0.119,0,0.323-0.036,0.635-0.12v1.283
						c-0.348,0.096-0.563,0.132-0.791,0.132c-0.947,0-1.476-0.647-1.476-1.811v-2.363h-0.552V168.4h0.552v-1.139l1.367-0.54v1.679
						h0.815v1.235h-0.815V171.998z"/>
					<path class="st9" d="M222.235,171.567c0.191,0.707,0.659,1.091,1.331,1.091c0.444,0,0.852-0.155,1.128-0.443
						c0.06-0.048,0.144-0.18,0.275-0.372l1.151,0.479c-0.336,0.576-0.443,0.696-0.779,0.972c-0.492,0.384-1.115,0.6-1.775,0.6
						c-1.547,0-2.734-1.235-2.734-2.842c0-1.584,1.188-2.831,2.687-2.831c1.163,0,2.146,0.756,2.495,1.907
						c0.096,0.336,0.144,0.647,0.144,1.056c0,0.084,0,0.18-0.012,0.384H222.235z M224.79,170.547
						c-0.24-0.756-0.647-1.115-1.271-1.115c-0.647,0-1.104,0.407-1.283,1.115H224.79z"/>
					<path class="st9" d="M232.805,174.277v1.235h-6.477v-1.235H232.805z"/>
					<path class="st9" d="M234.69,168.4v0.336c0.492-0.371,0.875-0.516,1.427-0.516c1.56,0,2.795,1.26,2.795,2.843
						c0,1.571-1.235,2.83-2.795,2.83c-0.552,0-0.935-0.144-1.427-0.516v3.143h-1.367v-8.12H234.69z M234.679,171.063
						c0,0.959,0.575,1.595,1.438,1.595c0.828,0,1.416-0.671,1.416-1.595c0-0.947-0.588-1.607-1.439-1.607
						C235.254,169.455,234.679,170.103,234.679,171.063z"/>
					<path class="st9" d="M243.737,173.713v-0.336c-0.492,0.372-0.875,0.516-1.427,0.516c-1.56,0-2.795-1.259-2.795-2.842
						c0-1.571,1.235-2.831,2.795-2.831c0.552,0,0.935,0.145,1.427,0.516V168.4h1.367v5.313H243.737z M240.894,171.051
						c0,0.947,0.588,1.606,1.439,1.606s1.428-0.659,1.428-1.606c0-0.96-0.576-1.596-1.451-1.596
						C241.482,169.455,240.894,170.116,240.894,171.051z"/>
					<path class="st9" d="M250.24,170.211c-0.6-0.636-0.827-0.756-1.354-0.756c-0.876,0-1.464,0.636-1.464,1.596
						c0,0.971,0.588,1.606,1.476,1.606c0.527,0,0.875-0.204,1.379-0.791l0.912,0.875c-0.744,0.828-1.403,1.151-2.303,1.151
						c-1.607,0-2.843-1.235-2.843-2.842c0-1.596,1.235-2.831,2.843-2.831c0.875,0,1.522,0.312,2.267,1.104L250.24,170.211z"/>
					<path class="st9" d="M257.104,173.713h-1.68l-1.69-2.171l-0.504,0.504v1.667h-1.367v-8h1.367v4.582l1.931-1.896h1.799
						l-2.29,2.231L257.104,173.713z"/>
					<path class="st9" d="M261.209,173.713v-0.336c-0.491,0.372-0.876,0.516-1.427,0.516c-1.56,0-2.795-1.259-2.795-2.842
						c0-1.571,1.235-2.831,2.795-2.831c0.551,0,0.936,0.145,1.427,0.516V168.4h1.367v5.313H261.209z M258.366,171.051
						c0,0.947,0.588,1.606,1.439,1.606s1.428-0.659,1.428-1.606c0-0.96-0.576-1.596-1.451-1.596
						C258.954,169.455,258.366,170.116,258.366,171.051z"/>
					<path class="st9" d="M267.713,173.377c-0.552,0.396-0.899,0.516-1.451,0.516c-1.535,0-2.771-1.271-2.771-2.842
						c0-1.571,1.235-2.831,2.771-2.831c0.552,0,0.899,0.12,1.451,0.516V168.4h1.367v5.422c0,1.715-1.151,2.866-2.866,2.866
						c-0.72,0-1.403-0.229-1.931-0.647c-0.204-0.156-0.265-0.216-0.696-0.72l0.888-0.888l0.216,0.239
						c0.516,0.601,0.863,0.78,1.512,0.78c0.959,0,1.511-0.6,1.511-1.631V173.377z M264.87,171.051c0,0.947,0.588,1.606,1.439,1.606
						c0.84,0,1.415-0.659,1.415-1.606c0-0.96-0.575-1.596-1.438-1.596C265.458,169.455,264.87,170.116,264.87,171.051z"/>
					<path class="st9" d="M271.423,171.567c0.191,0.707,0.659,1.091,1.331,1.091c0.444,0,0.852-0.155,1.128-0.443
						c0.06-0.048,0.144-0.18,0.275-0.372l1.151,0.479c-0.336,0.576-0.443,0.696-0.779,0.972c-0.492,0.384-1.115,0.6-1.775,0.6
						c-1.547,0-2.734-1.235-2.734-2.842c0-1.584,1.188-2.831,2.687-2.831c1.163,0,2.146,0.756,2.495,1.907
						c0.096,0.336,0.144,0.647,0.144,1.056c0,0.084,0,0.18-0.012,0.384H271.423z M273.977,170.547
						c-0.24-0.756-0.647-1.115-1.271-1.115c-0.647,0-1.104,0.407-1.283,1.115H273.977z"/>
					<path class="st9" d="M278.838,170.007c-0.3-0.443-0.491-0.575-0.804-0.575c-0.336,0-0.552,0.168-0.552,0.432
						c0,0.228,0.072,0.287,0.684,0.516l0.48,0.191c0.899,0.348,1.295,0.792,1.295,1.499c0,1.032-0.863,1.823-1.991,1.823
						c-0.684,0-1.271-0.288-1.655-0.815c-0.167-0.228-0.264-0.42-0.419-0.84l1.115-0.443c0.336,0.672,0.552,0.863,0.972,0.863
						c0.359,0,0.611-0.216,0.611-0.552c0-0.228-0.108-0.312-0.672-0.527l-0.54-0.204c-0.791-0.3-1.187-0.791-1.187-1.475
						c0-0.96,0.804-1.68,1.871-1.68c0.839,0,1.402,0.384,1.858,1.26L278.838,170.007z"/>
					<path class="st9" d="M282.653,173.03c0,0.468-0.384,0.84-0.852,0.84c-0.479,0-0.863-0.372-0.863-0.852
						c0-0.456,0.384-0.828,0.876-0.828C282.269,172.19,282.653,172.574,282.653,173.03z"/>
					<path class="st9" d="M286.505,170.007c-0.3-0.443-0.491-0.575-0.804-0.575c-0.336,0-0.552,0.168-0.552,0.432
						c0,0.228,0.072,0.287,0.684,0.516l0.48,0.191c0.899,0.348,1.295,0.792,1.295,1.499c0,1.032-0.863,1.823-1.991,1.823
						c-0.684,0-1.271-0.288-1.655-0.815c-0.167-0.228-0.264-0.42-0.419-0.84l1.115-0.443c0.336,0.672,0.552,0.863,0.972,0.863
						c0.359,0,0.611-0.216,0.611-0.552c0-0.228-0.108-0.312-0.672-0.527l-0.539-0.204c-0.792-0.3-1.188-0.791-1.188-1.475
						c0-0.96,0.803-1.68,1.871-1.68c0.839,0,1.402,0.384,1.858,1.26L286.505,170.007z"/>
					<path class="st9" d="M289.914,168.676c0.42-0.336,0.743-0.456,1.235-0.456c0.611,0,1.235,0.264,1.643,0.708
						c0.42,0.443,0.588,1.007,0.588,1.919v2.866h-1.367v-2.771c0-1.079-0.264-1.487-0.972-1.487c-0.371,0-0.695,0.132-0.875,0.372
						c-0.18,0.228-0.252,0.552-0.252,1.224v2.662h-1.367v-8h1.367V168.676z"/>
				</g>
			</g>
		</g>
	</g>
</g>
</svg>
