<svg xmlns="http://www.w3.org/2000/svg" width="440" height="400" viewBox="0 0 440 400">
  <title>pac-full-diagram</title>
  <g id="diagrams">
    <g>
      <line x1="344.9236" y1="158.194" x2="344.9236" y2="211.1555" fill="none" stroke="#023550" stroke-linecap="round" stroke-linejoin="round" stroke-width="5"/>
      <polygon points="344.924 138.778 333.744 166.138 344.924 159.646 356.101 166.138 344.924 138.778" fill="#023550"/>
      <polygon points="344.924 230.572 333.744 203.212 344.924 209.704 356.101 203.212 344.924 230.572" fill="#023550"/>
    </g>
    <g>
      <line x1="70.5333" y1="155.1916" x2="70.5333" y2="225.1667" fill="none" stroke="#023550" stroke-linecap="round" stroke-linejoin="round" stroke-width="5"/>
      <polygon points="60.35 162.915 70.533 158.589 80.717 162.915 70.533 138.775 60.35 162.915" fill="#023550"/>
    </g>
    <g>
      <path d="M308.4149,18.12v1.0469c0,3.582-2.26,5.9521-5.64,5.9521a6.4029,6.4029,0,1,1-.0371-12.8046,5.9769,5.9769,0,0,1,3.5645,1.1386,9.3152,9.3152,0,0,1,1.2861,1.1211l-1.544,1.4883a6.0775,6.0775,0,0,0-1.0654-.9922,3.8668,3.8668,0,0,0-2.26-.6982,4.2306,4.2306,0,0,0-4.2441,4.372,4.2427,4.2427,0,0,0,4.2627,4.3174,3.312,3.312,0,0,0,2.9941-1.6162,3.3956,3.3956,0,0,0,.4229-1.3047H302.72V18.12Z" fill="#023550"/>
      <path d="M318.24,20.7653a4.3267,4.3267,0,1,1-4.2627-4.3359A4.2857,4.2857,0,0,1,318.24,20.7653Zm-6.54,0a2.2263,2.2263,0,1,0,4.4277,0,2.2247,2.2247,0,1,0-4.4277,0Z" fill="#023550"/>
      <path d="M329.0584,16.08a7.9205,7.9205,0,0,0-1.0654-1.01,3.7713,3.7713,0,0,0-2.2412-.6982,4.23,4.23,0,0,0-4.2627,4.3535,4.2546,4.2546,0,0,0,4.2441,4.3359,3.9108,3.9108,0,0,0,2.37-.79,7.4506,7.4506,0,0,0,1.0108-.9365l1.5429,1.47a6.2663,6.2663,0,0,1-4.9052,2.3144,6.4027,6.4027,0,1,1,.0185-12.8046,6.3315,6.3315,0,0,1,4.8321,2.2783Z" fill="#023550"/>
      <path d="M335.0623,12.59c4.0791,0,6.6875,2.3887,6.6875,6.1182,0,3.7471-2.5908,6.1357-6.6875,6.1357h-2.81V12.59ZM334.42,22.8229h.6983c2.7558,0,4.4453-1.5615,4.4453-4.1152,0-2.5361-1.708-4.0977-4.4453-4.0977H334.42Z" fill="#023550"/>
      <path d="M353.5027,15.8044c-.7343-1.1572-1.1572-1.47-1.9843-1.47a1.5736,1.5736,0,0,0-1.708,1.5439c0,.5879.4775,1.0469,1.4326,1.4141l1.1572.4414c2.0576.789,3.0137,1.873,3.0137,3.4717a4.1607,4.1607,0,0,1-7.8819,1.5986,6.1177,6.1177,0,0,1-.4228-1.3965l2.1133-.5508a4.9659,4.9659,0,0,0,.3857,1.23,1.8466,1.8466,0,0,0,1.69.9922,1.8745,1.8745,0,0,0,1.91-1.8555c0-.7168-.459-1.1387-1.7637-1.6533l-1.1025-.4229c-1.8-.6982-2.7-1.7822-2.7-3.2881a3.6488,3.6488,0,0,1,3.8945-3.5458,3.8211,3.8211,0,0,1,2.8477,1.1572,5.3443,5.3443,0,0,1,.9,1.2314Z" fill="#023550"/>
      <path d="M358.7361,21.5554a2.0209,2.0209,0,0,0,2.04,1.6709,2.3659,2.3659,0,0,0,1.7265-.68,3.6479,3.6479,0,0,0,.4229-.5694l1.7637.7354a4.1986,4.1986,0,0,1-1.1944,1.4883,4.415,4.415,0,0,1-2.7187.9179,4.2035,4.2035,0,0,1-4.19-4.3535,4.1956,4.1956,0,0,1,4.1153-4.3359,3.9742,3.9742,0,0,1,3.8213,2.9209,5.5375,5.5375,0,0,1,.2207,1.6172c0,.1279,0,.2754-.0186.5879Zm3.9131-1.5616c-.3672-1.1582-.9912-1.7089-1.9472-1.7089a1.9947,1.9947,0,0,0-1.9659,1.7089Z" fill="#023550"/>
      <path d="M368.2508,17.238a2.164,2.164,0,0,1,1.5977-.5879,6.7366,6.7366,0,0,1,.7714.0547v1.874c-.33-.0186-.5693-.0371-.7529-.0371-1.2119,0-1.6162.5879-1.6162,2.3887v3.913h-2.0947V16.7048h2.0947Z" fill="#023550"/>
      <path d="M375.5047,21.8308l2.168-5.126h2.2783l-3.5274,8.1386h-1.8369l-3.5273-8.1386h2.2773Z" fill="#023550"/>
      <path d="M382.08,21.5554a2.0207,2.0207,0,0,0,2.04,1.6709,2.3663,2.3663,0,0,0,1.7266-.68,3.65,3.65,0,0,0,.4228-.5694l1.7637.7354a4.1985,4.1985,0,0,1-1.1943,1.4883,4.4153,4.4153,0,0,1-2.7188.9179,4.2034,4.2034,0,0,1-4.1894-4.3535,4.1956,4.1956,0,0,1,4.1152-4.3359A3.9741,3.9741,0,0,1,387.867,19.35a5.5341,5.5341,0,0,1,.2207,1.6172c0,.1279,0,.2754-.0185.5879Zm3.9131-1.5616c-.3672-1.1582-.9912-1.7089-1.9473-1.7089a1.9946,1.9946,0,0,0-1.9658,1.7089Z" fill="#023550"/>
      <path d="M391.5945,17.238a2.1641,2.1641,0,0,1,1.5977-.5879,6.7381,6.7381,0,0,1,.7715.0547v1.874c-.33-.0186-.5694-.0371-.7529-.0371-1.212,0-1.6163.5879-1.6163,2.3887v3.913H389.5V16.7048h2.0947Z" fill="#023550"/>
    </g>
    <g>
      <path d="M17.6229,15.8034c-.7344-1.1572-1.1573-1.47-1.9844-1.47a1.5736,1.5736,0,0,0-1.708,1.5439c0,.5879.4775,1.0469,1.4326,1.4141l1.1572.4414c2.0576.7891,3.0137,1.873,3.0137,3.4717a3.99,3.99,0,0,1-4.1709,3.9131,3.9776,3.9776,0,0,1-3.7109-2.3145,6.11,6.11,0,0,1-.4229-1.3965l2.1133-.5508a4.9659,4.9659,0,0,0,.3857,1.23,1.8466,1.8466,0,0,0,1.69.9922,1.8744,1.8744,0,0,0,1.91-1.8555c0-.7168-.459-1.1386-1.7637-1.6533l-1.1025-.4228c-1.8-.6983-2.7-1.7823-2.7-3.2881a3.6488,3.6488,0,0,1,3.8945-3.5459A3.8211,3.8211,0,0,1,18.5047,13.47a5.3413,5.3413,0,0,1,.9,1.2314Z" fill="#023550"/>
      <path d="M30.48,16.0788a7.8663,7.8663,0,0,0-1.0654-1.01,3.77,3.77,0,0,0-2.2413-.6982,4.2291,4.2291,0,0,0-4.2617,4.3535A4.2538,4.2538,0,0,0,27.1551,23.06a3.91,3.91,0,0,0,2.37-.79,7.4357,7.4357,0,0,0,1.0108-.9365l1.5429,1.47a6.2678,6.2678,0,0,1-4.9053,2.3145,6.4028,6.4028,0,1,1,.0186-12.8047,6.3284,6.3284,0,0,1,4.8311,2.2783Z" fill="#023550"/>
      <path d="M33.784,12.5886h2.0391l4.042,7.1836,4.0419-7.1836h2.0391V24.8425h-2.168V16.8142L40.71,22.2888h-1.69L35.952,16.8142v8.0283H33.784Z" fill="#023550"/>
      <path d="M61.3543,24.8425H58.8924l-2.59-4.6485c-.35.0186-.4961.0186-.754.0186h-.6425v4.63h-2.168V12.5886h2.81a4.8729,4.8729,0,0,1,3.417.955A3.7851,3.7851,0,0,1,60.27,16.447a3.601,3.601,0,0,1-1.8369,3.1963Zm-5.6582-6.5957c1.6719,0,2.4434-.5879,2.4434-1.8369a1.795,1.795,0,0,0-.5694-1.3594,2.647,2.647,0,0,0-1.874-.4776h-.79v3.6739Z" fill="#023550"/>
      <path d="M64.034,21.5544a2.0207,2.0207,0,0,0,2.04,1.6709,2.3663,2.3663,0,0,0,1.7266-.68,3.6519,3.6519,0,0,0,.4229-.5693l1.7636.7353A4.1985,4.1985,0,0,1,68.7928,24.2a4.4154,4.4154,0,0,1-2.7188.918,4.2035,4.2035,0,0,1-4.1894-4.3536A4.1956,4.1956,0,0,1,66,16.4284a3.9741,3.9741,0,0,1,3.8213,2.9209,5.5346,5.5346,0,0,1,.2207,1.6172c0,.1279,0,.2754-.0185.5879Zm3.9131-1.5615c-.3672-1.1582-.9912-1.709-1.9473-1.709a1.9946,1.9946,0,0,0-1.9658,1.709Z" fill="#023550"/>
      <path d="M73.5486,16.7038v.5146a3.28,3.28,0,0,1,2.1856-.79,4.3452,4.3452,0,0,1,0,8.6895,3.28,3.28,0,0,1-2.1856-.79v4.8135H71.4539V16.7038ZM73.53,20.7819a2.2016,2.2016,0,0,0,2.2041,2.4434,2.2352,2.2352,0,0,0,2.168-2.4434,2.2367,2.2367,0,0,0-2.2041-2.4609A2.21,2.21,0,0,0,73.53,20.7819Z" fill="#023550"/>
      <path d="M89.5838,20.7643a4.3267,4.3267,0,1,1-4.2617-4.3359A4.2858,4.2858,0,0,1,89.5838,20.7643Zm-6.54,0a2.2263,2.2263,0,1,0,4.4277,0,2.2247,2.2247,0,1,0-4.4277,0Z" fill="#023550"/>
      <path d="M94.9451,19.1657c-.459-.68-.7529-.8818-1.23-.8818-.5147,0-.8457.2568-.8457.6611,0,.35.11.4414,1.0468.79l.7354.294c1.3779.5332,1.9844,1.2129,1.9844,2.2969a2.8793,2.8793,0,0,1-3.05,2.792,3.042,3.042,0,0,1-2.5352-1.2491,4.6013,4.6013,0,0,1-.6436-1.2861l1.709-.68c.5147,1.0293.8448,1.3223,1.4883,1.3223a.8461.8461,0,0,0,.9365-.8447c0-.3487-.165-.4776-1.0283-.8086l-.8271-.3116a2.3717,2.3717,0,0,1-1.8184-2.26,2.6676,2.6676,0,0,1,2.8652-2.5723A3.001,3.001,0,0,1,96.58,18.3571Z" fill="#023550"/>
      <path d="M100.4363,13.9294A1.314,1.314,0,1,1,99.15,12.6433,1.2936,1.2936,0,0,1,100.4363,13.9294Zm-.2753,10.9131H98.0662V16.7038h2.0948Z" fill="#023550"/>
      <path d="M104.3123,22.2155c0,.6065.0918.79.4043.79a4.352,4.352,0,0,0,.9736-.1836v1.9658a4.36,4.36,0,0,1-1.2128.2012c-1.4512,0-2.26-.9913-2.26-2.7735V18.5964h-.8447V16.7038h.8447V14.9587l2.0947-.8272v2.5723h1.249v1.8926h-1.249Z" fill="#023550"/>
      <path d="M115.0213,20.7643a4.3267,4.3267,0,1,1-4.2617-4.3359A4.2858,4.2858,0,0,1,115.0213,20.7643Zm-6.54,0a2.2263,2.2263,0,1,0,4.4277,0,2.2247,2.2247,0,1,0-4.4277,0Z" fill="#023550"/>
      <path d="M118.5457,17.237a2.164,2.164,0,0,1,1.5977-.5879,6.7667,6.7667,0,0,1,.7724.0547v1.874c-.331-.0185-.57-.0371-.7539-.0371-1.2119,0-1.6162.5879-1.6162,2.3887v3.9131H116.451V16.7038h2.0947Z" fill="#023550"/>
      <path d="M121.3553,16.7038h2.2773l2.2051,5.1992,2.2969-5.1992h2.2588l-5.5293,12.4375h-2.2227l2.0752-4.6846Z" fill="#023550"/>
    </g>
    <g>
      <rect x="277.8566" y="242.8229" width="136.7578" height="76.4502" stroke-width="5" stroke="#023550" stroke-linecap="round" stroke-linejoin="round" fill="none"/>
      <g>
        <path d="M290.8953,273.0554h-2.1679V260.8015h2.81a4.3784,4.3784,0,0,1,3.2148.955,3.8084,3.8084,0,0,1,1.2129,2.8477,3.8476,3.8476,0,0,1-1.2129,2.8662,4.3784,4.3784,0,0,1-3.2148.9551h-.6426Zm.79-6.5957a2.1513,2.1513,0,0,0,1.6347-.459,2.1313,2.1313,0,0,0,.0186-2.7559,2.2287,2.2287,0,0,0-1.6533-.459h-.79V266.46Z" fill="#023550"/>
        <path d="M299.4354,262.1423a1.3141,1.3141,0,1,1-1.2862-1.2852A1.2937,1.2937,0,0,1,299.4354,262.1423Zm-.2754,10.9131h-2.0948v-8.1387H299.16Z" fill="#023550"/>
        <path d="M303.22,264.9167v.5146a3.28,3.28,0,0,1,2.1856-.79,4.3452,4.3452,0,0,1,0,8.69,3.28,3.28,0,0,1-2.1856-.79v4.8135h-2.0947V264.9167Zm-.0185,4.0781a2.2025,2.2025,0,0,0,2.2041,2.4444,2.469,2.469,0,0,0-.0361-4.9053A2.21,2.21,0,0,0,303.201,268.9948Z" fill="#023550"/>
        <path d="M312.7508,269.7673a2.0207,2.0207,0,0,0,2.04,1.6719,2.367,2.367,0,0,0,1.7266-.6807,3.6521,3.6521,0,0,0,.4228-.5693l1.7637.7353a4.1985,4.1985,0,0,1-1.1943,1.4883,4.4154,4.4154,0,0,1-2.7188.918,4.3494,4.3494,0,0,1-.0742-8.69,3.9741,3.9741,0,0,1,3.8213,2.9209,5.5341,5.5341,0,0,1,.2207,1.6172c0,.1279,0,.2754-.0185.5879Zm3.9131-1.5625c-.3672-1.1573-.9912-1.708-1.9473-1.708a1.9946,1.9946,0,0,0-1.9658,1.708Z" fill="#023550"/>
        <path d="M320.1893,273.0554V260.8015h2.0937v12.2539Z" fill="#023550"/>
        <path d="M326.618,262.1423a1.3141,1.3141,0,1,1-1.2862-1.2852A1.2937,1.2937,0,0,1,326.618,262.1423Zm-.2754,10.9131h-2.0947v-8.1387h2.0947Z" fill="#023550"/>
        <path d="M330.4012,265.34a2.6972,2.6972,0,0,1,1.8916-.6982,3.4889,3.4889,0,0,1,2.5176,1.084,3.9451,3.9451,0,0,1,.9,2.958v4.3721H333.616v-4.2442a2.6585,2.6585,0,0,0-.4043-1.8369,1.3723,1.3723,0,0,0-1.084-.44,1.6407,1.6407,0,0,0-1.3408.5693,2.9115,2.9115,0,0,0-.3857,1.874v4.0782h-2.0947v-8.1387h2.0947Z" fill="#023550"/>
        <path d="M339.29,269.7673a2.0207,2.0207,0,0,0,2.04,1.6719,2.367,2.367,0,0,0,1.7266-.6807,3.6521,3.6521,0,0,0,.4228-.5693l1.7637.7353a4.1986,4.1986,0,0,1-1.1944,1.4883,4.4151,4.4151,0,0,1-2.7187.918,4.3494,4.3494,0,0,1-.0742-8.69,3.9742,3.9742,0,0,1,3.8213,2.9209,5.5375,5.5375,0,0,1,.2207,1.6172c0,.1279,0,.2754-.0186.5879Zm3.913-1.5625c-.3671-1.1573-.9912-1.708-1.9472-1.708a1.9945,1.9945,0,0,0-1.9658,1.708Z" fill="#023550"/>
        <path d="M350.7332,267.8747v1.91h-4.0781v-1.91Z" fill="#023550"/>
        <path d="M353.7254,273.0554V263.41l-1.543.8818-1.0283-1.7813,3.0127-1.7089h1.7266v12.2539Z" fill="#023550"/>
      </g>
      <g>
        <rect x="287.4413" y="290.133" width="36.1505" height="11.7431" fill="#023550"/>
        <rect x="328.1602" y="290.133" width="36.1505" height="11.7431" fill="#023550"/>
        <rect x="368.879" y="290.133" width="36.1505" height="11.7431" fill="#023550"/>
      </g>
    </g>
    <g>
      <g>
        <path d="M314.2432,53.2378v62.9258c.1992,5.743,13.86,10.3629,30.6824,10.3629,16.8147,0,30.4831-4.62,30.6823-10.3629V53.2378c-.2151-5.735-13.8756-10.3549-30.6823-10.3549C328.1108,42.8829,314.4583,47.5028,314.2432,53.2378Z" fill="#4ad9d9" stroke="#023550" stroke-miterlimit="10" stroke-width="5"/>
        <path d="M314.24,53.3706c0,5.7921,13.737,10.4876,30.6823,10.4876s30.6824-4.6955,30.6824-10.4876" fill="#4ad9d9" stroke="#023550" stroke-miterlimit="10" stroke-width="5"/>
        <path d="M314.24,74.26c0,5.7922,13.737,10.4876,30.6823,10.4876s30.6824-4.6954,30.6824-10.4876" fill="#4ad9d9" stroke="#023550" stroke-miterlimit="10" stroke-width="5"/>
        <path d="M314.24,95.1494c0,5.7922,13.737,10.4877,30.6823,10.4877s30.6824-4.6955,30.6824-10.4877" fill="#4ad9d9" stroke="#023550" stroke-miterlimit="10" stroke-width="5"/>
      </g>
      <g>
        <circle cx="344.9237" cy="84.7047" r="18.4462" fill="#fff" stroke="#023550" stroke-linecap="round" stroke-linejoin="round" stroke-width="5"/>
        <path d="M338.5907,97.3853a2.5607,2.5607,0,0,1-2.5559-2.5414V84.7051a2.5469,2.5469,0,0,1,5.0937,0V90.11l8.1537-5.4049-12.1135-8.0359a2.5371,2.5371,0,0,1-.711-3.5168,2.5694,2.5694,0,0,1,3.5369-.7069l15.3083,10.1477a2.5335,2.5335,0,0,1,0,4.2238L340.0036,96.9557A2.5414,2.5414,0,0,1,338.5907,97.3853Z" fill="#023550"/>
      </g>
    </g>
    <g>
      <path d="M39.8547,53.2378v62.9258c.1991,5.743,13.8595,10.3629,30.6823,10.3629,16.8147,0,30.4832-4.62,30.6823-10.3629V53.2378c-.215-5.735-13.8755-10.3549-30.6823-10.3549C53.7222,42.8829,40.07,47.5028,39.8547,53.2378Z" fill="#fff" stroke="#023550" stroke-miterlimit="10" stroke-width="5"/>
      <path d="M39.8509,53.3706c0,5.7921,13.737,10.4876,30.6824,10.4876s30.6823-4.6955,30.6823-10.4876" fill="none" stroke="#023550" stroke-miterlimit="10" stroke-width="5"/>
      <path d="M39.8509,74.26c0,5.7922,13.737,10.4876,30.6824,10.4876s30.6823-4.6954,30.6823-10.4876" fill="none" stroke="#023550" stroke-miterlimit="10" stroke-width="5"/>
      <path d="M39.8509,95.1494c0,5.7922,13.737,10.4877,30.6824,10.4877s30.6823-4.6955,30.6823-10.4877" fill="none" stroke="#023550" stroke-miterlimit="10" stroke-width="5"/>
    </g>
    <g>
      <path d="M35.1365,342.9938a2.519,2.519,0,0,0,.252,1.4707,2.0255,2.0255,0,0,0,3.18,0,2.5192,2.5192,0,0,0,.2519-1.4707v-5.7431h1.6534V343.26a3.2781,3.2781,0,0,1-.6446,2.2275,3.7446,3.7446,0,0,1-5.7012,0,3.2551,3.2551,0,0,1-.6445-2.2275v-6.0088h1.6533Z" fill="#023550"/>
      <path d="M45.1893,342.2653c-.3506-.5185-.5742-.6728-.9385-.6728-.3926,0-.6445.1963-.6445.5049,0,.2656.0839.3359.7988.6015l.56.2246c1.0507.4063,1.5127.9248,1.5127,1.751a2.1951,2.1951,0,0,1-2.3252,2.1289,2.32,2.32,0,0,1-1.9327-.9521,3.5058,3.5058,0,0,1-.49-.9805l1.3027-.5186c.3916.7842.6446,1.0088,1.1348,1.0088a.6452.6452,0,0,0,.7139-.6445c0-.2666-.126-.3643-.7842-.6162l-.6309-.2383a1.81,1.81,0,0,1-1.3867-1.7227,2.0345,2.0345,0,0,1,2.1856-1.9609,2.2879,2.2879,0,0,1,2.1709,1.4707Z" fill="#023550"/>
      <path d="M48.8143,344.0856a1.54,1.54,0,0,0,1.5547,1.2754,1.8062,1.8062,0,0,0,1.3164-.5185,2.7584,2.7584,0,0,0,.3222-.4346l1.3448.56a3.1945,3.1945,0,0,1-.91,1.1348,3.3646,3.3646,0,0,1-2.0732.7,3.316,3.316,0,0,1-.0557-6.625,3.03,3.03,0,0,1,2.9131,2.2266,4.226,4.226,0,0,1,.1679,1.2324c0,.0986,0,.2109-.0136.4482Zm2.9834-1.19c-.28-.8818-.7569-1.3027-1.4844-1.3027a1.52,1.52,0,0,0-1.499,1.3027Z" fill="#023550"/>
      <path d="M56.0662,340.7946a1.6516,1.6516,0,0,1,1.2188-.4482,5.1376,5.1376,0,0,1,.5888.042v1.4287c-.2519-.0147-.4345-.0283-.5742-.0283-.9248,0-1.2334.4482-1.2334,1.8212v2.9834H54.47v-6.205h1.5967Z" fill="#023550"/>
      <path d="M66.4979,342.5036c-.7-.7432-.9668-.8828-1.583-.8828a1.8771,1.8771,0,0,0,.0136,3.74,1.9735,1.9735,0,0,0,1.6114-.9248l1.0644,1.0225a3.3492,3.3492,0,0,1-2.6894,1.3447,3.3125,3.3125,0,1,1,0-6.625,3.372,3.372,0,0,1,2.6474,1.2881Z" fill="#023550"/>
      <path d="M74.52,343.4841a3.2984,3.2984,0,1,1-3.249-3.3057A3.2675,3.2675,0,0,1,74.52,343.4841Zm-4.9863,0a1.6963,1.6963,0,1,0,1.6533-1.8633A1.7085,1.7085,0,0,0,69.534,343.4841Z" fill="#023550"/>
      <path d="M77.2059,340.7106a1.8119,1.8119,0,0,1,1.3593-.5322,2.2109,2.2109,0,0,1,1.6944.7559,2.5458,2.5458,0,0,1,1.8769-.7559,2.67,2.67,0,0,1,2.1016.9238,3.0583,3.0583,0,0,1,.6162,2.1573v3.3339H83.2576v-3.2216c0-1.2744-.28-1.751-1.0224-1.751a1.1227,1.1227,0,0,0-.9248.42,2.44,2.44,0,0,0-.2657,1.457v3.0957H79.4471v-3.2216c0-1.2744-.2793-1.751-1.0361-1.751a1.15,1.15,0,0,0-.9385.42,2.468,2.468,0,0,0-.2666,1.457v3.0957H75.6092v-6.205h1.5967Z" fill="#023550"/>
      <path d="M87.93,340.7106a1.8121,1.8121,0,0,1,1.3594-.5322,2.2109,2.2109,0,0,1,1.6943.7559,2.5458,2.5458,0,0,1,1.877-.7559,2.67,2.67,0,0,1,2.1015.9238,3.0578,3.0578,0,0,1,.6162,2.1573v3.3339H93.9813v-3.2216c0-1.2744-.28-1.751-1.0225-1.751a1.1227,1.1227,0,0,0-.9248.42,2.44,2.44,0,0,0-.2656,1.457v3.0957H90.1707v-3.2216c0-1.2744-.2793-1.751-1.0361-1.751a1.15,1.15,0,0,0-.9385.42,2.468,2.468,0,0,0-.2666,1.457v3.0957H86.3328v-6.205H87.93Z" fill="#023550"/>
      <path d="M98.8641,338.2731a1.0024,1.0024,0,1,1-.98-.98A.9868.9868,0,0,1,98.8641,338.2731Zm-.211,8.32H97.0565v-6.205h1.5966Z" fill="#023550"/>
      <path d="M101.8172,344.5905c0,.4619.07.6026.3086.6026a3.2679,3.2679,0,0,0,.7422-.1407v1.4991a3.303,3.303,0,0,1-.9248.1543c-1.1065,0-1.7227-.7569-1.7227-2.1153v-2.76H99.576v-1.4424h.6445v-1.3311l1.5967-.63v1.961h.9531v1.4424h-.9531Z" fill="#023550"/>
      <path d="M106.9276,342.2653c-.3506-.5185-.5743-.6728-.9385-.6728-.3926,0-.6446.1963-.6446.5049,0,.2656.084.3359.7989.6015l.5595.2246c1.0508.4063,1.5127.9248,1.5127,1.751a2.1951,2.1951,0,0,1-2.3252,2.1289,2.32,2.32,0,0,1-1.9326-.9521,3.5,3.5,0,0,1-.49-.9805l1.3027-.5186c.3916.7842.6446,1.0088,1.1348,1.0088a.6452.6452,0,0,0,.7139-.6445c0-.2666-.126-.3643-.7842-.6162l-.6309-.2383a1.81,1.81,0,0,1-1.3867-1.7227,2.0345,2.0345,0,0,1,2.1855-1.9609,2.2877,2.2877,0,0,1,2.1709,1.4707Z" fill="#023550"/>
      <path d="M28.3758,359.3034c-.7-.7432-.9668-.8828-1.583-.8828a1.877,1.877,0,0,0,.0137,3.74,1.9747,1.9747,0,0,0,1.6113-.9248l1.0644,1.0225a3.3489,3.3489,0,0,1-2.6894,1.3447,3.3125,3.3125,0,1,1,0-6.625,3.3689,3.3689,0,0,1,2.6474,1.2881Z" fill="#023550"/>
      <path d="M36.3992,360.2839a3.2988,3.2988,0,1,1-3.25-3.3057A3.2683,3.2683,0,0,1,36.3992,360.2839Zm-4.9873,0a1.6963,1.6963,0,1,0,1.6533-1.8633A1.7085,1.7085,0,0,0,31.4119,360.2839Z" fill="#023550"/>
      <path d="M39.0838,357.51a2.0584,2.0584,0,0,1,1.4434-.5322,2.6588,2.6588,0,0,1,1.9189.8262,3.0068,3.0068,0,0,1,.6865,2.2549v3.334H41.536v-3.2354c0-.77-.084-1.1494-.3086-1.4014a1.0486,1.0486,0,0,0-.8262-.3359,1.25,1.25,0,0,0-1.0225.4346,2.2112,2.2112,0,0,0-.2949,1.4287v3.1094H37.4871v-6.2051h1.5967Z" fill="#023550"/>
      <path d="M47.4285,357.1882v1.4424H46.3641v4.7627H44.7674v-4.7627H44.18v-1.4424h.5879v-1.1348c0-1.373.6162-2.1152,1.751-2.1152a4.2172,4.2172,0,0,1,.8828.1123v1.4424a1.8437,1.8437,0,0,0-.5606-.1123c-.3505,0-.4765.1826-.4765.6728v1.1348Z" fill="#023550"/>
      <path d="M50.1024,355.0729a1.0024,1.0024,0,1,1-.9805-.98A.9869.9869,0,0,1,50.1024,355.0729Zm-.211,8.32H48.2947v-6.2051h1.5967Z" fill="#023550"/>
      <path d="M55.8719,363.0007a2.5459,2.5459,0,0,1-1.6953.6025,3.3134,3.3134,0,0,1,0-6.625,2.55,2.55,0,0,1,1.6953.6016v-.3916h1.5967v6.331a3.1688,3.1688,0,0,1-3.3477,3.3477,3.6177,3.6177,0,0,1-2.2558-.7559,4.5738,4.5738,0,0,1-.8125-.8408l1.0371-1.0361.2519.2793a2.0183,2.0183,0,0,0,1.7647.9111,1.6769,1.6769,0,0,0,1.7656-1.9053Zm-3.32-2.7168a1.6787,1.6787,0,1,0,3.334,0,1.679,1.679,0,0,0-1.6807-1.8633A1.6969,1.6969,0,0,0,52.5516,360.2839Z" fill="#023550"/>
      <path d="M62.9979,363.071a2.0583,2.0583,0,0,1-1.4434.5322,2.6584,2.6584,0,0,1-1.9189-.8262,3.0267,3.0267,0,0,1-.6866-2.2548v-3.334h1.5967v3.2353c0,.7705.084,1.1485.3086,1.4a1.0459,1.0459,0,0,0,.8262.3369,1.25,1.25,0,0,0,1.0224-.4345,2.2408,2.2408,0,0,0,.295-1.4424v-3.0957h1.5966v6.2051H62.9979Z" fill="#023550"/>
      <path d="M67.6717,357.5944a1.6514,1.6514,0,0,1,1.2187-.4482,5.1636,5.1636,0,0,1,.5889.042v1.4287c-.2519-.0147-.4346-.0283-.5742-.0283-.9248,0-1.2334.4482-1.2334,1.8213v2.9834H66.075v-6.2051h1.5967Z" fill="#023550"/>
      <path d="M74.8279,363.3933v-.3926a2.5013,2.5013,0,0,1-1.6669.6025,3.3129,3.3129,0,0,1,0-6.625,2.5049,2.5049,0,0,1,1.6669.6016v-.3916h1.5967v6.2051Zm-3.32-3.1094a1.6848,1.6848,0,1,0,3.3477,0,1.6835,1.6835,0,1,0-3.3477,0Z" fill="#023550"/>
      <path d="M79.5994,361.39c0,.4619.07.6026.3086.6026a3.266,3.266,0,0,0,.7422-.1407v1.4991a3.3025,3.3025,0,0,1-.9248.1543c-1.1064,0-1.7227-.7569-1.7227-2.1153v-2.76h-.6445v-1.4424h.6445v-1.3311l1.5967-.63v1.961h.9522v1.4424h-.9522Z" fill="#023550"/>
      <path d="M83.4637,355.0729a1.0024,1.0024,0,1,1-.9805-.98A.9868.9868,0,0,1,83.4637,355.0729Zm-.211,8.32H81.6561v-6.2051h1.5966Z" fill="#023550"/>
      <path d="M90.9559,360.2839a3.2989,3.2989,0,1,1-3.25-3.3057A3.2683,3.2683,0,0,1,90.9559,360.2839Zm-4.9873,0a1.6962,1.6962,0,1,0,1.6533-1.8633A1.7085,1.7085,0,0,0,85.9686,360.2839Z" fill="#023550"/>
      <path d="M93.64,357.51a2.0587,2.0587,0,0,1,1.4434-.5322,2.6584,2.6584,0,0,1,1.9189.8262,3.0064,3.0064,0,0,1,.6866,2.2549v3.334H96.0926v-3.2354c0-.77-.084-1.1494-.3086-1.4014a1.0486,1.0486,0,0,0-.8262-.3359,1.25,1.25,0,0,0-1.0224.4346,2.21,2.21,0,0,0-.295,1.4287v3.1094H92.0438v-6.2051H93.64Z" fill="#023550"/>
      <path d="M102.1678,359.0651c-.3506-.5185-.5742-.6728-.9385-.6728-.3926,0-.6445.1963-.6445.5049,0,.2656.084.3359.7988.6015l.56.2246c1.0508.4063,1.5127.9248,1.5127,1.751a2.1951,2.1951,0,0,1-2.3252,2.1289,2.32,2.32,0,0,1-1.9326-.9521,3.503,3.503,0,0,1-.49-.9805l1.3028-.5186c.3916.7842.6445,1.0088,1.1347,1.0088a.6452.6452,0,0,0,.7139-.6445c0-.2666-.126-.3643-.7842-.6162l-.6308-.2383a1.81,1.81,0,0,1-1.3868-1.7226,2.0345,2.0345,0,0,1,2.1856-1.961,2.2877,2.2877,0,0,1,2.1709,1.4707Z" fill="#023550"/>
      <path d="M109.4324,361.39c0,.4619.07.6026.3086.6026a3.266,3.266,0,0,0,.7422-.1407v1.4991a3.3025,3.3025,0,0,1-.9248.1543c-1.1064,0-1.7226-.7569-1.7226-2.1153v-2.76h-.6446v-1.4424h.6446v-1.3311l1.5966-.63v1.961h.9532v1.4424h-.9532Z" fill="#023550"/>
      <path d="M117.5965,360.2839a3.2984,3.2984,0,1,1-3.249-3.3057A3.2675,3.2675,0,0,1,117.5965,360.2839Zm-4.9863,0a1.6962,1.6962,0,1,0,1.6533-1.8633A1.7085,1.7085,0,0,0,112.61,360.2839Z" fill="#023550"/>
      <path d="M30.2723,373.3015c-.5606-.8829-.8828-1.1211-1.5127-1.1211a1.2,1.2,0,0,0-1.3028,1.1767c0,.4483.3643.7988,1.0928,1.0791l.8819.336c1.5693.6025,2.2978,1.4287,2.2978,2.6474a3.1725,3.1725,0,0,1-6.01,1.2188,4.6617,4.6617,0,0,1-.3222-1.0645l1.6113-.4209a3.8238,3.8238,0,0,0,.294.9385,1.41,1.41,0,0,0,1.289.7568,1.4284,1.4284,0,0,0,1.4561-1.415c0-.5459-.35-.8682-1.3448-1.2608l-.84-.3222a2.6726,2.6726,0,0,1-2.06-2.5069,2.7824,2.7824,0,0,1,2.97-2.7031,2.9153,2.9153,0,0,1,2.1709.8819,4.0979,4.0979,0,0,1,.6865.9384Z" fill="#023550"/>
      <path d="M40.074,373.5114a6.123,6.123,0,0,0-.8125-.77,2.8851,2.8851,0,0,0-1.7089-.5322,3.3138,3.3138,0,0,0-.0137,6.626,2.98,2.98,0,0,0,1.8066-.6026,5.7162,5.7162,0,0,0,.77-.7148l1.1768,1.1211a4.781,4.781,0,0,1-3.74,1.7646,4.8817,4.8817,0,1,1,.0136-9.7627,4.8259,4.8259,0,0,1,3.6846,1.7364Z" fill="#023550"/>
      <path d="M42.59,370.85h1.5546l3.0821,5.4765,3.081-5.4765h1.5557v9.3428H50.21V374.072l-2.3389,4.1738H46.5818L44.243,374.072v6.1211H42.59Z" fill="#023550"/>
      <path d="M63.6063,380.1931h-1.877l-1.9746-3.544c-.2666.0137-.3789.0137-.5742.0137h-.49v3.53H57.0369V370.85h2.1436a3.7167,3.7167,0,0,1,2.6055.7285,2.8875,2.8875,0,0,1,.9941,2.2129,2.7467,2.7467,0,0,1-1.4,2.4375Zm-4.3145-5.0284c1.2754,0,1.8633-.4482,1.8633-1.4013a1.365,1.365,0,0,0-.4346-1.0362,2.0113,2.0113,0,0,0-1.4287-.3642H58.69v2.8017Z" fill="#023550"/>
      <path d="M65.6483,377.6852a1.54,1.54,0,0,0,1.5546,1.2754,1.8058,1.8058,0,0,0,1.3164-.5185,2.75,2.75,0,0,0,.3223-.4346l1.3447.5606a3.194,3.194,0,0,1-.91,1.1347,3.3647,3.3647,0,0,1-2.0733.7,3.316,3.316,0,0,1-.0556-6.625,3.03,3.03,0,0,1,2.9131,2.2266,4.2265,4.2265,0,0,1,.1679,1.2324c0,.0986,0,.2109-.0136.4482Zm2.9834-1.19c-.28-.8818-.7569-1.3027-1.4844-1.3027a1.52,1.52,0,0,0-1.499,1.3027Z" fill="#023550"/>
      <path d="M72.9,373.988v.3916a2.5051,2.5051,0,0,1,1.667-.6016,3.3129,3.3129,0,0,1,0,6.625,2.5015,2.5015,0,0,1-1.667-.6025v3.67H71.3035V373.988Zm-.0137,3.1094a1.679,1.679,0,0,0,1.6807,1.8632,1.8825,1.8825,0,0,0-.0273-3.74A1.6865,1.6865,0,0,0,72.8865,377.0974Z" fill="#023550"/>
      <path d="M85.1258,377.0837a3.2989,3.2989,0,1,1-3.25-3.3057A3.2683,3.2683,0,0,1,85.1258,377.0837Zm-4.9873,0a1.6963,1.6963,0,1,0,1.6533-1.8633A1.7085,1.7085,0,0,0,80.1385,377.0837Z" fill="#023550"/>
      <path d="M89.2117,375.8649c-.3506-.5185-.5742-.6728-.9384-.6728-.3926,0-.6446.1963-.6446.5049,0,.2656.084.3359.7989.6015l.5595.2246c1.0508.4063,1.5127.9248,1.5127,1.751a2.1951,2.1951,0,0,1-2.3252,2.1289,2.32,2.32,0,0,1-1.9326-.9521,3.5,3.5,0,0,1-.49-.9805l1.3027-.5186c.3916.7842.6445,1.0088,1.1348,1.0088a.6451.6451,0,0,0,.7138-.6445c0-.2666-.1259-.3643-.7841-.6162l-.63-.2383a1.81,1.81,0,0,1-1.3877-1.7226,2.0339,2.0339,0,0,1,2.1855-1.961,2.2877,2.2877,0,0,1,2.1709,1.4707Z" fill="#023550"/>
      <path d="M93.3973,371.8727a1.0024,1.0024,0,1,1-.9805-.98A.9868.9868,0,0,1,93.3973,371.8727Zm-.211,8.32H91.59V373.988h1.5966Z" fill="#023550"/>
      <path d="M96.35,378.19c0,.4619.07.6026.3086.6026a3.2679,3.2679,0,0,0,.7422-.1407v1.4991a3.303,3.303,0,0,1-.9248.1543c-1.1065,0-1.7227-.7569-1.7227-2.1153v-2.76h-.6445V373.988h.6445v-1.3311l1.5967-.63v1.961h.9531V375.43H96.35Z" fill="#023550"/>
      <path d="M104.5145,377.0837a3.2989,3.2989,0,1,1-3.25-3.3057A3.2683,3.2683,0,0,1,104.5145,377.0837Zm-4.9873,0a1.6962,1.6962,0,1,0,1.6533-1.8633A1.7085,1.7085,0,0,0,99.5272,377.0837Z" fill="#023550"/>
      <path d="M107.199,374.3942a1.6516,1.6516,0,0,1,1.2188-.4482,5.1636,5.1636,0,0,1,.5889.042v1.4287c-.252-.0147-.4346-.0283-.5743-.0283-.9248,0-1.2334.4482-1.2334,1.8213v2.9834h-1.5966V373.988h1.5966Z" fill="#023550"/>
      <path d="M109.3406,373.988h1.7373l1.6807,3.9638,1.751-3.9638h1.7226l-4.2158,9.4824h-1.6953l1.583-3.5713Z" fill="#023550"/>
    </g>
    <g>
      <path d="M289.1492,341.4665v.7988c0,2.7315-1.7226,4.5381-4.3,4.5381a4.8818,4.8818,0,1,1-.0283-9.7627,4.5586,4.5586,0,0,1,2.7178.8682,7.1019,7.1019,0,0,1,.98.8545l-1.1767,1.1347a4.721,4.721,0,0,0-.8125-.7568,2.9576,2.9576,0,0,0-1.7227-.5322,3.3137,3.3137,0,0,0,.0137,6.6259,2.5265,2.5265,0,0,0,2.2832-1.2333,2.5857,2.5857,0,0,0,.3223-.9942h-2.6192v-1.541Z" fill="#023550"/>
      <path d="M296.6375,343.4841a3.2984,3.2984,0,1,1-3.249-3.3057A3.2675,3.2675,0,0,1,296.6375,343.4841Zm-4.9863,0a1.6963,1.6963,0,1,0,1.6533-1.8633A1.7085,1.7085,0,0,0,291.6512,343.4841Z" fill="#023550"/>
      <path d="M304.8846,339.9118a6.1292,6.1292,0,0,0-.8125-.7705,2.8854,2.8854,0,0,0-1.709-.5322,3.3137,3.3137,0,0,0-.0137,6.6259,2.98,2.98,0,0,0,1.8067-.6025,5.7293,5.7293,0,0,0,.7705-.7148l1.1767,1.1211a4.7812,4.7812,0,0,1-3.74,1.7646,4.8817,4.8817,0,1,1,.0137-9.7627,4.8259,4.8259,0,0,1,3.6845,1.7363Z" fill="#023550"/>
      <path d="M309.46,337.2507c3.1094,0,5.0986,1.82,5.0986,4.664,0,2.8575-1.9756,4.6787-5.0986,4.6787h-2.1436v-9.3427Zm-.49,7.8017h.5323c2.1006,0,3.39-1.19,3.39-3.1377,0-1.9326-1.3027-3.123-3.39-3.123H308.97Z" fill="#023550"/>
      <path d="M323.4744,342.5036c-.7-.7432-.9668-.8828-1.583-.8828a1.877,1.877,0,0,0,.0137,3.74,1.9733,1.9733,0,0,0,1.6113-.9248l1.0645,1.0225a3.3492,3.3492,0,0,1-2.69,1.3447,3.3125,3.3125,0,1,1,0-6.625,3.3721,3.3721,0,0,1,2.6475,1.2881Z" fill="#023550"/>
      <path d="M327.07,340.7946a1.6516,1.6516,0,0,1,1.2188-.4482,5.1376,5.1376,0,0,1,.5888.042v1.4287c-.2519-.0147-.4345-.0283-.5742-.0283-.9248,0-1.2334.4482-1.2334,1.8212v2.9834h-1.5966v-6.205H327.07Z" fill="#023550"/>
      <path d="M330.9344,344.0856a1.54,1.54,0,0,0,1.5547,1.2754,1.8062,1.8062,0,0,0,1.3164-.5185,2.7519,2.7519,0,0,0,.3222-.4346l1.3448.56a3.1945,3.1945,0,0,1-.91,1.1348,3.3646,3.3646,0,0,1-2.0732.7,3.316,3.316,0,0,1-.0557-6.625,3.03,3.03,0,0,1,2.9131,2.2266,4.2259,4.2259,0,0,1,.168,1.2324c0,.0986,0,.2109-.0137.4482Zm2.9834-1.19c-.28-.8818-.7568-1.3027-1.4844-1.3027a1.52,1.52,0,0,0-1.499,1.3027Z" fill="#023550"/>
      <path d="M341.1287,346.5934v-.3925a2.5014,2.5014,0,0,1-1.667.6025,3.3129,3.3129,0,0,1,0-6.625,2.5049,2.5049,0,0,1,1.667.6016v-.3916h1.5967v6.205Zm-3.32-3.1093a1.6848,1.6848,0,1,0,3.3477,0,1.6835,1.6835,0,1,0-3.3477,0Z" fill="#023550"/>
      <path d="M345.9012,344.5905c0,.4619.07.6026.3086.6026a3.2679,3.2679,0,0,0,.7422-.1407v1.4991a3.303,3.303,0,0,1-.9248.1543c-1.1065,0-1.7227-.7569-1.7227-2.1153v-2.76H343.66v-1.4424h.6445v-1.3311l1.5967-.63v1.961h.9531v1.4424h-.9531Z" fill="#023550"/>
      <path d="M349.1072,344.0856a1.54,1.54,0,0,0,1.5547,1.2754,1.8058,1.8058,0,0,0,1.3164-.5185,2.7567,2.7567,0,0,0,.3223-.4346l1.3447.56a3.1945,3.1945,0,0,1-.91,1.1348,3.3649,3.3649,0,0,1-2.0733.7,3.316,3.316,0,0,1-.0556-6.625,3.03,3.03,0,0,1,2.913,2.2266,4.2225,4.2225,0,0,1,.168,1.2324c0,.0986,0,.2109-.0137.4482Zm2.9834-1.19c-.28-.8818-.7568-1.3027-1.4843-1.3027a1.52,1.52,0,0,0-1.4991,1.3027Z" fill="#023550"/>
      <path d="M357.7606,342.2653c-.3506-.5185-.5743-.6728-.9385-.6728-.3926,0-.6445.1963-.6445.5049,0,.2656.0839.3359.7988.6015l.56.2246c1.0507.4063,1.5126.9248,1.5126,1.751a2.195,2.195,0,0,1-2.3251,2.1289,2.32,2.32,0,0,1-1.9327-.9521,3.5,3.5,0,0,1-.49-.9805l1.3027-.5186c.3916.7842.6446,1.0088,1.1348,1.0088a.6452.6452,0,0,0,.7139-.6445c0-.2666-.126-.3643-.7842-.6162l-.63-.2383a1.81,1.81,0,0,1-1.3877-1.7227,2.0339,2.0339,0,0,1,2.1856-1.9609,2.2879,2.2879,0,0,1,2.1709,1.4707Z" fill="#023550"/>
      <path d="M366.5252,337.7683l-5.2392,9.05-1.2608-.7569,5.2529-9.0351Z" fill="#023550"/>
      <path d="M371.9422,346.2712a2.0579,2.0579,0,0,1-1.4434.5322,2.6588,2.6588,0,0,1-1.9189-.8262,3.0271,3.0271,0,0,1-.6865-2.2548v-3.334H369.49v3.2353a2.0267,2.0267,0,0,0,.3085,1.4014,1.0486,1.0486,0,0,0,.8262.3359,1.25,1.25,0,0,0,1.0225-.4345,2.2351,2.2351,0,0,0,.2949-1.4424v-3.0957h1.5967v6.205h-1.5967Z" fill="#023550"/>
      <path d="M376.617,340.3884v.3916a2.5051,2.5051,0,0,1,1.667-.6016,3.3129,3.3129,0,0,1,0,6.625,2.5015,2.5015,0,0,1-1.667-.6025v3.67H375.02v-9.4824Zm-.0137,3.1093a1.679,1.679,0,0,0,1.6807,1.8633,1.8825,1.8825,0,0,0-.0273-3.74A1.6864,1.6864,0,0,0,376.6033,343.4977Z" fill="#023550"/>
      <path d="M387.1746,346.5934v-.3925a2.5275,2.5275,0,0,1-1.667.6025,3.3129,3.3129,0,0,1,0-6.625,2.4319,2.4319,0,0,1,1.667.6016v-3.5293h1.5967v9.3427Zm-3.32-3.1093a1.6787,1.6787,0,1,0,3.334,0,1.679,1.679,0,0,0-1.6807-1.8633A1.7045,1.7045,0,0,0,383.8543,343.4841Z" fill="#023550"/>
      <path d="M394.7635,346.5934v-.3925a2.5015,2.5015,0,0,1-1.667.6025,3.3129,3.3129,0,0,1,0-6.625,2.5051,2.5051,0,0,1,1.667.6016v-.3916H396.36v6.205Zm-3.32-3.1093a1.6848,1.6848,0,1,0,3.3476,0,1.6834,1.6834,0,1,0-3.3476,0Z" fill="#023550"/>
      <path d="M399.535,344.5905c0,.4619.07.6026.3086.6026a3.2679,3.2679,0,0,0,.7422-.1407v1.4991a3.303,3.303,0,0,1-.9248.1543c-1.1065,0-1.7227-.7569-1.7227-2.1153v-2.76h-.6445v-1.4424h.6445v-1.3311l1.5967-.63v1.961h.9521v1.4424h-.9521Z" fill="#023550"/>
      <path d="M402.741,344.0856a1.54,1.54,0,0,0,1.5547,1.2754,1.8058,1.8058,0,0,0,1.3164-.5185,2.7567,2.7567,0,0,0,.3223-.4346l1.3447.56a3.1945,3.1945,0,0,1-.91,1.1348,3.3651,3.3651,0,0,1-2.0733.7,3.316,3.316,0,0,1-.0556-6.625,3.03,3.03,0,0,1,2.913,2.2266,4.2259,4.2259,0,0,1,.168,1.2324c0,.0986,0,.2109-.0137.4482Zm2.9834-1.19c-.28-.8818-.7568-1.3027-1.4843-1.3027a1.52,1.52,0,0,0-1.4991,1.3027Z" fill="#023550"/>
      <path d="M411.3943,342.2653c-.3505-.5185-.5742-.6728-.9384-.6728-.3926,0-.6446.1963-.6446.5049,0,.2656.084.3359.7989.6015l.5595.2246c1.0508.4063,1.5127.9248,1.5127,1.751a2.1951,2.1951,0,0,1-2.3252,2.1289,2.32,2.32,0,0,1-1.9326-.9521,3.5,3.5,0,0,1-.49-.9805l1.3027-.5186c.3916.7842.6446,1.0088,1.1348,1.0088a.6452.6452,0,0,0,.7139-.6445c0-.2666-.126-.3643-.7842-.6162l-.6309-.2383a1.81,1.81,0,0,1-1.3867-1.7227,2.0345,2.0345,0,0,1,2.1855-1.9609,2.2877,2.2877,0,0,1,2.1709,1.4707Z" fill="#023550"/>
      <path d="M276.2166,357.1882v.3916a2.5051,2.5051,0,0,1,1.667-.6016,3.3129,3.3129,0,0,1,0,6.625,2.5015,2.5015,0,0,1-1.667-.6025v3.67H274.62v-9.4824Zm-.0137,3.1093a1.679,1.679,0,0,0,1.6807,1.8633,1.8825,1.8825,0,0,0-.0273-3.74A1.6864,1.6864,0,0,0,276.2029,360.2975Z" fill="#023550"/>
      <path d="M284.0438,355.0729a1.0024,1.0024,0,1,1-.98-.98A.9869.9869,0,0,1,284.0438,355.0729Zm-.211,8.32h-1.5967v-6.2051h1.5967Z" fill="#023550"/>
      <path d="M286.9266,357.1882v.3916a2.5049,2.5049,0,0,1,1.667-.6016,3.3129,3.3129,0,0,1,0,6.625,2.5014,2.5014,0,0,1-1.667-.6025v3.67H285.33v-9.4824Zm-.0137,3.1093a1.679,1.679,0,0,0,1.6807,1.8633,1.8825,1.8825,0,0,0-.0274-3.74A1.6864,1.6864,0,0,0,286.9129,360.2975Z" fill="#023550"/>
      <path d="M294.1932,360.8854a1.54,1.54,0,0,0,1.5547,1.2754,1.8062,1.8062,0,0,0,1.3164-.5185,2.7584,2.7584,0,0,0,.3222-.4346l1.3448.5606a3.194,3.194,0,0,1-.91,1.1347,3.3646,3.3646,0,0,1-2.0732.7,3.316,3.316,0,0,1-.0557-6.625,3.03,3.03,0,0,1,2.9131,2.2266,4.2264,4.2264,0,0,1,.168,1.2324c0,.0986,0,.2109-.0137.4482Zm2.9834-1.19c-.28-.8818-.7569-1.3027-1.4844-1.3027a1.52,1.52,0,0,0-1.499,1.3027Z" fill="#023550"/>
      <path d="M299.8631,363.3933v-9.3428H301.46v9.3428Z" fill="#023550"/>
      <path d="M304.7635,355.0729a1.0024,1.0024,0,1,1-.9815-.98A.9868.9868,0,0,1,304.7635,355.0729Zm-.2109,8.32h-1.5967v-6.2051h1.5967Z" fill="#023550"/>
      <path d="M307.6463,357.51a2.0584,2.0584,0,0,1,1.4434-.5322,2.6588,2.6588,0,0,1,1.9189.8262,3.0068,3.0068,0,0,1,.6865,2.2549v3.334h-1.5966v-3.2354c0-.77-.084-1.1494-.3086-1.4014a1.0486,1.0486,0,0,0-.8262-.3359,1.25,1.25,0,0,0-1.0225.4346,2.2112,2.2112,0,0,0-.2949,1.4287v3.1094H306.05v-6.2051h1.5967Z" fill="#023550"/>
      <path d="M314.4227,360.8854a1.54,1.54,0,0,0,1.5547,1.2754,1.8062,1.8062,0,0,0,1.3164-.5185,2.7584,2.7584,0,0,0,.3222-.4346l1.3448.5606a3.194,3.194,0,0,1-.91,1.1347,3.3646,3.3646,0,0,1-2.0732.7,3.316,3.316,0,0,1-.0557-6.625,3.03,3.03,0,0,1,2.9131,2.2266,4.2265,4.2265,0,0,1,.1679,1.2324c0,.0986,0,.2109-.0136.4482Zm2.9834-1.19c-.28-.8818-.7569-1.3027-1.4844-1.3027a1.52,1.52,0,0,0-1.499,1.3027Z" fill="#023550"/>
      <path d="M323.076,359.0651c-.3506-.5185-.5742-.6728-.9385-.6728-.3926,0-.6445.1963-.6445.5049,0,.2656.084.3359.7988.6015l.56.2246c1.0508.4063,1.5127.9248,1.5127,1.751a2.1951,2.1951,0,0,1-2.3252,2.1289,2.32,2.32,0,0,1-1.9326-.9521,3.503,3.503,0,0,1-.49-.9805l1.3028-.5186c.3916.7842.6445,1.0088,1.1347,1.0088a.6452.6452,0,0,0,.7139-.6445c0-.2666-.126-.3643-.7842-.6162l-.6308-.2383a1.81,1.81,0,0,1-1.3868-1.7226,2.0345,2.0345,0,0,1,2.1856-1.961,2.2877,2.2877,0,0,1,2.1709,1.4707Z" fill="#023550"/>
      <path d="M331.4891,357.1882v1.4424h-1.0645v4.7627h-1.5967v-4.7627H328.24v-1.4424h.5878v-1.1348c0-1.373.6163-2.1152,1.751-2.1152a4.2164,4.2164,0,0,1,.8828.1123v1.4424a1.8437,1.8437,0,0,0-.56-.1123c-.3506,0-.4766.1826-.4766.6728v1.1348Z" fill="#023550"/>
      <path d="M333.952,357.5944a1.6512,1.6512,0,0,1,1.2187-.4482,5.1636,5.1636,0,0,1,.5889.042v1.4287c-.252-.0147-.4346-.0283-.5742-.0283-.9248,0-1.2334.4482-1.2334,1.8213v2.9834h-1.5967v-6.2051h1.5967Z" fill="#023550"/>
      <path d="M342.7742,360.2839a3.2983,3.2983,0,1,1-3.249-3.3057A3.2675,3.2675,0,0,1,342.7742,360.2839Zm-4.9863,0a1.6963,1.6963,0,1,0,1.6533-1.8633A1.7085,1.7085,0,0,0,337.7879,360.2839Z" fill="#023550"/>
      <path d="M345.46,357.51a1.812,1.812,0,0,1,1.3594-.5322,2.2109,2.2109,0,0,1,1.6943.7559,2.5458,2.5458,0,0,1,1.8769-.7559,2.67,2.67,0,0,1,2.1016.9238,3.0583,3.0583,0,0,1,.6162,2.1573v3.334h-1.5967v-3.2217c0-1.2744-.28-1.751-1.0224-1.751a1.1227,1.1227,0,0,0-.9248.42,2.44,2.44,0,0,0-.2657,1.457v3.0958H347.701v-3.2217c0-1.2744-.2793-1.751-1.0361-1.751a1.15,1.15,0,0,0-.9385.42,2.468,2.468,0,0,0-.2666,1.457v3.0958h-1.5967v-6.2051H345.46Z" fill="#023550"/>
      <path d="M362.3172,359.3034c-.7-.7432-.9668-.8828-1.583-.8828a1.877,1.877,0,0,0,.0137,3.74,1.9746,1.9746,0,0,0,1.6113-.9248l1.0644,1.0225a3.3489,3.3489,0,0,1-2.6894,1.3447,3.3125,3.3125,0,1,1,0-6.625,3.3691,3.3691,0,0,1,2.6475,1.2881Z" fill="#023550"/>
      <path d="M365.8006,357.51a2.0584,2.0584,0,0,1,1.4434-.5322,2.6588,2.6588,0,0,1,1.9189.8262,2.9919,2.9919,0,0,1,.6865,2.2412v3.3477h-1.5967v-3.2354c0-1.2607-.3085-1.7373-1.1347-1.7373a1.25,1.25,0,0,0-1.0225.4346,2.2112,2.2112,0,0,0-.2949,1.4287v3.1094h-1.5967v-9.3428h1.5967Z" fill="#023550"/>
      <path d="M375.869,363.3933v-.3926a2.5015,2.5015,0,0,1-1.667.6025,3.3129,3.3129,0,0,1,0-6.625,2.5051,2.5051,0,0,1,1.667.6016v-.3916h1.5966v6.2051Zm-3.32-3.1094a1.6848,1.6848,0,1,0,3.3477,0,1.6835,1.6835,0,1,0-3.3477,0Z" fill="#023550"/>
      <path d="M380.5428,357.51a2.0583,2.0583,0,0,1,1.4433-.5322,2.6588,2.6588,0,0,1,1.919.8262,3.0068,3.0068,0,0,1,.6865,2.2549v3.334h-1.5967v-3.2354c0-.77-.0839-1.1494-.3086-1.4014a1.0482,1.0482,0,0,0-.8261-.3359,1.25,1.25,0,0,0-1.0225.4346,2.2112,2.2112,0,0,0-.2949,1.4287v3.1094h-1.5967v-6.2051h1.5967Z" fill="#023550"/>
      <path d="M390.5418,363.0007a2.5459,2.5459,0,0,1-1.6953.6025,3.3134,3.3134,0,0,1,0-6.625,2.55,2.55,0,0,1,1.6953.6016v-.3916h1.5967v6.331a3.1687,3.1687,0,0,1-3.3477,3.3477,3.6177,3.6177,0,0,1-2.2558-.7559,4.5773,4.5773,0,0,1-.8125-.8408l1.0371-1.0361.2519.2793a2.0183,2.0183,0,0,0,1.7647.9111,1.6769,1.6769,0,0,0,1.7656-1.9053Zm-3.32-2.7168a1.6787,1.6787,0,1,0,3.334,0,1.679,1.679,0,0,0-1.6807-1.8633A1.6969,1.6969,0,0,0,387.2215,360.2839Z" fill="#023550"/>
      <path d="M394.866,360.8854a1.54,1.54,0,0,0,1.5547,1.2754,1.8058,1.8058,0,0,0,1.3164-.5185,2.7567,2.7567,0,0,0,.3223-.4346l1.3447.5606a3.194,3.194,0,0,1-.91,1.1347,3.3651,3.3651,0,0,1-2.0733.7,3.316,3.316,0,0,1-.0556-6.625,3.03,3.03,0,0,1,2.913,2.2266,4.2264,4.2264,0,0,1,.168,1.2324c0,.0986,0,.2109-.0137.4482Zm2.9834-1.19c-.28-.8818-.7568-1.3027-1.4843-1.3027a1.52,1.52,0,0,0-1.4991,1.3027Z" fill="#023550"/>
      <path d="M403.5193,359.0651c-.3505-.5185-.5742-.6728-.9384-.6728-.3926,0-.6446.1963-.6446.5049,0,.2656.084.3359.7989.6015l.5595.2246c1.0508.4063,1.5127.9248,1.5127,1.751a2.1951,2.1951,0,0,1-2.3252,2.1289,2.32,2.32,0,0,1-1.9326-.9521,3.5,3.5,0,0,1-.49-.9805l1.3027-.5186c.3916.7842.6446,1.0088,1.1348,1.0088a.6452.6452,0,0,0,.7139-.6445c0-.2666-.126-.3643-.7842-.6162l-.6309-.2383a1.81,1.81,0,0,1-1.3867-1.7226,2.0345,2.0345,0,0,1,2.1855-1.961,2.2877,2.2877,0,0,1,2.1709,1.4707Z" fill="#023550"/>
      <path d="M410.9246,355.0729a1.0024,1.0024,0,1,1-.98-.98A.9868.9868,0,0,1,410.9246,355.0729Zm-.2109,8.32H409.117v-6.2051h1.5967Z" fill="#023550"/>
      <path d="M413.8074,357.51a2.0587,2.0587,0,0,1,1.4434-.5322,2.6584,2.6584,0,0,1,1.9189.8262,3.0064,3.0064,0,0,1,.6866,2.2549v3.334H416.26v-3.2354a2.0305,2.0305,0,0,0-.3086-1.4014,1.0486,1.0486,0,0,0-.8262-.3359,1.25,1.25,0,0,0-1.0224.4346,2.21,2.21,0,0,0-.295,1.4287v3.1094h-1.5966v-6.2051h1.5966Z" fill="#023550"/>
      <path d="M301.1453,376.1032c-.7-.7432-.9668-.8828-1.583-.8828a1.877,1.877,0,0,0,.0137,3.74,1.9742,1.9742,0,0,0,1.6113-.9248l1.0645,1.0225a3.3492,3.3492,0,0,1-2.69,1.3447,3.3125,3.3125,0,1,1,0-6.625,3.3721,3.3721,0,0,1,2.6475,1.2881Z" fill="#023550"/>
      <path d="M309.1688,377.0837a3.2989,3.2989,0,1,1-3.25-3.3057A3.2683,3.2683,0,0,1,309.1688,377.0837Zm-4.9873,0a1.6962,1.6962,0,1,0,1.6533-1.8633A1.7085,1.7085,0,0,0,304.1815,377.0837Z" fill="#023550"/>
      <path d="M311.8533,374.31a2.0587,2.0587,0,0,1,1.4434-.5322,2.6584,2.6584,0,0,1,1.9189.8262,3.0064,3.0064,0,0,1,.6866,2.2549v3.334h-1.5967v-3.2354c0-.77-.084-1.1494-.3086-1.4014a1.0486,1.0486,0,0,0-.8262-.3359,1.25,1.25,0,0,0-1.0224.4346,2.21,2.21,0,0,0-.295,1.4287v3.1094h-1.5966V373.988h1.5966Z" fill="#023550"/>
      <path d="M320.1981,373.988V375.43h-1.0645v4.7627h-1.5967V375.43h-.5879V373.988h.5879v-1.1348c0-1.373.6162-2.1152,1.751-2.1152a4.2164,4.2164,0,0,1,.8828.1123v1.4424a1.8437,1.8437,0,0,0-.56-.1123c-.3506,0-.4766.1826-.4766.6728v1.1348Z" fill="#023550"/>
      <path d="M322.8719,371.8727a1.0024,1.0024,0,1,1-.9805-.98A.9868.9868,0,0,1,322.8719,371.8727Zm-.2109,8.32h-1.5967V373.988h1.5967Z" fill="#023550"/>
      <path d="M328.6414,379.8005a2.5459,2.5459,0,0,1-1.6953.6025,3.3134,3.3134,0,0,1,0-6.625,2.55,2.55,0,0,1,1.6953.6016v-.3916h1.5967v6.331a3.1687,3.1687,0,0,1-3.3477,3.3477,3.6177,3.6177,0,0,1-2.2558-.7559,4.6138,4.6138,0,0,1-.8125-.8408l1.0371-1.0361.2519.28a2.02,2.02,0,0,0,1.7647.91,1.6769,1.6769,0,0,0,1.7656-1.9053Zm-3.32-2.7168a1.6787,1.6787,0,1,0,3.334,0,1.679,1.679,0,0,0-1.6807-1.8633A1.6969,1.6969,0,0,0,325.3211,377.0837Z" fill="#023550"/>
      <path d="M335.7674,379.8708a2.0579,2.0579,0,0,1-1.4434.5322,2.6588,2.6588,0,0,1-1.9189-.8262,3.0271,3.0271,0,0,1-.6865-2.2548v-3.334h1.5966v3.2353a2.0266,2.0266,0,0,0,.3086,1.4014,1.0486,1.0486,0,0,0,.8262.3359,1.25,1.25,0,0,0,1.0225-.4345,2.2416,2.2416,0,0,0,.2949-1.4424V373.988h1.5967v6.2051h-1.5967Z" fill="#023550"/>
      <path d="M340.4412,374.3942a1.6516,1.6516,0,0,1,1.2188-.4482,5.1606,5.1606,0,0,1,.5888.042v1.4287c-.2519-.0147-.4345-.0283-.5742-.0283-.9248,0-1.2334.4482-1.2334,1.8213v2.9834h-1.5967V373.988h1.5967Z" fill="#023550"/>
      <path d="M347.5975,380.1931v-.3926a2.5015,2.5015,0,0,1-1.667.6025,3.3129,3.3129,0,0,1,0-6.625,2.5051,2.5051,0,0,1,1.667.6016v-.3916h1.5967v6.2051Zm-3.32-3.1094a1.6848,1.6848,0,1,0,3.3476,0,1.6834,1.6834,0,1,0-3.3476,0Z" fill="#023550"/>
      <path d="M352.369,378.19c0,.4619.07.6026.3086.6026a3.2664,3.2664,0,0,0,.7421-.1407v1.4991a3.3025,3.3025,0,0,1-.9248.1543c-1.1064,0-1.7226-.7569-1.7226-2.1153v-2.76h-.6446V373.988h.6446v-1.3311l1.5967-.63v1.961h.9521V375.43h-.9521Z" fill="#023550"/>
      <path d="M356.2332,371.8727a1.0024,1.0024,0,1,1-.9805-.98A.9868.9868,0,0,1,356.2332,371.8727Zm-.2109,8.32h-1.5967V373.988h1.5967Z" fill="#023550"/>
      <path d="M363.7254,377.0837a3.2989,3.2989,0,1,1-3.25-3.3057A3.2683,3.2683,0,0,1,363.7254,377.0837Zm-4.9873,0a1.6963,1.6963,0,1,0,1.6533-1.8633A1.7085,1.7085,0,0,0,358.7381,377.0837Z" fill="#023550"/>
      <path d="M366.41,374.31a2.0583,2.0583,0,0,1,1.4433-.5322,2.6588,2.6588,0,0,1,1.919.8262,3.0068,3.0068,0,0,1,.6865,2.2549v3.334h-1.5967v-3.2354c0-.77-.084-1.1494-.3086-1.4014a1.0483,1.0483,0,0,0-.8261-.3359,1.25,1.25,0,0,0-1.0225.4346,2.2112,2.2112,0,0,0-.2949,1.4287v3.1094h-1.5967V373.988H366.41Z" fill="#023550"/>
      <path d="M377.9744,373.988V375.43H376.91v4.7627h-1.5967V375.43h-.5879V373.988h.5879v-1.1348c0-1.373.6162-2.1152,1.751-2.1152a4.2172,4.2172,0,0,1,.8828.1123v1.4424a1.8437,1.8437,0,0,0-.5606-.1123c-.3505,0-.4765.1826-.4765.6728v1.1348Z" fill="#023550"/>
      <path d="M380.6483,371.8727a1.0025,1.0025,0,1,1-.9815-.98A.9869.9869,0,0,1,380.6483,371.8727Zm-.211,8.32h-1.5967V373.988h1.5967Z" fill="#023550"/>
      <path d="M381.949,380.1931V370.85h1.5967v9.3428Z" fill="#023550"/>
      <path d="M386.2889,377.6852a1.54,1.54,0,0,0,1.5547,1.2754,1.8062,1.8062,0,0,0,1.3164-.5185,2.7584,2.7584,0,0,0,.3222-.4346l1.3448.5606a3.194,3.194,0,0,1-.91,1.1347,3.3646,3.3646,0,0,1-2.0732.7,3.316,3.316,0,0,1-.0557-6.625,3.03,3.03,0,0,1,2.9131,2.2266,4.2264,4.2264,0,0,1,.168,1.2324c0,.0986,0,.2109-.0137.4482Zm2.9834-1.19c-.28-.8818-.7569-1.3027-1.4844-1.3027a1.52,1.52,0,0,0-1.499,1.3027Z" fill="#023550"/>
      <path d="M394.9422,375.8649c-.3506-.5185-.5742-.6728-.9385-.6728-.3926,0-.6445.1963-.6445.5049,0,.2656.084.3359.7988.6015l.56.2246c1.0508.4063,1.5127.9248,1.5127,1.751a2.1951,2.1951,0,0,1-2.3252,2.1289,2.32,2.32,0,0,1-1.9326-.9521,3.503,3.503,0,0,1-.49-.9805l1.3028-.5186c.3916.7842.6445,1.0088,1.1347,1.0088a.6452.6452,0,0,0,.7139-.6445c0-.2666-.126-.3643-.7842-.6162l-.63-.2383a1.81,1.81,0,0,1-1.3877-1.7226,2.0339,2.0339,0,0,1,2.1856-1.961,2.2877,2.2877,0,0,1,2.1709,1.4707Z" fill="#023550"/>
    </g>
    <g>
      <line x1="137.3223" y1="82.1767" x2="278.1365" y2="82.1767" fill="none" stroke="#023550" stroke-linecap="round" stroke-linejoin="round" stroke-width="5"/>
      <polygon points="145.046 92.36 140.72 82.177 145.046 71.993 120.906 82.177 145.046 92.36" fill="#023550"/>
      <polygon points="297.553 82.177 270.193 93.357 276.685 82.177 270.193 70.999 297.553 82.177" fill="#023550"/>
    </g>
    <g>
      <path d="M130.7567,48.6276a6.1355,6.1355,0,0,0-.8125-.77,2.8854,2.8854,0,0,0-1.709-.5322,3.3138,3.3138,0,0,0-.0137,6.626,2.98,2.98,0,0,0,1.8066-.6026,5.7162,5.7162,0,0,0,.77-.7148l1.1768,1.1211a4.7809,4.7809,0,0,1-3.74,1.7646,4.8817,4.8817,0,1,1,.0136-9.7627,4.8257,4.8257,0,0,1,3.6846,1.7364Z" fill="#023550"/>
      <path d="M139.1414,52.2a3.2984,3.2984,0,1,1-3.249-3.3057A3.2675,3.2675,0,0,1,139.1414,52.2Zm-4.9863,0a1.6963,1.6963,0,1,0,1.6533-1.8633A1.7085,1.7085,0,0,0,134.1551,52.2Z" fill="#023550"/>
      <path d="M141.827,49.4265a2.058,2.058,0,0,1,1.4433-.5323,2.6588,2.6588,0,0,1,1.919.8262,3.0071,3.0071,0,0,1,.6865,2.2549v3.334h-1.5967V52.0739a2.03,2.03,0,0,0-.3086-1.4014,1.0484,1.0484,0,0,0-.8262-.3359,1.25,1.25,0,0,0-1.0224.4346A2.2112,2.2112,0,0,0,141.827,52.2v3.1094H140.23V49.1042h1.5967Z" fill="#023550"/>
      <path d="M148.9529,49.4265a2.0584,2.0584,0,0,1,1.4434-.5323,2.6584,2.6584,0,0,1,1.9189.8262,3.0067,3.0067,0,0,1,.6866,2.2549v3.334h-1.5967V52.0739c0-.77-.084-1.1494-.3086-1.4014a1.0486,1.0486,0,0,0-.8262-.3359,1.25,1.25,0,0,0-1.0224.4346,2.21,2.21,0,0,0-.295,1.4287v3.1094h-1.5966V49.1042h1.5966Z" fill="#023550"/>
      <path d="M155.7293,52.8015a1.54,1.54,0,0,0,1.5547,1.2753,1.806,1.806,0,0,0,1.3164-.5185,2.7567,2.7567,0,0,0,.3223-.4346l1.3447.5606a3.194,3.194,0,0,1-.91,1.1347,3.3646,3.3646,0,0,1-2.0732.7,3.316,3.316,0,0,1-.0557-6.625,3.03,3.03,0,0,1,2.9131,2.2266,4.2264,4.2264,0,0,1,.168,1.2324c0,.0986,0,.211-.0137.4483Zm2.9834-1.19c-.28-.8818-.7568-1.3027-1.4844-1.3027a1.52,1.52,0,0,0-1.499,1.3027Z" fill="#023550"/>
      <path d="M165.8953,51.2194c-.7-.7431-.9668-.8828-1.583-.8828a1.877,1.877,0,0,0,.0137,3.74,1.9742,1.9742,0,0,0,1.6113-.9248l1.0645,1.0225a3.3492,3.3492,0,0,1-2.69,1.3447,3.3125,3.3125,0,1,1,0-6.625,3.3721,3.3721,0,0,1,2.6475,1.2881Z" fill="#023550"/>
      <path d="M169.701,53.3063c0,.462.07.6026.3086.6026a3.2718,3.2718,0,0,0,.7422-.1406v1.499a3.303,3.303,0,0,1-.9248.1543c-1.1065,0-1.7227-.7569-1.7227-2.1153v-2.76H167.46V49.1042h.6445V47.7731l1.5967-.63v1.9609h.9521v1.4424h-.9521Z" fill="#023550"/>
      <path d="M179.53,48.4177c-.5606-.8828-.8828-1.1211-1.5127-1.1211a1.2,1.2,0,0,0-1.3027,1.1767c0,.4483.3642.7989,1.0927,1.0791l.8819.336c1.5693.6025,2.2978,1.4287,2.2978,2.6474a3.1724,3.1724,0,0,1-6.01,1.2188,4.6539,4.6539,0,0,1-.3223-1.0645l1.6113-.4209a3.8238,3.8238,0,0,0,.294.9385,1.41,1.41,0,0,0,1.289.7568,1.4284,1.4284,0,0,0,1.4561-1.415c0-.5459-.35-.8682-1.3447-1.2607l-.84-.3223a2.6726,2.6726,0,0,1-2.06-2.5068,2.7824,2.7824,0,0,1,2.97-2.7032,2.9153,2.9153,0,0,1,2.1709.8819,4.1027,4.1027,0,0,1,.6865.9384Z" fill="#023550"/>
      <path d="M189.3318,48.6276a6.123,6.123,0,0,0-.8125-.77,2.8851,2.8851,0,0,0-1.7089-.5322,3.3138,3.3138,0,0,0-.0137,6.626,2.98,2.98,0,0,0,1.8066-.6026,5.7162,5.7162,0,0,0,.77-.7148l1.1768,1.1211a4.7809,4.7809,0,0,1-3.74,1.7646,4.8817,4.8817,0,1,1,.0136-9.7627,4.8259,4.8259,0,0,1,3.6846,1.7364Z" fill="#023550"/>
      <path d="M191.8475,45.9665h1.5547l3.082,5.4766,3.081-5.4766h1.5557v9.3428h-1.6533V49.1882l-2.3389,4.1738H195.84l-2.3389-4.1738v6.1211h-1.6533Z" fill="#023550"/>
      <path d="M207.7235,53.3063c0,.462.07.6026.3085.6026a3.27,3.27,0,0,0,.7422-.1406v1.499a3.3025,3.3025,0,0,1-.9248.1543c-1.1064,0-1.7226-.7569-1.7226-2.1153v-2.76h-.6446V49.1042h.6446V47.7731l1.5967-.63v1.9609h.9531v1.4424h-.9531Z" fill="#023550"/>
      <path d="M215.8875,52.2a3.2984,3.2984,0,1,1-3.249-3.3057A3.2675,3.2675,0,0,1,215.8875,52.2Zm-4.9863,0a1.6963,1.6963,0,1,0,1.6533-1.8633A1.7085,1.7085,0,0,0,210.9012,52.2Z" fill="#023550"/>
      <path d="M229.161,50.1823v.7988c0,2.7315-1.7227,4.5381-4.3,4.5381a4.8818,4.8818,0,1,1-.0283-9.7627,4.5584,4.5584,0,0,1,2.7178.8682,7.1066,7.1066,0,0,1,.9805.8545l-1.1768,1.1348a4.7191,4.7191,0,0,0-.8125-.7569,2.9576,2.9576,0,0,0-1.7226-.5322,3.3138,3.3138,0,0,0,.0136,6.626,2.5264,2.5264,0,0,0,2.2832-1.2334,2.5851,2.5851,0,0,0,.3223-.9942h-2.6191v-1.541Z" fill="#023550"/>
      <path d="M236.6492,52.2a3.2983,3.2983,0,1,1-3.249-3.3057A3.2675,3.2675,0,0,1,236.6492,52.2Zm-4.9863,0a1.6963,1.6963,0,1,0,1.6533-1.8633A1.7085,1.7085,0,0,0,231.6629,52.2Z" fill="#023550"/>
      <path d="M244.8963,48.6276a6.1292,6.1292,0,0,0-.8125-.77,2.8854,2.8854,0,0,0-1.709-.5322,3.3138,3.3138,0,0,0-.0137,6.626,2.98,2.98,0,0,0,1.8067-.6026,5.7293,5.7293,0,0,0,.77-.7148l1.1768,1.1211a4.7812,4.7812,0,0,1-3.74,1.7646,4.8817,4.8817,0,1,1,.0137-9.7627,4.8259,4.8259,0,0,1,3.6846,1.7364Z" fill="#023550"/>
      <path d="M249.4715,45.9665c3.1094,0,5.0986,1.82,5.0986,4.6641,0,2.8574-1.9756,4.6787-5.0986,4.6787h-2.1436V45.9665Zm-.49,7.8018h.5322c2.1006,0,3.39-1.19,3.39-3.1377,0-1.9327-1.3027-3.1231-3.39-3.1231h-.5322Z" fill="#023550"/>
      <path d="M261.9735,50.9811c-.3506-.5185-.5743-.6728-.9385-.6728-.3926,0-.6446.1963-.6446.5049,0,.2656.084.3359.7989.6015l.56.2246c1.0508.4063,1.5127.9249,1.5127,1.751a2.1951,2.1951,0,0,1-2.3252,2.1289,2.32,2.32,0,0,1-1.9326-.9521,3.5,3.5,0,0,1-.49-.9805l1.3027-.5185c.3916.7841.6446,1.0087,1.1348,1.0087a.6452.6452,0,0,0,.7139-.6445c0-.2666-.126-.3642-.7842-.6162l-.63-.2383a1.81,1.81,0,0,1-1.3877-1.7226,2.0339,2.0339,0,0,1,2.1855-1.961,2.2877,2.2877,0,0,1,2.1709,1.4707Z" fill="#023550"/>
      <path d="M265.5985,52.8015a1.54,1.54,0,0,0,1.5546,1.2753,1.8058,1.8058,0,0,0,1.3164-.5185,2.75,2.75,0,0,0,.3223-.4346l1.3447.5606a3.194,3.194,0,0,1-.91,1.1347,3.3649,3.3649,0,0,1-2.0733.7,3.316,3.316,0,0,1-.0556-6.625,3.03,3.03,0,0,1,2.9131,2.2266,4.2265,4.2265,0,0,1,.1679,1.2324c0,.0986,0,.211-.0136.4483Zm2.9833-1.19c-.28-.8818-.7568-1.3027-1.4843-1.3027a1.52,1.52,0,0,0-1.499,1.3027Z" fill="#023550"/>
      <path d="M272.85,49.51a1.6514,1.6514,0,0,1,1.2188-.4482,5.1621,5.1621,0,0,1,.5888.042v1.4287c-.2519-.0146-.4345-.0283-.5742-.0283-.9248,0-1.2334.4482-1.2334,1.8213v2.9834h-1.5967V49.1042H272.85Z" fill="#023550"/>
      <path d="M278.3807,53.0124l1.6533-3.9082H281.77l-2.6894,6.2051h-1.4l-2.69-6.2051h1.7373Z" fill="#023550"/>
      <path d="M283.3924,52.8015a1.54,1.54,0,0,0,1.5547,1.2753,1.8062,1.8062,0,0,0,1.3164-.5185,2.7567,2.7567,0,0,0,.3223-.4346l1.3447.5606a3.194,3.194,0,0,1-.91,1.1347,3.3646,3.3646,0,0,1-2.0732.7,3.316,3.316,0,0,1-.0557-6.625,3.03,3.03,0,0,1,2.9131,2.2266,4.2264,4.2264,0,0,1,.168,1.2324c0,.0986,0,.211-.0137.4483Zm2.9834-1.19c-.28-.8818-.7568-1.3027-1.4844-1.3027a1.52,1.52,0,0,0-1.499,1.3027Z" fill="#023550"/>
      <path d="M290.6443,49.51a1.6516,1.6516,0,0,1,1.2188-.4482,5.1636,5.1636,0,0,1,.5889.042v1.4287c-.252-.0146-.4346-.0283-.5743-.0283-.9248,0-1.2334.4482-1.2334,1.8213v2.9834h-1.5966V49.1042h1.5966Z" fill="#023550"/>
    </g>
    <g>
      <path d="M140.0809,113.4235v.7989c0,2.7314-1.7227,4.538-4.3,4.538a4.8818,4.8818,0,1,1-.0284-9.7627,4.5582,4.5582,0,0,1,2.7178.8682,7.1,7.1,0,0,1,.9805.8545l-1.1768,1.1348a4.7112,4.7112,0,0,0-.8125-.7569,2.9576,2.9576,0,0,0-1.7226-.5322,3.3138,3.3138,0,0,0,.0136,6.626,2.5267,2.5267,0,0,0,2.2833-1.2334,2.5869,2.5869,0,0,0,.3222-.9942h-2.6191v-1.541Z" fill="#023550"/>
      <path d="M147.5692,115.4411a3.2984,3.2984,0,1,1-3.2491-3.3057A3.2675,3.2675,0,0,1,147.5692,115.4411Zm-4.9864,0a1.6963,1.6963,0,1,0,1.6533-1.8633A1.7085,1.7085,0,0,0,142.5828,115.4411Z" fill="#023550"/>
      <path d="M155.8162,111.8688a6.1292,6.1292,0,0,0-.8125-.77,2.8852,2.8852,0,0,0-1.709-.5322,3.3138,3.3138,0,0,0-.0136,6.626,2.98,2.98,0,0,0,1.8066-.6026,5.7087,5.7087,0,0,0,.77-.7148l1.1768,1.1211a4.781,4.781,0,0,1-3.74,1.7646,4.8817,4.8817,0,1,1,.0137-9.7627,4.8259,4.8259,0,0,1,3.6846,1.7364Z" fill="#023550"/>
      <path d="M160.3914,109.2077c3.1094,0,5.0987,1.82,5.0987,4.6641,0,2.8574-1.9756,4.6787-5.0987,4.6787h-2.1435v-9.3428Zm-.49,7.8018h.5322c2.1006,0,3.39-1.19,3.39-3.1377,0-1.9326-1.3028-3.1231-3.39-3.1231h-.5322Z" fill="#023550"/>
      <path d="M171.8983,115.9167l1.2753-3.5713h1.2608l1.2607,3.5713,1.1621-3.5713h1.709l-2.2549,6.2051h-1.2607l-1.2471-3.5156-1.2607,3.5156H171.282l-2.2548-6.2051h1.7089Z" fill="#023550"/>
      <path d="M183.5623,118.5505v-.3926a2.5008,2.5008,0,0,1-1.667.6025,3.3129,3.3129,0,0,1,0-6.625,2.5049,2.5049,0,0,1,1.667.6016v-.3916h1.5967v6.2051Zm-3.32-3.1094a1.6848,1.6848,0,1,0,3.3477,0,1.6835,1.6835,0,1,0-3.3477,0Z" fill="#023550"/>
      <path d="M188.3338,116.5475c0,.462.07.6026.3086.6026a3.2718,3.2718,0,0,0,.7422-.1406v1.499a3.303,3.303,0,0,1-.9248.1543c-1.1065,0-1.7227-.7569-1.7227-2.1153v-2.76h-.6445v-1.4424h.6445v-1.3311l1.5967-.63v1.9609h.9522v1.4424h-.9522Z" fill="#023550"/>
      <path d="M194.8035,114.4606c-.7-.7431-.9668-.8828-1.583-.8828a1.8771,1.8771,0,0,0,.0137,3.74,1.9745,1.9745,0,0,0,1.6113-.9248l1.0645,1.0224a3.3492,3.3492,0,0,1-2.69,1.3447,3.3125,3.3125,0,1,1,0-6.625,3.3721,3.3721,0,0,1,2.6475,1.2881Z" fill="#023550"/>
      <path d="M198.2879,112.6677a2.058,2.058,0,0,1,1.4434-.5323,2.6592,2.6592,0,0,1,1.9189.8262,2.9922,2.9922,0,0,1,.6865,2.2412v3.3477H200.74v-3.2354c0-1.2607-.3086-1.7373-1.1348-1.7373a1.25,1.25,0,0,0-1.0225.4346,2.2112,2.2112,0,0,0-.2949,1.4287v3.1094h-1.5967v-9.3428h1.5967Z" fill="#023550"/>
      <path d="M205.0643,116.0427a1.54,1.54,0,0,0,1.5547,1.2754,1.8062,1.8062,0,0,0,1.3164-.5186,2.7584,2.7584,0,0,0,.3222-.4346l1.3448.5606a3.194,3.194,0,0,1-.91,1.1347,3.3646,3.3646,0,0,1-2.0732.7,3.316,3.316,0,0,1-.0557-6.625,3.03,3.03,0,0,1,2.9131,2.2266,4.2265,4.2265,0,0,1,.1679,1.2324c0,.0987,0,.211-.0136.4483Zm2.9834-1.19c-.28-.8818-.7569-1.3027-1.4844-1.3027a1.52,1.52,0,0,0-1.499,1.3027Z" fill="#023550"/>
      <path d="M213.7176,114.2224c-.3506-.5186-.5742-.6729-.9385-.6729-.3926,0-.6445.1963-.6445.5049,0,.2656.084.3359.7988.6015l.56.2247c1.0508.4062,1.5127.9248,1.5127,1.7509a2.1951,2.1951,0,0,1-2.3252,2.1289,2.32,2.32,0,0,1-1.9326-.9521,3.5015,3.5015,0,0,1-.49-.9805l1.3028-.5185c.3916.7841.6445,1.0088,1.1347,1.0088a.6452.6452,0,0,0,.7139-.6446c0-.2666-.126-.3642-.7842-.6162l-.63-.2383a1.81,1.81,0,0,1-1.3877-1.7226,2.0339,2.0339,0,0,1,2.1856-1.961,2.2877,2.2877,0,0,1,2.1709,1.4707Z" fill="#023550"/>
      <path d="M222.1307,112.3454v1.4424h-1.0645v4.7627H219.47v-4.7627h-.5878v-1.4424h.5878v-1.1348c0-1.373.6163-2.1152,1.751-2.1152a4.2164,4.2164,0,0,1,.8828.1123V110.65a1.8437,1.8437,0,0,0-.56-.1123c-.3506,0-.4766.1826-.4766.6728v1.1348Z" fill="#023550"/>
      <path d="M229.1317,115.4411a3.2984,3.2984,0,1,1-3.2491-3.3057A3.2675,3.2675,0,0,1,229.1317,115.4411Zm-4.9864,0a1.6963,1.6963,0,1,0,1.6533-1.8633A1.7085,1.7085,0,0,0,224.1453,115.4411Z" fill="#023550"/>
      <path d="M231.8172,112.7517a1.6511,1.6511,0,0,1,1.2188-.4483,5.1636,5.1636,0,0,1,.5888.042v1.4287c-.2519-.0146-.4346-.0283-.5742-.0283-.9248,0-1.2334.4482-1.2334,1.8213v2.9834h-1.5967v-6.2051h1.5967Z" fill="#023550"/>
      <path d="M242.2488,114.4606c-.7-.7431-.9668-.8828-1.583-.8828a1.8771,1.8771,0,0,0,.0137,3.74,1.9745,1.9745,0,0,0,1.6113-.9248l1.0645,1.0224a3.3492,3.3492,0,0,1-2.69,1.3447,3.3125,3.3125,0,1,1,0-6.625,3.3721,3.3721,0,0,1,2.6475,1.2881Z" fill="#023550"/>
      <path d="M245.7322,112.6677a2.0584,2.0584,0,0,1,1.4434-.5323,2.6588,2.6588,0,0,1,1.9189.8262,2.9918,2.9918,0,0,1,.6866,2.2412v3.3477h-1.5967v-3.2354c0-1.2607-.3086-1.7373-1.1348-1.7373a1.25,1.25,0,0,0-1.0224.4346,2.21,2.21,0,0,0-.295,1.4287v3.1094h-1.5966v-9.3428h1.5966Z" fill="#023550"/>
      <path d="M255.8006,118.5505v-.3926a2.501,2.501,0,0,1-1.667.6025,3.3129,3.3129,0,0,1,0-6.625,2.5051,2.5051,0,0,1,1.667.6016v-.3916h1.5967v6.2051Zm-3.32-3.1094a1.6848,1.6848,0,1,0,3.3476,0,1.6834,1.6834,0,1,0-3.3476,0Z" fill="#023550"/>
      <path d="M260.4744,112.6677a2.0584,2.0584,0,0,1,1.4434-.5323,2.6588,2.6588,0,0,1,1.9189.8262,3.0067,3.0067,0,0,1,.6866,2.2549v3.334h-1.5967v-3.2354c0-.77-.084-1.1494-.3086-1.4013a1.0483,1.0483,0,0,0-.8262-.336,1.25,1.25,0,0,0-1.0225.4346,2.2112,2.2112,0,0,0-.2949,1.4287v3.1094h-1.5967v-6.2051h1.5967Z" fill="#023550"/>
      <path d="M270.4735,118.1579a2.5462,2.5462,0,0,1-1.6954.6025,3.3134,3.3134,0,0,1,0-6.625,2.55,2.55,0,0,1,1.6954.6016v-.3916H272.07v6.3311a3.1687,3.1687,0,0,1-3.3476,3.3476,3.6185,3.6185,0,0,1-2.2559-.7558,4.62,4.62,0,0,1-.8125-.8409l1.0371-1.0361.252.28a2.0191,2.0191,0,0,0,1.7646.91,1.677,1.677,0,0,0,1.7657-1.9052Zm-3.32-2.7168a1.6788,1.6788,0,1,0,3.334,0,1.6789,1.6789,0,0,0-1.6806-1.8633A1.697,1.697,0,0,0,267.1531,115.4411Z" fill="#023550"/>
      <path d="M274.7977,116.0427a1.54,1.54,0,0,0,1.5547,1.2754,1.8062,1.8062,0,0,0,1.3164-.5186,2.7584,2.7584,0,0,0,.3222-.4346l1.3448.5606a3.194,3.194,0,0,1-.91,1.1347,3.3646,3.3646,0,0,1-2.0732.7,3.316,3.316,0,0,1-.0557-6.625,3.03,3.03,0,0,1,2.9131,2.2266,4.2265,4.2265,0,0,1,.1679,1.2324c0,.0987,0,.211-.0136.4483Zm2.9834-1.19c-.28-.8818-.7569-1.3027-1.4844-1.3027a1.52,1.52,0,0,0-1.499,1.3027Z" fill="#023550"/>
      <path d="M283.451,114.2224c-.3506-.5186-.5742-.6729-.9385-.6729-.3926,0-.6445.1963-.6445.5049,0,.2656.084.3359.7988.6015l.56.2247c1.0508.4062,1.5127.9248,1.5127,1.7509a2.1951,2.1951,0,0,1-2.3252,2.1289,2.32,2.32,0,0,1-1.9326-.9521,3.5015,3.5015,0,0,1-.49-.9805l1.3028-.5185c.3916.7841.6445,1.0088,1.1347,1.0088a.6452.6452,0,0,0,.7139-.6446c0-.2666-.126-.3642-.7842-.6162l-.6308-.2383a1.81,1.81,0,0,1-1.3868-1.7226,2.0345,2.0345,0,0,1,2.1856-1.961,2.2877,2.2877,0,0,1,2.1709,1.4707Z" fill="#023550"/>
    </g>
    <g>
      <g>
        <rect x="57.2826" y="258.4913" width="54.8902" height="39.6668" fill="#fff" stroke="#023550" stroke-linejoin="round" stroke-width="5"/>
        <polygon points="120.69 309.107 48.765 309.107 57.283 298.565 112.173 298.565 120.69 309.107" fill="#fff" stroke="#023550" stroke-linejoin="round" stroke-width="5"/>
        <rect x="63.9072" y="265.1222" width="41.6409" height="26.4048" fill="#023550"/>
        <g>
          <path d="M67.182,280.883h1.8742v-3.6741c0-.3333.0126-.6776.0126-.6776h-.0251a1.671,1.671,0,0,1-.3449.4678l-.53.4808-1.2453-1.3311,2.3792-2.2316h1.8616v6.9658h1.8863v1.8491H67.182Z" fill="#fff"/>
          <path d="M73.9666,278.3061c0-2.5277.8136-4.5364,3.3162-4.5364s3.3163,2.0087,3.3163,4.5364-.8137,4.5735-3.3163,4.5735S73.9666,280.8338,73.9666,278.3061Zm4.4134,0c0-1.43-.2464-2.5639-1.0972-2.5639s-1.0972,1.1334-1.0972,2.5639c0,1.4425.2465,2.601,1.0972,2.601S78.38,279.7486,78.38,278.3061Z" fill="#fff"/>
          <path d="M81.9226,280.883h1.8742v-3.6741c0-.3333.0126-.6776.0126-.6776h-.0251a1.6693,1.6693,0,0,1-.3448.4678l-.53.4808-1.2453-1.3311,2.3792-2.2316h1.8616v6.9658h1.8863v1.8491H81.9226Z" fill="#fff"/>
          <path d="M88.7077,278.3061c0-2.5277.8136-4.5364,3.3162-4.5364s3.3163,2.0087,3.3163,4.5364-.8137,4.5735-3.3163,4.5735S88.7077,280.8338,88.7077,278.3061Zm4.4135,0c0-1.43-.2465-2.5639-1.0973-2.5639s-1.0972,1.1334-1.0972,2.5639c0,1.4425.2465,2.601,1.0972,2.601S93.1212,279.7486,93.1212,278.3061Z" fill="#fff"/>
          <path d="M96.6633,280.883h1.8742v-3.6741c0-.3333.0125-.6776.0125-.6776h-.0251a1.6693,1.6693,0,0,1-.3448.4678l-.53.4808-1.2452-1.3311,2.3791-2.2316h1.8616v6.9658h1.8863v1.8491H96.6633Z" fill="#fff"/>
        </g>
      </g>
      <g>
        <circle cx="48.7686" cy="258.2538" r="22.3768" fill="#fff" stroke="#023550" stroke-miterlimit="10" stroke-width="5"/>
        <path d="M71.1454,300.6a55.3971,55.3971,0,0,1-3.8447,20.8269,1.1863,1.1863,0,0,1-1.07.7886H31.31a1.1858,1.1858,0,0,1-1.0689-.7864A55.1892,55.1892,0,0,1,26.3848,300.6a57.8114,57.8114,0,0,1,2.1269-15.8219,1.1127,1.1127,0,0,1,1.9193-.609,25.3923,25.3923,0,0,0,14.8269,8.2922,1.2512,1.2512,0,0,1,.9729.9335l1.4161,4.8635a1.1339,1.1339,0,0,0,2.2395.0013l1.413-4.8388a1.2518,1.2518,0,0,1,.9707-.9322,25.5532,25.5532,0,0,0,14.848-8.2926,1.1133,1.1133,0,0,1,1.9185.6148A58.3526,58.3526,0,0,1,71.1454,300.6Z" fill="#4ad9d9" stroke="#023550" stroke-miterlimit="10" stroke-width="5"/>
      </g>
    </g>
    <rect x="33.1344" y="178.1602" width="74.7977" height="24.0377" rx="12.0189" fill="#fff" stroke="#023550" stroke-miterlimit="10" stroke-width="5"/>
    <g>
      <path d="M53.8787,188.6579a4.49,4.49,0,0,0-.6113-.58,2.166,2.166,0,0,0-1.2861-.4,2.4942,2.4942,0,0,0-.0108,4.9873,2.2419,2.2419,0,0,0,1.36-.4541,4.2533,4.2533,0,0,0,.58-.5371l.8857.8438a3.5987,3.5987,0,0,1-2.8154,1.3281,3.6745,3.6745,0,1,1,.0107-7.3486,3.6333,3.6333,0,0,1,2.7725,1.3066Z" fill="#023550"/>
      <path d="M59.8563,189.5436v-2.89H61.1v7.0332H59.8563v-2.9844H56.9568v2.9844H55.7127V186.654h1.2441v2.89Z" fill="#023550"/>
      <path d="M63.8192,187.8034v1.74H66.202v1.1592H63.8192v1.8242h2.7724v1.16H62.575V186.654h3.9219v1.1494Z" fill="#023550"/>
      <path d="M72.8426,188.6579a4.49,4.49,0,0,0-.6113-.58,2.1663,2.1663,0,0,0-1.2862-.4,2.4942,2.4942,0,0,0-.0107,4.9873,2.2418,2.2418,0,0,0,1.36-.4541,4.2469,4.2469,0,0,0,.58-.5371l.8858.8438a3.5989,3.5989,0,0,1-2.8155,1.3281,3.6746,3.6746,0,1,1,.0108-7.3486,3.6329,3.6329,0,0,1,2.7724,1.3066Z" fill="#023550"/>
      <path d="M80.1805,193.6872H78.7039l-2.0879-3.1416-.6953.748v2.3936H74.6766V186.654h1.2441v2.9531l2.7305-2.9531h1.56L77.46,189.6384Z" fill="#023550"/>
      <path d="M82.6883,190.7136V191.81h-2.34v-1.0966Z" fill="#023550"/>
      <path d="M84.9442,193.6872H83.7V186.654h1.2442Z" fill="#023550"/>
      <path d="M86.42,186.654h1.0752l3.6592,4.8926V186.654h1.2442v7.0332H91.3221l-3.6582-4.8926v4.8926H86.42Z" fill="#023550"/>
    </g>
  </g>
</svg>
