<?xml version="1.0" encoding="utf-8" standalone="yes"?><!-- Generator: Adobe Illustrator 24.1.0, SVG Export Plug-In . SVG Version: 6.00 Build 0)  --><svg xmlns="http://www.w3.org/2000/svg" xmlns:xlink="http://www.w3.org/1999/xlink" version="1.1" id="Layer_1" x="0px" y="0px" viewBox="0 0 440 400" xml:space="preserve" width="600" height="400"><style type="text/css">
        .st0{display:none;}
        .st1{fill:none;stroke:#023550;stroke-width:5;stroke-linecap:round;stroke-linejoin:round;}
        .st2{fill:#023550;}
        .st3{fill:none;stroke:#023550;stroke-width:5;stroke-linecap:round;stroke-linejoin:round;stroke-miterlimit:10;}
        .st4{fill:#FFFFFF;stroke:#023550;stroke-width:5;stroke-linecap:round;stroke-linejoin:round;stroke-miterlimit:10;}
        .st5{fill:#4AD9D9;stroke:#023550;stroke-width:5;stroke-miterlimit:10;}
        .st6{fill:#FFFFFF;stroke:#023550;stroke-width:5;stroke-miterlimit:10;}
        .st7{fill:none;stroke:#023550;stroke-width:5;stroke-miterlimit:10;}
        .st8{fill:#FFFFFF;stroke:#023550;stroke-width:5;stroke-linejoin:round;stroke-miterlimit:10;}
        .st9{fill:#FFFFFF;}
</style><g id="Layer_1_1_"></g><g id="grids_and_guides" class="st0"></g><g id="diagrams"><image style="display:none;overflow:visible;opacity:0.2;enable-background:new ;" width="1490" height="1038" xlink:href="F57035795AD2133A.png" transform="matrix(0.4992 0 0 0.4992 -196.3151 -433.3551)"></image><g><g><line class="st1" x1="70.5" y1="155.5" x2="70.5" y2="225.5"></line><g><polygon class="st2" points="60.3,163.2 70.5,158.9 80.7,163.2 70.5,139.1"></polygon></g></g></g><g><g><line class="st1" x1="344.9" y1="139.5" x2="344.9" y2="191.5"></line><g><polygon class="st2" points="334.7,183.8 344.9,188.1 355.1,183.8 344.9,207.9"></polygon></g></g></g><g><g><path class="st2" d="M308.4,18.1v1c0,3.6-2.3,6-5.6,6c-3.6,0-6.5-2.8-6.5-6.4s2.9-6.4,6.5-6.4c1.3,0,2.5,0.4,3.6,1.1 c0.4,0.3,0.5,0.4,1.3,1.1l-1.5,1.5c-0.7-0.7-0.8-0.8-1.1-1c-0.7-0.5-1.4-0.7-2.3-0.7c-2.4,0-4.2,1.9-4.2,4.4 c0,2.4,1.9,4.3,4.3,4.3c1.3,0,2.4-0.6,3-1.6c0.2-0.4,0.3-0.7,0.4-1.3h-3.4v-2C302.9,18.1,308.4,18.1,308.4,18.1z"></path><path class="st2" d="M318.2,20.8c0,2.4-1.9,4.4-4.3,4.4c-2.5,0-4.3-1.9-4.3-4.4c0-2.4,1.9-4.3,4.4-4.3 C316.3,16.4,318.2,18.4,318.2,20.8z M311.7,20.8c0,1.5,0.9,2.5,2.2,2.5c1.3,0,2.2-1,2.2-2.5s-0.9-2.4-2.3-2.4 C312.6,18.3,311.7,19.3,311.7,20.8z"></path><path class="st2" d="M329.1,16.1c-0.5-0.6-0.8-0.8-1.1-1c-0.6-0.5-1.4-0.7-2.2-0.7c-2.4,0-4.3,1.9-4.3,4.4c0,2.4,1.9,4.3,4.2,4.3 c0.9,0,1.7-0.3,2.4-0.8c0.3-0.2,0.3-0.3,1-0.9l1.5,1.5c-1.7,1.7-3,2.3-4.9,2.3c-3.6,0-6.5-2.8-6.5-6.4s2.9-6.4,6.5-6.4 c1.8,0,3.3,0.7,4.8,2.3L329.1,16.1z"></path><path class="st2" d="M335.1,12.6c4.1,0,6.7,2.4,6.7,6.1s-2.6,6.1-6.7,6.1h-2.8V12.6H335.1z M334.4,22.8h0.7 c2.8,0,4.4-1.6,4.4-4.1s-1.7-4.1-4.4-4.1h-0.7V22.8z"></path><path class="st2" d="M353.5,15.8c-0.7-1.2-1.2-1.5-2-1.5c-1,0-1.7,0.6-1.7,1.5c0,0.6,0.5,1,1.4,1.4l1.2,0.4c2.1,0.8,3,1.9,3,3.5 c0,2.2-1.8,3.9-4.2,3.9c-1.6,0-3-0.9-3.7-2.3c-0.2-0.4-0.2-0.4-0.4-1.4l2.1-0.6c0.3,1,0.3,1,0.4,1.2c0.3,0.6,1,1,1.7,1 c1.1,0,1.9-0.8,1.9-1.9c0-0.7-0.5-1.1-1.8-1.7l-1.1-0.4c-1.8-0.7-2.7-1.8-2.7-3.3c0-2,1.7-3.5,3.9-3.5c1.1,0,2.1,0.4,2.8,1.2 c0.3,0.3,0.4,0.5,0.9,1.2L353.5,15.8z"></path><path class="st2" d="M358.7,21.6c0.3,1.1,1,1.7,2,1.7c0.7,0,1.3-0.2,1.7-0.7c0.1-0.1,0.2-0.3,0.4-0.6l1.8,0.7 c-0.5,0.9-0.7,1.1-1.2,1.5c-0.8,0.6-1.7,0.9-2.7,0.9c-2.4,0-4.2-1.9-4.2-4.4c0-2.4,1.8-4.3,4.1-4.3c1.8,0,3.3,1.2,3.8,2.9 c0.1,0.5,0.2,1,0.2,1.6c0,0.1,0,0.3,0,0.6L358.7,21.6L358.7,21.6z M362.6,20c-0.4-1.2-1-1.7-1.9-1.7c-1,0-1.7,0.6-2,1.7H362.6z"></path><path class="st2" d="M368.3,17.2c0.5-0.4,0.9-0.6,1.6-0.6c0.2,0,0.5,0,0.8,0.1v1.9c-0.3,0-0.6,0-0.8,0c-1.2,0-1.6,0.6-1.6,2.4 v3.9h-2.1v-8.1h2.1V17.2z"></path><path class="st2" d="M375.5,21.8l2.2-5.1h2.3l-3.5,8.1h-1.8l-3.5-8.1h2.3L375.5,21.8z"></path><path class="st2" d="M382.1,21.6c0.3,1.1,1,1.7,2,1.7c0.7,0,1.3-0.2,1.7-0.7c0.1-0.1,0.2-0.3,0.4-0.6l1.8,0.7 c-0.5,0.9-0.7,1.1-1.2,1.5c-0.8,0.6-1.7,0.9-2.7,0.9c-2.4,0-4.2-1.9-4.2-4.4c0-2.4,1.8-4.3,4.1-4.3c1.8,0,3.3,1.2,3.8,2.9 c0.1,0.5,0.2,1,0.2,1.6c0,0.1,0,0.3,0,0.6L382.1,21.6L382.1,21.6z M386,20c-0.4-1.2-1-1.7-1.9-1.7c-1,0-1.7,0.6-2,1.7H386z"></path><path class="st2" d="M391.6,17.2c0.5-0.4,0.9-0.6,1.6-0.6c0.2,0,0.5,0,0.8,0.1v1.9c-0.3,0-0.6,0-0.8,0c-1.2,0-1.6,0.6-1.6,2.4 v3.9h-2.1v-8.1h2.1V17.2z"></path></g></g><g><g><path class="st2" d="M17.6,15.8c-0.7-1.2-1.2-1.5-2-1.5c-1,0-1.7,0.6-1.7,1.5c0,0.6,0.5,1,1.4,1.4l1.2,0.4c2.1,0.8,3,1.9,3,3.5 c0,2.2-1.8,3.9-4.2,3.9c-1.6,0-3-0.9-3.7-2.3c-0.2-0.4-0.2-0.4-0.4-1.4l2.1-0.6c0.3,1,0.3,1,0.4,1.2c0.3,0.6,1,1,1.7,1 c1.1,0,1.9-0.8,1.9-1.9c0-0.7-0.5-1.1-1.8-1.7l-1.1-0.4c-1.8-0.7-2.7-1.8-2.7-3.3c0-2,1.7-3.5,3.9-3.5c1.1,0,2.1,0.4,2.8,1.2 c0.3,0.3,0.4,0.5,0.9,1.2L17.6,15.8z"></path><path class="st2" d="M30.5,16.1c-0.5-0.6-0.8-0.8-1.1-1c-0.6-0.5-1.4-0.7-2.2-0.7c-2.4,0-4.3,1.9-4.3,4.4c0,2.4,1.9,4.3,4.2,4.3 c0.9,0,1.7-0.3,2.4-0.8c0.3-0.2,0.3-0.3,1-0.9l1.5,1.5c-1.7,1.7-3,2.3-4.9,2.3c-3.6,0-6.5-2.8-6.5-6.4s2.9-6.4,6.5-6.4 c1.8,0,3.3,0.7,4.8,2.3L30.5,16.1z"></path><path class="st2" d="M33.8,12.6h2l4,7.2l4-7.2h2v12.3h-2.2v-8l-3.1,5.5H39l-3-5.6v8h-2.2V12.6z"></path><path class="st2" d="M61.4,24.8h-2.5l-2.6-4.6c-0.3,0-0.5,0-0.8,0h-0.6v4.6h-2.2V12.6h2.8c1.6,0,2.6,0.3,3.4,1 c0.8,0.7,1.3,1.8,1.3,2.9c0,1.4-0.7,2.6-1.8,3.2L61.4,24.8z M55.7,18.2c1.7,0,2.4-0.6,2.4-1.8c0-0.6-0.2-1.1-0.6-1.4 c-0.4-0.3-0.9-0.5-1.9-0.5h-0.8v3.7C54.8,18.2,55.7,18.2,55.7,18.2z"></path><path class="st2" d="M64,21.6c0.3,1.1,1,1.7,2,1.7c0.7,0,1.3-0.2,1.7-0.7c0.1-0.1,0.2-0.3,0.4-0.6l1.8,0.7 c-0.5,0.9-0.7,1.1-1.2,1.5c-0.8,0.6-1.7,0.9-2.7,0.9c-2.4,0-4.2-1.9-4.2-4.4c0-2.4,1.8-4.3,4.1-4.3c1.8,0,3.3,1.2,3.8,2.9 c0.1,0.5,0.2,1,0.2,1.6c0,0.1,0,0.3,0,0.6L64,21.6L64,21.6z M67.9,20c-0.4-1.2-1-1.7-1.9-1.7c-1,0-1.7,0.6-2,1.7H67.9z"></path><path class="st2" d="M73.5,16.7v0.5c0.8-0.6,1.3-0.8,2.2-0.8c2.4,0,4.3,1.9,4.3,4.4c0,2.4-1.9,4.3-4.3,4.3 c-0.8,0-1.4-0.2-2.2-0.8v4.8h-2.1V16.7H73.5z M73.5,20.8c0,1.5,0.9,2.4,2.2,2.4c1.3,0,2.2-1,2.2-2.4c0-1.5-0.9-2.5-2.2-2.5 S73.5,19.3,73.5,20.8z"></path><path class="st2" d="M89.6,20.8c0,2.4-1.9,4.4-4.3,4.4c-2.5,0-4.3-1.9-4.3-4.4c0-2.4,1.9-4.3,4.4-4.3 C87.7,16.4,89.6,18.4,89.6,20.8z M83,20.8c0,1.5,0.9,2.5,2.2,2.5c1.3,0,2.2-1,2.2-2.5s-0.9-2.4-2.3-2.4 C83.9,18.3,83,19.3,83,20.8z"></path><path class="st2" d="M94.9,19.2c-0.5-0.7-0.8-0.9-1.2-0.9c-0.5,0-0.8,0.3-0.8,0.7c0,0.3,0.1,0.4,1,0.8l0.7,0.3 c1.4,0.5,2,1.2,2,2.3c0,1.6-1.3,2.8-3,2.8c-1,0-1.9-0.4-2.5-1.2c-0.3-0.3-0.4-0.6-0.6-1.3l1.7-0.7c0.5,1,0.8,1.3,1.5,1.3 c0.6,0,0.9-0.3,0.9-0.8c0-0.3-0.2-0.5-1-0.8l-0.8-0.3c-1.2-0.5-1.8-1.2-1.8-2.3c0-1.5,1.2-2.6,2.9-2.6c1.3,0,2.1,0.6,2.8,1.9 L94.9,19.2z"></path><path class="st2" d="M100.4,13.9c0,0.7-0.6,1.3-1.3,1.3c-0.7,0-1.3-0.6-1.3-1.3s0.6-1.3,1.3-1.3C99.8,12.6,100.4,13.2,100.4,13.9 z M100.2,24.8h-2.1v-8.1h2.1V24.8z"></path><path class="st2" d="M104.3,22.2c0,0.6,0.1,0.8,0.4,0.8c0.2,0,0.5-0.1,1-0.2v2c-0.5,0.1-0.9,0.2-1.2,0.2c-1.5,0-2.3-1-2.3-2.8 v-3.6h-0.8v-1.9h0.8V15l2.1-0.8v2.6h1.2v1.9h-1.2V22.2z"></path><path class="st2" d="M115,20.8c0,2.4-1.9,4.4-4.3,4.4c-2.5,0-4.3-1.9-4.3-4.4c0-2.4,1.9-4.3,4.4-4.3 C113.1,16.4,115,18.4,115,20.8z M108.5,20.8c0,1.5,0.9,2.5,2.2,2.5c1.3,0,2.2-1,2.2-2.5s-0.9-2.4-2.3-2.4 C109.4,18.3,108.5,19.3,108.5,20.8z"></path><path class="st2" d="M118.5,17.2c0.5-0.4,0.9-0.6,1.6-0.6c0.2,0,0.5,0,0.8,0.1v1.9c-0.3,0-0.6,0-0.8,0c-1.2,0-1.6,0.6-1.6,2.4 v3.9h-2.1v-8.1h2.1V17.2z"></path><path class="st2" d="M121.4,16.7h2.3l2.2,5.2l2.3-5.2h2.3L125,29.1h-2.2l2.1-4.7L121.4,16.7z"></path></g></g><g><rect x="291.5" y="242.8" class="st3" width="136.8" height="76.5"></rect><rect x="281.5" y="232.8" class="st4" width="136.8" height="76.5"></rect><g><rect x="271.5" y="222.8" class="st4" width="136.8" height="76.5"></rect><g><g><path class="st2" d="M284.6,253.1h-2.2v-12.3h2.8c1.5,0,2.5,0.3,3.2,1c0.8,0.7,1.2,1.7,1.2,2.8s-0.4,2.2-1.2,2.9 c-0.8,0.7-1.7,1-3.2,1h-0.6L284.6,253.1L284.6,253.1z M285.4,246.5c0.8,0,1.3-0.1,1.6-0.5c0.3-0.3,0.5-0.8,0.5-1.4 c0-0.6-0.2-1-0.5-1.4c-0.3-0.3-0.8-0.5-1.7-0.5h-0.8v3.7L285.4,246.5L285.4,246.5z"></path><path class="st2" d="M293.1,242.1c0,0.7-0.6,1.3-1.3,1.3c-0.7,0-1.3-0.6-1.3-1.3s0.6-1.3,1.3-1.3 C292.5,240.9,293.1,241.4,293.1,242.1z M292.8,253.1h-2.1V245h2.1V253.1z"></path><path class="st2" d="M296.9,244.9v0.5c0.8-0.6,1.3-0.8,2.2-0.8c2.4,0,4.3,1.9,4.3,4.4c0,2.4-1.9,4.3-4.3,4.3 c-0.8,0-1.4-0.2-2.2-0.8v4.8h-2.1v-12.4H296.9z M296.9,249c0,1.5,0.9,2.4,2.2,2.4c1.3,0,2.2-1,2.2-2.4c0-1.5-0.9-2.5-2.2-2.5 S296.9,247.5,296.9,249z"></path><path class="st2" d="M306.4,249.8c0.3,1.1,1,1.7,2,1.7c0.7,0,1.3-0.2,1.7-0.7c0.1-0.1,0.2-0.3,0.4-0.6l1.8,0.7 c-0.5,0.9-0.7,1.1-1.2,1.5c-0.8,0.6-1.7,0.9-2.7,0.9c-2.4,0-4.2-1.9-4.2-4.4c0-2.4,1.8-4.3,4.1-4.3c1.8,0,3.3,1.2,3.8,2.9 c0.1,0.5,0.2,1,0.2,1.6c0,0.1,0,0.3,0,0.6h-5.9V249.8z M310.4,248.2c-0.4-1.2-1-1.7-1.9-1.7c-1,0-1.7,0.6-2,1.7H310.4z"></path><path class="st2" d="M313.9,253.1v-12.3h2.1v12.3H313.9z"></path><path class="st2" d="M320.3,242.1c0,0.7-0.6,1.3-1.3,1.3c-0.7,0-1.3-0.6-1.3-1.3s0.6-1.3,1.3-1.3 C319.7,240.9,320.3,241.4,320.3,242.1z M320,253.1h-2.1V245h2.1V253.1z"></path><path class="st2" d="M324.1,245.3c0.6-0.5,1.1-0.7,1.9-0.7c0.9,0,1.9,0.4,2.5,1.1c0.6,0.7,0.9,1.5,0.9,3v4.4h-2.1v-4.2 c0-1-0.1-1.5-0.4-1.8s-0.6-0.4-1.1-0.4c-0.6,0-1.1,0.2-1.3,0.6c-0.3,0.3-0.4,0.8-0.4,1.9v4.1H322v-8.1L324.1,245.3L324.1,245.3 z"></path><path class="st2" d="M333,249.8c0.3,1.1,1,1.7,2,1.7c0.7,0,1.3-0.2,1.7-0.7c0.1-0.1,0.2-0.3,0.4-0.6l1.8,0.7 c-0.5,0.9-0.7,1.1-1.2,1.5c-0.8,0.6-1.7,0.9-2.7,0.9c-2.4,0-4.2-1.9-4.2-4.4c0-2.4,1.8-4.3,4.1-4.3c1.8,0,3.3,1.2,3.8,2.9 c0.1,0.5,0.2,1,0.2,1.6c0,0.1,0,0.3,0,0.6H333V249.8z M336.9,248.2c-0.4-1.2-1-1.7-1.9-1.7c-1,0-1.7,0.6-2,1.7H336.9z"></path><path class="st2" d="M344.4,247.9v1.9h-4.1v-1.9H344.4z"></path><path class="st2" d="M347.4,253.1v-9.6l-1.5,0.9l-1-1.8l3-1.7h1.7v12.3L347.4,253.1L347.4,253.1z"></path></g></g><g><rect x="281.1" y="270.1" class="st2" width="36.2" height="11.7"></rect><rect x="321.8" y="270.1" class="st2" width="36.2" height="11.7"></rect><rect x="362.6" y="270.1" class="st2" width="36.2" height="11.7"></rect></g></g></g><g><g><g><path class="st5" d="M314.2,53.2v62.9c0.2,5.7,13.9,10.4,30.7,10.4c16.8,0,30.5-4.6,30.7-10.4V53.2 c-0.2-5.7-13.9-10.4-30.7-10.4C328.1,42.9,314.5,47.5,314.2,53.2z"></path><path class="st5" d="M314.2,53.4c0,5.8,13.7,10.5,30.7,10.5s30.7-4.7,30.7-10.5"></path><path class="st5" d="M314.2,74.3c0,5.8,13.7,10.5,30.7,10.5s30.7-4.7,30.7-10.5"></path><path class="st5" d="M314.2,95.1c0,5.8,13.7,10.5,30.7,10.5s30.7-4.7,30.7-10.5"></path></g></g><g><circle class="st4" cx="344.9" cy="84.7" r="18.4"></circle><g><g><path class="st2" d="M338.6,97.4c-0.4,0-0.8-0.1-1.2-0.3c-0.8-0.4-1.3-1.3-1.3-2.2V84.7c0-1.4,1.1-2.5,2.5-2.5s2.5,1.1,2.5,2.5 v5.4l8.2-5.4l-12.1-8c-1.2-0.8-1.5-2.4-0.7-3.5c0.8-1.2,2.4-1.5,3.5-0.7l15.3,10.1c0.7,0.5,1.1,1.3,1.1,2.1 c0,0.9-0.4,1.6-1.1,2.1L340,97C339.6,97.2,339.1,97.4,338.6,97.4z"></path></g></g></g></g><g><g><path class="st6" d="M39.9,53.2 v62.9 c0.2,5.7 13.9,10.4 30.7,10.4 s30.5,-4.6 30.7,-10.4 V53.2 c-0.2,-5.7 -13.9,-10.4 -30.7,-10.4 C53.7,42.9 40.1,47.5 39.9,53.2  z "></path><path class="st7" d="M39.9,53.4c0,5.8,13.7,10.5,30.7,10.5s30.7-4.7,30.7-10.5"></path><path class="st7" d="M39.9,74.3 c0,5.8 13.7,10.5 30.7,10.5 s30.7,-4.7 30.7,-10.5 "></path><path class="st7" d="M39.9,95.1c0,5.8,13.7,10.5,30.7,10.5s30.7-4.7,30.7-10.5"></path></g></g><g><g><path class="st2" d="M35.1,343c0,0.8,0.1,1.2,0.3,1.5c0.3,0.4,0.9,0.8,1.6,0.8c0.7,0,1.3-0.3,1.6-0.8c0.2-0.3,0.3-0.6,0.3-1.5 v-5.7h1.7v6c0,1-0.2,1.7-0.6,2.2c-0.6,0.8-1.7,1.3-2.8,1.3s-2.2-0.5-2.9-1.3c-0.5-0.6-0.6-1.2-0.6-2.2v-6h1.7v5.7H35.1z"></path><path class="st2" d="M45.2,342.3c-0.4-0.5-0.6-0.7-0.9-0.7c-0.4,0-0.6,0.2-0.6,0.5s0.1,0.3,0.8,0.6l0.6,0.2 c1.1,0.4,1.5,0.9,1.5,1.8c0,1.2-1,2.1-2.3,2.1c-0.8,0-1.5-0.3-1.9-1c-0.2-0.3-0.3-0.5-0.5-1l1.3-0.5c0.4,0.8,0.6,1,1.1,1 c0.4,0,0.7-0.3,0.7-0.6c0-0.3-0.1-0.4-0.8-0.6l-0.6-0.2c-0.9-0.4-1.4-0.9-1.4-1.7c0-1.1,0.9-2,2.2-2c1,0,1.6,0.4,2.2,1.5 L45.2,342.3z"></path><path class="st2" d="M48.8,344.1c0.2,0.8,0.8,1.3,1.6,1.3c0.5,0,1-0.2,1.3-0.5c0.1-0.1,0.2-0.2,0.3-0.4l1.3,0.6 c-0.4,0.7-0.5,0.8-0.9,1.1c-0.6,0.4-1.3,0.7-2.1,0.7c-1.8,0-3.2-1.4-3.2-3.3c0-1.8,1.4-3.3,3.1-3.3c1.4,0,2.5,0.9,2.9,2.2 c0.1,0.4,0.2,0.8,0.2,1.2c0,0.1,0,0.2,0,0.4L48.8,344.1L48.8,344.1z M51.8,342.9c-0.3-0.9-0.8-1.3-1.5-1.3 c-0.8,0-1.3,0.5-1.5,1.3H51.8z"></path><path class="st2" d="M56.1,340.8c0.4-0.3,0.7-0.4,1.2-0.4c0.2,0,0.4,0,0.6,0v1.4c-0.3,0-0.4,0-0.6,0c-0.9,0-1.2,0.4-1.2,1.8v3 h-1.6v-6.2h1.6V340.8z"></path><path class="st2" d="M66.5,342.5c-0.7-0.7-1-0.9-1.6-0.9c-1,0-1.7,0.7-1.7,1.9c0,1.1,0.7,1.9,1.7,1.9c0.6,0,1-0.2,1.6-0.9l1.1,1 c-0.9,1-1.6,1.3-2.7,1.3c-1.9,0-3.3-1.4-3.3-3.3s1.4-3.3,3.3-3.3c1,0,1.8,0.4,2.6,1.3L66.5,342.5z"></path><path class="st2" d="M74.5,343.5c0,1.9-1.4,3.3-3.3,3.3s-3.3-1.5-3.3-3.3s1.5-3.3,3.3-3.3C73.1,340.2,74.5,341.6,74.5,343.5z M69.5,343.5c0,1.1,0.7,1.9,1.7,1.9s1.7-0.8,1.7-1.9s-0.7-1.9-1.7-1.9S69.5,342.4,69.5,343.5z"></path><path class="st2" d="M77.2,340.7c0.5-0.4,0.8-0.5,1.4-0.5c0.7,0,1.2,0.2,1.7,0.8c0.5-0.5,1.1-0.8,1.9-0.8c0.9,0,1.6,0.3,2.1,0.9 c0.4,0.5,0.6,1.1,0.6,2.2v3.3h-1.6v-3.2c0-1.3-0.3-1.8-1-1.8c-0.4,0-0.7,0.2-0.9,0.4c-0.2,0.3-0.3,0.7-0.3,1.5v3.1h-1.6v-3.2 c0-1.3-0.3-1.8-1-1.8c-0.4,0-0.7,0.2-0.9,0.4c-0.2,0.3-0.3,0.7-0.3,1.5v3.1h-1.6v-6.2h1.6L77.2,340.7L77.2,340.7z"></path><path class="st2" d="M87.9,340.7c0.5-0.4,0.8-0.5,1.4-0.5c0.7,0,1.2,0.2,1.7,0.8c0.5-0.5,1.1-0.8,1.9-0.8c0.9,0,1.6,0.3,2.1,0.9 c0.4,0.5,0.6,1.1,0.6,2.2v3.3H94v-3.2c0-1.3-0.3-1.8-1-1.8c-0.4,0-0.7,0.2-0.9,0.4c-0.2,0.3-0.3,0.7-0.3,1.5v3.1h-1.6v-3.2 c0-1.3-0.3-1.8-1-1.8c-0.4,0-0.7,0.2-0.9,0.4c-0.2,0.3-0.3,0.7-0.3,1.5v3.1h-1.6v-6.2H88L87.9,340.7L87.9,340.7z"></path><path class="st2" d="M98.9,338.3c0,0.5-0.4,1-1,1s-1-0.4-1-1c0-0.5,0.4-1,1-1C98.4,337.3,98.9,337.7,98.9,338.3z M98.7,346.6 h-1.6v-6.2h1.6V346.6z"></path><path class="st2" d="M101.8,344.6c0,0.5,0.1,0.6,0.3,0.6c0.1,0,0.4,0,0.7-0.1v1.5c-0.4,0.1-0.7,0.2-0.9,0.2 c-1.1,0-1.7-0.8-1.7-2.1v-2.8h-0.6v-1.4h0.6v-1.3l1.6-0.6v2h1v1.4h-1V344.6z"></path><path class="st2" d="M106.9,342.3c-0.4-0.5-0.6-0.7-0.9-0.7c-0.4,0-0.6,0.2-0.6,0.5s0.1,0.3,0.8,0.6l0.6,0.2 c1.1,0.4,1.5,0.9,1.5,1.8c0,1.2-1,2.1-2.3,2.1c-0.8,0-1.5-0.3-1.9-1c-0.2-0.3-0.3-0.5-0.5-1l1.3-0.5c0.4,0.8,0.6,1,1.1,1 c0.4,0,0.7-0.3,0.7-0.6c0-0.3-0.1-0.4-0.8-0.6l-0.6-0.2c-0.9-0.4-1.4-0.9-1.4-1.7c0-1.1,0.9-2,2.2-2c1,0,1.6,0.4,2.2,1.5 L106.9,342.3z"></path><path class="st2" d="M28.4,359.3c-0.7-0.7-1-0.9-1.6-0.9c-1,0-1.7,0.7-1.7,1.9c0,1.1,0.7,1.9,1.7,1.9c0.6,0,1-0.2,1.6-0.9l1.1,1 c-0.9,1-1.6,1.3-2.7,1.3c-1.9,0-3.3-1.4-3.3-3.3s1.4-3.3,3.3-3.3c1,0,1.8,0.4,2.6,1.3L28.4,359.3z"></path><path class="st2" d="M36.4,360.3c0,1.9-1.4,3.3-3.3,3.3c-1.9,0-3.3-1.5-3.3-3.3s1.5-3.3,3.3-3.3C35,357,36.4,358.4,36.4,360.3z M31.4,360.3c0,1.1,0.7,1.9,1.7,1.9s1.7-0.8,1.7-1.9s-0.7-1.9-1.7-1.9S31.4,359.2,31.4,360.3z"></path><path class="st2" d="M39.1,357.5c0.5-0.4,0.9-0.5,1.4-0.5c0.7,0,1.4,0.3,1.9,0.8s0.7,1.2,0.7,2.3v3.3h-1.6v-3.2 c0-0.8-0.1-1.1-0.3-1.4c-0.2-0.2-0.5-0.3-0.8-0.3c-0.4,0-0.8,0.2-1,0.4c-0.2,0.3-0.3,0.6-0.3,1.4v3.1h-1.6v-6.2h1.6 C39.1,357.2,39.1,357.5,39.1,357.5z"></path><path class="st2" d="M47.4,357.2v1.4h-1.1v4.8h-1.6v-4.8h-0.6v-1.4h0.6v-1.1c0-1.4,0.6-2.1,1.8-2.1c0.3,0,0.6,0,0.9,0.1v1.4 c-0.3-0.1-0.4-0.1-0.6-0.1c-0.4,0-0.5,0.2-0.5,0.7v1.1H47.4z"></path><path class="st2" d="M50.1,355.1c0,0.5-0.4,1-1,1s-1-0.4-1-1c0-0.5,0.4-1,1-1C49.7,354.1,50.1,354.5,50.1,355.1z M49.9,363.4 h-1.6v-6.2h1.6V363.4z"></path><path class="st2" d="M55.9,363c-0.6,0.5-1.1,0.6-1.7,0.6c-1.8,0-3.2-1.5-3.2-3.3s1.4-3.3,3.2-3.3c0.6,0,1.1,0.1,1.7,0.6v-0.4h1.6 v6.3c0,2-1.3,3.3-3.3,3.3c-0.8,0-1.6-0.3-2.3-0.8c-0.2-0.2-0.3-0.3-0.8-0.8l1-1l0.3,0.3c0.6,0.7,1,0.9,1.8,0.9 c1.1,0,1.8-0.7,1.8-1.9L55.9,363L55.9,363z M52.6,360.3c0,1.1,0.7,1.9,1.7,1.9s1.7-0.8,1.7-1.9s-0.7-1.9-1.7-1.9 C53.2,358.4,52.6,359.2,52.6,360.3z"></path><path class="st2" d="M63,363.1c-0.5,0.4-0.9,0.5-1.4,0.5c-0.7,0-1.4-0.3-1.9-0.8s-0.7-1.2-0.7-2.3v-3.3h1.6v3.2 c0,0.8,0.1,1.1,0.3,1.4c0.2,0.2,0.5,0.3,0.8,0.3c0.4,0,0.8-0.2,1-0.4c0.2-0.3,0.3-0.7,0.3-1.4v-3.1h1.6v6.2H63V363.1z"></path><path class="st2" d="M67.7,357.6c0.4-0.3,0.7-0.4,1.2-0.4c0.2,0,0.4,0,0.6,0v1.4c-0.3,0-0.4,0-0.6,0c-0.9,0-1.2,0.4-1.2,1.8v3 h-1.6v-6.2h1.6V357.6z"></path><path class="st2" d="M74.8,363.4V363c-0.6,0.4-1,0.6-1.7,0.6c-1.8,0-3.3-1.5-3.3-3.3s1.4-3.3,3.3-3.3c0.6,0,1.1,0.2,1.7,0.6v-0.4 h1.6v6.2L74.8,363.4L74.8,363.4z M71.5,360.3c0,1.1,0.7,1.9,1.7,1.9s1.7-0.8,1.7-1.9s-0.7-1.9-1.7-1.9S71.5,359.2,71.5,360.3z"></path><path class="st2" d="M79.6,361.4c0,0.5,0.1,0.6,0.3,0.6c0.1,0,0.4,0,0.7-0.1v1.5c-0.4,0.1-0.7,0.2-0.9,0.2 c-1.1,0-1.7-0.8-1.7-2.1v-2.8h-0.6v-1.4H78V356l1.6-0.6v2h1v1.4h-1V361.4z"></path><path class="st2" d="M83.5,355.1c0,0.5-0.4,1-1,1s-1-0.4-1-1c0-0.5,0.4-1,1-1C83,354.1,83.5,354.5,83.5,355.1z M83.3,363.4h-1.6 v-6.2h1.6V363.4z"></path><path class="st2" d="M91,360.3c0,1.9-1.4,3.3-3.3,3.3s-3.3-1.5-3.3-3.3s1.5-3.3,3.3-3.3S91,358.4,91,360.3z M86,360.3 c0,1.1,0.7,1.9,1.7,1.9s1.7-0.8,1.7-1.9s-0.7-1.9-1.7-1.9S86,359.2,86,360.3z"></path><path class="st2" d="M93.6,357.5c0.5-0.4,0.9-0.5,1.4-0.5c0.7,0,1.4,0.3,1.9,0.8s0.7,1.2,0.7,2.3v3.3H96v-3.2 c0-0.8-0.1-1.1-0.3-1.4c-0.2-0.2-0.5-0.3-0.8-0.3c-0.4,0-0.8,0.2-1,0.4c-0.2,0.3-0.3,0.6-0.3,1.4v3.1H92v-6.2h1.6V357.5z"></path><path class="st2" d="M102.2,359.1c-0.4-0.5-0.6-0.7-0.9-0.7c-0.4,0-0.6,0.2-0.6,0.5s0.1,0.3,0.8,0.6l0.6,0.2 c1.1,0.4,1.5,0.9,1.5,1.8c0,1.2-1,2.1-2.3,2.1c-0.8,0-1.5-0.3-1.9-1c-0.2-0.3-0.3-0.5-0.5-1l1.3-0.5c0.4,0.8,0.6,1,1.1,1 c0.4,0,0.7-0.3,0.7-0.6c0-0.3-0.1-0.4-0.8-0.6l-0.6-0.2c-0.9-0.4-1.4-0.9-1.4-1.7c0-1.1,0.9-2,2.2-2c1,0,1.6,0.4,2.2,1.5 L102.2,359.1z"></path><path class="st2" d="M109.4,361.4c0,0.5,0.1,0.6,0.3,0.6c0.1,0,0.4,0,0.7-0.1v1.5c-0.4,0.1-0.7,0.2-0.9,0.2 c-1.1,0-1.7-0.8-1.7-2.1v-2.8h-0.6v-1.4h0.6V356l1.6-0.6v2h1v1.4h-1V361.4z"></path><path class="st2" d="M117.6,360.3c0,1.9-1.4,3.3-3.3,3.3s-3.3-1.5-3.3-3.3s1.5-3.3,3.3-3.3C116.2,357,117.6,358.4,117.6,360.3z M112.6,360.3c0,1.1,0.7,1.9,1.7,1.9s1.7-0.8,1.7-1.9s-0.7-1.9-1.7-1.9C113.3,358.4,112.6,359.2,112.6,360.3z"></path><path class="st2" d="M30.3,373.3c-0.6-0.9-0.9-1.1-1.5-1.1c-0.8,0-1.3,0.5-1.3,1.2c0,0.4,0.4,0.8,1.1,1.1l0.9,0.3 c1.6,0.6,2.3,1.4,2.3,2.6c0,1.7-1.4,3-3.2,3c-1.2,0-2.3-0.7-2.8-1.8c-0.1-0.3-0.1-0.3-0.3-1.1l1.6-0.4c0.2,0.7,0.2,0.7,0.3,0.9 c0.3,0.5,0.7,0.8,1.3,0.8c0.8,0,1.5-0.6,1.5-1.4c0-0.5-0.3-0.9-1.3-1.3l-0.8-0.3c-1.4-0.5-2.1-1.4-2.1-2.5c0-1.5,1.3-2.7,3-2.7 c0.9,0,1.6,0.3,2.2,0.9c0.2,0.2,0.3,0.4,0.7,0.9L30.3,373.3z"></path><path class="st2" d="M40.1,373.5c-0.4-0.4-0.6-0.6-0.8-0.8c-0.5-0.3-1.1-0.5-1.7-0.5c-1.8,0-3.2,1.4-3.2,3.3 c0,1.8,1.4,3.3,3.2,3.3c0.7,0,1.3-0.2,1.8-0.6c0.2-0.2,0.3-0.2,0.8-0.7l1.2,1.1c-1.3,1.3-2.3,1.8-3.7,1.8c-2.7,0-4.9-2.2-4.9-4.9 c0-2.7,2.2-4.9,4.9-4.9c1.4,0,2.5,0.5,3.7,1.7L40.1,373.5z"></path><path class="st2" d="M42.6,370.9h1.6l3.1,5.5l3.1-5.5H52v9.3h-1.7v-6.1l-2.3,4.2h-1.3l-2.3-4.2v6.1h-1.7L42.6,370.9L42.6,370.9z"></path><path class="st2" d="M63.6,380.2h-1.9l-2-3.5c-0.3,0-0.4,0-0.6,0h-0.5v3.5H57v-9.3h2.1c1.2,0,2,0.2,2.6,0.7s1,1.3,1,2.2 c0,1-0.5,2-1.4,2.4L63.6,380.2z M59.3,375.2c1.3,0,1.9-0.4,1.9-1.4c0-0.4-0.2-0.8-0.4-1c-0.3-0.3-0.7-0.4-1.4-0.4h-0.6v2.8H59.3z"></path><path class="st2" d="M65.6,377.7c0.2,0.8,0.8,1.3,1.6,1.3c0.5,0,1-0.2,1.3-0.5c0.1-0.1,0.2-0.2,0.3-0.4l1.3,0.6 c-0.4,0.7-0.5,0.8-0.9,1.1c-0.6,0.4-1.3,0.7-2.1,0.7c-1.8,0-3.2-1.4-3.2-3.3c0-1.8,1.4-3.3,3.1-3.3c1.4,0,2.5,0.9,2.9,2.2 c0.1,0.4,0.2,0.8,0.2,1.2c0,0.1,0,0.2,0,0.4L65.6,377.7L65.6,377.7z M68.6,376.5c-0.3-0.9-0.8-1.3-1.5-1.3 c-0.8,0-1.3,0.5-1.5,1.3H68.6z"></path><path class="st2" d="M72.9,374v0.4c0.6-0.4,1-0.6,1.7-0.6c1.8,0,3.3,1.5,3.3,3.3s-1.4,3.3-3.3,3.3c-0.6,0-1.1-0.2-1.7-0.6v3.7 h-1.6V374H72.9z M72.9,377.1c0,1.1,0.7,1.9,1.7,1.9s1.7-0.8,1.7-1.9s-0.7-1.9-1.7-1.9S72.9,376,72.9,377.1z"></path><path class="st2" d="M85.1,377.1c0,1.9-1.4,3.3-3.3,3.3s-3.3-1.5-3.3-3.3s1.5-3.3,3.3-3.3C83.7,373.8,85.1,375.2,85.1,377.1z M80.1,377.1c0,1.1,0.7,1.9,1.7,1.9s1.7-0.8,1.7-1.9s-0.7-1.9-1.7-1.9C80.8,375.2,80.1,376,80.1,377.1z"></path><path class="st2" d="M89.2,375.9c-0.4-0.5-0.6-0.7-0.9-0.7c-0.4,0-0.6,0.2-0.6,0.5s0.1,0.3,0.8,0.6l0.6,0.2 c1.1,0.4,1.5,0.9,1.5,1.8c0,1.2-1,2.1-2.3,2.1c-0.8,0-1.5-0.3-1.9-1c-0.2-0.3-0.3-0.5-0.5-1l1.3-0.5c0.4,0.8,0.6,1,1.1,1 c0.4,0,0.7-0.3,0.7-0.6c0-0.3-0.1-0.4-0.8-0.6l-0.6-0.2c-0.9-0.4-1.4-0.9-1.4-1.7c0-1.1,0.9-2,2.2-2c1,0,1.6,0.4,2.2,1.5 L89.2,375.9z"></path><path class="st2" d="M93.4,371.9c0,0.5-0.4,1-1,1s-1-0.4-1-1c0-0.5,0.4-1,1-1C92.9,370.9,93.4,371.3,93.4,371.9z M93.2,380.2 h-1.6V374h1.6V380.2z"></path><path class="st2" d="M96.4,378.2c0,0.5,0.1,0.6,0.3,0.6c0.1,0,0.4,0,0.7-0.1v1.5c-0.4,0.1-0.7,0.2-0.9,0.2 c-1.1,0-1.7-0.8-1.7-2.1v-2.8h-0.6V374h0.6v-1.3l1.6-0.6v2h1v1.4h-1V378.2z"></path><path class="st2" d="M104.5,377.1c0,1.9-1.4,3.3-3.3,3.3s-3.3-1.5-3.3-3.3s1.5-3.3,3.3-3.3C103.1,373.8,104.5,375.2,104.5,377.1z M99.5,377.1c0,1.1,0.7,1.9,1.7,1.9s1.7-0.8,1.7-1.9s-0.7-1.9-1.7-1.9S99.5,376,99.5,377.1z"></path><path class="st2" d="M107.2,374.4c0.4-0.3,0.7-0.4,1.2-0.4c0.2,0,0.4,0,0.6,0v1.4c-0.3,0-0.4,0-0.6,0c-0.9,0-1.2,0.4-1.2,1.8v3 h-1.6V374h1.6V374.4z"></path><path class="st2" d="M109.3,374h1.7l1.7,4l1.8-4h1.7l-4.2,9.5h-1.7l1.6-3.6L109.3,374z"></path></g></g><g><g><path class="st2" d="M292.8,341.5v0.8c0,2.7-1.7,4.5-4.3,4.5c-2.8,0-5-2.2-5-4.9c0-2.7,2.2-4.9,4.9-4.9c1,0,1.9,0.3,2.7,0.9 c0.3,0.2,0.4,0.3,1,0.9l-1.2,1.1c-0.5-0.6-0.6-0.6-0.8-0.8c-0.5-0.3-1.1-0.5-1.7-0.5c-1.8,0-3.2,1.4-3.2,3.3 c0,1.8,1.4,3.3,3.2,3.3c1,0,1.8-0.4,2.3-1.2c0.2-0.3,0.2-0.5,0.3-1h-2.6v-1.5L292.8,341.5L292.8,341.5z"></path><path class="st2" d="M300.3,343.5c0,1.9-1.4,3.3-3.3,3.3s-3.3-1.5-3.3-3.3s1.5-3.3,3.3-3.3C298.9,340.2,300.3,341.6,300.3,343.5z M295.3,343.5c0,1.1,0.7,1.9,1.7,1.9s1.7-0.8,1.7-1.9s-0.7-1.9-1.7-1.9S295.3,342.4,295.3,343.5z"></path><path class="st2" d="M308.6,339.9c-0.4-0.4-0.6-0.6-0.8-0.8c-0.5-0.3-1.1-0.5-1.7-0.5c-1.8,0-3.2,1.4-3.2,3.3 c0,1.8,1.4,3.3,3.2,3.3c0.7,0,1.3-0.2,1.8-0.6c0.2-0.2,0.3-0.2,0.8-0.7l1.2,1.1c-1.3,1.3-2.3,1.8-3.7,1.8c-2.7,0-4.9-2.2-4.9-4.9 c0-2.7,2.2-4.9,4.9-4.9c1.4,0,2.5,0.5,3.7,1.7L308.6,339.9z"></path><path class="st2" d="M313.1,337.3c3.1,0,5.1,1.8,5.1,4.7c0,2.9-2,4.7-5.1,4.7H311v-9.3h2.1V337.3z M312.7,345.1h0.5 c2.1,0,3.4-1.2,3.4-3.1s-1.3-3.1-3.4-3.1h-0.5V345.1z"></path><path class="st2" d="M327.2,342.5c-0.7-0.7-1-0.9-1.6-0.9c-1,0-1.7,0.7-1.7,1.9c0,1.1,0.7,1.9,1.7,1.9c0.6,0,1-0.2,1.6-0.9l1.1,1 c-0.9,1-1.6,1.3-2.7,1.3c-1.9,0-3.3-1.4-3.3-3.3s1.4-3.3,3.3-3.3c1,0,1.8,0.4,2.6,1.3L327.2,342.5z"></path><path class="st2" d="M330.8,340.8c0.4-0.3,0.7-0.4,1.2-0.4c0.2,0,0.4,0,0.6,0v1.4c-0.3,0-0.4,0-0.6,0c-0.9,0-1.2,0.4-1.2,1.8v3 h-1.6v-6.2h1.6V340.8z"></path><path class="st2" d="M334.6,344.1c0.2,0.8,0.8,1.3,1.6,1.3c0.5,0,1-0.2,1.3-0.5c0.1-0.1,0.2-0.2,0.3-0.4l1.3,0.6 c-0.4,0.7-0.5,0.8-0.9,1.1c-0.6,0.4-1.3,0.7-2.1,0.7c-1.8,0-3.2-1.4-3.2-3.3c0-1.8,1.4-3.3,3.1-3.3c1.4,0,2.5,0.9,2.9,2.2 c0.1,0.4,0.2,0.8,0.2,1.2c0,0.1,0,0.2,0,0.4L334.6,344.1L334.6,344.1z M337.6,342.9c-0.3-0.9-0.8-1.3-1.5-1.3 c-0.8,0-1.3,0.5-1.5,1.3H337.6z"></path><path class="st2" d="M344.8,346.6v-0.4c-0.6,0.4-1,0.6-1.7,0.6c-1.8,0-3.3-1.5-3.3-3.3s1.4-3.3,3.3-3.3c0.6,0,1.1,0.2,1.7,0.6 v-0.4h1.6v6.2L344.8,346.6L344.8,346.6z M341.5,343.5c0,1.1,0.7,1.9,1.7,1.9s1.7-0.8,1.7-1.9s-0.7-1.9-1.7-1.9 S341.5,342.4,341.5,343.5z"></path><path class="st2" d="M349.6,344.6c0,0.5,0.1,0.6,0.3,0.6c0.1,0,0.4,0,0.7-0.1v1.5c-0.4,0.1-0.7,0.2-0.9,0.2 c-1.1,0-1.7-0.8-1.7-2.1v-2.8h-0.6v-1.4h0.6v-1.3l1.6-0.6v2h1v1.4h-1V344.6z"></path><path class="st2" d="M352.8,344.1c0.2,0.8,0.8,1.3,1.6,1.3c0.5,0,1-0.2,1.3-0.5c0.1-0.1,0.2-0.2,0.3-0.4l1.3,0.6 c-0.4,0.7-0.5,0.8-0.9,1.1c-0.6,0.4-1.3,0.7-2.1,0.7c-1.8,0-3.2-1.4-3.2-3.3c0-1.8,1.4-3.3,3.1-3.3c1.4,0,2.5,0.9,2.9,2.2 c0.1,0.4,0.2,0.8,0.2,1.2c0,0.1,0,0.2,0,0.4L352.8,344.1L352.8,344.1z M355.8,342.9c-0.3-0.9-0.8-1.3-1.5-1.3 c-0.8,0-1.3,0.5-1.5,1.3H355.8z"></path><path class="st2" d="M361.4,342.3c-0.4-0.5-0.6-0.7-0.9-0.7c-0.4,0-0.6,0.2-0.6,0.5s0.1,0.3,0.8,0.6l0.6,0.2 c1.1,0.4,1.5,0.9,1.5,1.8c0,1.2-1,2.1-2.3,2.1c-0.8,0-1.5-0.3-1.9-1c-0.2-0.3-0.3-0.5-0.5-1l1.3-0.5c0.4,0.8,0.6,1,1.1,1 c0.4,0,0.7-0.3,0.7-0.6c0-0.3-0.1-0.4-0.8-0.6l-0.6-0.2c-0.9-0.4-1.4-0.9-1.4-1.7c0-1.1,0.9-2,2.2-2c1,0,1.6,0.4,2.2,1.5 L361.4,342.3z"></path><path class="st2" d="M370.2,337.8l-5.2,9l-1.3-0.8l5.3-9L370.2,337.8z"></path><path class="st2" d="M375.6,346.3c-0.5,0.4-0.9,0.5-1.4,0.5c-0.7,0-1.4-0.3-1.9-0.8s-0.7-1.2-0.7-2.3v-3.3h1.6v3.2 c0,0.8,0.1,1.1,0.3,1.4c0.2,0.2,0.5,0.3,0.8,0.3c0.4,0,0.8-0.2,1-0.4c0.2-0.3,0.3-0.7,0.3-1.4v-3.1h1.6v6.2h-1.6L375.6,346.3 L375.6,346.3z"></path><path class="st2" d="M380.3,340.4v0.4c0.6-0.4,1-0.6,1.7-0.6c1.8,0,3.3,1.5,3.3,3.3s-1.4,3.3-3.3,3.3c-0.6,0-1.1-0.2-1.7-0.6v3.7 h-1.6v-9.5L380.3,340.4L380.3,340.4z M380.3,343.5c0,1.1,0.7,1.9,1.7,1.9s1.7-0.8,1.7-1.9s-0.7-1.9-1.7-1.9 S380.3,342.4,380.3,343.5z"></path><path class="st2" d="M390.9,346.6v-0.4c-0.6,0.4-1,0.6-1.7,0.6c-1.8,0-3.3-1.5-3.3-3.3s1.4-3.3,3.3-3.3c0.6,0,1.1,0.2,1.7,0.6 v-3.5h1.6v9.3L390.9,346.6L390.9,346.6z M387.5,343.5c0,1.1,0.7,1.9,1.7,1.9s1.7-0.8,1.7-1.9s-0.7-1.9-1.7-1.9 S387.5,342.4,387.5,343.5z"></path><path class="st2" d="M398.5,346.6v-0.4c-0.6,0.4-1,0.6-1.7,0.6c-1.8,0-3.3-1.5-3.3-3.3s1.4-3.3,3.3-3.3c0.6,0,1.1,0.2,1.7,0.6 v-0.4h1.6v6.2L398.5,346.6L398.5,346.6z M395.1,343.5c0,1.1,0.7,1.9,1.7,1.9s1.7-0.8,1.7-1.9s-0.7-1.9-1.7-1.9 C395.8,341.6,395.1,342.4,395.1,343.5z"></path><path class="st2" d="M403.2,344.6c0,0.5,0.1,0.6,0.3,0.6c0.1,0,0.4,0,0.7-0.1v1.5c-0.4,0.1-0.7,0.2-0.9,0.2 c-1.1,0-1.7-0.8-1.7-2.1v-2.8H401v-1.4h0.6v-1.3l1.6-0.6v2h1v1.4h-1V344.6z"></path><path class="st2" d="M406.4,344.1c0.2,0.8,0.8,1.3,1.6,1.3c0.5,0,1-0.2,1.3-0.5c0.1-0.1,0.2-0.2,0.3-0.4l1.3,0.6 c-0.4,0.7-0.5,0.8-0.9,1.1c-0.6,0.4-1.3,0.7-2.1,0.7c-1.8,0-3.2-1.4-3.2-3.3c0-1.8,1.4-3.3,3.1-3.3c1.4,0,2.5,0.9,2.9,2.2 c0.1,0.4,0.2,0.8,0.2,1.2c0,0.1,0,0.2,0,0.4L406.4,344.1L406.4,344.1z M409.4,342.9c-0.3-0.9-0.8-1.3-1.5-1.3 c-0.8,0-1.3,0.5-1.5,1.3H409.4z"></path><path class="st2" d="M415.1,342.3c-0.4-0.5-0.6-0.7-0.9-0.7c-0.4,0-0.6,0.2-0.6,0.5s0.1,0.3,0.8,0.6l0.6,0.2 c1.1,0.4,1.5,0.9,1.5,1.8c0,1.2-1,2.1-2.3,2.1c-0.8,0-1.5-0.3-1.9-1c-0.2-0.3-0.3-0.5-0.5-1l1.3-0.5c0.4,0.8,0.6,1,1.1,1 c0.4,0,0.7-0.3,0.7-0.6c0-0.3-0.1-0.4-0.8-0.6l-0.6-0.2c-0.9-0.4-1.4-0.9-1.4-1.7c0-1.1,0.9-2,2.2-2c1,0,1.6,0.4,2.2,1.5 L415.1,342.3z"></path><path class="st2" d="M279.9,357.2v0.4c0.6-0.4,1-0.6,1.7-0.6c1.8,0,3.3,1.5,3.3,3.3s-1.4,3.3-3.3,3.3c-0.6,0-1.1-0.2-1.7-0.6v3.7 h-1.6v-9.5L279.9,357.2L279.9,357.2z M279.9,360.3c0,1.1,0.7,1.9,1.7,1.9s1.7-0.8,1.7-1.9s-0.7-1.9-1.7-1.9 S279.9,359.2,279.9,360.3z"></path><path class="st2" d="M287.7,355.1c0,0.5-0.4,1-1,1s-1-0.4-1-1c0-0.5,0.4-1,1-1C287.3,354.1,287.7,354.5,287.7,355.1z M287.5,363.4h-1.6v-6.2h1.6V363.4z"></path><path class="st2" d="M290.6,357.2v0.4c0.6-0.4,1-0.6,1.7-0.6c1.8,0,3.3,1.5,3.3,3.3s-1.4,3.3-3.3,3.3c-0.6,0-1.1-0.2-1.7-0.6v3.7 H289v-9.5L290.6,357.2L290.6,357.2z M290.6,360.3c0,1.1,0.7,1.9,1.7,1.9s1.7-0.8,1.7-1.9s-0.7-1.9-1.7-1.9 C291.3,358.4,290.6,359.2,290.6,360.3z"></path><path class="st2" d="M297.9,360.9c0.2,0.8,0.8,1.3,1.6,1.3c0.5,0,1-0.2,1.3-0.5c0.1-0.1,0.2-0.2,0.3-0.4l1.3,0.6 c-0.4,0.7-0.5,0.8-0.9,1.1c-0.6,0.4-1.3,0.7-2.1,0.7c-1.8,0-3.2-1.4-3.2-3.3c0-1.8,1.4-3.3,3.1-3.3c1.4,0,2.5,0.9,2.9,2.2 c0.1,0.4,0.2,0.8,0.2,1.2c0,0.1,0,0.2,0,0.4L297.9,360.9L297.9,360.9z M300.9,359.7c-0.3-0.9-0.8-1.3-1.5-1.3 c-0.8,0-1.3,0.5-1.5,1.3H300.9z"></path><path class="st2" d="M303.6,363.4v-9.3h1.6v9.3H303.6z"></path><path class="st2" d="M308.5,355.1c0,0.5-0.4,1-1,1s-1-0.4-1-1c0-0.5,0.4-1,1-1C308,354.1,308.5,354.5,308.5,355.1z M308.2,363.4 h-1.6v-6.2h1.6V363.4z"></path><path class="st2" d="M311.3,357.5c0.5-0.4,0.9-0.5,1.4-0.5c0.7,0,1.4,0.3,1.9,0.8s0.7,1.2,0.7,2.3v3.3h-1.6v-3.2 c0-0.8-0.1-1.1-0.3-1.4c-0.2-0.2-0.5-0.3-0.8-0.3c-0.4,0-0.8,0.2-1,0.4c-0.2,0.3-0.3,0.6-0.3,1.4v3.1h-1.6v-6.2h1.6L311.3,357.5 L311.3,357.5z"></path><path class="st2" d="M318.1,360.9c0.2,0.8,0.8,1.3,1.6,1.3c0.5,0,1-0.2,1.3-0.5c0.1-0.1,0.2-0.2,0.3-0.4l1.3,0.6 c-0.4,0.7-0.5,0.8-0.9,1.1c-0.6,0.4-1.3,0.7-2.1,0.7c-1.8,0-3.2-1.4-3.2-3.3c0-1.8,1.4-3.3,3.1-3.3c1.4,0,2.5,0.9,2.9,2.2 c0.1,0.4,0.2,0.8,0.2,1.2c0,0.1,0,0.2,0,0.4L318.1,360.9L318.1,360.9z M321.1,359.7c-0.3-0.9-0.8-1.3-1.5-1.3 c-0.8,0-1.3,0.5-1.5,1.3H321.1z"></path><path class="st2" d="M326.8,359.1c-0.4-0.5-0.6-0.7-0.9-0.7c-0.4,0-0.6,0.2-0.6,0.5s0.1,0.3,0.8,0.6l0.6,0.2 c1.1,0.4,1.5,0.9,1.5,1.8c0,1.2-1,2.1-2.3,2.1c-0.8,0-1.5-0.3-1.9-1c-0.2-0.3-0.3-0.5-0.5-1l1.3-0.5c0.4,0.8,0.6,1,1.1,1 c0.4,0,0.7-0.3,0.7-0.6c0-0.3-0.1-0.4-0.8-0.6l-0.6-0.2c-0.9-0.4-1.4-0.9-1.4-1.7c0-1.1,0.9-2,2.2-2c1,0,1.6,0.4,2.2,1.5 L326.8,359.1z"></path><path class="st2" d="M335.2,357.2v1.4h-1.1v4.8h-1.6v-4.8h-0.6v-1.4h0.6v-1.1c0-1.4,0.6-2.1,1.8-2.1c0.3,0,0.6,0,0.9,0.1v1.4 c-0.3-0.1-0.4-0.1-0.6-0.1c-0.4,0-0.5,0.2-0.5,0.7v1.1H335.2z"></path><path class="st2" d="M337.6,357.6c0.4-0.3,0.7-0.4,1.2-0.4c0.2,0,0.4,0,0.6,0v1.4c-0.3,0-0.4,0-0.6,0c-0.9,0-1.2,0.4-1.2,1.8v3 H336v-6.2h1.6V357.6z"></path><path class="st2" d="M346.5,360.3c0,1.9-1.4,3.3-3.3,3.3s-3.3-1.5-3.3-3.3s1.5-3.3,3.3-3.3S346.5,358.4,346.5,360.3z M341.5,360.3c0,1.1,0.7,1.9,1.7,1.9s1.7-0.8,1.7-1.9s-0.7-1.9-1.7-1.9S341.5,359.2,341.5,360.3z"></path><path class="st2" d="M349.1,357.5c0.5-0.4,0.8-0.5,1.4-0.5c0.7,0,1.2,0.2,1.7,0.8c0.5-0.5,1.1-0.8,1.9-0.8c0.9,0,1.6,0.3,2.1,0.9 c0.4,0.5,0.6,1.1,0.6,2.2v3.3h-1.6v-3.2c0-1.3-0.3-1.8-1-1.8c-0.4,0-0.7,0.2-0.9,0.4c-0.2,0.3-0.3,0.7-0.3,1.5v3.1h-1.6v-3.2 c0-1.3-0.3-1.8-1-1.8c-0.4,0-0.7,0.2-0.9,0.4c-0.2,0.3-0.3,0.7-0.3,1.5v3.1h-1.6v-6.2h1.6v0.3H349.1z"></path><path class="st2" d="M366,359.3c-0.7-0.7-1-0.9-1.6-0.9c-1,0-1.7,0.7-1.7,1.9c0,1.1,0.7,1.9,1.7,1.9c0.6,0,1-0.2,1.6-0.9l1.1,1 c-0.9,1-1.6,1.3-2.7,1.3c-1.9,0-3.3-1.4-3.3-3.3s1.4-3.3,3.3-3.3c1,0,1.8,0.4,2.6,1.3L366,359.3z"></path><path class="st2" d="M369.5,357.5c0.5-0.4,0.9-0.5,1.4-0.5c0.7,0,1.4,0.3,1.9,0.8s0.7,1.2,0.7,2.2v3.3h-1.6v-3.2 c0-1.3-0.3-1.7-1.1-1.7c-0.4,0-0.8,0.2-1,0.4c-0.2,0.3-0.3,0.6-0.3,1.4v3.1h-1.6V354h1.6V357.5z"></path><path class="st2" d="M379.6,363.4V363c-0.6,0.4-1,0.6-1.7,0.6c-1.8,0-3.3-1.5-3.3-3.3s1.4-3.3,3.3-3.3c0.6,0,1.1,0.2,1.7,0.6 v-0.4h1.6v6.2L379.6,363.4L379.6,363.4z M376.2,360.3c0,1.1,0.7,1.9,1.7,1.9s1.7-0.8,1.7-1.9s-0.7-1.9-1.7-1.9 C376.9,358.4,376.2,359.2,376.2,360.3z"></path><path class="st2" d="M384.2,357.5c0.5-0.4,0.9-0.5,1.4-0.5c0.7,0,1.4,0.3,1.9,0.8s0.7,1.2,0.7,2.3v3.3h-1.6v-3.2 c0-0.8-0.1-1.1-0.3-1.4c-0.2-0.2-0.5-0.3-0.8-0.3c-0.4,0-0.8,0.2-1,0.4c-0.2,0.3-0.3,0.6-0.3,1.4v3.1h-1.6v-6.2h1.6L384.2,357.5 L384.2,357.5z"></path><path class="st2" d="M394.2,363c-0.6,0.5-1.1,0.6-1.7,0.6c-1.8,0-3.2-1.5-3.2-3.3s1.4-3.3,3.2-3.3c0.6,0,1.1,0.1,1.7,0.6v-0.4 h1.6v6.3c0,2-1.3,3.3-3.3,3.3c-0.8,0-1.6-0.3-2.3-0.8c-0.2-0.2-0.3-0.3-0.8-0.8l1-1l0.3,0.3c0.6,0.7,1,0.9,1.8,0.9 c1.1,0,1.8-0.7,1.8-1.9V363H394.2z M390.9,360.3c0,1.1,0.7,1.9,1.7,1.9s1.7-0.8,1.7-1.9s-0.7-1.9-1.7-1.9 S390.9,359.2,390.9,360.3z"></path><path class="st2" d="M398.6,360.9c0.2,0.8,0.8,1.3,1.6,1.3c0.5,0,1-0.2,1.3-0.5c0.1-0.1,0.2-0.2,0.3-0.4l1.3,0.6 c-0.4,0.7-0.5,0.8-0.9,1.1c-0.6,0.4-1.3,0.7-2.1,0.7c-1.8,0-3.2-1.4-3.2-3.3c0-1.8,1.4-3.3,3.1-3.3c1.4,0,2.5,0.9,2.9,2.2 c0.1,0.4,0.2,0.8,0.2,1.2c0,0.1,0,0.2,0,0.4L398.6,360.9L398.6,360.9z M401.5,359.7c-0.3-0.9-0.8-1.3-1.5-1.3 c-0.8,0-1.3,0.5-1.5,1.3H401.5z"></path><path class="st2" d="M407.2,359.1c-0.4-0.5-0.6-0.7-0.9-0.7c-0.4,0-0.6,0.2-0.6,0.5s0.1,0.3,0.8,0.6l0.6,0.2 c1.1,0.4,1.5,0.9,1.5,1.8c0,1.2-1,2.1-2.3,2.1c-0.8,0-1.5-0.3-1.9-1c-0.2-0.3-0.3-0.5-0.5-1l1.3-0.5c0.4,0.8,0.6,1,1.1,1 c0.4,0,0.7-0.3,0.7-0.6c0-0.3-0.1-0.4-0.8-0.6l-0.6-0.2c-0.9-0.4-1.4-0.9-1.4-1.7c0-1.1,0.9-2,2.2-2c1,0,1.6,0.4,2.2,1.5 L407.2,359.1z"></path><path class="st2" d="M414.6,355.1c0,0.5-0.4,1-1,1s-1-0.4-1-1c0-0.5,0.4-1,1-1S414.6,354.5,414.6,355.1z M414.4,363.4h-1.6v-6.2 h1.6V363.4z"></path><path class="st2" d="M417.5,357.5c0.5-0.4,0.9-0.5,1.4-0.5c0.7,0,1.4,0.3,1.9,0.8s0.7,1.2,0.7,2.3v3.3h-1.6v-3.2 c0-0.8-0.1-1.1-0.3-1.4c-0.2-0.2-0.5-0.3-0.8-0.3c-0.4,0-0.8,0.2-1,0.4c-0.2,0.3-0.3,0.6-0.3,1.4v3.1h-1.6v-6.2h1.6L417.5,357.5 L417.5,357.5z"></path><path class="st2" d="M304.8,376.1c-0.7-0.7-1-0.9-1.6-0.9c-1,0-1.7,0.7-1.7,1.9c0,1.1,0.7,1.9,1.7,1.9c0.6,0,1-0.2,1.6-0.9l1.1,1 c-0.9,1-1.6,1.3-2.7,1.3c-1.9,0-3.3-1.4-3.3-3.3s1.4-3.3,3.3-3.3c1,0,1.8,0.4,2.6,1.3L304.8,376.1z"></path><path class="st2" d="M312.9,377.1c0,1.9-1.4,3.3-3.3,3.3s-3.3-1.5-3.3-3.3s1.5-3.3,3.3-3.3C311.4,373.8,312.9,375.2,312.9,377.1z M307.9,377.1c0,1.1,0.7,1.9,1.7,1.9s1.7-0.8,1.7-1.9s-0.7-1.9-1.7-1.9S307.9,376,307.9,377.1z"></path><path class="st2" d="M315.5,374.3c0.5-0.4,0.9-0.5,1.4-0.5c0.7,0,1.4,0.3,1.9,0.8s0.7,1.2,0.7,2.3v3.3H318V377 c0-0.8-0.1-1.1-0.3-1.4c-0.2-0.2-0.5-0.3-0.8-0.3c-0.4,0-0.8,0.2-1,0.4c-0.2,0.3-0.3,0.6-0.3,1.4v3.1H314V374h1.6v0.3H315.5z"></path><path class="st2" d="M323.9,374v1.4h-1.1v4.8h-1.6v-4.8h-0.6V374h0.6v-1.1c0-1.4,0.6-2.1,1.8-2.1c0.3,0,0.6,0,0.9,0.1v1.4 c-0.3-0.1-0.4-0.1-0.6-0.1c-0.4,0-0.5,0.2-0.5,0.7v1.1H323.9z"></path><path class="st2" d="M326.6,371.9c0,0.5-0.4,1-1,1s-1-0.4-1-1c0-0.5,0.4-1,1-1C326.1,370.9,326.6,371.3,326.6,371.9z M326.3,380.2h-1.6V374h1.6V380.2z"></path><path class="st2" d="M332.3,379.8c-0.6,0.5-1.1,0.6-1.7,0.6c-1.8,0-3.2-1.5-3.2-3.3s1.4-3.3,3.2-3.3c0.6,0,1.1,0.1,1.7,0.6V374 h1.6v6.3c0,2-1.3,3.3-3.3,3.3c-0.8,0-1.6-0.3-2.3-0.8c-0.2-0.2-0.3-0.3-0.8-0.8l1-1l0.3,0.3c0.6,0.7,1,0.9,1.8,0.9 c1.1,0,1.8-0.7,1.8-1.9v-0.5H332.3z M329,377.1c0,1.1,0.7,1.9,1.7,1.9s1.7-0.8,1.7-1.9s-0.7-1.9-1.7-1.9S329,376,329,377.1z"></path><path class="st2" d="M339.5,379.9c-0.5,0.4-0.9,0.5-1.4,0.5c-0.7,0-1.4-0.3-1.9-0.8s-0.7-1.2-0.7-2.3V374h1.6v3.2 c0,0.8,0.1,1.1,0.3,1.4c0.2,0.2,0.5,0.3,0.8,0.3c0.4,0,0.8-0.2,1-0.4c0.2-0.3,0.3-0.7,0.3-1.4V374h1.6v6.2h-1.6L339.5,379.9 L339.5,379.9z"></path><path class="st2" d="M344.1,374.4c0.4-0.3,0.7-0.4,1.2-0.4c0.2,0,0.4,0,0.6,0v1.4c-0.3,0-0.4,0-0.6,0c-0.9,0-1.2,0.4-1.2,1.8v3 h-1.6V374h1.6V374.4z"></path><path class="st2" d="M351.3,380.2v-0.4c-0.6,0.4-1,0.6-1.7,0.6c-1.8,0-3.3-1.5-3.3-3.3s1.4-3.3,3.3-3.3c0.6,0,1.1,0.2,1.7,0.6 V374h1.6v6.2H351.3z M348,377.1c0,1.1,0.7,1.9,1.7,1.9s1.7-0.8,1.7-1.9s-0.7-1.9-1.7-1.9S348,376,348,377.1z"></path><path class="st2" d="M356.1,378.2c0,0.5,0.1,0.6,0.3,0.6c0.1,0,0.4,0,0.7-0.1v1.5c-0.4,0.1-0.7,0.2-0.9,0.2 c-1.1,0-1.7-0.8-1.7-2.1v-2.8h-0.6V374h0.6v-1.3l1.6-0.6v2h1v1.4h-1V378.2z"></path><path class="st2" d="M359.9,371.9c0,0.5-0.4,1-1,1s-1-0.4-1-1c0-0.5,0.4-1,1-1S359.9,371.3,359.9,371.9z M359.7,380.2h-1.6V374 h1.6V380.2z"></path><path class="st2" d="M367.4,377.1c0,1.9-1.4,3.3-3.3,3.3s-3.3-1.5-3.3-3.3s1.5-3.3,3.3-3.3C366,373.8,367.4,375.2,367.4,377.1z M362.4,377.1c0,1.1,0.7,1.9,1.7,1.9s1.7-0.8,1.7-1.9s-0.7-1.9-1.7-1.9S362.4,376,362.4,377.1z"></path><path class="st2" d="M370.1,374.3c0.5-0.4,0.9-0.5,1.4-0.5c0.7,0,1.4,0.3,1.9,0.8s0.7,1.2,0.7,2.3v3.3h-1.6V377 c0-0.8-0.1-1.1-0.3-1.4c-0.2-0.2-0.5-0.3-0.8-0.3c-0.4,0-0.8,0.2-1,0.4c-0.2,0.3-0.3,0.6-0.3,1.4v3.1h-1.6V374h1.6L370.1,374.3 L370.1,374.3z"></path><path class="st2" d="M381.7,374v1.4h-1.1v4.8H379v-4.8h-0.6V374h0.6v-1.1c0-1.4,0.6-2.1,1.8-2.1c0.3,0,0.6,0,0.9,0.1v1.4 c-0.3-0.1-0.4-0.1-0.6-0.1c-0.4,0-0.5,0.2-0.5,0.7v1.1H381.7z"></path><path class="st2" d="M384.3,371.9c0,0.5-0.4,1-1,1s-1-0.4-1-1c0-0.5,0.4-1,1-1S384.3,371.3,384.3,371.9z M384.1,380.2h-1.6V374 h1.6V380.2z"></path><path class="st2" d="M385.6,380.2v-9.3h1.6v9.3H385.6z"></path><path class="st2" d="M390,377.7c0.2,0.8,0.8,1.3,1.6,1.3c0.5,0,1-0.2,1.3-0.5c0.1-0.1,0.2-0.2,0.3-0.4l1.3,0.6 c-0.4,0.7-0.5,0.8-0.9,1.1c-0.6,0.4-1.3,0.7-2.1,0.7c-1.8,0-3.2-1.4-3.2-3.3c0-1.8,1.4-3.3,3.1-3.3c1.4,0,2.5,0.9,2.9,2.2 c0.1,0.4,0.2,0.8,0.2,1.2c0,0.1,0,0.2,0,0.4L390,377.7L390,377.7z M393,376.5c-0.3-0.9-0.8-1.3-1.5-1.3c-0.8,0-1.3,0.5-1.5,1.3 H393z"></path><path class="st2" d="M398.6,375.9c-0.4-0.5-0.6-0.7-0.9-0.7c-0.4,0-0.6,0.2-0.6,0.5s0.1,0.3,0.8,0.6l0.6,0.2 c1.1,0.4,1.5,0.9,1.5,1.8c0,1.2-1,2.1-2.3,2.1c-0.8,0-1.5-0.3-1.9-1c-0.2-0.3-0.3-0.5-0.5-1l1.3-0.5c0.4,0.8,0.6,1,1.1,1 c0.4,0,0.7-0.3,0.7-0.6c0-0.3-0.1-0.4-0.8-0.6l-0.6-0.2c-0.9-0.4-1.4-0.9-1.4-1.7c0-1.1,0.9-2,2.2-2c1,0,1.6,0.4,2.2,1.5 L398.6,375.9z"></path></g></g><g><g><line class="st1" x1="137.3" y1="82.2" x2="278.1" y2="82.2"></line><g><polygon class="st2" points="270.4,92.4 274.7,82.2 270.4,72 294.6,82.2"></polygon></g></g></g><g><g><path class="st2" d="M130.8,48.6c-0.4-0.4-0.6-0.6-0.8-0.8c-0.5-0.3-1.1-0.5-1.7-0.5c-1.8,0-3.2,1.4-3.2,3.3 c0,1.8,1.4,3.3,3.2,3.3c0.7,0,1.3-0.2,1.8-0.6c0.2-0.2,0.3-0.2,0.8-0.7l1.2,1.1c-1.3,1.3-2.3,1.8-3.7,1.8c-2.7,0-4.9-2.2-4.9-4.9 s2.2-4.9,4.9-4.9c1.4,0,2.5,0.5,3.7,1.7L130.8,48.6z"></path><path class="st2" d="M139.1,52.2c0,1.9-1.4,3.3-3.3,3.3c-1.9,0-3.3-1.5-3.3-3.3s1.5-3.3,3.3-3.3 C137.7,48.9,139.1,50.4,139.1,52.2z M134.2,52.2c0,1.1,0.7,1.9,1.7,1.9s1.7-0.8,1.7-1.9c0-1.1-0.7-1.9-1.7-1.9 C134.8,50.3,134.2,51.1,134.2,52.2z"></path><path class="st2" d="M141.8,49.4c0.5-0.4,0.9-0.5,1.4-0.5c0.7,0,1.4,0.3,1.9,0.8s0.7,1.2,0.7,2.3v3.3h-1.6v-3.2 c0-0.8-0.1-1.1-0.3-1.4c-0.2-0.2-0.5-0.3-0.8-0.3c-0.4,0-0.8,0.2-1,0.4c-0.2,0.3-0.3,0.6-0.3,1.4v3.1h-1.6v-6.2h1.6L141.8,49.4 L141.8,49.4z"></path><path class="st2" d="M149,49.4c0.5-0.4,0.9-0.5,1.4-0.5c0.7,0,1.4,0.3,1.9,0.8s0.7,1.2,0.7,2.3v3.3h-1.6v-3.2 c0-0.8-0.1-1.1-0.3-1.4c-0.2-0.2-0.5-0.3-0.8-0.3c-0.4,0-0.8,0.2-1,0.4c-0.2,0.3-0.3,0.6-0.3,1.4v3.1h-1.6v-6.2h1.6L149,49.4 L149,49.4z"></path><path class="st2" d="M155.7,52.8c0.2,0.8,0.8,1.3,1.6,1.3c0.5,0,1-0.2,1.3-0.5c0.1-0.1,0.2-0.2,0.3-0.4l1.3,0.6 c-0.4,0.7-0.5,0.8-0.9,1.1c-0.6,0.4-1.3,0.7-2.1,0.7c-1.8,0-3.2-1.4-3.2-3.3c0-1.8,1.4-3.3,3.1-3.3c1.4,0,2.5,0.9,2.9,2.2 c0.1,0.4,0.2,0.8,0.2,1.2c0,0.1,0,0.2,0,0.4H155.7z M158.7,51.6c-0.3-0.9-0.8-1.3-1.5-1.3c-0.8,0-1.3,0.5-1.5,1.3H158.7z"></path><path class="st2" d="M165.9,51.2c-0.7-0.7-1-0.9-1.6-0.9c-1,0-1.7,0.7-1.7,1.9c0,1.1,0.7,1.9,1.7,1.9c0.6,0,1-0.2,1.6-0.9l1.1,1 c-0.9,1-1.6,1.3-2.7,1.3c-1.9,0-3.3-1.4-3.3-3.3c0-1.9,1.4-3.3,3.3-3.3c1,0,1.8,0.4,2.6,1.3L165.9,51.2z"></path><path class="st2" d="M169.7,53.3c0,0.5,0.1,0.6,0.3,0.6c0.1,0,0.4,0,0.7-0.1v1.5c-0.4,0.1-0.7,0.2-0.9,0.2 c-1.1,0-1.7-0.8-1.7-2.1v-2.8h-0.6v-1.4h0.6v-1.3l1.6-0.6v2h1v1.4h-1L169.7,53.3L169.7,53.3z"></path><path class="st2" d="M179.5,48.4c-0.6-0.9-0.9-1.1-1.5-1.1c-0.8,0-1.3,0.5-1.3,1.2c0,0.4,0.4,0.8,1.1,1.1l0.9,0.3 c1.6,0.6,2.3,1.4,2.3,2.6c0,1.7-1.4,3-3.2,3c-1.2,0-2.3-0.7-2.8-1.8c-0.1-0.3-0.1-0.3-0.3-1.1l1.6-0.4c0.2,0.7,0.2,0.7,0.3,0.9 c0.3,0.5,0.7,0.8,1.3,0.8c0.8,0,1.5-0.6,1.5-1.4c0-0.5-0.3-0.9-1.3-1.3l-0.8-0.3c-1.4-0.5-2.1-1.4-2.1-2.5c0-1.5,1.3-2.7,3-2.7 c0.9,0,1.6,0.3,2.2,0.9c0.2,0.2,0.3,0.4,0.7,0.9L179.5,48.4z"></path><path class="st2" d="M189.3,48.6c-0.4-0.4-0.6-0.6-0.8-0.8c-0.5-0.3-1.1-0.5-1.7-0.5c-1.8,0-3.2,1.4-3.2,3.3 c0,1.8,1.4,3.3,3.2,3.3c0.7,0,1.3-0.2,1.8-0.6c0.2-0.2,0.3-0.2,0.8-0.7l1.2,1.1c-1.3,1.3-2.3,1.8-3.7,1.8c-2.7,0-4.9-2.2-4.9-4.9 s2.2-4.9,4.9-4.9c1.4,0,2.5,0.5,3.7,1.7L189.3,48.6z"></path><path class="st2" d="M191.8,46h1.6l3.1,5.5l3.1-5.5h1.6v9.3h-1.7v-6.1l-2.3,4.2h-1.3l-2.3-4.2v6.1h-1.7V46H191.8z"></path><path class="st2" d="M207.7,53.3c0,0.5,0.1,0.6,0.3,0.6c0.1,0,0.4,0,0.7-0.1v1.5c-0.4,0.1-0.7,0.2-0.9,0.2 c-1.1,0-1.7-0.8-1.7-2.1v-2.8h-0.6v-1.4h0.6v-1.3l1.6-0.6v2h1v1.4h-1L207.7,53.3L207.7,53.3z"></path><path class="st2" d="M215.9,52.2c0,1.9-1.4,3.3-3.3,3.3c-1.9,0-3.3-1.5-3.3-3.3s1.5-3.3,3.3-3.3S215.9,50.4,215.9,52.2z M210.9,52.2c0,1.1,0.7,1.9,1.7,1.9s1.7-0.8,1.7-1.9c0-1.1-0.7-1.9-1.7-1.9C211.6,50.3,210.9,51.1,210.9,52.2z"></path><path class="st2" d="M229.2,50.2V51c0,2.7-1.7,4.5-4.3,4.5c-2.8,0-5-2.2-5-4.9s2.2-4.9,4.9-4.9c1,0,1.9,0.3,2.7,0.9 c0.3,0.2,0.4,0.3,1,0.9l-1.2,1.1c-0.5-0.6-0.6-0.6-0.8-0.8c-0.5-0.3-1.1-0.5-1.7-0.5c-1.8,0-3.2,1.4-3.2,3.3 c0,1.8,1.4,3.3,3.2,3.3c1,0,1.8-0.4,2.3-1.2c0.2-0.3,0.2-0.5,0.3-1h-2.6v-1.5C224.8,50.2,229.2,50.2,229.2,50.2z"></path><path class="st2" d="M236.6,52.2c0,1.9-1.4,3.3-3.3,3.3c-1.9,0-3.3-1.5-3.3-3.3s1.5-3.3,3.3-3.3 C235.2,48.9,236.6,50.4,236.6,52.2z M231.7,52.2c0,1.1,0.7,1.9,1.7,1.9s1.7-0.8,1.7-1.9c0-1.1-0.7-1.9-1.7-1.9 C232.3,50.3,231.7,51.1,231.7,52.2z"></path><path class="st2" d="M244.9,48.6c-0.4-0.4-0.6-0.6-0.8-0.8c-0.5-0.3-1.1-0.5-1.7-0.5c-1.8,0-3.2,1.4-3.2,3.3 c0,1.8,1.4,3.3,3.2,3.3c0.7,0,1.3-0.2,1.8-0.6c0.2-0.2,0.3-0.2,0.8-0.7l1.2,1.1c-1.3,1.3-2.3,1.8-3.7,1.8c-2.7,0-4.9-2.2-4.9-4.9 s2.2-4.9,4.9-4.9c1.4,0,2.5,0.5,3.7,1.7L244.9,48.6z"></path><path class="st2" d="M249.5,46c3.1,0,5.1,1.8,5.1,4.7s-2,4.7-5.1,4.7h-2.1V46H249.5z M249,53.8h0.5c2.1,0,3.4-1.2,3.4-3.1 c0-1.9-1.3-3.1-3.4-3.1H249V53.8z"></path><path class="st2" d="M262,51c-0.4-0.5-0.6-0.7-0.9-0.7c-0.4,0-0.6,0.2-0.6,0.5s0.1,0.3,0.8,0.6l0.6,0.2c1.1,0.4,1.5,0.9,1.5,1.8 c0,1.2-1,2.1-2.3,2.1c-0.8,0-1.5-0.3-1.9-1c-0.2-0.3-0.3-0.5-0.5-1L260,53c0.4,0.8,0.6,1,1.1,1c0.4,0,0.7-0.3,0.7-0.6 s-0.1-0.4-0.8-0.6l-0.6-0.2c-0.9-0.4-1.4-0.9-1.4-1.7c0-1.1,0.9-2,2.2-2c1,0,1.6,0.4,2.2,1.5L262,51z"></path><path class="st2" d="M265.6,52.8c0.2,0.8,0.8,1.3,1.6,1.3c0.5,0,1-0.2,1.3-0.5c0.1-0.1,0.2-0.2,0.3-0.4l1.3,0.6 c-0.4,0.7-0.5,0.8-0.9,1.1c-0.6,0.4-1.3,0.7-2.1,0.7c-1.8,0-3.2-1.4-3.2-3.3c0-1.8,1.4-3.3,3.1-3.3c1.4,0,2.5,0.9,2.9,2.2 c0.1,0.4,0.2,0.8,0.2,1.2c0,0.1,0,0.2,0,0.4H265.6z M268.6,51.6c-0.3-0.9-0.8-1.3-1.5-1.3c-0.8,0-1.3,0.5-1.5,1.3H268.6z"></path><path class="st2" d="M272.8,49.5c0.4-0.3,0.7-0.4,1.2-0.4c0.2,0,0.4,0,0.6,0v1.4c-0.3,0-0.4,0-0.6,0c-0.9,0-1.2,0.4-1.2,1.8v3 h-1.6v-6.2h1.6V49.5z"></path><path class="st2" d="M278.4,53l1.7-3.9h1.7l-2.7,6.2h-1.4l-2.7-6.2h1.7L278.4,53z"></path><path class="st2" d="M283.4,52.8c0.2,0.8,0.8,1.3,1.6,1.3c0.5,0,1-0.2,1.3-0.5c0.1-0.1,0.2-0.2,0.3-0.4l1.3,0.6 c-0.4,0.7-0.5,0.8-0.9,1.1c-0.6,0.4-1.3,0.7-2.1,0.7c-1.8,0-3.2-1.4-3.2-3.3c0-1.8,1.4-3.3,3.1-3.3c1.4,0,2.5,0.9,2.9,2.2 c0.1,0.4,0.2,0.8,0.2,1.2c0,0.1,0,0.2,0,0.4H283.4z M286.4,51.6c-0.3-0.9-0.8-1.3-1.5-1.3c-0.8,0-1.3,0.5-1.5,1.3H286.4z"></path><path class="st2" d="M290.6,49.5c0.4-0.3,0.7-0.4,1.2-0.4c0.2,0,0.4,0,0.6,0v1.4c-0.3,0-0.4,0-0.6,0c-0.9,0-1.2,0.4-1.2,1.8v3 H289v-6.2h1.6V49.5z"></path></g></g><g><g><path class="st2" d="M140.1,113.4v0.8c0,2.7-1.7,4.5-4.3,4.5c-2.8,0-5-2.2-5-4.9c0-2.7,2.2-4.9,4.9-4.9c1,0,1.9,0.3,2.7,0.9 c0.3,0.2,0.4,0.3,1,0.9l-1.2,1.1c-0.5-0.6-0.6-0.6-0.8-0.8c-0.5-0.3-1.1-0.5-1.7-0.5c-1.8,0-3.2,1.4-3.2,3.3 c0,1.8,1.4,3.3,3.2,3.3c1,0,1.8-0.4,2.3-1.2c0.2-0.3,0.2-0.5,0.3-1h-2.6v-1.5C135.7,113.4,140.1,113.4,140.1,113.4z"></path><path class="st2" d="M147.6,115.4c0,1.9-1.4,3.3-3.3,3.3c-1.9,0-3.3-1.5-3.3-3.3s1.5-3.3,3.3-3.3S147.6,113.6,147.6,115.4z M142.6,115.4c0,1.1,0.7,1.9,1.7,1.9s1.7-0.8,1.7-1.9s-0.7-1.9-1.7-1.9C143.3,113.6,142.6,114.3,142.6,115.4z"></path><path class="st2" d="M155.8,111.9c-0.4-0.4-0.6-0.6-0.8-0.8c-0.5-0.3-1.1-0.5-1.7-0.5c-1.8,0-3.2,1.4-3.2,3.3 c0,1.8,1.4,3.3,3.2,3.3c0.7,0,1.3-0.2,1.8-0.6c0.2-0.2,0.3-0.2,0.8-0.7l1.2,1.1c-1.3,1.3-2.3,1.8-3.7,1.8c-2.7,0-4.9-2.2-4.9-4.9 c0-2.7,2.2-4.9,4.9-4.9c1.4,0,2.5,0.5,3.7,1.7L155.8,111.9z"></path><path class="st2" d="M160.4,109.2c3.1,0,5.1,1.8,5.1,4.7c0,2.9-2,4.7-5.1,4.7h-2.1v-9.3L160.4,109.2L160.4,109.2z M159.9,117h0.5 c2.1,0,3.4-1.2,3.4-3.1s-1.3-3.1-3.4-3.1h-0.5V117z"></path><path class="st2" d="M171.9,115.9l1.3-3.6h1.3l1.3,3.6l1.2-3.6h1.7l-2.3,6.2H175l-1.2-3.5l-1.3,3.5h-1.3l-2.3-6.2h1.7 L171.9,115.9z"></path><path class="st2" d="M183.6,118.6v-0.4c-0.6,0.4-1,0.6-1.7,0.6c-1.8,0-3.3-1.5-3.3-3.3s1.4-3.3,3.3-3.3c0.6,0,1.1,0.2,1.7,0.6 v-0.4h1.6v6.2L183.6,118.6L183.6,118.6z M180.2,115.4c0,1.1,0.7,1.9,1.7,1.9s1.7-0.8,1.7-1.9s-0.7-1.9-1.7-1.9 C180.9,113.6,180.2,114.3,180.2,115.4z"></path><path class="st2" d="M188.3,116.5c0,0.5,0.1,0.6,0.3,0.6c0.1,0,0.4,0,0.7-0.1v1.5c-0.4,0.1-0.7,0.2-0.9,0.2 c-1.1,0-1.7-0.8-1.7-2.1v-2.8h-0.6v-1.4h0.6V111l1.6-0.6v2h1v1.4h-1L188.3,116.5L188.3,116.5z"></path><path class="st2" d="M194.8,114.5c-0.7-0.7-1-0.9-1.6-0.9c-1,0-1.7,0.7-1.7,1.9c0,1.1,0.7,1.9,1.7,1.9c0.6,0,1-0.2,1.6-0.9l1.1,1 c-0.9,1-1.6,1.3-2.7,1.3c-1.9,0-3.3-1.4-3.3-3.3s1.4-3.3,3.3-3.3c1,0,1.8,0.4,2.6,1.3L194.8,114.5z"></path><path class="st2" d="M198.3,112.7c0.5-0.4,0.9-0.5,1.4-0.5c0.7,0,1.4,0.3,1.9,0.8s0.7,1.2,0.7,2.2v3.3h-1.6v-3.2 c0-1.3-0.3-1.7-1.1-1.7c-0.4,0-0.8,0.2-1,0.4c-0.2,0.3-0.3,0.6-0.3,1.4v3.1h-1.6v-9.3h1.6L198.3,112.7L198.3,112.7z"></path><path class="st2" d="M205.1,116c0.2,0.8,0.8,1.3,1.6,1.3c0.5,0,1-0.2,1.3-0.5c0.1-0.1,0.2-0.2,0.3-0.4l1.3,0.6 c-0.4,0.7-0.5,0.8-0.9,1.1c-0.6,0.4-1.3,0.7-2.1,0.7c-1.8,0-3.2-1.4-3.2-3.3c0-1.8,1.4-3.3,3.1-3.3c1.4,0,2.5,0.9,2.9,2.2 c0.1,0.4,0.2,0.8,0.2,1.2c0,0.1,0,0.2,0,0.4L205.1,116L205.1,116z M208,114.9c-0.3-0.9-0.8-1.3-1.5-1.3c-0.8,0-1.3,0.5-1.5,1.3 H208z"></path><path class="st2" d="M213.7,114.2c-0.4-0.5-0.6-0.7-0.9-0.7c-0.4,0-0.6,0.2-0.6,0.5s0.1,0.3,0.8,0.6l0.6,0.2 c1.1,0.4,1.5,0.9,1.5,1.8c0,1.2-1,2.1-2.3,2.1c-0.8,0-1.5-0.3-1.9-1c-0.2-0.3-0.3-0.5-0.5-1l1.3-0.5c0.4,0.8,0.6,1,1.1,1 c0.4,0,0.7-0.3,0.7-0.6c0-0.3-0.1-0.4-0.8-0.6l-0.6-0.2c-0.9-0.4-1.4-0.9-1.4-1.7c0-1.1,0.9-2,2.2-2c1,0,1.6,0.4,2.2,1.5 L213.7,114.2z"></path><path class="st2" d="M222.1,112.3v1.4H221v4.8h-1.6v-4.8h-0.6v-1.4h0.6v-1.1c0-1.4,0.6-2.1,1.8-2.1c0.3,0,0.6,0,0.9,0.1v1.4 c-0.3-0.1-0.4-0.1-0.6-0.1c-0.4,0-0.5,0.2-0.5,0.7v1.1H222.1z"></path><path class="st2" d="M229.1,115.4c0,1.9-1.4,3.3-3.3,3.3c-1.9,0-3.3-1.5-3.3-3.3s1.5-3.3,3.3-3.3 C227.7,112.1,229.1,113.6,229.1,115.4z M224.1,115.4c0,1.1,0.7,1.9,1.7,1.9s1.7-0.8,1.7-1.9s-0.7-1.9-1.7-1.9 C224.8,113.6,224.1,114.3,224.1,115.4z"></path><path class="st2" d="M231.8,112.8c0.4-0.3,0.7-0.4,1.2-0.4c0.2,0,0.4,0,0.6,0v1.4c-0.3,0-0.4,0-0.6,0c-0.9,0-1.2,0.4-1.2,1.8v3 h-1.6v-6.2h1.6V112.8z"></path><path class="st2" d="M242.2,114.5c-0.7-0.7-1-0.9-1.6-0.9c-1,0-1.7,0.7-1.7,1.9c0,1.1,0.7,1.9,1.7,1.9c0.6,0,1-0.2,1.6-0.9l1.1,1 c-0.9,1-1.6,1.3-2.7,1.3c-1.9,0-3.3-1.4-3.3-3.3s1.4-3.3,3.3-3.3c1,0,1.8,0.4,2.6,1.3L242.2,114.5z"></path><path class="st2" d="M245.7,112.7c0.5-0.4,0.9-0.5,1.4-0.5c0.7,0,1.4,0.3,1.9,0.8s0.7,1.2,0.7,2.2v3.3h-1.6v-3.2 c0-1.3-0.3-1.7-1.1-1.7c-0.4,0-0.8,0.2-1,0.4c-0.2,0.3-0.3,0.6-0.3,1.4v3.1h-1.6v-9.3h1.6L245.7,112.7L245.7,112.7z"></path><path class="st2" d="M255.8,118.6v-0.4c-0.6,0.4-1,0.6-1.7,0.6c-1.8,0-3.3-1.5-3.3-3.3s1.4-3.3,3.3-3.3c0.6,0,1.1,0.2,1.7,0.6 v-0.4h1.6v6.2L255.8,118.6L255.8,118.6z M252.5,115.4c0,1.1,0.7,1.9,1.7,1.9s1.7-0.8,1.7-1.9s-0.7-1.9-1.7-1.9 C253.2,113.6,252.5,114.3,252.5,115.4z"></path><path class="st2" d="M260.5,112.7c0.5-0.4,0.9-0.5,1.4-0.5c0.7,0,1.4,0.3,1.9,0.8s0.7,1.2,0.7,2.3v3.3h-1.6v-3.2 c0-0.8-0.1-1.1-0.3-1.4c-0.2-0.2-0.5-0.3-0.8-0.3c-0.4,0-0.8,0.2-1,0.4c-0.2,0.3-0.3,0.6-0.3,1.4v3.1h-1.6v-6.2h1.6L260.5,112.7 L260.5,112.7z"></path><path class="st2" d="M270.5,118.2c-0.6,0.5-1.1,0.6-1.7,0.6c-1.8,0-3.2-1.5-3.2-3.3s1.4-3.3,3.2-3.3c0.6,0,1.1,0.1,1.7,0.6v-0.4 h1.6v6.3c0,2-1.3,3.3-3.3,3.3c-0.8,0-1.6-0.3-2.3-0.8c-0.2-0.2-0.3-0.3-0.8-0.8l1-1l0.3,0.3c0.6,0.7,1,0.9,1.8,0.9 c1.1,0,1.8-0.7,1.8-1.9v-0.5H270.5z M267.2,115.4c0,1.1,0.7,1.9,1.7,1.9s1.7-0.8,1.7-1.9s-0.7-1.9-1.7-1.9 C267.8,113.6,267.2,114.3,267.2,115.4z"></path><path class="st2" d="M274.8,116c0.2,0.8,0.8,1.3,1.6,1.3c0.5,0,1-0.2,1.3-0.5c0.1-0.1,0.2-0.2,0.3-0.4l1.3,0.6 c-0.4,0.7-0.5,0.8-0.9,1.1c-0.6,0.4-1.3,0.7-2.1,0.7c-1.8,0-3.2-1.4-3.2-3.3c0-1.8,1.4-3.3,3.1-3.3c1.4,0,2.5,0.9,2.9,2.2 c0.1,0.4,0.2,0.8,0.2,1.2c0,0.1,0,0.2,0,0.4L274.8,116L274.8,116z M277.8,114.9c-0.3-0.9-0.8-1.3-1.5-1.3c-0.8,0-1.3,0.5-1.5,1.3 H277.8z"></path><path class="st2" d="M283.5,114.2c-0.4-0.5-0.6-0.7-0.9-0.7c-0.4,0-0.6,0.2-0.6,0.5s0.1,0.3,0.8,0.6l0.6,0.2 c1.1,0.4,1.5,0.9,1.5,1.8c0,1.2-1,2.1-2.3,2.1c-0.8,0-1.5-0.3-1.9-1c-0.2-0.3-0.3-0.5-0.5-1l1.3-0.5c0.4,0.8,0.6,1,1.1,1 c0.4,0,0.7-0.3,0.7-0.6c0-0.3-0.1-0.4-0.8-0.6l-0.6-0.2c-0.9-0.4-1.4-0.9-1.4-1.7c0-1.1,0.9-2,2.2-2c1,0,1.6,0.4,2.2,1.5 L283.5,114.2z"></path></g></g><g><g><rect x="57.3" y="258.5" class="st8" width="54.9" height="39.7"></rect><polygon class="st8" points="120.7,309.1 48.8,309.1 57.3,298.6 112.2,298.6"></polygon><rect x="63.9" y="265.1" class="st2" width="41.6" height="26.4"></rect><g><path class="st9" d="M67.2,280.9h1.9v-3.7c0-0.3,0-0.7,0-0.7l0,0c0,0-0.1,0.2-0.3,0.5l-0.5,0.5l-1.2-1.3l2.4-2.2h1.9v7h1.9v1.8 h-5.9v-1.9H67.2z"></path><path class="st9" d="M74,278.3c0-2.5,0.8-4.5,3.3-4.5s3.3,2,3.3,4.5s-0.8,4.6-3.3,4.6S74,280.8,74,278.3z M78.4,278.3 c0-1.4-0.2-2.6-1.1-2.6s-1.1,1.1-1.1,2.6c0,1.4,0.2,2.6,1.1,2.6C78.1,280.9,78.4,279.7,78.4,278.3z"></path><path class="st9" d="M81.9,280.9h1.9v-3.7c0-0.3,0-0.7,0-0.7l0,0c0,0-0.1,0.2-0.3,0.5l-0.5,0.5l-1.2-1.3l2.4-2.2h1.9v7H88v1.8 h-5.9v-1.9H81.9z"></path><path class="st9" d="M88.7,278.3c0-2.5,0.8-4.5,3.3-4.5s3.3,2,3.3,4.5s-0.8,4.6-3.3,4.6S88.7,280.8,88.7,278.3z M93.1,278.3 c0-1.4-0.2-2.6-1.1-2.6s-1.1,1.1-1.1,2.6c0,1.4,0.2,2.6,1.1,2.6S93.1,279.7,93.1,278.3z"></path><path class="st9" d="M96.7,280.9h1.9v-3.7c0-0.3,0-0.7,0-0.7l0,0c0,0-0.1,0.2-0.3,0.5l-0.5,0.5l-1.2-1.3L99,274h1.9v7h1.9v1.8 h-5.9v-1.9H96.7z"></path></g></g><g><g><circle class="st6" cx="48.8" cy="258.3" r="22.4"></circle><path class="st5" d="M71.1,300.6c0,7.7-1.4,14.9-3.8,20.8c-0.2,0.5-0.6,0.8-1.1,0.8H31.3c-0.5,0-0.9-0.3-1.1-0.8 c-2.4-5.9-3.9-13.1-3.9-20.8c0-5.7,0.8-11,2.1-15.8c0.3-1,1.3-1.3,1.9-0.6c4,4.4,9.2,7.4,14.8,8.3c0.4,0.1,0.8,0.4,1,0.9 l1.4,4.9c0.4,1.3,1.9,1.3,2.2,0l1.4-4.8c0.1-0.5,0.5-0.9,1-0.9c5.7-0.9,10.8-3.9,14.8-8.3c0.6-0.7,1.6-0.4,1.9,0.6 C70.4,289.6,71.1,295,71.1,300.6z"></path></g></g></g><path class="st6" d="M95.9,178.2H45.2c-6.6,0-12,5.4-12,12l0,0c0,6.6,5.4,12,12,12H96c6.6,0,12-5.4,12-12l0,0 C107.9,183.5,102.6,178.2,95.9,178.2z"></path><g><path class="st2" d="M53.9,188.7c-0.3-0.3-0.4-0.4-0.6-0.6c-0.4-0.3-0.8-0.4-1.3-0.4c-1.4,0-2.4,1.1-2.4,2.5s1.1,2.5,2.4,2.5 c0.5,0,1-0.2,1.4-0.5c0.2-0.1,0.2-0.1,0.6-0.5l0.9,0.8c-0.9,1-1.7,1.3-2.8,1.3c-2.1,0-3.7-1.6-3.7-3.7c0-2,1.7-3.7,3.7-3.7 c1.1,0,1.9,0.4,2.8,1.3L53.9,188.7z"></path><path class="st2" d="M59.9,189.5v-2.9h1.2v7h-1.2v-3H57v3h-1.2v-7H57v2.9H59.9z"></path><path class="st2" d="M63.8,187.8v1.7h2.4v1.2h-2.4v1.8h2.8v1.2h-4v-7h3.9v1.1H63.8z"></path><path class="st2" d="M72.8,188.7c-0.3-0.3-0.4-0.4-0.6-0.6c-0.4-0.3-0.8-0.4-1.3-0.4c-1.4,0-2.4,1.1-2.4,2.5s1.1,2.5,2.4,2.5 c0.5,0,1-0.2,1.4-0.5c0.2-0.1,0.2-0.1,0.6-0.5l0.9,0.8c-0.9,1-1.7,1.3-2.8,1.3c-2.1,0-3.7-1.6-3.7-3.7c0-2,1.7-3.7,3.7-3.7 c1.1,0,1.9,0.4,2.8,1.3L72.8,188.7z"></path><path class="st2" d="M80.2,193.7h-1.5l-2.1-3.1l-0.7,0.7v2.4h-1.2v-7h1.2v3l2.7-3h1.6l-2.8,3L80.2,193.7z"></path><path class="st2" d="M82.7,190.7v1.1h-2.3v-1.1H82.7z"></path><path class="st2" d="M84.9,193.7h-1.2v-7h1.2V193.7z"></path><path class="st2" d="M86.4,186.7h1.1l3.7,4.9v-4.9h1.2v7h-1.1l-3.7-4.9v4.9h-1.2V186.7z"></path></g></g></svg>
